<svg xmlns="http://www.w3.org/2000/svg" viewBox="0 0 11.21 13.61"><defs><style>.cls-1{fill:#fff;}</style></defs><title>Asset 11</title><g id="Layer_2" data-name="Layer 2"><g id="Layer_1-2" data-name="Layer 1"><path class="cls-1" d="M9.2,7.2a2,2,0,0,0-.4,4v.44a1.2,1.2,0,0,1-1.2,1.21H6A1.21,1.21,0,0,1,4.8,11.6V10.28a.77.77,0,0,0,.4-.68V7.92A4.09,4.09,0,0,0,8.8,4a3.78,3.78,0,0,0-.88-2.38A1.16,1.16,0,0,0,8,1.2,1.2,1.2,0,1,0,6.8,2.4a1.16,1.16,0,0,0,.59-.16A2.93,2.93,0,0,1,8,4,3.28,3.28,0,0,1,5.18,7.11a.78.78,0,0,0-1.56,0A3.29,3.29,0,0,1,.8,4a2.93,2.93,0,0,1,.61-1.76,1.19,1.19,0,0,0,1.79-1,1.2,1.2,0,0,0-2.4,0,1.16,1.16,0,0,0,.08.42A3.78,3.78,0,0,0,0,4,4.1,4.1,0,0,0,3.6,7.92V9.6a.79.79,0,0,0,.4.68V11.6a2,2,0,0,0,2,2H7.6a2,2,0,0,0,2-2v-.44a2,2,0,0,0-.4-4m0,2.4a.4.4,0,1,1,0-.8.4.4,0,1,1,0,.8"/></g></g></svg>