<svg xmlns="http://www.w3.org/2000/svg" viewBox="0 0 15.81 13.72"><defs><style>.cls-1{fill:#fff;}</style></defs><title>Asset 10</title><g id="Layer_2" data-name="Layer 2"><g id="Layer_1-2" data-name="Layer 1"><path class="cls-1" d="M3.24,4.17H0v9.55H3.24Zm-1.1,6.25h-1V9.5h1Zm0-2.08h-1V7.41h1Zm-1-3h1v.92h-1Z"/><path class="cls-1" d="M12.56,13.72h3.25V4.17H12.56Zm1.1-8.39h1.05v.92H13.66Zm0,2.08h1.05v.93H13.66Zm1.05,3H13.66V9.5h1.05Z"/><path class="cls-1" d="M4.17,13.72H5.36V11.58h5.09v2.14h1.19V0H4.17Zm4.26-3.3h-1V9.5h1Zm0-2.08h-1V7.41h1Zm0-2.09h-1V5.33h1Zm2.08,4.17h-1V9.5h1Zm0-2.08h-1V7.41h1Zm0-2.09h-1V5.33h1Zm-4.17-4h1.1V1.1h.93V2.2h1.1v.93H8.37v1.1H7.44V3.13H6.34Zm-1,3.13h1v.92h-1Zm0,2.08h1v.93h-1Zm0,2.09h1v.92h-1Z"/></g></g></svg>