<svg xmlns="http://www.w3.org/2000/svg" viewBox="0 0 25 25"><defs><style>.cls-1{fill:#48a9d3;}</style></defs><title>Asset 6</title><g id="Layer_2" data-name="Layer 2"><g id="Layer_1-2" data-name="Layer 1"><path class="cls-1" d="M12.5,1.67A10.83,10.83,0,1,1,1.67,12.5,10.84,10.84,0,0,1,12.5,1.67M12.5,0A12.5,12.5,0,1,0,25,12.5,12.5,12.5,0,0,0,12.5,0"/><path class="cls-1" d="M17.41,16.5l-1.15.6c0-.06-.17-.42-.47-1.1s-.68-1.56-1.17-2.62H10.25L9,16c-.28.63-.43,1-.46,1.06l-1-.54c.13-.25.65-1.38,1.58-3.38s1.89-4.11,2.89-6.31h1q1.47,3.3,2.9,6.41c.95,2.07,1.45,3.14,1.48,3.22M14.2,12.43l-.82-1.89-.92-2h0c-.24.55-.54,1.21-.89,2s-.64,1.44-.87,1.94H14.2Z"/></g></g></svg>