<svg xmlns="http://www.w3.org/2000/svg" viewBox="0 0 900 91.5"><defs><style>.cls-1{fill:#48a9d3;}.cls-2{fill:#fff;}</style></defs><g id="Layer_2" data-name="Layer 2"><g id="レイヤー_2" data-name="レイヤー 2"><path class="cls-1" d="M883.81,0H16.19A16.15,16.15,0,0,0,0,16.11v40A16.15,16.15,0,0,0,16.19,72.21H428l21.5,19.29L471,72.21H883.81A16.15,16.15,0,0,0,900,56.1v-40A16.15,16.15,0,0,0,883.81,0Z"/><path class="cls-2" d="M290.27,25.31a.94.94,0,0,1,1,.75,1.41,1.41,0,0,1,1.06-.44H299a3,3,0,0,1,1.93.47,2.5,2.5,0,0,1,.7,1.84,5,5,0,0,1-1.33,2.92c-.54.67-1.09,1.29-1.66,1.87.79.48,1.63,1,2.49,1.43a1.48,1.48,0,0,1,.7,1.22,1.72,1.72,0,0,1-.57,1.33,1.88,1.88,0,0,1-1.56.59,3.12,3.12,0,0,1-1.19-.28,7.19,7.19,0,0,1-1.22-.6c-.56-.37-1.1-.74-1.62-1.12a5.8,5.8,0,0,1-.52.34l-.46.31a2.25,2.25,0,0,1,.49.29,1.31,1.31,0,0,1,.65,1.06,1.48,1.48,0,0,1-.13.65.86.86,0,0,1,.26-.18,2.46,2.46,0,0,1,1.09-.26,1.24,1.24,0,0,1,.63.21c.15.17.3.35.44.54a27.07,27.07,0,0,0,3.12,3.62,1,1,0,0,1,.39.39c.14.1.2.31.2.62a.92.92,0,0,1-.36.76,1.66,1.66,0,0,1-1.17.47,1.5,1.5,0,0,1-.6-.11,7.73,7.73,0,0,1-1.92-1.59q-2.52.38-5.67.6h0v3.62a1.8,1.8,0,0,1-.49,1.45,1.88,1.88,0,0,1-1.43.5,2,2,0,0,1-1.45-.5,1.86,1.86,0,0,1-.5-1.45V43.27c-1.13.07-2.28.12-3.46.16a2.11,2.11,0,0,1,.94.44,1.43,1.43,0,0,1,.7,1.14,1.71,1.71,0,0,1-.31,1,15.57,15.57,0,0,1-4.27,2.08,3,3,0,0,1-1.32.26,1.82,1.82,0,0,1-1.82-1.85,1.38,1.38,0,0,1,.41-.7,11,11,0,0,0,1.2-.49,28.67,28.67,0,0,0,3.3-1.72,2.1,2.1,0,0,1,.5-.16c-1.27,0-2.56,0-3.88,0a1.39,1.39,0,0,1-1-.28,1.57,1.57,0,0,1-.36-1,1.14,1.14,0,0,1,.34-.92,1.55,1.55,0,0,1,1.09-.28c1.64,0,3.21,0,4.7-.05-1.23-.75-2.37-1.43-3.43-2.06a1.36,1.36,0,0,1-.47-.34.81.81,0,0,1-.2-.62,1.08,1.08,0,0,1,.41-.78,1.35,1.35,0,0,1,.81-.34,3,3,0,0,1,1.3.26l1.61.73a.87.87,0,0,1,.13-.15l.81-.47.93-.55h-5.69a1.63,1.63,0,0,1-1.85-1.85V27.23q0-1.92,1.74-1.92ZM285,28.56v-.91h-1.82c-.21,0-.31.09-.31.28v.63Zm-2.13,2.83h4.26v-.91h-4.26ZM285,34.25v-.93h-2.13V34c0,.14.17.21.52.21Zm4.27,5.82c.24-.19.46-.38.67-.57A34.78,34.78,0,0,0,292.48,37a2.06,2.06,0,0,1-1.36-.44.94.94,0,0,1-.23.44,4.78,4.78,0,0,1-1.07,1,7.67,7.67,0,0,1-1.95,1.25C288.39,39.51,288.84,39.8,289.23,40.07Zm1.58-5.66a1.51,1.51,0,0,1,.37-.47q.9-.46,1.74-1c-.35-.33-.7-.67-1-1a3,3,0,0,1-.91-1.79,1.31,1.31,0,0,1,.59-1.14,2.24,2.24,0,0,1,.55-.29,1.36,1.36,0,0,1-1.22-1.33,1.1,1.1,0,0,1-.62.24h-2v.91h.42c1.28,0,1.93.53,1.93,1.61V31.7c0,1.08-.65,1.62-1.93,1.62h-.42v.93h2A.91.91,0,0,1,290.81,34.41Zm2.37-5.65a3,3,0,0,1,.52.29c.73.64,1.49,1.26,2.29,1.85.22-.19.44-.38.65-.58.69-.55,1-1,1-1.27s-.11-.29-.32-.29Zm3.12,11.71q-.32-.49-.63-1a2,2,0,0,1-.23-.94.56.56,0,0,1,0-.2,14.82,14.82,0,0,1-2.24,2.34C294.3,40.6,295.33,40.53,296.3,40.47Zm-1.38,2.91a4.39,4.39,0,0,1,1.25.2,26,26,0,0,1,4.65,2.14,1.31,1.31,0,0,1,.49,1,1.86,1.86,0,0,1-.28,1,1.31,1.31,0,0,1-1.12.7,2.5,2.5,0,0,1-1-.18,4.52,4.52,0,0,1-.78-.36c-1.12-.66-2.38-1.32-3.77-2a1,1,0,0,1-.36-.23,1,1,0,0,1-.42-.91,1.35,1.35,0,0,1,.42-1A1,1,0,0,1,294.92,43.38Z"/><path class="cls-2" d="M309.09,41.76a2.48,2.48,0,0,1,1.56.47q.57.29.57,1.35a3.21,3.21,0,0,1-.18.89,12.72,12.72,0,0,1-1.12,2.78,1.38,1.38,0,0,1-1.32.7,2,2,0,0,1-1.28-.44,1.33,1.33,0,0,1-.65-1.17,1.87,1.87,0,0,1,.13-.65,17,17,0,0,0,1.09-2.81C308.15,42.14,308.55,41.76,309.09,41.76Zm5.2-17.26a2.78,2.78,0,0,1,1.61.47,1.72,1.72,0,0,1,.7,1h7.93c1.91,0,2.86.51,2.86,1.53,0,.51-.68,1.49-2.05,2.94h.42c1.76,0,2.65.78,2.65,2.34v5.9c0,1.49-.82,2.24-2.45,2.24H321.1a4.58,4.58,0,0,1,.5.7,1.73,1.73,0,0,1,.31.81,1.35,1.35,0,0,1-.47,1.14,2.07,2.07,0,0,1-1.46.6,2,2,0,0,1-1.24-.31.91.91,0,0,1-.39-.63q-.35-.54-1-1.38a.35.35,0,0,1,0-.13,2,2,0,0,1,.16-.72.45.45,0,0,0,0-.08H315.2a1.93,1.93,0,0,1,.67.34,1.52,1.52,0,0,1,.55,1.27v1.72a.54.54,0,0,0,.6.62h4.26a.65.65,0,0,0,.65-.31,3.54,3.54,0,0,0,.37-1.33c.19-.41.66-.65,1.43-.7a3,3,0,0,1,1.43.44v-.13a1.37,1.37,0,0,1,.75-1.24,2.63,2.63,0,0,1,1.28-.29.87.87,0,0,1,.7.31A6.8,6.8,0,0,1,329.21,43a7,7,0,0,1,1.64,3.33,1.16,1.16,0,0,1-.57,1.12,2.07,2.07,0,0,1-1.56.49,1.42,1.42,0,0,1-1.33-.91c-.59-1.16-1.18-2.22-1.77-3.17a1.79,1.79,0,0,1,0,.34,4.25,4.25,0,0,1-.73,2.57A3.77,3.77,0,0,1,322,48.06h-7.33a1.68,1.68,0,0,1-1.59-.94,5.65,5.65,0,0,1-.44-2.63V42.57a2,2,0,0,1,.47-1.27,1.31,1.31,0,0,1,.6-.34h-4c-.78-.05-1.18-.53-1.22-1.43s.44-1.38,1.22-1.43h14.12c.54,0,.81-.17.81-.49v-.53H309.92a1.31,1.31,0,0,1-1-.33,1.46,1.46,0,0,1-.33-1.09,1.33,1.33,0,0,1,.39-1.07,1.56,1.56,0,0,1,.93-.23h14.72V34c0-.41-.27-.66-.81-.72H309.71c-.78,0-1.18-.51-1.22-1.41v-.18a2,2,0,0,1-.57-.52,1.85,1.85,0,0,1-.55-1.22,1.22,1.22,0,0,1,.52-.94A27,27,0,0,0,313.07,25,2.1,2.1,0,0,1,314.29,24.5Zm-1.64,6H320q1.56-1.28,1.56-1.53c0-.06-.34-.08-1-.08h-5.87A23.37,23.37,0,0,1,312.65,30.48Z"/><path class="cls-2" d="M348.77,25.51c1.09,0,1.63.58,1.63,1.72V31.6q0,2.13-1.74,2.13h-3.17c0,.45-.08.86-.13,1.22h3.51a1.53,1.53,0,0,1,1.74,1.72v4.89a1.52,1.52,0,0,1-1.74,1.71h-3.56a1.51,1.51,0,0,1-1.72-1.71V40.31a1.3,1.3,0,0,1-1.12.55,3.18,3.18,0,0,1-.91-.11v2.34q0,.67,1,1a15.37,15.37,0,0,0,4.63.55c2.28,0,4.4,0,6.34-.08,1.72-.09,3.17-.13,4.37-.13A1.43,1.43,0,0,1,359.53,46a2.06,2.06,0,0,1-.42,1.51,1.85,1.85,0,0,1-1.4.52h-9.59c-3.61,0-6.16-.44-7.65-1.3a.7.7,0,0,0-.54-.31.68.68,0,0,0-.39.23,6.9,6.9,0,0,1-1.46,1,2.38,2.38,0,0,1-.88.34,1.12,1.12,0,0,1-.68-.21,5.2,5.2,0,0,1-1.12-1.43,2.22,2.22,0,0,1-.23-.91.86.86,0,0,1,.34-.68,13.36,13.36,0,0,0,1.95-1.48.68.68,0,0,0,.23-.47V37.29c0-.21-.1-.31-.29-.31H337a1.52,1.52,0,0,1-1.33-.49,1.81,1.81,0,0,1-.39-1.33,2,2,0,0,1,.42-1.4,1.63,1.63,0,0,1,1.3-.44h2c1.69,0,2.54.81,2.54,2.44V37a15.27,15.27,0,0,0,.58-2.16,25.93,25.93,0,0,0,.44-5.09V27.33c0-1.21.67-1.82,2-1.82Zm-11.47.81a2.13,2.13,0,0,1,.78.16,13.54,13.54,0,0,1,3,1.76,1.67,1.67,0,0,1,.73,1.33,2.26,2.26,0,0,1-.41,1.33,1.79,1.79,0,0,1-1.54.91,1.33,1.33,0,0,1-.62-.16,1.69,1.69,0,0,1-.52-.26c-.75-.52-1.57-1-2.47-1.53a.62.62,0,0,1-.24-.18,1.36,1.36,0,0,1-.59-1.23A2.13,2.13,0,0,1,336,27,1.52,1.52,0,0,1,337.3,26.32Zm8.32,4.47H347a.37.37,0,0,0,.41-.41V28.87c0-.28-.1-.42-.31-.42h-1.12c-.21,0-.31.14-.31.42v1.92Zm1.74,9.75c.33,0,.5-.17.5-.52V38.2a.44.44,0,0,0-.5-.49h-.52a.43.43,0,0,0-.49.49V40c0,.35.16.52.49.52Zm7.62-16a1.75,1.75,0,0,1,1.22.34,1.35,1.35,0,0,1,.5,1.09v.62h1.22a1.49,1.49,0,0,1,1,.32c.26.17.39.57.39,1.19a1.73,1.73,0,0,1-.24,1.07,1.14,1.14,0,0,1-.78.41l-.33,2.6a1.62,1.62,0,0,1,1.06.29c.26.15.39.53.39,1.12a1.78,1.78,0,0,1-.23,1.06,1.44,1.44,0,0,1-1.2.47H356.7v1.72h.91a1.58,1.58,0,0,1,1.11.31c.28.17.42.58.42,1.22a2,2,0,0,1-.23,1.12,1.57,1.57,0,0,1-1.3.49h-.91v2.24a1.43,1.43,0,0,1-.45,1.22,1.66,1.66,0,0,1-1.27.42,1.63,1.63,0,0,1-1.22-.42,1.54,1.54,0,0,1-.42-1.22V40h-1a1.59,1.59,0,0,1-1.09-.36,2,2,0,0,1,0-2.5,1.6,1.6,0,0,1,1.09-.28h1V35.16h-1.61a1.48,1.48,0,0,1-1-.36,1.44,1.44,0,0,1-.39-1.17,1.41,1.41,0,0,1,.39-1.15,1.65,1.65,0,0,1,1-.26H352l-.39-2.62a1.1,1.1,0,0,1-.52-.29,1.44,1.44,0,0,1-.39-1.17,1.51,1.51,0,0,1,.39-1.22,1.4,1.4,0,0,1,1-.29h1.12V26a1.6,1.6,0,0,1,.49-1.12A1.92,1.92,0,0,1,355,24.58Zm-.42,7.64h.89l.34-2.54h-1.62Z"/><path class="cls-2" d="M385.92,24.79a1.39,1.39,0,0,1,1.14.54,2,2,0,0,1,.47,1.3,1.52,1.52,0,0,1-1.22,1.61,24.22,24.22,0,0,1-3.25.89v5.3h3a2.2,2.2,0,0,1,1.46.39,1.79,1.79,0,0,1,.39,1.36,2,2,0,0,1-.34,1.24,1.89,1.89,0,0,1-1.51.57h-3v5.28h2.75a2.06,2.06,0,0,1,1.44.42,2.71,2.71,0,0,1,.05,2.68,1.87,1.87,0,0,1-1.49.57h-9.46a2,2,0,0,1-1.38-.42,1.06,1.06,0,0,1-.31-.49,1.67,1.67,0,0,1-1,.31,3.08,3.08,0,0,1-1.64-.7c-.43-.35-.86-.69-1.3-1a15,15,0,0,1-2,2.21,3.89,3.89,0,0,1-2.32,1.33,2.08,2.08,0,0,1-1.61-.52,1.75,1.75,0,0,1-.52-1.19,2.32,2.32,0,0,1,.52-1.44,23,23,0,0,0,2.68-2.75c-.57-.38-1.15-.76-1.74-1.12A2.24,2.24,0,0,1,364.47,39a6.78,6.78,0,0,1,.26-1.59c.38-1.54.74-3.14,1.06-4.81h-.1a1.58,1.58,0,0,1-1.27-.47,1.6,1.6,0,0,1-.44-1.35,2.16,2.16,0,0,1,.46-1.45,1.78,1.78,0,0,1,1.25-.39h.73q.21-1.35.39-2.73a1.42,1.42,0,0,1,.54-1.12,1.82,1.82,0,0,1,1-.31,2.5,2.5,0,0,1,1.43.33,1.29,1.29,0,0,1,.6,1.1,17.33,17.33,0,0,1-.29,2.73H372a3.31,3.31,0,0,1,2.24.65,3.23,3.23,0,0,1,.73,2.31,17.9,17.9,0,0,1-.24,2.86,2.27,2.27,0,0,1,1.35-.34h3.25V29.75a21.7,21.7,0,0,1-2.85.24q-1.83,0-1.83-2.13c0-.92.61-1.43,1.72-1.54a39.87,39.87,0,0,0,9-1.45A2.48,2.48,0,0,1,385.92,24.79ZM369.49,39.35c.05-.12.1-.24.15-.34a13.08,13.08,0,0,0,1.64-6.08c0-.21-.17-.32-.52-.32h-1.35c-.26,1.22-.57,2.58-.94,4.09a8.91,8.91,0,0,0-.23,1.4.82.82,0,0,0,.44.81A7.89,7.89,0,0,1,369.49,39.35Zm4.81-2.42c-.18.74-.38,1.51-.63,2.29s-.63,1.44-1,2.1c.69.47,1.37,1,2,1.46a1.33,1.33,0,0,1,.65.65,2.47,2.47,0,0,1,1-.16h3V38h-3.25a2,2,0,0,1-1.4-.41A1.29,1.29,0,0,1,374.3,36.93Z"/><path class="cls-2" d="M415.51,30.14q0,3.18-3.51,5.67a20.38,20.38,0,0,1-6.4,2.94,8.78,8.78,0,0,1-2.08,4.94,11.12,11.12,0,0,1-4.16,3,3.87,3.87,0,0,1-1.43.42c-1.33,0-2-.64-2-1.93,0-.53.41-1,1.22-1.53.47-.21,1.14-.56,2-1.07a5.63,5.63,0,0,0,2.47-3.46,19,19,0,0,0,.36-4.34,1.57,1.57,0,0,1,.55-1.27,1.93,1.93,0,0,1,1.35-.5,2.19,2.19,0,0,1,1.46.52A1.77,1.77,0,0,1,406,35a7.46,7.46,0,0,0,3.41-1.61q2.34-1.62,2.34-2.52c0-.32-.35-.47-1.07-.47H395.77a1.68,1.68,0,0,1-1.25-.52,1.77,1.77,0,0,1-.49-1.22,1.49,1.49,0,0,1,.52-1.17,1.88,1.88,0,0,1,1.22-.45h16.31a3.58,3.58,0,0,1,2.44.84A2.86,2.86,0,0,1,415.51,30.14Z"/><path class="cls-2" d="M443.56,31.26q0,5.14-5.33,9.88a28.78,28.78,0,0,1-10,5.77,2.54,2.54,0,0,1-.7.11,1.57,1.57,0,0,1-1.3-.63,1.87,1.87,0,0,1-.49-1.35A1.65,1.65,0,0,1,427,43.35,26.44,26.44,0,0,0,435,39c2.58-2.08,4.13-4.17,4.63-6.26a1.86,1.86,0,0,0,.1-.5q0-.57-.93-.57H424.43a1.78,1.78,0,0,1-1.38-.54,1.93,1.93,0,0,1-.5-1.33,1.78,1.78,0,0,1,.45-1.3,1.73,1.73,0,0,1,1.43-.62H440Q443.56,27.86,443.56,31.26Z"/><path class="cls-2" d="M471.67,31.49a11.94,11.94,0,0,1-2.08,6.22,21.78,21.78,0,0,1-14,9.75,2.28,2.28,0,0,1-.44,0,1.62,1.62,0,0,1-1.32-.6,2,2,0,0,1-.47-1.32,1.74,1.74,0,0,1,1.48-1.85,17.79,17.79,0,0,0,7.33-3.54,24.6,24.6,0,0,0-2.75-1.69,1.83,1.83,0,0,1-.39-3,1.75,1.75,0,0,1,1.35-.58,1.91,1.91,0,0,1,.91.26l1.74.94L465,37.53a13.13,13.13,0,0,0,2.73-4.76,2.06,2.06,0,0,0,.08-.49.22.22,0,0,0-.21-.24h-8.19A25.68,25.68,0,0,1,454.19,38a2,2,0,0,1-1.22.44,1.76,1.76,0,0,1-1.32-.62,1.93,1.93,0,0,1-.58-1.36,1.76,1.76,0,0,1,.76-1.43,25.42,25.42,0,0,0,6.47-8.6,1.73,1.73,0,0,1,1.64-1.07,1.93,1.93,0,0,1,1.35.55,1.62,1.62,0,0,1,.6,1.27,2,2,0,0,1-.23.91l-.21.39H468C470.45,28.45,471.67,29.47,471.67,31.49Z"/><path class="cls-2" d="M502.3,36.38a2.12,2.12,0,0,1-.47,1.38,1.66,1.66,0,0,1-1.41.7H480.3a1.74,1.74,0,0,1-1.43-.67,2,2,0,0,1-.47-1.3,2.36,2.36,0,0,1,.49-1.43,1.69,1.69,0,0,1,1.41-.63h20.12a1.8,1.8,0,0,1,1.41.63A2,2,0,0,1,502.3,36.38Z"/><path class="cls-2" d="M528.45,43.9a1.67,1.67,0,0,1-.36,1.19,1.71,1.71,0,0,1-1.25.63,61.2,61.2,0,0,1-9.07.73c-2.54,0-4.41-.46-5.62-1.36-1.41-1-2.11-2.68-2.11-5.07V27.93a1.78,1.78,0,0,1,.55-1.38,1.91,1.91,0,0,1,1.3-.49,1.78,1.78,0,0,1,1.3.44,1.75,1.75,0,0,1,.65,1.43V32q8.61-1.87,10.63-2.81a2.09,2.09,0,0,1,1-.23,1.7,1.7,0,0,1,1.22.67,2,2,0,0,1,.45,1.35,1.68,1.68,0,0,1-1.07,1.56q-2.65,1.3-12.27,3.31V40c0,1.2.32,2,1,2.32a9.55,9.55,0,0,0,3,.28,61.92,61.92,0,0,0,8.47-.62,1.94,1.94,0,0,1,1.56.49A2.11,2.11,0,0,1,528.45,43.9Zm3.22-17.4a2.57,2.57,0,0,1-.88,2,2.89,2.89,0,0,1-2,.81,3,3,0,0,1-2.08-.75,2.83,2.83,0,0,1-.05-4,3,3,0,0,1,2.13-.8,2.88,2.88,0,0,1,2.05.78A2.51,2.51,0,0,1,531.67,26.5Zm-1.71,0a1,1,0,0,0-.34-.8,1.21,1.21,0,0,0-.86-.31c-.79,0-1.19.38-1.19,1.14a1.08,1.08,0,0,0,.33.83,1.28,1.28,0,0,0,.86.31,1.14,1.14,0,0,0,.81-.34A1,1,0,0,0,530,26.5Z"/><path class="cls-2" d="M543,35.47a17,17,0,0,1-3.22,10.66,1.81,1.81,0,0,1-1.48.78,2,2,0,0,1-1.38-.62,1.79,1.79,0,0,1-.55-1.38,1.92,1.92,0,0,1,.42-1.06,13.49,13.49,0,0,0,2.41-8.38V29a1.8,1.8,0,0,1,.52-1.35A2,2,0,0,1,541,27.1a1.85,1.85,0,0,1,1.38.47A1.7,1.7,0,0,1,543,29Zm15.86,2.4c-2,3.89-4.06,6.54-6.21,7.92a4.74,4.74,0,0,1-2.5.91,3.07,3.07,0,0,1-2.76-1.48,5.77,5.77,0,0,1-.78-3.12v-14a1.69,1.69,0,0,1,.55-1.35,1.9,1.9,0,0,1,1.33-.49,1.74,1.74,0,0,1,1.92,1.84V41.43c0,.59.16.88.47.88s.5-.26.93-.78a25,25,0,0,0,3.7-5.41,1.77,1.77,0,0,1,1.56-1,2,2,0,0,1,1.4.52,1.7,1.7,0,0,1,.62,1.33A2.07,2.07,0,0,1,558.87,37.87Z"/><path class="cls-2" d="M585.55,44.44c0,.89-.56,1.42-1.61,1.61a41.53,41.53,0,0,1-7.67.68,14,14,0,0,1-6.17-1.2,4.62,4.62,0,0,1-3-4.31q0-4.32,5.88-7.25l-1.38-6.48a3.15,3.15,0,0,1,0-.44,1.6,1.6,0,0,1,.55-1.27,1.75,1.75,0,0,1,1.24-.53,1.81,1.81,0,0,1,2.06,1.49l1.27,5.77c.66-.26,2.72-.88,6.16-1.85a2.78,2.78,0,0,1,.55-.08,1.73,1.73,0,0,1,1.33.58,2,2,0,0,1,.52,1.35,1.63,1.63,0,0,1-1.35,1.71c-1.55.4-3.1.82-4.66,1.25a26.92,26.92,0,0,0-5.54,2.21q-2.7,1.59-2.7,3.46c0,.69.74,1.21,2.23,1.54a14.83,14.83,0,0,0,3.46.39,37.27,37.27,0,0,0,4.4-.34c1.78-.23,2.62-.34,2.52-.34A1.7,1.7,0,0,1,585,43,2.15,2.15,0,0,1,585.55,44.44Z"/><path class="cls-2" d="M598.91,28.12q-.31,2.49-.6,5-.4,4-.41,6.39t.15,5.28a1.79,1.79,0,0,1-.54,1.46,1.93,1.93,0,0,1-1.38.54,1.79,1.79,0,0,1-1.25-.44,1.75,1.75,0,0,1-.6-1.32q-.15-3-.15-5.52,0-2.67,1-11.88A1.67,1.67,0,0,1,597,26a2,2,0,0,1,1.43.57A1.85,1.85,0,0,1,598.91,28.12Zm17.4,14.66a2.15,2.15,0,0,1-.58,1.38,1.59,1.59,0,0,1-1.19.67,1.54,1.54,0,0,1-.84-.36c-.26-.19-.85-.61-1.79-1.25a6.1,6.1,0,0,1-5.82,3.35A7.24,7.24,0,0,1,602,45.46a3.64,3.64,0,0,1-1.71-3.1A3.8,3.8,0,0,1,602.11,39,6.72,6.72,0,0,1,606,37.89a5.7,5.7,0,0,1,2.24.42c0-.89-.07-2.36-.11-4.42q-5.4,0-5.64,0a1.65,1.65,0,0,1-1.32-.54,1.83,1.83,0,0,1-.52-1.25,1.7,1.7,0,0,1,.49-1.33,1.66,1.66,0,0,1,1.48-.42,51.88,51.88,0,0,0,5.49.06v-2c0-1.55.71-2.34,2-2.34a2,2,0,0,1,1.5.45A2.11,2.11,0,0,1,612,28c0,.29,0,1,0,2.08.52-.11,1.25-.21,2.18-.31,1.34-.11,2,.36,2,1.4a2.2,2.2,0,0,1-.5,1.64,2.58,2.58,0,0,1-1.69.57l-2,.23c0,2.4.09,4.32.18,5.78a17.67,17.67,0,0,1,2.75,1.37A2.68,2.68,0,0,1,616.31,42.78Zm-8.12-1.07a3.22,3.22,0,0,0-2.31-1.06c-1.4,0-2.11.53-2.11,1.61,0,.4.27.74.81,1a2.9,2.9,0,0,0,1.43.37,2.18,2.18,0,0,0,1.48-.6A1.75,1.75,0,0,0,608.19,41.71Z"/></g></g></svg>