<svg xmlns="http://www.w3.org/2000/svg" viewBox="0 0 900 91.5"><defs><style>.cls-1{fill:#48a9d3;}.cls-2{fill:#fff;}</style></defs><g id="Layer_2" data-name="Layer 2"><g id="レイヤー_2" data-name="レイヤー 2"><path class="cls-1" d="M883.81,0H16.19A16.15,16.15,0,0,0,0,16.11v40A16.15,16.15,0,0,0,16.19,72.21H428l21.5,19.29L471,72.21H883.81A16.15,16.15,0,0,0,900,56.1v-40A16.15,16.15,0,0,0,883.81,0Z"/><path class="cls-2" d="M261.67,23.69a1,1,0,0,1,1,.76,1.37,1.37,0,0,1,1.06-.44h6.71a3,3,0,0,1,1.93.46,2.54,2.54,0,0,1,.7,1.85,5,5,0,0,1-1.33,2.91A21.84,21.84,0,0,1,270,31.1c.79.49,1.63,1,2.49,1.44a1.48,1.48,0,0,1,.7,1.22,1.7,1.7,0,0,1-.57,1.32,1.86,1.86,0,0,1-1.56.6,3.12,3.12,0,0,1-1.19-.28,7.19,7.19,0,0,1-1.22-.6c-.56-.37-1.1-.74-1.62-1.12l-.52.34-.47.31a2.06,2.06,0,0,1,.5.28,1.34,1.34,0,0,1,.65,1.07,1.51,1.51,0,0,1-.13.65.86.86,0,0,1,.26-.18,2.46,2.46,0,0,1,1.09-.26,1.24,1.24,0,0,1,.63.21c.15.17.3.35.44.54a27.71,27.71,0,0,0,3.12,3.62,1,1,0,0,1,.39.39c.14.1.2.31.2.62a.91.91,0,0,1-.36.75,1.62,1.62,0,0,1-1.17.47,1.51,1.51,0,0,1-.6-.1,7.73,7.73,0,0,1-1.92-1.59q-2.52.38-5.67.6h0V45a1.82,1.82,0,0,1-.49,1.46,1.88,1.88,0,0,1-1.43.49,2,2,0,0,1-1.46-.49,1.9,1.9,0,0,1-.49-1.46V41.66c-1.13.07-2.28.12-3.46.16a2.11,2.11,0,0,1,.94.44,1.4,1.4,0,0,1,.7,1.14,1.73,1.73,0,0,1-.31,1,15.86,15.86,0,0,1-4.27,2.08,3,3,0,0,1-1.32.26,1.87,1.87,0,0,1-1.35-.6,1.89,1.89,0,0,1-.47-1.25,1.34,1.34,0,0,1,.41-.7,9.25,9.25,0,0,0,1.2-.5A27.28,27.28,0,0,0,255,42a2.1,2.1,0,0,1,.5-.16c-1.27,0-2.56,0-3.88,0a1.39,1.39,0,0,1-1-.29,1.55,1.55,0,0,1-.36-1,1.12,1.12,0,0,1,.34-.91,1.55,1.55,0,0,1,1.09-.28c1.64,0,3.21,0,4.7-.06-1.23-.74-2.37-1.43-3.43-2a1.5,1.5,0,0,1-.47-.34.83.83,0,0,1-.2-.62,1.08,1.08,0,0,1,.41-.78,1.29,1.29,0,0,1,.81-.34,3,3,0,0,1,1.3.26l1.61.73a.91.91,0,0,1,.13-.16l.8-.47.94-.54h-5.69a1.64,1.64,0,0,1-1.85-1.85V25.62c0-1.28.58-1.93,1.74-1.93Zm-5.31,3.25V26h-1.82c-.21,0-.31.09-.31.28v.62Zm-2.13,2.84h4.26v-.91h-4.26Zm2.13,2.86V31.7h-2.13v.73c0,.14.17.21.52.21Zm4.26,5.82c.25-.19.47-.38.68-.57a32.67,32.67,0,0,0,2.57-2.52,2,2,0,0,1-1.35-.44,1,1,0,0,1-.23.44,4.78,4.78,0,0,1-1.07,1,7.62,7.62,0,0,1-2,1.24C259.79,37.9,260.24,38.19,260.62,38.46Zm1.59-5.67a1.6,1.6,0,0,1,.37-.46c.6-.32,1.18-.64,1.74-1-.35-.32-.7-.66-1-1a3,3,0,0,1-.91-1.79,1.34,1.34,0,0,1,.59-1.15,2.59,2.59,0,0,1,.55-.28,1.37,1.37,0,0,1-1.22-1.33,1.1,1.1,0,0,1-.62.24h-2v.9h.42c1.28,0,1.93.54,1.93,1.62v1.53c0,1.08-.65,1.61-1.93,1.61h-.42v.94h2A1,1,0,0,1,262.21,32.79Zm2.37-5.64a3,3,0,0,1,.52.29c.73.64,1.49,1.26,2.29,1.85l.65-.58c.69-.55,1-1,1-1.27s-.11-.29-.32-.29Zm3.12,11.7c-.21-.33-.42-.66-.63-1a2,2,0,0,1-.23-.94.66.66,0,0,1,0-.21A14.45,14.45,0,0,1,264.63,39Zm-1.38,2.91a4.09,4.09,0,0,1,1.25.21,25.93,25.93,0,0,1,4.65,2.13,1.34,1.34,0,0,1,.49,1,1.88,1.88,0,0,1-.28,1,1.34,1.34,0,0,1-1.12.7,2.5,2.5,0,0,1-1-.18,3.94,3.94,0,0,1-.78-.37c-1.12-.65-2.38-1.31-3.77-2a.87.87,0,0,1-.36-.24,1,1,0,0,1-.42-.91,1.32,1.32,0,0,1,.42-1A1,1,0,0,1,266.32,41.76Z"/><path class="cls-2" d="M280.49,40.15a2.48,2.48,0,0,1,1.56.47q.57.29.57,1.35a3.21,3.21,0,0,1-.18.89,12.72,12.72,0,0,1-1.12,2.78,1.38,1.38,0,0,1-1.32.7,2.07,2.07,0,0,1-1.28-.44,1.33,1.33,0,0,1-.65-1.17,1.87,1.87,0,0,1,.13-.65,17,17,0,0,0,1.09-2.81C279.55,40.53,280,40.15,280.49,40.15Zm5.2-17.26a2.71,2.71,0,0,1,1.61.47,1.72,1.72,0,0,1,.7,1h7.93c1.91,0,2.86.51,2.86,1.53,0,.5-.68,1.48-2.05,2.94h.42c1.76,0,2.65.78,2.65,2.34v5.9c0,1.49-.82,2.24-2.45,2.24H292.5a4.13,4.13,0,0,1,.5.7,1.74,1.74,0,0,1,.31.8,1.36,1.36,0,0,1-.47,1.15,2.07,2.07,0,0,1-1.46.6,2,2,0,0,1-1.24-.31.91.91,0,0,1-.39-.63q-.35-.54-1-1.38a.35.35,0,0,1,0-.13,2,2,0,0,1,.16-.73l0-.07H286.6a2.1,2.1,0,0,1,.67.33,1.54,1.54,0,0,1,.55,1.28v1.71q0,.63.6.63h4.26a.66.66,0,0,0,.65-.31,3.66,3.66,0,0,0,.37-1.33c.19-.41.66-.65,1.43-.7a2.87,2.87,0,0,1,1.43.44v-.13a1.39,1.39,0,0,1,.75-1.25,2.73,2.73,0,0,1,1.27-.28.88.88,0,0,1,.71.31,6.53,6.53,0,0,1,1.32,1.35,7,7,0,0,1,1.64,3.33,1.16,1.16,0,0,1-.57,1.12,2.07,2.07,0,0,1-1.56.49,1.42,1.42,0,0,1-1.33-.91c-.59-1.16-1.18-2.22-1.77-3.17a1.79,1.79,0,0,1,0,.34,4.25,4.25,0,0,1-.73,2.57,3.77,3.77,0,0,1-2.91,1.27h-7.33a1.67,1.67,0,0,1-1.59-.93,5.65,5.65,0,0,1-.44-2.63V41a2,2,0,0,1,.47-1.28,1.4,1.4,0,0,1,.6-.33h-4c-.78-.06-1.18-.53-1.22-1.43s.44-1.38,1.22-1.43h14.12c.54,0,.81-.17.81-.5v-.52H281.32a1.28,1.28,0,0,1-1-.34A1.45,1.45,0,0,1,280,34a1.29,1.29,0,0,1,.39-1.06,1.56,1.56,0,0,1,.93-.24H296v-.31c0-.42-.27-.66-.81-.73H281.11c-.78,0-1.18-.5-1.22-1.4v-.18a2,2,0,0,1-.57-.52,1.85,1.85,0,0,1-.55-1.22,1.22,1.22,0,0,1,.52-.94,27,27,0,0,0,5.18-4.06A2,2,0,0,1,285.69,22.89Zm-1.64,6h7.39c1-.85,1.56-1.36,1.56-1.54s-.34-.07-1-.07H286.1A21.81,21.81,0,0,1,284.05,28.87Z"/><path class="cls-2" d="M320.17,23.9c1.09,0,1.63.57,1.63,1.72V30q0,2.13-1.74,2.13h-3.17c0,.45-.08.86-.13,1.22h3.51A1.53,1.53,0,0,1,322,35.06v4.88a1.53,1.53,0,0,1-1.74,1.72h-3.56A1.52,1.52,0,0,1,315,39.94V38.7a1.29,1.29,0,0,1-1.12.54,3.22,3.22,0,0,1-.91-.1v2.34q0,.68,1,1a15.7,15.7,0,0,0,4.63.55c2.28,0,4.4,0,6.34-.08,1.72-.09,3.17-.13,4.37-.13a1.43,1.43,0,0,1,1.61,1.64,2,2,0,0,1-.42,1.5,1.77,1.77,0,0,1-1.4.52h-9.59q-5.41,0-7.65-1.29a.53.53,0,0,0-.93-.08,7.28,7.28,0,0,1-1.46,1,2.18,2.18,0,0,1-.88.33,1.12,1.12,0,0,1-.68-.2,5.35,5.35,0,0,1-1.12-1.43,2.11,2.11,0,0,1-.23-.91.86.86,0,0,1,.34-.68,14.1,14.1,0,0,0,1.95-1.48.7.7,0,0,0,.23-.47V35.68c0-.21-.1-.31-.29-.31h-.41a1.54,1.54,0,0,1-1.33-.49,1.81,1.81,0,0,1-.39-1.33,2,2,0,0,1,.42-1.4,1.64,1.64,0,0,1,1.3-.45h2c1.69,0,2.54.82,2.54,2.45v1.27a15.27,15.27,0,0,0,.58-2.16,26,26,0,0,0,.44-5.09V25.72c0-1.21.67-1.82,2-1.82Zm-11.47.81a2.33,2.33,0,0,1,.78.15,13.58,13.58,0,0,1,3,1.77,1.66,1.66,0,0,1,.73,1.33,2.28,2.28,0,0,1-.41,1.33,1.78,1.78,0,0,1-1.54.9,1.32,1.32,0,0,1-.62-.15,1.69,1.69,0,0,1-.52-.26c-.75-.52-1.57-1-2.47-1.53a.54.54,0,0,1-.24-.19,1.34,1.34,0,0,1-.59-1.22,2.11,2.11,0,0,1,.57-1.48A1.52,1.52,0,0,1,308.7,24.71ZM317,29.18h1.33a.37.37,0,0,0,.41-.42v-1.5c0-.28-.1-.42-.31-.42h-1.12c-.21,0-.31.14-.31.42v1.92Zm1.74,9.75c.33,0,.5-.17.5-.52V36.59a.44.44,0,0,0-.5-.49h-.52a.43.43,0,0,0-.49.49v1.82c0,.35.16.52.49.52Zm7.62-16a1.8,1.8,0,0,1,1.22.33,1.38,1.38,0,0,1,.5,1.1V25h1.22a1.54,1.54,0,0,1,1,.31c.26.18.39.57.39,1.2a1.7,1.7,0,0,1-.24,1.06,1.11,1.11,0,0,1-.78.42l-.34,2.6a1.63,1.63,0,0,1,1.07.29c.26.15.39.53.39,1.11a1.8,1.8,0,0,1-.23,1.07,1.44,1.44,0,0,1-1.2.47H328.1v1.71H329a1.58,1.58,0,0,1,1.11.32c.28.17.42.58.42,1.22a2,2,0,0,1-.23,1.12,1.57,1.57,0,0,1-1.3.49h-.91v2.24a1.44,1.44,0,0,1-.45,1.22,1.66,1.66,0,0,1-1.27.42,1.63,1.63,0,0,1-1.22-.42,1.54,1.54,0,0,1-.42-1.22V38.41h-1a1.59,1.59,0,0,1-1.09-.36,2,2,0,0,1,0-2.5,1.6,1.6,0,0,1,1.09-.29h1V33.55h-1.61a1.44,1.44,0,0,1-1-.37A1.42,1.42,0,0,1,321.7,32a1.4,1.4,0,0,1,.39-1.14,1.65,1.65,0,0,1,1-.26h.29L323,28a1,1,0,0,1-.52-.28,1.44,1.44,0,0,1-.39-1.17,1.49,1.49,0,0,1,.39-1.22,1.4,1.4,0,0,1,1-.29h1.12V24.4a1.6,1.6,0,0,1,.49-1.12A1.92,1.92,0,0,1,326.38,23ZM326,30.61h.89l.34-2.55h-1.62Z"/><path class="cls-2" d="M357.32,23.17a1.4,1.4,0,0,1,1.14.55,1.94,1.94,0,0,1,.47,1.3,1.52,1.52,0,0,1-1.22,1.61,25.81,25.81,0,0,1-3.25.89v5.3h3a2.2,2.2,0,0,1,1.46.39,1.78,1.78,0,0,1,.39,1.35,2,2,0,0,1-.34,1.25,1.89,1.89,0,0,1-1.51.57h-3v5.28h2.75a2,2,0,0,1,1.43.42,2.66,2.66,0,0,1,.06,2.67,1.84,1.84,0,0,1-1.49.58h-9.46a2,2,0,0,1-1.38-.42,1.06,1.06,0,0,1-.31-.49,1.67,1.67,0,0,1-1,.31,3.08,3.08,0,0,1-1.64-.7c-.43-.35-.86-.69-1.3-1a15.53,15.53,0,0,1-2,2.21,3.94,3.94,0,0,1-2.32,1.33,2.08,2.08,0,0,1-1.61-.52,1.75,1.75,0,0,1-.52-1.2,2.32,2.32,0,0,1,.52-1.43,23,23,0,0,0,2.68-2.75c-.57-.38-1.15-.76-1.74-1.12a2.24,2.24,0,0,1-1.25-2.13,6.78,6.78,0,0,1,.26-1.59c.38-1.54.74-3.14,1.06-4.81h-.1a1.61,1.61,0,0,1-1.72-1.82,2.19,2.19,0,0,1,.47-1.46,1.78,1.78,0,0,1,1.25-.39h.73q.21-1.35.39-2.73a1.42,1.42,0,0,1,.54-1.11,1.84,1.84,0,0,1,1-.32,2.49,2.49,0,0,1,1.43.34,1.28,1.28,0,0,1,.6,1.09,17.1,17.1,0,0,1-.29,2.73h1.9a3.36,3.36,0,0,1,2.24.65,3.27,3.27,0,0,1,.73,2.32,17.9,17.9,0,0,1-.24,2.86,2.2,2.2,0,0,1,1.35-.34h3.25V28.14a21.7,21.7,0,0,1-2.86.24c-1.21,0-1.82-.72-1.82-2.14,0-.92.61-1.43,1.72-1.53a39.29,39.29,0,0,0,9-1.46A3.1,3.1,0,0,1,357.32,23.17ZM340.89,37.73l.15-.33a13.08,13.08,0,0,0,1.64-6.09c0-.21-.17-.31-.52-.31h-1.35c-.26,1.21-.57,2.57-.94,4.08a9,9,0,0,0-.23,1.41.8.8,0,0,0,.44.8C340.36,37.43,340.63,37.58,340.89,37.73Zm4.81-2.41c-.18.74-.38,1.5-.63,2.28s-.63,1.45-1,2.11c.69.47,1.37.95,2,1.46a1.33,1.33,0,0,1,.65.65,2.47,2.47,0,0,1,1-.16h3V36.38h-3.25a2.09,2.09,0,0,1-1.4-.41A1.33,1.33,0,0,1,345.7,35.32Z"/><path class="cls-2" d="M386.91,28.53q0,3.18-3.51,5.67a20.38,20.38,0,0,1-6.4,2.94,8.81,8.81,0,0,1-2.08,4.94,11.12,11.12,0,0,1-4.16,3,3.87,3.87,0,0,1-1.43.42,1.74,1.74,0,0,1-2-1.93c0-.54.41-1,1.22-1.53.47-.21,1.14-.57,2-1.07a5.66,5.66,0,0,0,2.47-3.46,19,19,0,0,0,.36-4.34,1.56,1.56,0,0,1,.55-1.27,1.93,1.93,0,0,1,1.35-.5,2.19,2.19,0,0,1,1.46.52,1.77,1.77,0,0,1,.59,1.41,7.4,7.4,0,0,0,3.41-1.62q2.34-1.61,2.34-2.52c0-.31-.35-.47-1.07-.47H367.17a1.67,1.67,0,0,1-1.25-.51,1.77,1.77,0,0,1-.49-1.23,1.51,1.51,0,0,1,.52-1.17,1.91,1.91,0,0,1,1.22-.44h16.31a3.63,3.63,0,0,1,2.44.83A2.88,2.88,0,0,1,386.91,28.53Z"/><path class="cls-2" d="M415,29.65q0,5.15-5.33,9.88a28.93,28.93,0,0,1-10,5.77,2.52,2.52,0,0,1-.7.1,1.56,1.56,0,0,1-1.3-.62,1.92,1.92,0,0,1-.5-1.35,1.67,1.67,0,0,1,1.28-1.69,26.44,26.44,0,0,0,8-4.37c2.58-2.08,4.13-4.17,4.63-6.27a1.81,1.81,0,0,0,.1-.49q0-.57-.93-.57H395.83a1.75,1.75,0,0,1-1.38-.55,1.89,1.89,0,0,1-.5-1.32,1.81,1.81,0,0,1,.44-1.3,1.77,1.77,0,0,1,1.44-.63H411.4Q415,26.24,415,29.65Z"/><path class="cls-2" d="M443.07,29.88A11.94,11.94,0,0,1,441,36.1a21.87,21.87,0,0,1-14,9.75,2.28,2.28,0,0,1-.44,0,1.62,1.62,0,0,1-1.32-.6,2,2,0,0,1-.47-1.33,1.74,1.74,0,0,1,1.48-1.84,17.79,17.79,0,0,0,7.33-3.54,24.6,24.6,0,0,0-2.75-1.69,1.79,1.79,0,0,1-1-1.64,1.82,1.82,0,0,1,.6-1.35,1.7,1.7,0,0,1,1.35-.57,1.91,1.91,0,0,1,.91.26l1.74.94,2,1.38a13.13,13.13,0,0,0,2.73-4.76,2.05,2.05,0,0,0,.08-.5.21.21,0,0,0-.21-.23h-8.19a25.88,25.88,0,0,1-5.22,5.93,2.08,2.08,0,0,1-1.23.44,1.73,1.73,0,0,1-1.32-.63,1.88,1.88,0,0,1-.57-1.35,1.73,1.73,0,0,1,.75-1.43,25.52,25.52,0,0,0,6.47-8.6,1.73,1.73,0,0,1,1.64-1.07,1.93,1.93,0,0,1,1.35.55,1.61,1.61,0,0,1,.6,1.27,2,2,0,0,1-.23.91l-.21.39h6.58C441.85,26.84,443.07,27.85,443.07,29.88Z"/><path class="cls-2" d="M473.69,34.77a2.11,2.11,0,0,1-.46,1.38,1.66,1.66,0,0,1-1.41.7H451.7a1.72,1.72,0,0,1-1.43-.68,2,2,0,0,1-.47-1.29,2.33,2.33,0,0,1,.5-1.44,1.68,1.68,0,0,1,1.4-.62h20.12a1.82,1.82,0,0,1,1.41.62A2.07,2.07,0,0,1,473.69,34.77Z"/><path class="cls-2" d="M499.85,42.29a1.64,1.64,0,0,1-.36,1.19,1.7,1.7,0,0,1-1.25.62,59.9,59.9,0,0,1-9.08.73q-3.8,0-5.61-1.35-2.12-1.48-2.11-5.07V26.32a1.75,1.75,0,0,1,.55-1.38,1.86,1.86,0,0,1,1.3-.49,1.78,1.78,0,0,1,1.3.44,1.74,1.74,0,0,1,.65,1.43v4.06q8.61-1.87,10.63-2.81a2.22,2.22,0,0,1,1-.24,1.72,1.72,0,0,1,1.22.68,2,2,0,0,1,.45,1.35,1.7,1.7,0,0,1-1.07,1.56q-2.65,1.3-12.27,3.3v4.19q0,1.8,1,2.31a9.11,9.11,0,0,0,3,.29,61.94,61.94,0,0,0,8.48-.62,1.9,1.9,0,0,1,1.56.49A2.11,2.11,0,0,1,499.85,42.29Zm3.22-17.4a2.57,2.57,0,0,1-.88,2,2.89,2.89,0,0,1-2,.81,3,3,0,0,1-2.08-.76,2.81,2.81,0,0,1-.05-4,3.13,3.13,0,0,1,4.18,0A2.51,2.51,0,0,1,503.07,24.89Zm-1.71,0a1,1,0,0,0-.34-.81,1.24,1.24,0,0,0-.86-.31c-.8,0-1.19.38-1.19,1.15a1.1,1.1,0,0,0,.33.83,1.28,1.28,0,0,0,.86.31,1.14,1.14,0,0,0,.81-.34A1,1,0,0,0,501.36,24.89Z"/><path class="cls-2" d="M514.41,33.86a17,17,0,0,1-3.22,10.66,1.82,1.82,0,0,1-1.49.78,2,2,0,0,1-1.37-.62,1.79,1.79,0,0,1-.55-1.38,2,2,0,0,1,.42-1.07,13.44,13.44,0,0,0,2.41-8.37v-6.5a1.8,1.8,0,0,1,.52-1.35,2,2,0,0,1,1.28-.52,1.81,1.81,0,0,1,1.38.47,1.69,1.69,0,0,1,.62,1.4Zm15.86,2.39q-3,5.85-6.21,7.93a4.74,4.74,0,0,1-2.5.91,3,3,0,0,1-2.75-1.48,5.6,5.6,0,0,1-.79-3.12v-14a1.69,1.69,0,0,1,.55-1.35,1.93,1.93,0,0,1,1.33-.5,1.82,1.82,0,0,1,1.35.45,1.75,1.75,0,0,1,.57,1.4V39.81c0,.59.16.89.47.89s.5-.26.94-.78a25.29,25.29,0,0,0,3.69-5.41,1.77,1.77,0,0,1,1.56-1,2,2,0,0,1,1.4.52,1.68,1.68,0,0,1,.62,1.33A2,2,0,0,1,530.27,36.25Z"/><path class="cls-2" d="M558.85,35A9.47,9.47,0,0,1,556,42.1a11.05,11.05,0,0,1-5.12,2.84,5.92,5.92,0,0,1-.93.18,1.87,1.87,0,0,1-1.41-.57,2.07,2.07,0,0,1-.54-1.43,1.67,1.67,0,0,1,1.27-1.62,12.85,12.85,0,0,0,4.14-2.28A5.66,5.66,0,0,0,555.07,35c0-3.52-1.82-5.47-5.46-5.87a7.7,7.7,0,0,1,.06,1,19.33,19.33,0,0,1-2.34,9.26Q544.78,44,541.48,44a4.21,4.21,0,0,1-3.8-2.26,8.24,8.24,0,0,1-1.12-4.29,11.91,11.91,0,0,1,3-8.5,11.26,11.26,0,0,1,8.64-3.35,11.69,11.69,0,0,1,7.66,2.31A8.64,8.64,0,0,1,558.85,35Zm-13-4.89a7.64,7.64,0,0,0,0-.8A6.82,6.82,0,0,0,541.66,32a9,9,0,0,0-1.51,5.38c0,1.89.44,2.84,1.33,2.84.45,0,1-.41,1.63-1.23A11,11,0,0,0,545,35.52,16.38,16.38,0,0,0,545.9,30.06Z"/><path class="cls-2" d="M567.81,28.87a2.38,2.38,0,0,1,1.56.47c.39.19.58.64.58,1.35a8.48,8.48,0,0,1-.34,2,31.33,31.33,0,0,1-2.08,6.26,1.39,1.39,0,0,1-1.33.7,2.1,2.1,0,0,1-1.3-.44,1.33,1.33,0,0,1-.65-1.17,5.26,5.26,0,0,1,.26-1.51A39,39,0,0,0,566.59,30C566.87,29.24,567.28,28.87,567.81,28.87Zm5-1a2.53,2.53,0,0,1,1.5.37q.38.26.42,1.35v6.6l.44-.49a32.52,32.52,0,0,0,6.66-11.39,1.14,1.14,0,0,1,1-.8,2.89,2.89,0,0,1,1.67.31,1.34,1.34,0,0,1,.67,1.33,5.31,5.31,0,0,1-.28,1.32A34.09,34.09,0,0,1,579,37a30.44,30.44,0,0,1-4.29,4.37v.89a.53.53,0,0,0,.6.59h3.77a.81.81,0,0,0,.78-.54,6.55,6.55,0,0,0,.57-1.85,14.6,14.6,0,0,0,.26-2,1.53,1.53,0,0,1,1.33-.7,3.26,3.26,0,0,1,1.82.47,1.76,1.76,0,0,1,.72,1.56,11.23,11.23,0,0,1-.33,2.24,15.18,15.18,0,0,1-.86,2.31,4.22,4.22,0,0,1-1.48,1.43,4.75,4.75,0,0,1-2.11.62h-6.4a2.21,2.21,0,0,1-1.76-.8,2.92,2.92,0,0,1-.58-1.48c-.9.59-1.82,1.16-2.78,1.71a3.13,3.13,0,0,1-1.69.57,1.82,1.82,0,0,1-1.61-.72,2,2,0,0,1-.42-1.3,1.43,1.43,0,0,1,.73-1.33A43.37,43.37,0,0,0,571,39.55v-10a2,2,0,0,1,.47-1.35A2.54,2.54,0,0,1,572.81,27.85Zm-.32-5.27a2.08,2.08,0,0,1,1.1.26,24,24,0,0,1,5.72,4,1.37,1.37,0,0,1,.39,1,1.89,1.89,0,0,1-.47,1.17,1.69,1.69,0,0,1-1.35.65,1.47,1.47,0,0,1-1-.31q-3.06-2.31-5.48-4A1.38,1.38,0,0,1,571,25a1.13,1.13,0,0,1-.28-.83A1.64,1.64,0,0,1,571.3,23,1.94,1.94,0,0,1,572.49,22.58ZM585,30.51a1.77,1.77,0,0,1,1.2.39,26.59,26.59,0,0,1,1.3,3.45,17.12,17.12,0,0,1,.83,3.78,1.35,1.35,0,0,1-.23.91,2.36,2.36,0,0,1-1.8.8,1.15,1.15,0,0,1-1.12-.6Q584.36,36,583.23,33a2.92,2.92,0,0,1-.18-.94,1.25,1.25,0,0,1,.68-1.19A2.57,2.57,0,0,1,585,30.51Z"/><path class="cls-2" d="M594.49,23.8h20.62a1.86,1.86,0,0,1,1.2.31,1.36,1.36,0,0,1,.33,1.09,1.58,1.58,0,0,1-.28,1,1.5,1.5,0,0,1-1.25.5h-5.88v1.32h4.37A1.7,1.7,0,0,1,615.52,30v2.93a1.72,1.72,0,0,1-1.92,2h-9.38a2.3,2.3,0,0,1,0,.28,3.23,3.23,0,0,1-.6,1.12h11.68a1.5,1.5,0,0,1,1,.31c.26.16.39.53.39,1.12a1.67,1.67,0,0,1-.24,1,1.37,1.37,0,0,1-1.19.49h-1.85a3.27,3.27,0,0,1-.7,1.72,6.13,6.13,0,0,1-1.15,1.12c1.34.31,2.5.61,3.49.91a1.75,1.75,0,0,1,1.33,1.84,1.56,1.56,0,0,1-.6,1.12,1.73,1.73,0,0,1-1.33.6,6,6,0,0,1-1.53-.18c-2-.66-4.06-1.29-6.09-1.87a40.77,40.77,0,0,1-8.24,1.89,25.25,25.25,0,0,1-3.85.26,1.61,1.61,0,0,1-1.53-.73,2,2,0,0,1-.31-1.09,1.29,1.29,0,0,1,1-1.43c2.48-.22,4.64-.47,6.47-.73l-1.84-.46a3.05,3.05,0,0,1-1.61-.55,1.58,1.58,0,0,1,0-1.74c.19-.23.37-.45.54-.68h-3.25a1.44,1.44,0,0,1-1-.36,1.38,1.38,0,0,1-.42-1.17,1.35,1.35,0,0,1,.42-1.15,1.42,1.42,0,0,1,1-.28h5.46c.33-.47.64-.94.94-1.4H596a1.73,1.73,0,0,1-1.95-2V30A1.72,1.72,0,0,1,596,28.06h4.06V26.74h-5.59a1.58,1.58,0,0,1-1.14-.37A1.43,1.43,0,0,1,593,25.2a1.29,1.29,0,0,1,.39-1.09A1.64,1.64,0,0,1,594.49,23.8Zm5.59,8.63V30.51h-2c-.27,0-.41.13-.41.39V32a.37.37,0,0,0,.41.42Zm7.1,8.66a5.77,5.77,0,0,0,2.65-1.85h-8.29a1.2,1.2,0,0,0-.13.5c0,.15.35.3,1.06.44C604.17,40.49,605.74,40.79,607.18,41.09Zm-1.3-13V26.74h-2.44v1.32Zm0,4.37V30.51h-2.44v1.92Zm5.67,0A.37.37,0,0,0,612,32V30.9c0-.26-.14-.39-.41-.39h-2.32v1.92Z"/><path class="cls-2" d="M632.84,24.19a2,2,0,0,1,1.22.39,1.17,1.17,0,0,1,.52,1.14,12.82,12.82,0,0,1-.28,1.93h2.21V24.92a1.75,1.75,0,0,1,.41-1.33,1.88,1.88,0,0,1,1.41-.42,1.9,1.9,0,0,1,1.4.39,1.86,1.86,0,0,1,.42,1.36v2.73h3.06a1.56,1.56,0,0,1,1.2.36,2,2,0,0,1,.31,1.28,2,2,0,0,1-.26,1.17,1.55,1.55,0,0,1-1.25.44h-3.06v3.77h2.65a2.06,2.06,0,0,1,1.35.36,1.63,1.63,0,0,1,.37,1.25,1.76,1.76,0,0,1-.32,1.17,1.65,1.65,0,0,1-1.4.57h-2.65v3.85h3.35a2.2,2.2,0,0,1,1.46.39,1.75,1.75,0,0,1,.39,1.35,2,2,0,0,1-.34,1.25,1.89,1.89,0,0,1-1.51.57H631.93a2.09,2.09,0,0,1-1.4-.42,1.86,1.86,0,0,1-.42-1.4,1.67,1.67,0,0,1,.42-1.35,2.07,2.07,0,0,1,1.4-.39h4.58V38h-3.67a1.83,1.83,0,0,1-1.3-.42,1.68,1.68,0,0,1-.42-1.32,1.49,1.49,0,0,1,.42-1.25,1.89,1.89,0,0,1,1.3-.36h3.67V30.9h-3a25.25,25.25,0,0,1-.8,2.65c-.18.47-.65.7-1.43.7a1.51,1.51,0,0,1-1.07-.52,1,1,0,0,1-.42-.7,1.5,1.5,0,0,1-.65-.21.56.56,0,0,1-.28-.39c-.09-.36-.19-.76-.31-1.2V45a1.93,1.93,0,0,1-.34,1.15,1.57,1.57,0,0,1-1.38.6,1.6,1.6,0,0,1-1.35-.6,1.69,1.69,0,0,1-.39-1.15V31.7c-.24,2.12-.44,3.51-.6,4.19s-.63.8-1.43.8a1.58,1.58,0,0,1-1.17-.41,1.42,1.42,0,0,1-.47-1.22,9,9,0,0,1,.08-.94,56.5,56.5,0,0,0,1-6.47,1,1,0,0,1,1-.81,2,2,0,0,1,1.27.34.79.79,0,0,1,.24.21V24.81a1.73,1.73,0,1,1,3.46,0v2.13a1.55,1.55,0,0,1,.52-.1,1.33,1.33,0,0,1,1.09.42,5.82,5.82,0,0,1,.62,1.4c.26-1.11.5-2.29.7-3.53A1.23,1.23,0,0,1,632.84,24.19Z"/></g></g></svg>