<svg xmlns="http://www.w3.org/2000/svg" viewBox="0 0 900 91.5"><defs><style>.cls-1{fill:#48a9d3;}.cls-2{fill:#fff;}</style></defs><g id="Layer_2" data-name="Layer 2"><g id="レイヤー_2" data-name="レイヤー 2"><path class="cls-1" d="M883.81,0H16.19A16.15,16.15,0,0,0,0,16.11v40A16.15,16.15,0,0,0,16.19,72.21H428l21.5,19.29L471,72.21H883.81A16.15,16.15,0,0,0,900,56.1v-40A16.15,16.15,0,0,0,883.81,0Z"/><path class="cls-2" d="M401.89,25.69h11.18a1.5,1.5,0,0,1,1,.32c.26.17.39.57.39,1.19a1.67,1.67,0,0,1-.24,1,1.38,1.38,0,0,1-1.19.5H401.89a1.36,1.36,0,0,1-1.43-1.54,1.49,1.49,0,0,1,.41-1.22A1.43,1.43,0,0,1,401.89,25.69ZM403,37.06H412a2.07,2.07,0,0,1,2.34,2.34v6.18A2.07,2.07,0,0,1,412,47.92H403a2.07,2.07,0,0,1-2.35-2.34V39.4A2.07,2.07,0,0,1,403,37.06Zm-.11-7.41h9.26a1.51,1.51,0,0,1,1.71,1.71v3.15a1.52,1.52,0,0,1-1.71,1.74H402.9a1.52,1.52,0,0,1-1.71-1.74V31.36A1.51,1.51,0,0,1,402.9,29.65Zm1.33,11.67h1.92v-1.4H405a.71.71,0,0,0-.8.8Zm1.92,3.77V43.66h-1.92v.62a.71.71,0,0,0,.8.81Zm3.46-11.18a.62.62,0,0,0,.7-.7v-.52a.62.62,0,0,0-.7-.7h-4.16c-.49,0-.73.23-.73.7v.52c0,.47.24.7.73.7Zm-.7,6v1.4h1.82v-.6a.71.71,0,0,0-.81-.8Zm1,5.17a.72.72,0,0,0,.81-.81v-.62h-1.82v1.43Zm6.89-18.9a1.73,1.73,0,0,1,1.2.41,1.44,1.44,0,0,1,.44,1.12V40.93a1.6,1.6,0,0,1-.31,1,1.57,1.57,0,0,1-1.33.52,1.44,1.44,0,0,1-1.17-.52,1.49,1.49,0,0,1-.34-1V27.72a1.44,1.44,0,0,1,.44-1.12A1.34,1.34,0,0,1,416.81,26.19Zm4.79-1.33c1.12,0,1.7.48,1.74,1.43V45.58a2.22,2.22,0,0,1-1,1.93,4.47,4.47,0,0,1-2.86.83,6.21,6.21,0,0,1-2.73-.62,1.9,1.9,0,0,1-1.12-1.82c0-1.29.51-2,1.51-2.14a.85.85,0,0,1,.37.11,6.59,6.59,0,0,0,1.66.41c.49,0,.73-.27.73-.83V26.29C419.9,25.39,420.47,24.91,421.6,24.86Z"/><path class="cls-2" d="M434.65,24.86a2.63,2.63,0,0,1,1.61.47c.48.17.73.63.73,1.38a3.18,3.18,0,0,1-.16,1,27.08,27.08,0,0,1-1,3.17V46.52a1.7,1.7,0,0,1-.49,1.38,1.77,1.77,0,0,1-1.33.44,1.67,1.67,0,0,1-1.3-.44,1.61,1.61,0,0,1-.52-1.38V37.65a1.87,1.87,0,0,1-.94.21,2.24,2.24,0,0,1-1.64-.57,1.63,1.63,0,0,1-.59-1.35,2.25,2.25,0,0,1,.36-1.09,30.66,30.66,0,0,0,4-8.87C433.63,25.23,434,24.86,434.65,24.86Zm6.7-.28a2.62,2.62,0,0,1,1.54.41c.47.17.7.61.7,1.3a2.8,2.8,0,0,1-.15.91c-.07.31-.15.62-.24.91h7.9a1.6,1.6,0,0,1,1.28.39,2,2,0,0,1,.36,1.35,2.14,2.14,0,0,1-.28,1.25,1.69,1.69,0,0,1-1.36.47h-6.7v2.76h6.42a1.59,1.59,0,0,1,1.17.31,1.67,1.67,0,0,1,.34,1.19,2.13,2.13,0,0,1-.26,1.2,1.57,1.57,0,0,1-1.25.44H444.4V40h6.42a1.54,1.54,0,0,1,1.17.34,1.72,1.72,0,0,1,.34,1.2,2.19,2.19,0,0,1-.26,1.19,1.53,1.53,0,0,1-1.25.45H444.4v3.35a1.67,1.67,0,0,1-.5,1.38,2.17,2.17,0,0,1-2.62,0,1.61,1.61,0,0,1-.52-1.38V33.88c-.35.59-.72,1.17-1.12,1.75a1.36,1.36,0,0,1-1.22.52,2.05,2.05,0,0,1-1.56-.55,1.57,1.57,0,0,1-.58-1.27,2,2,0,0,1,.32-1,26.28,26.28,0,0,0,3.53-7.67C440.34,25,440.75,24.58,441.35,24.58Z"/><path class="cls-2" d="M462.34,26.19h14.84a2.33,2.33,0,0,1,2.63,2.65V44.57a6.12,6.12,0,0,1-.37,2.65A1.55,1.55,0,0,1,478,48a11.34,11.34,0,0,1-3.82-.47A1.59,1.59,0,0,1,473.1,46a2.68,2.68,0,0,1,.42-1.66.9.9,0,0,1,.8-.37h1.74c.13,0,.19-.14.19-.41V41h-4.76V45.9a1.68,1.68,0,0,1-.47,1.35,2.22,2.22,0,0,1-2.73,0,1.68,1.68,0,0,1-.47-1.35V41h-4.68a20.12,20.12,0,0,1-1.3,5.88,1.85,1.85,0,0,1-1.95,1.33c-1.19-.07-1.83-.59-1.92-1.54a4.91,4.91,0,0,1,.62-2,29.19,29.19,0,0,0,1.2-8.66v-7.2C459.79,27.07,460.64,26.19,462.34,26.19Zm1,11.49h4.5V35.34h-4.47V36C463.35,36.61,463.34,37.16,463.32,37.68Zm0-5.69h4.47V29.75h-4.05q-.42,0-.42.39Zm8.14-2.24V32h4.76V30.24c0-.33-.13-.49-.39-.49Zm0,5.59v2.34h4.76V35.34Z"/></g></g></svg>