<svg xmlns="http://www.w3.org/2000/svg" viewBox="0 0 900 91.5"><defs><style>.cls-1{fill:#48a9d3;}.cls-2{fill:#fff;}</style></defs><g id="Layer_2" data-name="Layer 2"><g id="レイヤー_2" data-name="レイヤー 2"><path class="cls-1" d="M883.81,0H16.19A16.15,16.15,0,0,0,0,16.11v40A16.15,16.15,0,0,0,16.19,72.21H428l21.5,19.29L471,72.21H883.81A16.15,16.15,0,0,0,900,56.1v-40A16.15,16.15,0,0,0,883.81,0Z"/><path class="cls-2" d="M257.22,24.86a1.38,1.38,0,0,1,1.14.55,1.88,1.88,0,0,1,.47,1.3,1.52,1.52,0,0,1-1.22,1.61,24.25,24.25,0,0,1-3.25.88v5.31h3a2.2,2.2,0,0,1,1.46.39,1.75,1.75,0,0,1,.39,1.35,2,2,0,0,1-.34,1.25,1.89,1.89,0,0,1-1.51.57h-3v5.28h2.75a2.12,2.12,0,0,1,1.44.41,2.64,2.64,0,0,1,.05,2.68,1.87,1.87,0,0,1-1.49.57h-9.46a2.07,2.07,0,0,1-1.38-.41,1.1,1.1,0,0,1-.31-.5,1.67,1.67,0,0,1-1,.32,3.1,3.1,0,0,1-1.64-.71c-.43-.34-.86-.68-1.3-1a16.09,16.09,0,0,1-2,2.21,3.94,3.94,0,0,1-2.32,1.33,2.11,2.11,0,0,1-1.61-.52,1.77,1.77,0,0,1-.52-1.2,2.29,2.29,0,0,1,.52-1.43,22.38,22.38,0,0,0,2.68-2.76q-.85-.57-1.74-1.11a2.27,2.27,0,0,1-1.25-2.14A6.79,6.79,0,0,1,236,37.5c.38-1.55.74-3.15,1.07-4.81H237a1.61,1.61,0,0,1-1.27-.47,1.63,1.63,0,0,1-.45-1.35,2.19,2.19,0,0,1,.47-1.46A1.78,1.78,0,0,1,237,29h.73q.21-1.35.39-2.73a1.45,1.45,0,0,1,.54-1.12,1.91,1.91,0,0,1,1-.31,2.41,2.41,0,0,1,1.43.34,1.28,1.28,0,0,1,.6,1.09,18.34,18.34,0,0,1-.28,2.73h1.89a3.36,3.36,0,0,1,2.24.65,3.26,3.26,0,0,1,.73,2.32,18,18,0,0,1-.24,2.86,2.2,2.2,0,0,1,1.35-.34h3.25V29.83a23.27,23.27,0,0,1-2.85.23c-1.22,0-1.82-.71-1.82-2.13q0-1.38,1.71-1.53a39.84,39.84,0,0,0,9-1.46A3.1,3.1,0,0,1,257.22,24.86ZM240.79,39.42l.15-.34A13,13,0,0,0,242.58,33c0-.21-.17-.31-.52-.31h-1.35c-.26,1.21-.57,2.57-.94,4.08a9.09,9.09,0,0,0-.23,1.4A.82.82,0,0,0,240,39C240.26,39.12,240.53,39.27,240.79,39.42ZM245.6,37c-.18.75-.38,1.51-.63,2.29s-.63,1.45-1,2.11c.69.47,1.37,1,2,1.45a1.37,1.37,0,0,1,.65.65,2.69,2.69,0,0,1,1-.15h3V38.07h-3.25a2,2,0,0,1-1.4-.42A1.25,1.25,0,0,1,245.6,37Z"/><path class="cls-2" d="M286.1,25.88a1.4,1.4,0,0,1,1.43,1.53,1.42,1.42,0,0,1-1.43,1.53h-8.21c-.49,0-.73.2-.73.6v3.15c0,.66,0,1.3,0,1.92h9.38a1.54,1.54,0,0,1,1.12.31A1.56,1.56,0,0,1,288,36a2,2,0,0,1-.26,1.12,1.41,1.41,0,0,1-1.17.42h-2.31c.21.83.44,1.62.7,2.39.24-.31.47-.63.68-.94l.31-.44a1.28,1.28,0,0,1,.83-.42,1.06,1.06,0,0,1,.78.32A1.25,1.25,0,0,1,288,39.6a1.5,1.5,0,0,1-.18.71A10.35,10.35,0,0,1,286,42.85a20,20,0,0,0,1.4,2.73,1.74,1.74,0,0,1,.42,1,1.56,1.56,0,0,1-.5,1.12,1.47,1.47,0,0,1-1.25.52,1.8,1.8,0,0,1-1.4-.6A21,21,0,0,1,283.38,45a1.13,1.13,0,0,1-.73.83,23.43,23.43,0,0,1-4.16,1.93,3.81,3.81,0,0,1-1.51.41,1.23,1.23,0,0,1-1-.54,1.92,1.92,0,0,1-.39-1.17,1.58,1.58,0,0,1,.8-1.43c.42-.2.83-.38,1.23-.55V37.58H277A28.34,28.34,0,0,1,274.64,47a1.83,1.83,0,0,1-.62.89,1.36,1.36,0,0,1-1,.34,1.84,1.84,0,0,1-1.35-.37,1.39,1.39,0,0,1-.47-1.17c.05-.21.13-.49.24-.86a1.08,1.08,0,0,0,.07-.18,2.26,2.26,0,0,1-1.11-.6l-.68-.65a17.12,17.12,0,0,1-1.82,2.29,3.29,3.29,0,0,1-2,1.33,2.22,2.22,0,0,1-1.63-.5,1.84,1.84,0,0,1-.5-1.22,1.89,1.89,0,0,1,.5-1.32,23.64,23.64,0,0,0,2.62-3c-.47-.38-.94-.74-1.43-1.09a2.1,2.1,0,0,1-1-2,10.06,10.06,0,0,1,.16-1.59c.24-1.54.46-3.14.65-4.81h-.21a1.36,1.36,0,0,1-1.12-.44,1.59,1.59,0,0,1-.39-1.27,1.86,1.86,0,0,1,.42-1.28,1.49,1.49,0,0,1,1.09-.36h.57c.09-.95.18-1.93.26-2.94a1.5,1.5,0,0,1,.52-1.12,2,2,0,0,1,1-.31,2.11,2.11,0,0,1,1.35.34,1.28,1.28,0,0,1,.6,1.09,27.55,27.55,0,0,1-.23,2.94h1.64a2.74,2.74,0,0,1,1.92.6,2.9,2.9,0,0,1,.62,2.05,26.5,26.5,0,0,1-1.12,7.26c-.24.69-.49,1.35-.75,2,.47.37.92.74,1.35,1.12l.16.1a22.16,22.16,0,0,0,.88-3.84c.12-2.12.19-4.05.19-5.8V28.42c0-1.69.88-2.54,2.65-2.54ZM268.63,39.16a.81.81,0,0,0,.06-.13,14,14,0,0,0,1.48-6,.37.37,0,0,0-.42-.42h-1.06c-.2,1.25-.42,2.65-.68,4.19a10.93,10.93,0,0,0-.18,1.4.73.73,0,0,0,.34.71C268.32,39,268.48,39.06,268.63,39.16Zm10.77-8.81h6.11a1.63,1.63,0,0,1,1.12.31,1.26,1.26,0,0,1,.31,1,1.41,1.41,0,0,1-.29,1,1.35,1.35,0,0,1-1.14.46H279.4a1.54,1.54,0,0,1-1.07-.33,1.43,1.43,0,0,1-.34-1.1,1.23,1.23,0,0,1,.34-1A1.54,1.54,0,0,1,279.4,30.35Zm3.12,12.35c-.45-1.56-.81-3.05-1.07-4.47a4.12,4.12,0,0,1-.1-.65h-.52v5.53l1.22-.46A1.74,1.74,0,0,1,282.52,42.7Z"/><path class="cls-2" d="M296.53,25.88h15.73A2.43,2.43,0,0,1,315,28.63V44.36a2.44,2.44,0,0,1-2.76,2.76H296.53a2.44,2.44,0,0,1-2.76-2.76V28.63A2.43,2.43,0,0,1,296.53,25.88Zm13.91,17.88a.8.8,0,0,0,.91-.91V30.14a.8.8,0,0,0-.91-.91H298.35a.8.8,0,0,0-.91.91V42.85a.8.8,0,0,0,.91.91Zm-8.84-12.4h5.49a2,2,0,0,1,2.23,2.24v5.9a2,2,0,0,1-2.23,2.24H301.6a2,2,0,0,1-2.24-2.24V33.6A2,2,0,0,1,301.6,31.36Zm3.77,7.13a.62.62,0,0,0,.7-.71V35.34c0-.49-.23-.73-.7-.73h-2a.65.65,0,0,0-.73.73v2.44a.64.64,0,0,0,.73.71Z"/><path class="cls-2" d="M334.46,25.59c1.1,0,1.64.57,1.64,1.72v4.36c0,1.43-.58,2.14-1.74,2.14h-3.17c0,.45-.08.85-.13,1.22h3.51a1.52,1.52,0,0,1,1.74,1.71v4.89a1.53,1.53,0,0,1-1.74,1.72H331a1.52,1.52,0,0,1-1.72-1.72V40.38a1.28,1.28,0,0,1-1.12.55,3.22,3.22,0,0,1-.91-.1v2.34q0,.67,1,1a15.72,15.72,0,0,0,4.62.54q3.44,0,6.35-.07c1.71-.09,3.17-.13,4.37-.13a1.65,1.65,0,0,1,1.14.33,1.62,1.62,0,0,1,.47,1.3,2,2,0,0,1-.42,1.51,1.81,1.81,0,0,1-1.4.52h-9.6q-5.4,0-7.64-1.3a.72.72,0,0,0-.55-.31.83.83,0,0,0-.39.23,6.58,6.58,0,0,1-1.45,1,2.2,2.2,0,0,1-.89.34,1.11,1.11,0,0,1-.67-.21,5.2,5.2,0,0,1-1.12-1.43,2.07,2.07,0,0,1-.23-.91.86.86,0,0,1,.33-.67,13.52,13.52,0,0,0,1.95-1.48.69.69,0,0,0,.24-.47V37.37c0-.21-.1-.31-.29-.31h-.41a1.52,1.52,0,0,1-1.33-.5,1.76,1.76,0,0,1-.39-1.32,2,2,0,0,1,.42-1.41,1.67,1.67,0,0,1,1.3-.44h2c1.7,0,2.55.81,2.55,2.44v1.28a14.07,14.07,0,0,0,.57-2.16,25.29,25.29,0,0,0,.45-5.1V27.41c0-1.21.67-1.82,2-1.82ZM323,26.4a2.33,2.33,0,0,1,.78.15,13.58,13.58,0,0,1,3,1.77,1.65,1.65,0,0,1,.73,1.33,2.22,2.22,0,0,1-.41,1.32,1.77,1.77,0,0,1-1.54.91,1.32,1.32,0,0,1-.62-.15,2,2,0,0,1-.52-.26c-.75-.52-1.57-1-2.47-1.54a.47.47,0,0,1-.24-.18,1.35,1.35,0,0,1-.6-1.22,2.12,2.12,0,0,1,.58-1.48A1.5,1.5,0,0,1,323,26.4Zm8.32,4.47h1.32a.37.37,0,0,0,.42-.42V28.94c0-.27-.1-.41-.31-.41h-1.12c-.21,0-.31.14-.31.41v1.93Zm1.74,9.75c.33,0,.5-.17.5-.52V38.28a.44.44,0,0,0-.5-.5h-.52a.44.44,0,0,0-.49.5V40.1c0,.35.16.52.49.52Zm7.62-16a1.8,1.8,0,0,1,1.22.34,1.35,1.35,0,0,1,.49,1.09v.63h1.23a1.5,1.5,0,0,1,1,.31q.39.26.39,1.2a1.7,1.7,0,0,1-.24,1.06,1.11,1.11,0,0,1-.78.42l-.34,2.6a1.63,1.63,0,0,1,1.07.28c.26.16.39.53.39,1.12a1.82,1.82,0,0,1-.23,1.07,1.45,1.45,0,0,1-1.2.47h-1.33V37h.92a1.65,1.65,0,0,1,1.11.31c.28.18.42.58.42,1.23a1.88,1.88,0,0,1-.24,1.11,1.53,1.53,0,0,1-1.29.5h-.92v2.23a1.46,1.46,0,0,1-.44,1.23,1.7,1.7,0,0,1-1.27.41,1.66,1.66,0,0,1-1.22-.41,1.56,1.56,0,0,1-.42-1.23V40.1h-1a1.55,1.55,0,0,1-1.09-.37,1.95,1.95,0,0,1,0-2.49A1.6,1.6,0,0,1,338,37h1V35.24h-1.61A1.33,1.33,0,0,1,336,33.7a1.4,1.4,0,0,1,.39-1.14,1.59,1.59,0,0,1,1-.26h.28l-.39-2.63a1.11,1.11,0,0,1-.51-.28,1.41,1.41,0,0,1-.4-1.17,1.5,1.5,0,0,1,.4-1.23,1.4,1.4,0,0,1,1-.28h1.12v-.63a1.58,1.58,0,0,1,.49-1.11A1.92,1.92,0,0,1,340.68,24.65Zm-.42,7.65h.89l.33-2.55h-1.61Z"/><path class="cls-2" d="M372.61,28.53c.07,1-.58,1.71-1.93,1.95L368,31a9,9,0,0,0-2.91,1.4,8.47,8.47,0,0,0-3.56,6.84,2.84,2.84,0,0,0,1.19,2.52q1.51,1,5.49,1a1.66,1.66,0,0,1,1.87,1.9,1.83,1.83,0,0,1-.47,1.27,1.76,1.76,0,0,1-1.4.58q-10.46,0-10.45-7.31c0-2.81,1.31-5.49,3.95-8-3,.34-6,.74-9.23,1.19a1.67,1.67,0,0,1-1.59-.49,2.07,2.07,0,0,1-.6-1.48,1.55,1.55,0,0,1,1.62-1.72q13.41-2,18.79-1.95a1.77,1.77,0,0,1,1.36.52A1.86,1.86,0,0,1,372.61,28.53Zm-3,8.45a.85.85,0,0,1-.33.65,1.27,1.27,0,0,1-.71.26,1.1,1.1,0,0,1-1-.55l-1.17-1.79A2.39,2.39,0,0,1,366,34.4q0-1,1.17-1a1.29,1.29,0,0,1,1,.52A11.79,11.79,0,0,1,369.44,36,2.07,2.07,0,0,1,369.64,37Zm3.1-.89c0,.59-.34.89-1,.89a1.1,1.1,0,0,1-1-.55c-.22-.36-.61-1-1.17-1.82a2.26,2.26,0,0,1-.44-1.14c0-.61.38-.91,1.15-.91a1.34,1.34,0,0,1,1,.52,9.06,9.06,0,0,1,1.3,2A2.76,2.76,0,0,1,372.74,36.09Z"/><path class="cls-2" d="M400.37,32.82a1.54,1.54,0,0,1-1.22,1.53,7.48,7.48,0,0,1-1.35.34c-.4.05-1.45.24-3.17.57.83.89,1.51,1.65,2,2.29.2.29.53.74,1,1.33a3,3,0,0,1,.68,1.24,1.87,1.87,0,0,1-.47,1.25,1.54,1.54,0,0,1-1.19.55,5.84,5.84,0,0,1-1.46-.31l-1.51-.47a19.67,19.67,0,0,0-5.48-.78c-2.64,0-3.95.58-3.95,1.74q0,2.24,4.93,2.24a24.08,24.08,0,0,0,3.2-.32l2.13-.33c1.37,0,2.06.55,2.06,1.66,0,.73-.56,1.25-1.67,1.56a16.65,16.65,0,0,1-4.57.57,20.52,20.52,0,0,1-6.4-.75,4.53,4.53,0,0,1-3.43-4.55,4,4,0,0,1,2.81-3.85,12.52,12.52,0,0,1,4.7-.78,32,32,0,0,1,4.32.34l-1.85-2.13q-4,.36-6.81.36c-.66,0-1.25,0-1.79,0-1.08-.09-1.61-.55-1.61-1.38s.56-1.46,1.69-1.51,3.71-.08,7.33-.31l-1.09-1.82c-.87.12-1.76.21-2.68.26q-1,0-2,0l-1.06,0c-1.2,0-1.8-.48-1.8-1.45s.58-1.3,1.75-1.3c1.66,0,3.25-.07,4.75-.21l-.34-1.09a3,3,0,0,1-.07-.65,1.4,1.4,0,0,1,.57-1.17,2.19,2.19,0,0,1,1.4-.44,1.92,1.92,0,0,1,1.93,1.32,12.93,12.93,0,0,1,.67,1.56c1.16-.22,2.67-.57,4.53-1a2.43,2.43,0,0,1,.88-.18,1.7,1.7,0,0,1,1.25.49,1.64,1.64,0,0,1,.47,1.1,1.16,1.16,0,0,1-.76,1.17,16.22,16.22,0,0,1-2.18.57c-1.34.29-2.51.51-3.51.65l1.17,1.69q1.74-.27,4.86-1a2.81,2.81,0,0,1,.73-.11,1.41,1.41,0,0,1,1.14.5A1.44,1.44,0,0,1,400.37,32.82Z"/><path class="cls-2" d="M422.29,30.27A1.6,1.6,0,0,1,420.92,32a26.64,26.64,0,0,1-5,.78A110.46,110.46,0,0,1,412,45.56a1.68,1.68,0,0,1-1.71,1.22,2.08,2.08,0,0,1-1.35-.55,1.65,1.65,0,0,1-.6-1.32,2,2,0,0,1,.15-.73,102.48,102.48,0,0,0,3.41-11.1c-.92,0-1.78.05-2.57.05a1.79,1.79,0,0,1-1.41-.55,1.65,1.65,0,0,1-.44-1.3A1.88,1.88,0,0,1,408,30a1.72,1.72,0,0,1,1.36-.54c1,0,2.21,0,3.48-.11.19-.86.34-1.61.44-2.23a1.69,1.69,0,0,1,1.87-1.61,2,2,0,0,1,1.33.52,1.62,1.62,0,0,1,.57,1.3,12.16,12.16,0,0,1-.28,1.71,19.82,19.82,0,0,0,3.14-.52,3.83,3.83,0,0,1,.6-.05,1.6,1.6,0,0,1,1.25.55A1.94,1.94,0,0,1,422.29,30.27Zm7.62,14.43c0,.87-.5,1.43-1.51,1.69a14.47,14.47,0,0,1-3.69.42,18.22,18.22,0,0,1-5.74-.58,3.52,3.52,0,0,1-2.19-3.64,4.9,4.9,0,0,1,.6-2.54,1.88,1.88,0,0,1,1.64-1,2.13,2.13,0,0,1,1.32.39,1.31,1.31,0,0,1,.5,1,3.79,3.79,0,0,1-.21,1,3.83,3.83,0,0,0-.21.93c0,.37.26.63.78.81a3.36,3.36,0,0,0,1.22.21,18.55,18.55,0,0,0,2.71-.29,18.86,18.86,0,0,1,2.7-.29C429.22,42.85,429.91,43.47,429.91,44.7ZM429,34.51a1.82,1.82,0,0,1-.52,1.3,1.89,1.89,0,0,1-1.43.54c-.8,0-1.85.06-3.17.16a20.49,20.49,0,0,0-3.1.47,2.94,2.94,0,0,1-.51.05,1.7,1.7,0,0,1-1.36-.62,2.14,2.14,0,0,1-.47-1.38,1.58,1.58,0,0,1,1.44-1.61,34,34,0,0,1,3.58-.55,27,27,0,0,1,3.72-.18,2,2,0,0,1,1.38.57A1.89,1.89,0,0,1,429,34.51Z"/><path class="cls-2" d="M451.49,36.33q0,10.45-4.89,10.45a6.72,6.72,0,0,1-3-.68A2.33,2.33,0,0,1,442,44c0-1,.5-1.56,1.48-1.56a4.06,4.06,0,0,1,1.23.28,4,4,0,0,0,1.17.29c.84,0,1.4-.94,1.66-2.81.09-.76.13-2.1.13-4,0-1.51-.67-2.26-2-2.26-.28,0-.66,0-1.15.07a50.17,50.17,0,0,1-4.29,11c-.55,1-1.11,1.51-1.66,1.51a2.06,2.06,0,0,1-1.38-.47,1.38,1.38,0,0,1-.55-1.09,3.3,3.3,0,0,1,.34-1.46,46.2,46.2,0,0,0,3.77-9.05,17.28,17.28,0,0,1-2.6.34,1.68,1.68,0,0,1-.85-.18,1.8,1.8,0,0,1-.81-1.77c0-.9.55-1.43,1.64-1.59.71-.05,1.84-.17,3.4-.36.38-1.56.61-2.62.68-3.17a1.9,1.9,0,0,1,2-1.9,1.79,1.79,0,0,1,1.24.47,1.33,1.33,0,0,1,.5,1.14,6.41,6.41,0,0,1-.13,1.09c-.1.32-.26,1-.47,2l1.46-.11c.21,0,.4,0,.57,0a3.47,3.47,0,0,1,2.65,1.11A6.87,6.87,0,0,1,451.49,36.33Zm6.92,1.82a1.6,1.6,0,0,1-.6,1.35,2.24,2.24,0,0,1-1.46.47,1.44,1.44,0,0,1-1.48-1c-.33-.85-.75-2.15-1.27-3.9s-.79-2.75-1-3.2l-.55-1.27a3.67,3.67,0,0,1-.34-1.28,1.18,1.18,0,0,1,.6-1,2.48,2.48,0,0,1,1.51-.42,1.52,1.52,0,0,1,1.22.71q1.6,2.36,3.22,9A2,2,0,0,1,458.41,38.15Z"/><path class="cls-2" d="M466.1,25.77h20a1.8,1.8,0,0,1,1.3.39,1.75,1.75,0,0,1,.33,1.25,1.81,1.81,0,0,1-.28,1.12,1.73,1.73,0,0,1-1.35.49h-7.21a2.13,2.13,0,0,1-.41.73,11.16,11.16,0,0,1-.91.91,1.13,1.13,0,0,1,.28.21,1.87,1.87,0,0,1,.34,1.32v4.27a1.63,1.63,0,0,1-.41,1.25,1.31,1.31,0,0,1-.63.36h6.92a2.07,2.07,0,0,1,2.34,2.34V45.3a2.07,2.07,0,0,1-2.34,2.34H468.13a2.07,2.07,0,0,1-2.34-2.34V40.41a2.07,2.07,0,0,1,2.34-2.34h7.44a1.31,1.31,0,0,1-.63-.36,1.59,1.59,0,0,1-.41-1.25V33c-.3.19-.61.39-.94.58A31.88,31.88,0,0,1,467,36.67a3.38,3.38,0,0,1-1.43.28c-.43,0-.84-.29-1.22-.88a3.11,3.11,0,0,1-.29-1.35,1.49,1.49,0,0,1,.91-1.23,27.19,27.19,0,0,0,6.76-2.91A24.12,24.12,0,0,0,474,29H466.1a1.88,1.88,0,0,1-1.25-.36,1.65,1.65,0,0,1-.39-1.25,1.67,1.67,0,0,1,.39-1.27A1.76,1.76,0,0,1,466.1,25.77Zm15.84,18.59a.54.54,0,0,0,.62-.6V41.94a.55.55,0,0,0-.62-.62H470.26a.55.55,0,0,0-.62.62v1.82a.54.54,0,0,0,.62.6Zm-1.33-14.22a3.52,3.52,0,0,1,1.46.34A24.42,24.42,0,0,1,487.42,34a1.32,1.32,0,0,1,.52,1,1.91,1.91,0,0,1-.31,1.09,1.43,1.43,0,0,1-1.22.73,2.32,2.32,0,0,1-1.12-.26,3.56,3.56,0,0,1-.91-.52A51.09,51.09,0,0,0,480,33.13a.91.91,0,0,1-.44-.34,1.1,1.1,0,0,1-.5-1,1.63,1.63,0,0,1,.47-1.15A1.17,1.17,0,0,1,480.61,30.14Z"/><path class="cls-2" d="M508.69,36.33q0,10.45-4.89,10.45a6.72,6.72,0,0,1-3-.68A2.33,2.33,0,0,1,499.2,44c0-1,.49-1.56,1.48-1.56a4,4,0,0,1,1.22.28,4.15,4.15,0,0,0,1.17.29c.85,0,1.41-.94,1.67-2.81.09-.76.13-2.1.13-4,0-1.51-.67-2.26-2-2.26-.28,0-.66,0-1.15.07a50.17,50.17,0,0,1-4.29,11c-.55,1-1.11,1.51-1.66,1.51a2.06,2.06,0,0,1-1.38-.47,1.37,1.37,0,0,1-.54-1.09,3.29,3.29,0,0,1,.33-1.46A46.2,46.2,0,0,0,498,34.48a17.28,17.28,0,0,1-2.6.34,1.75,1.75,0,0,1-.86-.18,1.82,1.82,0,0,1-.8-1.77c0-.9.54-1.43,1.64-1.59.71-.05,1.84-.17,3.4-.36.38-1.56.61-2.62.68-3.17a1.9,1.9,0,0,1,2-1.9,1.83,1.83,0,0,1,1.25.47,1.35,1.35,0,0,1,.49,1.14,6.41,6.41,0,0,1-.13,1.09,20.62,20.62,0,0,0-.47,2l1.46-.11c.2,0,.4,0,.57,0a3.47,3.47,0,0,1,2.65,1.11A6.87,6.87,0,0,1,508.69,36.33Zm6.92,1.82a1.6,1.6,0,0,1-.6,1.35,2.24,2.24,0,0,1-1.46.47,1.44,1.44,0,0,1-1.48-1c-.33-.85-.75-2.15-1.27-3.9s-.79-2.75-1-3.2-.35-.84-.54-1.27a3.67,3.67,0,0,1-.34-1.28,1.18,1.18,0,0,1,.6-1,2.48,2.48,0,0,1,1.51-.42,1.52,1.52,0,0,1,1.22.71q1.61,2.36,3.22,9A2,2,0,0,1,515.61,38.15Z"/><path class="cls-2" d="M544.55,36.64a9.51,9.51,0,0,1-2.86,7.15,11.12,11.12,0,0,1-5.13,2.83,6.54,6.54,0,0,1-.93.19,1.86,1.86,0,0,1-1.41-.58,2.05,2.05,0,0,1-.54-1.43A1.65,1.65,0,0,1,535,43.19a12.84,12.84,0,0,0,4.14-2.29,5.62,5.62,0,0,0,1.68-4.26q0-5.28-5.46-5.88a8,8,0,0,1,.06,1A19.33,19.33,0,0,1,533,41q-2.55,4.65-5.85,4.65a4.21,4.21,0,0,1-3.8-2.26,8.27,8.27,0,0,1-1.12-4.29,11.9,11.9,0,0,1,3-8.5,11.27,11.27,0,0,1,8.64-3.36,11.74,11.74,0,0,1,7.67,2.32A8.65,8.65,0,0,1,544.55,36.64ZM531.6,31.75a7.64,7.64,0,0,0,0-.8,6.82,6.82,0,0,0-4.21,2.73,9,9,0,0,0-1.51,5.38c0,1.89.44,2.83,1.33,2.83.45,0,1-.41,1.63-1.22a11,11,0,0,0,1.88-3.46A16.38,16.38,0,0,0,531.6,31.75Z"/><path class="cls-2" d="M552.4,33.49h3.35V26.81a1.88,1.88,0,0,1,3.15-1.35,1.74,1.74,0,0,1,.52,1.35v6.68h2.93a2,2,0,0,1,1.36.39,1.57,1.57,0,0,1,.39,1.25,1.83,1.83,0,0,1-.32,1.17,1.75,1.75,0,0,1-1.43.55h-2.93v2.44h3.35a1.68,1.68,0,0,1,1.2.37c.27.2.41.66.41,1.37a2,2,0,0,1-.23,1.17,1.62,1.62,0,0,1-1.38.55h-3.35V47a1.93,1.93,0,0,1-.37,1.2,1.64,1.64,0,0,1-1.45.62,1.7,1.7,0,0,1-1.43-.62,1.72,1.72,0,0,1-.42-1.2V42.75h-4a1.69,1.69,0,0,1-1.17-.39,1.6,1.6,0,0,1-.47-1.33,1.7,1.7,0,0,1,.47-1.4,1.59,1.59,0,0,1,1.17-.34h4V36.85H552.4a1.89,1.89,0,0,1-1.3-.39,1.72,1.72,0,0,1-.42-1.33,1.56,1.56,0,0,1,.42-1.27A1.94,1.94,0,0,1,552.4,33.49ZM552,25.88a1.77,1.77,0,0,1,1.51.62,9.13,9.13,0,0,1,1.27,2.37,5.47,5.47,0,0,1,.47,1.89,1.16,1.16,0,0,1-.42,1,1.76,1.76,0,0,1-1.32.55,1.78,1.78,0,0,1-1.1-.29.78.78,0,0,1-.31-.54c-.45-1-1.08-2.16-1.9-3.62a1.16,1.16,0,0,1-.05-.34,1.74,1.74,0,0,1,.16-.67,1.56,1.56,0,0,1,.86-.76A1.91,1.91,0,0,1,552,25.88Zm10.24,0a2.39,2.39,0,0,1,1.43.36,1.37,1.37,0,0,1,.6,1.27,3.19,3.19,0,0,1-.18.86,12.64,12.64,0,0,1-1.33,3.2c-.14.49-.58.73-1.33.73a1.55,1.55,0,0,1-1.17-.44,1.35,1.35,0,0,1-.46-1.2,1.9,1.9,0,0,1,.1-.52,15.45,15.45,0,0,0,1.33-3.43A1,1,0,0,1,562.25,25.88Zm4.16.83a1.77,1.77,0,0,1,1.2.39,1.42,1.42,0,0,1,.44,1.12v13a1.55,1.55,0,0,1-.31,1,1.52,1.52,0,0,1-1.33.55,1.41,1.41,0,0,1-1.17-.52,1.52,1.52,0,0,1-.34-1v-13a1.4,1.4,0,0,1,.45-1.12A1.32,1.32,0,0,1,566.41,26.71Zm4.89-1.85c1.13,0,1.7.48,1.72,1.43v19.4A2.15,2.15,0,0,1,572,47.56a5.43,5.43,0,0,1-3.1.78,6.13,6.13,0,0,1-2.72-.62,1.92,1.92,0,0,1-1-1.82c0-1.24.5-1.91,1.51-2a1,1,0,0,1,.41.1,7.12,7.12,0,0,0,1.93.39c.47,0,.7-.27.7-.8V26.29C569.7,25.39,570.24,24.91,571.3,24.86Z"/><path class="cls-2" d="M583.23,26a1.27,1.27,0,0,1,.91.31,12,12,0,0,1,1,1.95,15.33,15.33,0,0,1,.55,1.54V26.29a1.33,1.33,0,0,1,.41-1,1.24,1.24,0,0,1,1-.39,1.31,1.31,0,0,1,1,.39,1.35,1.35,0,0,1,.39,1v3.49a1.42,1.42,0,0,0,0-.16,15.78,15.78,0,0,0,1.28-3.12c.17-.49.44-.73.8-.73a1.76,1.76,0,0,1,1.12.34c.28.12.42.42.42.88a2.73,2.73,0,0,1-.24.94,11.31,11.31,0,0,1-1.38,3,1,1,0,0,1-.93.5,1.28,1.28,0,0,1-.81-.32,1.06,1.06,0,0,1-.31-.33v1.37h2a1.57,1.57,0,0,1,1,.29c.25.16.37.53.37,1.12a1.89,1.89,0,0,1-.21,1.06,1.4,1.4,0,0,1-1.2.47h-1.11a29.24,29.24,0,0,0,2.78,3.67c0-.61,0-1.22,0-1.85v-7.3c0-1.37.36-2.27,1.07-2.68a3.32,3.32,0,0,1,2-.57,19.52,19.52,0,0,0,4.92-1.25,1.13,1.13,0,0,1,.36-.08,1.25,1.25,0,0,1,1.09.49,1.55,1.55,0,0,1,.55,1.33A1.81,1.81,0,0,1,601,28.74a21.27,21.27,0,0,1-4.68.91c-.54.06-.81.33-.81.8v2h5.18a1.7,1.7,0,0,1,1.35.42,2,2,0,0,1,.39,1.43,2.29,2.29,0,0,1-.31,1.32,1.79,1.79,0,0,1-1.43.5h-.11V46.81a1.57,1.57,0,0,1-.41,1.22,1.83,1.83,0,0,1-1.3.41,1.71,1.71,0,0,1-1.23-.41,1.57,1.57,0,0,1-.41-1.22V36.15h-1.72V37a32.8,32.8,0,0,1-1.32,10.27,2.07,2.07,0,0,1-2,1,1.65,1.65,0,0,1-1-.6,2.33,2.33,0,0,1-.39-1.22,3.48,3.48,0,0,1,.31-1.17,23.52,23.52,0,0,0,.88-3.88,1.66,1.66,0,0,1-.46.05,1.25,1.25,0,0,1-.84-.31,1.66,1.66,0,0,1-.57-.6,22.71,22.71,0,0,1-1.56-2.28v3.09a1.63,1.63,0,0,1-.26.94,1.34,1.34,0,0,1-1.14.49,1.36,1.36,0,0,1-1.12-.49,1.4,1.4,0,0,1-.31-.94V38.38A9.08,9.08,0,0,1,583,41.22a1.14,1.14,0,0,1-.91.31v1a.56.56,0,0,0,.63.63h6.6c.94,0,1.41.6,1.41,1.82s-.47,1.82-1.41,1.82h-7.93a2.07,2.07,0,0,1-2.34-2.34V27.62c0-1,.51-1.43,1.54-1.43a1.43,1.43,0,0,1,1.35.62.87.87,0,0,1,.42-.6A1.67,1.67,0,0,1,583.23,26Zm-1.12,1.77V38.49A27.3,27.3,0,0,0,585,35.13h-1.3a1.35,1.35,0,0,1-1.43-1.53,1.35,1.35,0,0,1,.42-1.15,1.51,1.51,0,0,1,1-.26h2V30.87l0,.08a1.59,1.59,0,0,1-1.17.52.83.83,0,0,1-.81-.39A33.31,33.31,0,0,0,582.11,27.75Z"/><path class="cls-2" d="M613.21,28.19c-.21,1.66-.41,3.35-.6,5-.27,2.67-.41,4.81-.41,6.4s0,3.37.15,5.28a1.77,1.77,0,0,1-.54,1.45,1.9,1.9,0,0,1-1.38.55,1.83,1.83,0,0,1-1.25-.44,1.76,1.76,0,0,1-.6-1.33c-.1-2-.15-3.85-.15-5.51s.34-5.75,1-11.88a1.67,1.67,0,0,1,1.84-1.69,2,2,0,0,1,1.43.57A1.82,1.82,0,0,1,613.21,28.19ZM630.6,42.85a2.13,2.13,0,0,1-.57,1.38,1.6,1.6,0,0,1-1.19.68,1.49,1.49,0,0,1-.84-.37c-.26-.19-.85-.6-1.79-1.24a6.12,6.12,0,0,1-5.82,3.35,7.16,7.16,0,0,1-4.14-1.12,3.63,3.63,0,0,1-1.71-3.09,3.78,3.78,0,0,1,1.87-3.38A6.7,6.7,0,0,1,620.28,38a5.7,5.7,0,0,1,2.24.41c0-.88-.07-2.36-.11-4.42-3.6,0-5.48,0-5.64,0a1.65,1.65,0,0,1-1.32-.55,1.81,1.81,0,0,1-.52-1.25,1.66,1.66,0,0,1,.49-1.32,1.6,1.6,0,0,1,1.48-.42c1.35.1,3.18.12,5.49.05v-2c0-1.56.71-2.34,2-2.34a2.08,2.08,0,0,1,1.5.44,2.13,2.13,0,0,1,.42,1.48c0,.3,0,1-.05,2.08.52-.1,1.25-.2,2.18-.31q2-.15,2,1.41a2.18,2.18,0,0,1-.5,1.63,2.63,2.63,0,0,1-1.69.58l-2,.23c0,2.39.09,4.32.18,5.77a18.46,18.46,0,0,1,2.75,1.38A2.65,2.65,0,0,1,630.6,42.85Zm-8.11-1.06a3.23,3.23,0,0,0-2.31-1.07c-1.41,0-2.11.54-2.11,1.61q0,.6.81,1a3,3,0,0,0,1.43.36,2.18,2.18,0,0,0,1.48-.6A1.75,1.75,0,0,0,622.49,41.79Z"/><path class="cls-2" d="M654.63,31.75a4.79,4.79,0,0,1-1.27,3.56,24.86,24.86,0,0,1-2.86,1.82c-.49.25-.78.46-.86.65a2.43,2.43,0,0,0-.08.76,1.61,1.61,0,0,1-.57,1.32,2,2,0,0,1-1.28.45,2.13,2.13,0,0,1-1.32-.39,1.69,1.69,0,0,1-.6-1.38V37.26a2.86,2.86,0,0,1,1.27-2.36c.85-.45,1.68-.89,2.5-1.3s1.3-1.05,1.3-1.64c0-1.35-1-2-3.09-2a3.38,3.38,0,0,0-2.27.73,7,7,0,0,0-1.3,1.61,2.19,2.19,0,0,1-1.79,1.09,1.74,1.74,0,0,1-1.3-.54,1.81,1.81,0,0,1-.55-1.35,4.56,4.56,0,0,1,1.59-3,8.35,8.35,0,0,1,10.61-.55A4.74,4.74,0,0,1,654.63,31.75Zm-4,12.64a2.43,2.43,0,0,1-.88,1.9,3.1,3.1,0,0,1-2.06.75,3,3,0,0,1-2-.75,2.36,2.36,0,0,1-.89-1.9,2.3,2.3,0,0,1,.89-1.87,3,3,0,0,1,2-.76,3.05,3.05,0,0,1,2.06.76A2.32,2.32,0,0,1,650.6,44.39Z"/></g></g></svg>