<svg xmlns="http://www.w3.org/2000/svg" viewBox="0 0 475.77 33.24"><defs><style>.cls-1{fill:#fff;stroke:#fff;stroke-width:1.19px;}.cls-2{fill:none;stroke:#edd098;stroke-linecap:round;stroke-linejoin:round;stroke-width:2px;}</style></defs><g id="Layer_2" data-name="Layer 2"><g id="レイヤー_2" data-name="レイヤー 2"><path class="cls-1" d="M49.72,5.3c-.55-.63-.72-1.42-.38-1.8.59-.63,1.43,0,1.85.25a6.53,6.53,0,0,0,2.27,1,10.62,10.62,0,0,0,2.73-.13c2.43-.21,4.07-.42,6-.59,1.14-.08,3.7-.33,5.51-.5s3.57-.34,4.36-.46a3.25,3.25,0,0,1,2.06.5c.42.3.84.63.84,1s0,.59-.92,1.26A47,47,0,0,1,69.42,9a20.34,20.34,0,0,1-5.88,2.1,44.86,44.86,0,0,1-.21,4.49,22.8,22.8,0,0,1-1.94,6.77,15.2,15.2,0,0,1-3.06,4.58,30.76,30.76,0,0,1-5.21,3.65c-.72.38-1-.25-.59-.5s1-.8,1.93-1.43a17.07,17.07,0,0,0,4.08-4.2A14.68,14.68,0,0,0,60.81,18a22.22,22.22,0,0,0,.12-6.43,7.11,7.11,0,0,0-1.8-4.36,1.85,1.85,0,0,1-.59-1.14,7.58,7.58,0,0,0-1.09.17,30,30,0,0,1-4.75.34A3.53,3.53,0,0,1,49.72,5.3Zm11,.55A6,6,0,0,1,62.57,7a3.08,3.08,0,0,1,.88,2.26c0,.26,0,.59,0,.93a15.65,15.65,0,0,0,2.65-1.47A10.08,10.08,0,0,0,68.7,6.61c.55-.59.89-1.1.72-1.31S69,4.93,68.2,5s-3.15.42-4.92.59C62.49,5.64,61.56,5.72,60.68,5.85Z"/><path class="cls-1" d="M115.66,6.1A1.5,1.5,0,0,1,115.28,8,6.41,6.41,0,0,0,114,10.26a28.65,28.65,0,0,1-3.11,6.26,33.87,33.87,0,0,1-5.5,6.55,23.89,23.89,0,0,1-6,4.25,30.33,30.33,0,0,1-4.79,2.22c-.72.21-1.26.21-1.35,0s.09-.59.55-.71,1-.51,2.48-1.26a26.49,26.49,0,0,0,5.71-3.74,26.5,26.5,0,0,0,5.54-6.18,33.92,33.92,0,0,0,3-5.67c.54-1.51.92-3,1.21-3.95.21-.63.3-1.13,0-1.38a4.18,4.18,0,0,0-2-.05,50.23,50.23,0,0,0-5,.59c-1.77.3-3.57.84-5.08,1a4.22,4.22,0,0,1-3.37-.71c-1-.67-1.3-1.72-.88-2a1.27,1.27,0,0,1,1.43,0A7.66,7.66,0,0,0,99.28,6a27.91,27.91,0,0,0,4.53-.26c2-.16,4.58-.46,5.8-.63A5.33,5.33,0,0,0,112,4.51a1.72,1.72,0,0,1,1.94-.21A4.4,4.4,0,0,1,115.66,6.1Z"/><path class="cls-1" d="M147.45,22.9a27.74,27.74,0,0,0,3.49-4.83c-.21-.25-.38-.5-.55-.67a9.24,9.24,0,0,0-2.9-2.27c-.42-.25-.46-.54-.33-.71.17-.34.8-.17,1.17,0a17.46,17.46,0,0,1,3.53,2c.84-1.47,1.56-2.82,2.14-4.12a14,14,0,0,0,1.14-3.61c.08-.55-.25-.59-.59-.59-.84,0-1.51,0-2.81.12a25,25,0,0,0-3.78.47,4.25,4.25,0,0,0-.72.16A28.61,28.61,0,0,1,144.43,13a24.25,24.25,0,0,1-3.66,3.82,12.8,12.8,0,0,1-3,2.06c-.67.25-1.18.42-1.35.13s.13-.63.51-.84a12.55,12.55,0,0,0,1.76-1.26,25.27,25.27,0,0,0,4-4.37c1-1.47,2.06-3.32,2.61-4.37a20.09,20.09,0,0,0,1.17-3.28,1.46,1.46,0,0,0-.5-1.55.73.73,0,0,1-.25-1c.16-.25.75-.25,1.55,0a2.5,2.5,0,0,1,1.6,1.89A6.15,6.15,0,0,1,148,7.28c1.39,0,3.07-.13,4.33-.25a9.25,9.25,0,0,0,2.6-.55c.25-.21.55-.5.84-.8a1.38,1.38,0,0,1,1.39-.33A3.9,3.9,0,0,1,159.05,7c.29.63.21,1-.51,1.6a3.7,3.7,0,0,0-1.47,1.68c-.29.76-.63,1.89-1.26,3.36a42.13,42.13,0,0,1-2.18,4.2,13.28,13.28,0,0,1,1.76,1.68c.88,1,1.64,2.82.3,3.61s-2.52-1-3.07-2.18a5.21,5.21,0,0,0-.5-.92,33.66,33.66,0,0,1-2.74,3.31,27.81,27.81,0,0,1-4.45,3.83,33.78,33.78,0,0,1-6.55,3.57,14.24,14.24,0,0,1-2.48.84c-.42.12-.84.12-.92-.09s0-.54.67-.75a20.79,20.79,0,0,0,3.19-1.3,29.56,29.56,0,0,0,3.53-2.15A29.42,29.42,0,0,0,147.45,22.9Z"/><path class="cls-1" d="M206.21,17.74c-.08.5-.67.67-1.55.5s-3.24-.42-4.75-.54a61.45,61.45,0,0,0-6.38-.21c-1.52.12-4.58.21-6.56.42-1.55.16-3.36.58-4.83.63a6.62,6.62,0,0,1-3.78-1.1c-.84-.63-1.17-1.59-.71-1.93.71-.54,1.93,0,3,.25a17.27,17.27,0,0,0,4.58.47c1.72-.09,5.29-.26,7.1-.3s6.68-.25,8.36-.29a13.49,13.49,0,0,1,4.32.42A1.71,1.71,0,0,1,206.21,17.74Z"/><path class="cls-1" d="M244.22,28.41c-1.3.17-2.27.25-5.12.42a30.55,30.55,0,0,1-7.61-.13c-2.56-.5-4-1.22-4.87-2.43s-.88-3.24-.71-5.84.21-4.62.29-6.73a31.46,31.46,0,0,0-.08-5,4.45,4.45,0,0,0-1.26-2.65c-.47-.42-.76-.71-.59-1.09.25-.63,1.85-.46,2.81-.21a2.39,2.39,0,0,1,1.81,1.64c.38.84-.13,2-.25,2.64a43.68,43.68,0,0,0-.59,6.35v.12c.42-.08,1-.21,1.76-.42A52.2,52.2,0,0,0,235.57,13a37.12,37.12,0,0,0,4.91-2.56c1-.63,1-1.43.76-1.85s-.38-1-.08-1.26a2,2,0,0,1,2.1.5,2.23,2.23,0,0,1,.63,3c-.76,1.42-2.57,2.18-5.26,3.23a47.13,47.13,0,0,1-7.3,2.23,21.58,21.58,0,0,1-3.32.46c-.09,1.93-.26,4.62-.21,6.3.08,2.06,1.34,2.82,2.81,3.49a11.6,11.6,0,0,0,4.92.71,19.12,19.12,0,0,0,4.83-.71,8.39,8.39,0,0,1,3.74-.76c1.42.09,2.22,1,2.1,1.56S245.52,28.2,244.22,28.41ZM248.8,6.65c-1,.46-1.76.21-2-.21s0-.88.63-1.09a1.49,1.49,0,0,0,1-1.43,1.45,1.45,0,0,0-1.93-1.47c-1.13.25-1.3,1.51-.8,2.6.21.51.38,1,.09,1.18s-.88-.17-1.26-1A3.06,3.06,0,0,1,247.41.6c2.31.12,3.7,1.68,3,4.16A2.76,2.76,0,0,1,248.8,6.65Z"/><path class="cls-1" d="M267,27.65a15.59,15.59,0,0,1-3.74,2.65c-.63.25-1.13.42-1.3.17s.25-.51.67-.8a14.29,14.29,0,0,0,3-2.27,18,18,0,0,0,3.48-4.75,23.67,23.67,0,0,0,2.1-5.54,27.81,27.81,0,0,0,.88-5.34c.13-2,0-3-1-3.78-.55-.42-.93-1-.63-1.43s.75-.42,1.72-.16A4.65,4.65,0,0,1,274.75,8c.8.88.76,1.51.51,1.89a2,2,0,0,0-.42,1.18,36.8,36.8,0,0,1-.55,4.54,19.72,19.72,0,0,1-2.77,7A24.59,24.59,0,0,1,267,27.65Zm12.1-5.92c.38-.42.5-.84.5-2.14s0-3.83,0-6.14.09-4,.09-5.42-.17-2.18-1.09-2.85-1.1-1.3-.84-1.68.79-.38,1.38-.25a6,6,0,0,1,2.48,1,1.79,1.79,0,0,1,.84,2.31c-.34.63-.34,1.55-.46,5.16s-.17,6.51-.21,7.48.12,1.22.63,1.22a5.9,5.9,0,0,0,2.69-1.18,25.8,25.8,0,0,0,4-3c1.59-1.39,3-2.65,3.82-3.49s1.56-1.34,1.81-1.05,0,.8-.93,1.85c-1.09,1.22-3.11,3.45-5.12,5.38a47.36,47.36,0,0,1-5.17,4.32c-1.43,1.05-2.1,1.39-2.77,1.43a2.33,2.33,0,0,1-1.85-1.17C278.37,22.9,278.53,22.36,279.08,21.73Z"/><path class="cls-1" d="M329.65,29.16c-2.27.26-6,.38-8.82.38s-5.8-.63-7-2.14a4.62,4.62,0,0,1-.21-5.34,12.82,12.82,0,0,1,4.25-3.86A3.6,3.6,0,0,1,316,15.89a21.79,21.79,0,0,1,.21-4.87c.13-1.52.29-3.15.34-4.37A5.41,5.41,0,0,0,316,3.83c-.38-.5-.76-1.13-.59-1.51.34-.67,1.22-.21,1.76.25A8.18,8.18,0,0,1,318.94,5a4.35,4.35,0,0,1-.09,2.73,26.17,26.17,0,0,0-.88,3.57,40,40,0,0,0-.46,4.62,2.47,2.47,0,0,0,.92,1.93c2.48-1.51,5.34-2.9,7.82-4.16.67-.37.42-1.22,0-1.76s.12-.88.79-.8a3.5,3.5,0,0,1,1.73.84c.71.59,1.38,2.27,0,2.9-5.55,2.6-9.28,4.12-12,6.09s-3.11,3.91-1.73,5.46c1.14,1.22,3.49,1.72,5.72,1.68a22,22,0,0,0,6-.84c1.35-.46,3.78-.71,4.45.34S330.83,29,329.65,29.16Z"/><path class="cls-1" d="M357.79,15.55c-.21.47-.76,2.27-1.22,3.45s-1.14,3.61-1.68,5.42a8.86,8.86,0,0,0,0,4.37c.25.92.16,2.1-.47,2.22s-1.21,0-1.84-1.17a13.94,13.94,0,0,1-1-4.92,30,30,0,0,1,.21-5.29,48.36,48.36,0,0,1,1-5,25.33,25.33,0,0,0,.68-4.79,4.72,4.72,0,0,0-.76-3c-.38-.58-.55-1-.25-1.38s1.05-.13,1.47.33A7.15,7.15,0,0,1,355.31,8a5.65,5.65,0,0,1,0,3.61c-.34,1.14-1,3.07-1.6,5.21a24.48,24.48,0,0,0-.55,5.51c0,.71.51.58.59.21.3-.84,1-2.82,1.51-4s.89-1.6,1.73-3.36c.21-.46.54-.84.84-.67S358,15.05,357.79,15.55ZM378.33,30c-.21.47-1.09.51-1.64-.08a33,33,0,0,0-2.9-2.35,9.22,9.22,0,0,0-1.38-.93c0,.38-.05.68-.05.93A4.08,4.08,0,0,1,369.09,31a9.44,9.44,0,0,1-5.84-.59c-1.64-.79-2.31-2-2.19-3.19a3.39,3.39,0,0,1,2.44-2.86,10.76,10.76,0,0,1,4.92-.5,12.28,12.28,0,0,1,2.09.34c0-1,0-2.06,0-2.94,0-1.39-.08-3-.08-4.92,0-.84,0-1.85,0-2.73a12.5,12.5,0,0,1-3.53-.29,6.08,6.08,0,0,1-2.9-1.52c-.75-.71-.79-1.55-.58-1.63.37-.21.79.21,1.38.58a6,6,0,0,0,2,.8,13.21,13.21,0,0,0,3.69.34,4.25,4.25,0,0,0,0-1,33,33,0,0,0-.25-4.24c-.17-1.26-.29-1.68-.8-2.19s-.71-1-.46-1.42.67-.42,1.6,0a3.23,3.23,0,0,1,2.1,2.23,7.8,7.8,0,0,1,.08,3.44,8.38,8.38,0,0,0,2.1.84,6.93,6.93,0,0,1,2.23.63c.38.34.29,1.39-.72,2.1a8.75,8.75,0,0,1-4.11,1.18c0,1.05-.09,2.1,0,2.69,0,1.34.12,3.7.25,5.84,0,.88,0,1.85,0,2.73.5.17,1.05.34,1.55.55a8.54,8.54,0,0,1,3.7,2.26A2.37,2.37,0,0,1,378.33,30Zm-7.86-4.28c-.17-.08-.42-.17-.63-.25a10.84,10.84,0,0,0-4.62-.38c-1.26.17-2.6.84-2.73,2.1s.59,1.93,2.35,2.31a5.14,5.14,0,0,0,3.91-.5,3.8,3.8,0,0,0,1.72-3.24Zm2.19-16.34a4.76,4.76,0,0,0-.09.8c-.08.42-.08.88-.16,1.47.63-.17,1.17-.34,1.59-.47s.42-.37.13-.54S373.25,9.88,372.66,9.38Z"/><path class="cls-1" d="M407.52,24.79V23.24a14.16,14.16,0,0,1,1.3-6.51,17,17,0,0,1,2.39-3.23c2-2.19,2.94-4.25,2.94-6a4.84,4.84,0,0,0-1.93-4A7.1,7.1,0,0,0,407.68,2a8.56,8.56,0,0,0-5.46,1.85,4.11,4.11,0,0,0-1.76,3.07,3.86,3.86,0,0,0,.08.71,1.83,1.83,0,0,1,1.64-1c1.22,0,1.89.67,1.89,2.1S403.23,11,401.51,11a2.94,2.94,0,0,1-1.93-.8,3.32,3.32,0,0,1-1-2.52A5.87,5.87,0,0,1,401,3.16,11.11,11.11,0,0,1,408.19.85a10.68,10.68,0,0,1,6.3,1.81,5.91,5.91,0,0,1,2.94,5c0,2.18-1.43,4.36-4.28,6.68a11.25,11.25,0,0,0-3.45,3.78,12.72,12.72,0,0,0-1.05,5.33v1.34Zm1.89,3.49a2.34,2.34,0,0,1,1.09,2,2.12,2.12,0,0,1-.67,1.59,2.34,2.34,0,0,1-1.73.76A2.2,2.2,0,0,1,407,32.4a2.16,2.16,0,0,1-1.3-2.1,2.45,2.45,0,0,1,.71-1.72,2.21,2.21,0,0,1,1.64-.68A2.52,2.52,0,0,1,409.41,28.28Z"/><line class="cls-2" x1="18" y1="8.61" x2="32" y2="27.61"/><line class="cls-2" x1="1" y1="5.61" x2="26" y2="30.61"/><line class="cls-2" x1="457.77" y1="9.35" x2="443.77" y2="28.35"/><line class="cls-2" x1="474.77" y1="6.35" x2="449.77" y2="31.35"/></g></g></svg>