<svg xmlns="http://www.w3.org/2000/svg" viewBox="0 0 364.64 35.67"><defs><style>.cls-1{fill:#fff;stroke:#fff;}.cls-2{fill:none;stroke:#edd098;stroke-linecap:round;stroke-linejoin:round;stroke-width:2px;}</style></defs><g id="Layer_2" data-name="Layer 2"><g id="レイヤー_2" data-name="レイヤー 2"><path class="cls-1" d="M63.89,24.81a10.51,10.51,0,0,0,3.94,1.89,23.09,23.09,0,0,0,7,.84,20.73,20.73,0,0,0,4.87-1.14,3.27,3.27,0,0,1,2.35,0,2.45,2.45,0,0,1,1.31,1.26c.08.42-.21.93-1.85,1.43a23.21,23.21,0,0,1-7.14.67,26.37,26.37,0,0,1-7.1-1.17,10.47,10.47,0,0,1-4.12-2.1A4.93,4.93,0,0,1,62,23.88c-.13-.75.08-1.22.33-1.26s.59.46.67.84A3.52,3.52,0,0,0,63.89,24.81ZM74.47,8.68c-.92,0-1.85-.17-3.27-.38s-3-.46-3.83-.72-1.22-.92-1-1.17c.38-.38.89-.25,1.35,0a9.27,9.27,0,0,0,2.35.29,21.22,21.22,0,0,0,3.28-.34c1.26-.25,2.94-.79,4-.92s1.34.17,1.51.92-.46,1-1.17,1.39a14.22,14.22,0,0,0-1.35.92c-.55.38-1.3,1-1.81,1.31s-.79.37-1,.25-.13-.46,0-.67A9.48,9.48,0,0,0,74.47,8.68Zm8.82-.59a16.65,16.65,0,0,0-2.43-2c-.34-.21-.51-.5-.34-.75s.51-.21.67-.21a7.64,7.64,0,0,1,2.31.54A5.19,5.19,0,0,1,86,7.37a1,1,0,0,1-.58,1.52A2.49,2.49,0,0,1,83.29,8.09Zm3.32-1.72A6.13,6.13,0,0,0,84.05,4.6c-.38-.13-.55-.5-.38-.76s.46-.21.67-.21A9.16,9.16,0,0,1,86.7,4a5.17,5.17,0,0,1,2.56,1.6,1,1,0,0,1-.55,1.55A2.37,2.37,0,0,1,86.61,6.37Z"/><path class="cls-1" d="M107.36,18.13a41.22,41.22,0,0,1-7.61,10.75L99,28.17a38,38,0,0,0,8-14.87l.09-.34H100L99.5,12h7.86V5.69c-2.52.55-4.71.93-6.52,1.18L100.42,6c5.63-1.22,9.88-2.78,12.65-4.58,1.81,1,2.65,1.76,2.65,2.26,0,.21-.26.38-.8.38a5.73,5.73,0,0,1-1.14-.17c-1,.38-2.14.68-3.61,1.14l-.59.17V12H113l1.89-2.61c.92,1,1.72,2,2.35,2.82l-.38.71h-7.31V16.7q7.07,3.47,7.06,6.43c0,1-.46,1.51-1.3,1.51-.59,0-1-.51-1.47-1.39a16.27,16.27,0,0,0-4.29-5.46V34.72h-2.22Zm11.88,8.4V6c2.4.12,3.62.46,3.62,1,0,.34-.51.68-1.52,1V26.53Zm1.35,4.41a50.13,50.13,0,0,0,5.46.34c1.13,0,1.72-.42,1.72-1.26V1.83c2.4.12,3.61.46,3.61,1,0,.29-.5.63-1.38,1V31.11a2.84,2.84,0,0,1-2.14,3.06,7.32,7.32,0,0,1-1.89.26c0-.76-.47-1.31-1.39-1.64a20.92,20.92,0,0,0-4-.84Z"/><path class="cls-1" d="M170,4.1l1.6-1.89c1.59,1.26,2.39,2.1,2.39,2.43s-.12.34-.33.51l-1,.63V31c0,2.1-1.3,3.15-3.91,3.11a1.68,1.68,0,0,0-1.18-1.55,34.45,34.45,0,0,0-3.78-.8v-1a33.67,33.67,0,0,0,5,.3c1.09,0,1.64-.42,1.64-1.18V21.66H160.19V32.41h-2.14V21.66h-9.2q-.75,8.74-6.17,13.1l-.76-.75c3.19-3.53,4.79-8.49,4.79-15V2.84a16.76,16.76,0,0,1,2.73,1.26ZM158.05,20.73V13.21h-9.11v5.88c0,.72-.05,1.26-.05,1.64Zm0-15.71h-9.11v7.23h9.11Zm12.31,7.23V5H160.19v7.23Zm0,1H160.19v7.52h10.17Z"/><path class="cls-1" d="M216.94,16.32a16.2,16.2,0,0,1-.55,5.8,9.32,9.32,0,0,1-4.07,5.29,19.37,19.37,0,0,1-6.93,2.52,17.88,17.88,0,0,1-6.77,0c-.42,0-.63-.21-.58-.42s.25-.37.58-.33a21.54,21.54,0,0,0,2.23.12,20.84,20.84,0,0,0,5-.71A18.55,18.55,0,0,0,211,26.15a9.58,9.58,0,0,0,3.61-6,14.89,14.89,0,0,0-.55-6.94,8.72,8.72,0,0,0-3.69-5.2,11.9,11.9,0,0,0-7.31-1.56c-.34,0-.72.13-1.1.17.09.84.09,2.18.13,3.23a28.09,28.09,0,0,1-.63,5.76A18.52,18.52,0,0,1,198.54,23c-1.6,2.1-3.53,3.53-5.5,3.53s-3.36-1.13-4.29-3.19a9.06,9.06,0,0,1-.54-6.26A12.61,12.61,0,0,1,191,11.28a17.77,17.77,0,0,1,5.38-4.41A17.2,17.2,0,0,1,204.34,5,13.17,13.17,0,0,1,211,6.79a12.32,12.32,0,0,1,4.41,4.41A11.17,11.17,0,0,1,216.94,16.32ZM200.72,7a17.14,17.14,0,0,0-5.29,2.44,14.11,14.11,0,0,0-5,6.17A10,10,0,0,0,190.1,22c.58,1.43,2,1.72,3.69,1.18A7.52,7.52,0,0,0,198,19.68a16.3,16.3,0,0,0,2.43-6.76A29.39,29.39,0,0,0,200.72,7Z"/><path class="cls-1" d="M229,9.6c3.19,1.05,4.74,2.52,4.74,4.24,0,1-.37,1.43-1.17,1.43s-1.09-.46-1.3-1.34a6.42,6.42,0,0,0-2.73-3.7Zm10-.46L234.11,24.6a10.65,10.65,0,0,0-.59,2.68,5.09,5.09,0,0,0,.21,1.31,18.84,18.84,0,0,1,.55,3.82c0,1.47-.55,2.23-1.72,2.23-.93,0-1.35-.47-1.35-1.39,0-.17.13-.84.26-2.1a15.73,15.73,0,0,0,.16-2.39c0-1.56-.33-2.65-1-3.16a3.69,3.69,0,0,0-1.8-.58V24a7.33,7.33,0,0,0,1.17.12,2.39,2.39,0,0,0,2.4-1.3A133.8,133.8,0,0,0,238.1,8.55Zm-7.69-7.65c3.4,1.05,5.08,2.4,5.08,4.12,0,1-.42,1.47-1.34,1.47-.51,0-.8-.38-1.05-1.18a7.7,7.7,0,0,0-3.19-3.74Zm4.12,32.77a11.45,11.45,0,0,0,5.08-5.67,15.38,15.38,0,0,0,.84-5.38V18.38c2.39.13,3.57.46,3.57,1s-.46.71-1.39,1v2.68c0,3.32-.63,6-2,7.94a12.29,12.29,0,0,1-5.51,4Zm12.3-27.81V.53c2.48.12,3.7.46,3.7,1,0,.34-.54.67-1.55,1.09V6.45h7.18L259,3.8a19.24,19.24,0,0,1,2.69,2.86l-.34.71H249.28a43.8,43.8,0,0,1-4.16,6.43c.46,0,.84,0,1.13,0,2,0,4.25-.09,6.64-.25l3.53-.21a23.2,23.2,0,0,0-3.78-3.78l.5-.76c5.17,2.77,7.73,5.29,7.73,7.48a1.18,1.18,0,0,1-1.34,1.3q-.7,0-1.26-1.26c-.26-.59-.68-1.26-1.14-2.06l-.71.13c-5.25.88-10.38,1.3-15.21,1.63-.29.89-.54,1.31-.8,1.31-.46,0-.92-1.14-1.34-3.41,2.22,0,3.78,0,4.79,0a42,42,0,0,0,2.64-6.47h-7.94l-.46-.92Zm-.37,26.38V18.3c2.27.16,3.4.5,3.4,1,0,.26-.42.55-1.3.89V32.83Zm14.24-6.89c-.05.59-.05,1.3-.05,2.1a8.32,8.32,0,0,0,.38,3.19,1,1,0,0,0,1,.55c0,1.13-.42,1.81-1.09,2.06a13.14,13.14,0,0,1-3.83.29c-2.22,0-3.52-.25-4-.8a2.51,2.51,0,0,1-.42-1.59V17.5c2.36.12,3.53.46,3.53,1,0,.29-.46.63-1.38,1v11.6c0,.75.67,1.13,2,1.13,1.09,0,1.76-.29,2.06-.92a17,17,0,0,0,.8-5.13l0-.63Z"/><path class="cls-1" d="M305.05,25.35a14.56,14.56,0,0,1-2.52,3,6.45,6.45,0,0,1-3.52,1.8,4,4,0,0,1-2.9-.46,3.71,3.71,0,0,1-1.94-2.48c-.33-1.18-.08-3.61.05-5.67s.16-4,.25-5.63c.08-1.89.17-3.61-.42-4.2a3.21,3.21,0,0,0-3-.42,11.87,11.87,0,0,0-4.37,2.23,52.53,52.53,0,0,0-4.08,3.57v.71c.05,2.14.17,4.37.3,5.8s.12,2.6.16,4.45a10.11,10.11,0,0,1-.37,3.53,1.64,1.64,0,0,1-1.31,1.13.9.9,0,0,1-1.17-.75c-.09-.51-.17-1.47-.46-2.73s-.93-2.86-1.64-5.09c-.17-.46-.3-.92-.46-1.34h-.05a13,13,0,0,0-2.22,4.37c-.34,1.34-.67,2-1.18,2.1s-.92,0-1.39-.76-.21-1.22.51-2.56,1.81-2.81,2.9-4.41c.17-.29.38-.59.59-.92-.34-.89-.63-1.64-.84-2.23a24.19,24.19,0,0,0-1.56-3.66c-.5-.75,0-1.55.93-2.35a16.85,16.85,0,0,1,3.65-2,5.6,5.6,0,0,1,2.06-.51,26.88,26.88,0,0,0-.17-2.77,4.8,4.8,0,0,0-1.39-2.61c-.58-.63-.79-1.38-.46-1.63.51-.42,1.22-.21,2.1.42A6.49,6.49,0,0,1,283.34,6a4.55,4.55,0,0,1,0,3.31,7.37,7.37,0,0,0-.25,1.1,1.72,1.72,0,0,1,.92.71,2.38,2.38,0,0,1-.17,1.85c-.33.5-.59,1-.5,1.05s.38.21.84-.25a52.07,52.07,0,0,1,5.21-3.7,7,7,0,0,1,3.82-1.3,3.12,3.12,0,0,1,2.61,1.3,5.17,5.17,0,0,1,.92,3.15,43.56,43.56,0,0,1-.21,5.25c-.29,2.48-.38,4.92-.42,7s.8,2.86,2.1,2.95a6.36,6.36,0,0,0,3.61-1.27,23.3,23.3,0,0,0,2.56-2.1C304.93,24.51,305.43,24.72,305.05,25.35ZM280.94,12.83a1.17,1.17,0,0,0-1.09-.46,8.26,8.26,0,0,0-2.6.8,2.34,2.34,0,0,0-1.05,2.9c.42,1,.88,2.1,1.42,3.49.89-1.26,1.85-2.48,2.31-3.07a6.29,6.29,0,0,0,1-1.51C280.9,14.22,280.94,13.46,280.94,12.83Zm0,13.82c0-.54,0-1.34-.13-3.06,0-1.26,0-2.86,0-4.66a31.63,31.63,0,0,0-2.35,2.77c.76,2,1.47,4.11,1.77,4.83S280.9,27.2,280.9,26.65Z"/><line class="cls-2" x1="18" y1="11.9" x2="32" y2="30.9"/><line class="cls-2" x1="1" y1="8.9" x2="26" y2="33.9"/><line class="cls-2" x1="346.64" y1="11.9" x2="332.64" y2="30.9"/><line class="cls-2" x1="363.64" y1="8.9" x2="338.64" y2="33.9"/></g></g></svg>