<svg xmlns="http://www.w3.org/2000/svg" viewBox="0 0 258 75"><defs><style>.cls-1{fill:#00c200;}.cls-2{fill:#fff;}.cls-3{opacity:0.94;}.cls-4{fill:#00c500;}.cls-5{fill:none;stroke:#fff;stroke-linecap:round;stroke-miterlimit:10;stroke-width:1.5px;}</style></defs><g id="Layer_2" data-name="Layer 2"><g id="レイヤー_2" data-name="レイヤー 2"><rect class="cls-1" width="258" height="75" rx="14"/><path class="cls-2" d="M46.28,13.48a25.48,25.48,0,0,0,.09,2.68c.17,1.87.66,3.11,1.45,3.11.6,0,1.11-1.29,1.38-2.38l1,1.11c-.76,2-1.49,2.75-2.37,2.75-1.2,0-2.3-1.15-2.62-4.28A31.75,31.75,0,0,1,45,13.29,6.22,6.22,0,0,0,45,12.17l1.45,0A9.68,9.68,0,0,0,46.28,13.48Zm8.32,4.94-1.23.48a11.86,11.86,0,0,0-2.08-6l1.19-.39A12.51,12.51,0,0,1,54.6,18.42Z"/><path class="cls-2" d="M66.41,20.57a8.69,8.69,0,0,0-2.65-1.73c0,.24,0,.45,0,.61,0,.9-.65,1.73-2.2,1.73-1.8,0-2.77-.66-2.77-1.86s1.07-1.92,2.84-1.92c.3,0,.59,0,.88.05,0-.44,0-.92-.05-1.36h-.65c-.75,0-2.1-.06-2.92-.16V14.81a19.35,19.35,0,0,0,2.92.23h.62v-1.5h-.59a22.94,22.94,0,0,1-2.7-.18V12.27a18.3,18.3,0,0,0,2.69.23h.61v-.67c0-.22,0-.57,0-.76h1.27c0,.22-.06.48-.07.8,0,.14,0,.35,0,.59a28.28,28.28,0,0,0,3-.3v1.09c-.86.09-1.86.19-3,.24V15c1.17-.06,2.21-.16,3.23-.31l0,1.13c-1.11.13-2.09.2-3.23.25,0,.54.05,1.1.08,1.62a9.54,9.54,0,0,1,3.4,1.83Zm-3.85-2.09a6.06,6.06,0,0,0-1.06-.09c-1,0-1.55.38-1.55.87s.44.85,1.46.85c.67,0,1.17-.19,1.17-1C62.58,19,62.58,18.76,62.56,18.48Z"/><path class="cls-2" d="M81,13.67c-.7,0-1.82-.06-3.55-.06,0,.64,0,1.33,0,1.86a3,3,0,0,1,.42,1.58c0,1.59-.84,3.45-3.66,4.26l-1-1a4.68,4.68,0,0,0,3.06-1.71,2,2,0,0,1-2.83-1.91,2.15,2.15,0,0,1,2.22-2.13,2.34,2.34,0,0,1,.66.08l0-1c-1.8,0-3.74.1-5.21.2l0-1.16c1.34,0,3.55-.08,5.24-.1,0-.26,0-.47,0-.6,0-.3-.06-.7-.1-.87h1.37a8.29,8.29,0,0,0-.06.87c0,.14,0,.34,0,.58H81Zm-5.34,4c.61,0,1.06-.49.91-1.62a1,1,0,0,0-.93-.55,1.06,1.06,0,0,0-1.06,1.12A1,1,0,0,0,75.66,17.71Z"/><path class="cls-2" d="M91.5,11.89l-.91.74c-.8.67-2.44,2-3.28,2.67-.69.59-.67.74,0,1.34,1,.83,3.24,2.64,4.41,3.79l-1.08,1c-.29-.34-.64-.66-.93-1-.64-.7-2.55-2.32-3.66-3.24s-1-1.55.1-2.48c.9-.77,2.63-2.14,3.43-2.94a6.52,6.52,0,0,0,.78-.89Zm.38,3.63-.82.34c-.25-.49-.68-1.31-1-1.78l.78-.33C91.16,14.2,91.64,15.07,91.88,15.52Zm1.42-.58-.79.35a20.09,20.09,0,0,0-1-1.75l.78-.34A17.37,17.37,0,0,1,93.3,14.94Z"/><path class="cls-2" d="M101.21,13.43H96.78v-.89h4.43Zm-.35,7.48H98.28v.51h-1v-4h3.54Zm0-5.87H97.33v-.87h3.51Zm-3.51.73h3.51v.87H97.33Zm3.49-3.94H97.38V11h3.44Zm-2.54,6.46V20H99.9V18.29Zm6.53-7.69A8.94,8.94,0,0,0,108,13.8a6.93,6.93,0,0,0-.61,1,10.54,10.54,0,0,1-3-3.16,9.61,9.61,0,0,1-3,3.24,5.06,5.06,0,0,0-.57-.93,8.54,8.54,0,0,0,3-3.36Zm2.7,7a9.86,9.86,0,0,1-5.57,4,4.52,4.52,0,0,0-.71-1,8.67,8.67,0,0,0,5.27-3.43Zm-2.07-3.59a9.86,9.86,0,0,1-3,2.42,4,4,0,0,0-.72-.69,8.18,8.18,0,0,0,2.71-2.12Zm1,1.74a10.33,10.33,0,0,1-4,3,4.29,4.29,0,0,0-.71-.78,9,9,0,0,0,3.7-2.59Z"/><path class="cls-2" d="M121.07,15.55h-1.21v6h-1.07v-6h-1.5v.14c0,1.78-.21,4.27-1.78,5.94a2.5,2.5,0,0,0-.81-.77,4.7,4.7,0,0,0,.46-.56h-3.74v.89h-1V11h1v8.36h4.21v.12a9.4,9.4,0,0,0,.61-3.78V11.53l.72.23a15.78,15.78,0,0,0,3.08-1l.9.81a18.41,18.41,0,0,1-3.65,1.07v1.91h3.78Zm-7.79,1a7.1,7.1,0,0,1-1.38,2,5.12,5.12,0,0,0-.45-.91A7.94,7.94,0,0,0,113.18,15h-1.5v-.93h1.6V10.67h.93v3.41h1.57V15h-1.57v.35c.36.29,1.33,1.2,1.57,1.44l-.6.77a15.1,15.1,0,0,0-1-1.2v2.71h-.93Zm-1-2.83a8.12,8.12,0,0,0-.48-2.06l.7-.23a7.38,7.38,0,0,1,.52,2Zm3.61-2.07c-.28.7-.63,1.56-.89,2.08l-.65-.21a15.06,15.06,0,0,0,.66-2.1Z"/><path class="cls-2" d="M126.25,15c.42.44,1.49,1.69,1.73,2l-.68.9a14.7,14.7,0,0,0-1-1.63v5.25h-1.07V16.27a11.7,11.7,0,0,1-1.56,3.15,6.62,6.62,0,0,0-.55-1,12.28,12.28,0,0,0,2-4.28h-1.69v-1h1.83V10.56h1.07v2.51h1.61v1h-1.61Zm7.54-3.8V21.41h-1.11v-.64h-3.26v.7h-1.07V11.23Zm-4.37,1.06v1.76h3.26V12.29Zm0,4.6h3.26V15.07h-3.26Zm3.26,2.86V17.91h-3.26v1.84Z"/><path class="cls-2" d="M140.85,13.43h-4.47v-.89h4.47Zm-.39,7.48h-2.58v.5h-1v-4h3.54Zm0-5.88h-3.52v-.86h3.52Zm-3.52.73h3.52v.88h-3.52Zm3.49-3.93H137V11h3.44Zm-2.54,6.45V20h1.62V18.28Zm6.82-1a3.82,3.82,0,0,0,2.79,3.34,8,8,0,0,0-.65.95,4.59,4.59,0,0,1-2.7-2.83,4.83,4.83,0,0,1-3,2.83,4.5,4.5,0,0,0-.64-.9c2.57-.91,3.06-2.67,3.06-3.39V15.54h1.14Zm-4,1.23a3.63,3.63,0,0,0,1.08-2.08l1,.2A4.35,4.35,0,0,1,141.6,19ZM146.63,16A21.2,21.2,0,0,0,144,14.08a4.13,4.13,0,0,1-2.59,2,3.8,3.8,0,0,0-.63-.89c2.46-.75,2.73-2.14,2.84-4.6h1.09a11.8,11.8,0,0,1-.34,2.59,24.93,24.93,0,0,1,3,1.95Zm-3.81-4.47a3.81,3.81,0,0,1-1,2.19l-.85-.41a3.62,3.62,0,0,0,.91-2Zm2.35,7a12.06,12.06,0,0,0,1.06-2.09l1.09.36A22.55,22.55,0,0,1,146,18.76Zm2-6.84A19.81,19.81,0,0,1,146,13.51l-.83-.32a11.19,11.19,0,0,0,.94-1.94Z"/><path class="cls-2" d="M155.21,19c0-.4,0-1.08,0-1.66-1,.56-1.64,1.1-1.64,1.8s.77,1,2,1a19.06,19.06,0,0,0,3.29-.32l0,1.22a32.33,32.33,0,0,1-3.3.2c-1.77,0-3.15-.41-3.15-1.88s1.42-2.39,2.79-3.09a.92.92,0,0,0-1-.58,3,3,0,0,0-2,.85,14.25,14.25,0,0,0-1.09,1.27l-1-.77a12.46,12.46,0,0,0,2.69-3.46h-.35c-.49,0-1.32,0-2-.08V12.31a18.48,18.48,0,0,0,2,.13h.7a7.15,7.15,0,0,0,.27-1.43l1.24.1a12.72,12.72,0,0,1-.34,1.28,26.39,26.39,0,0,0,3.52-.35v1.11a37,37,0,0,1-3.91.32,8.57,8.57,0,0,1-.9,1.55,3.42,3.42,0,0,1,1.51-.35,1.56,1.56,0,0,1,1.58,1c.73-.35,1.35-.6,1.91-.85l1.13-.53.46,1.1c-.32.1-.84.29-1.19.43-.62.23-1.38.56-2.21.94,0,.67,0,1.62.05,2.18Z"/><path class="cls-2" d="M164.47,15.13v6.44h-1.1V11h4.44v4.09Zm0-3.27v.81h2.3v-.81Zm2.3,2.45v-.87h-2.3v.87ZM170,18.77v2.58h-1V18.77H167.5a3.83,3.83,0,0,1-1.57,2.76,3.82,3.82,0,0,0-.72-.66,2.88,2.88,0,0,0,1.32-2.1h-1.36v-.92h1.4V16.71h-1.19v-.89h5.82v.89H170v1.14h1.49v.92Zm-1-.92V16.71h-1.43v1.14Zm4.33,2.35c0,.61-.12.93-.52,1.13a4.74,4.74,0,0,1-1.88.2,3.93,3.93,0,0,0-.36-1.1h1.41c.18,0,.24-.07.24-.25v-5h-3.44V11h4.54Zm-3.48-8.34v.81h2.37v-.81Zm2.37,2.47v-.9h-2.37v.89Z"/><path class="cls-2" d="M180.57,13.07a16.73,16.73,0,0,1-1,5.22,9.72,9.72,0,0,1,1.33,1.27l-.67.9A11.25,11.25,0,0,0,179,19.29a6.4,6.4,0,0,1-2.25,2.31,4.25,4.25,0,0,0-.69-.89,5.16,5.16,0,0,0,2.07-2.12c-.33-.26-.67-.5-1-.73l-.14.48-.92-.49c.29-1,.64-2.4,1-3.84h-1V13h1.23c.17-.85.34-1.69.47-2.44l1.07.12c-.14.72-.31,1.51-.49,2.32h1.37l.2,0Zm-2.46.94c-.22,1-.46,2-.68,2.83.38.24.8.5,1.2.79a13.54,13.54,0,0,0,.81-3.62Zm2.47.58,1-.05a28,28,0,0,0,1.25-4l1.22.25c-.39,1.19-.9,2.6-1.36,3.67l2.73-.15a13.63,13.63,0,0,0-1-1.46l.89-.45a13.1,13.1,0,0,1,1.88,3.19l-1,.53a7.64,7.64,0,0,0-.32-.83c-1.87.15-3.8.27-5.21.38Zm.78,2.09h5.15v4.84h-1.1v-.46h-3v.5h-1.06Zm1.06,1v2.35h3V17.7Z"/><path class="cls-2" d="M199.8,13.66c-.7,0-1.82-.06-3.55-.06,0,.64,0,1.33,0,1.86a3,3,0,0,1,.42,1.58c0,1.59-.84,3.44-3.66,4.26l-1-1a4.68,4.68,0,0,0,3.06-1.71,2,2,0,0,1-2.83-1.91,2.15,2.15,0,0,1,2.22-2.13,2.34,2.34,0,0,1,.66.08l0-1c-1.8,0-3.74.1-5.21.19l0-1.15c1.34,0,3.55-.08,5.24-.11,0-.25,0-.46,0-.59,0-.3-.06-.7-.1-.87h1.37a8.29,8.29,0,0,0-.06.87c0,.14,0,.34,0,.58h3.55Zm-5.34,4c.61,0,1.06-.49.91-1.62a1,1,0,0,0-.93-.55,1.06,1.06,0,0,0-1.06,1.12A1,1,0,0,0,194.46,17.7Z"/><path class="cls-2" d="M211,12.34l-.73.49c-.61.43-2.05,1.69-2.89,2.39a4.33,4.33,0,0,1,1.4-.21c2,0,3.47,1.23,3.47,2.88,0,1.91-1.52,3.26-4.19,3.27-1.64,0-2.74-.75-2.74-1.82a1.83,1.83,0,0,1,2-1.69,2.38,2.38,0,0,1,2.5,2.09A2,2,0,0,0,211,17.88c0-1.11-1.13-1.91-2.58-1.91-1.9,0-3,.89-4.43,2.38l-.87-.89c.92-.75,2.41-2,3.1-2.58l2.63-2.2c-.63,0-2.65.1-3.28.14l-.87.08,0-1.23c.3,0,.66.06.95.06.62,0,3.31-.07,4-.13a5.18,5.18,0,0,0,.75-.12ZM208.69,20a1.43,1.43,0,0,0-1.41-1.45c-.49,0-.85.28-.85.66s.61.84,1.42.84A7.44,7.44,0,0,0,208.69,20Z"/><g class="cls-3"><path class="cls-2" d="M50.16,44.47c-.15.18-2,2.27-2.93,2.27a1,1,0,0,1-1-.88.85.85,0,0,1,.43-.68,9.55,9.55,0,0,0,3.15-3.35.76.76,0,0,1,.67-.39,1,1,0,0,1,1,1,.9.9,0,0,1-.15.49v0h3a.77.77,0,1,1,0,1.53ZM49.56,53c0,1.8,0,4.51-.09,7a.92.92,0,0,1-1,.9.9.9,0,0,1-1-.86v0c.1-3.26.1-7.81.15-11.65,0-.88.4-1.71,2-1.8.55,0,1.55,0,2.37,0a2.31,2.31,0,0,0-1-.57.56.56,0,0,1-.4-.52.89.89,0,0,1,.92-.77c.4,0,1.9.52,1.9,1.31a.78.78,0,0,1-.28.57c1,.09,1.71.64,1.75,1.41,0,.51,0,1.15,0,1.75,0,2.12,0,2.61-4.25,2.61-.44,0-.87,0-1.19-.05Zm3.58-3.05H49.56v1c.3,0,.9,0,1.47,0,2.07,0,2.09-.13,2.11-.58Zm0-1.62c0-.54-.38-.56-1.75-.56-1.53,0-1.77,0-1.81.71v.34h3.56Zm-1.43,9c0-.35,0-.73,0-1.11,0-.64,0-1.31.05-1.84a1.8,1.8,0,0,1,2-1.62c.62,0,1.26,0,1.88,0s1.24,0,1.77,0a1.87,1.87,0,0,1,1.88,1.49c0,.54.06,1.15.06,1.77,0,.45,0,.88,0,1.28a1.94,1.94,0,0,1-2,1.71c-.56,0-1.16,0-1.78,0s-1.21,0-1.77,0C52.5,58.93,51.76,58.27,51.71,57.33Zm5.87-2.2c0-.13,0-.26,0-.37,0-.68-.57-.72-1.83-.72-1.92,0-2.35,0-2.39.75,0,.1,0,.21,0,.34Zm-4.26,1.3v.51c0,.66.64.71,2.09.71s2.13,0,2.17-.73c0-.15,0-.32,0-.49Zm4.46-12c-.41.47-1.71,1.84-2.44,1.84a.94.94,0,0,1-1-.85.83.83,0,0,1,.41-.66,7.65,7.65,0,0,0,2.65-2.93.7.7,0,0,1,.64-.38,1.06,1.06,0,0,1,1,1,.86.86,0,0,1-.13.45h4.72a.77.77,0,1,1,0,1.53Zm2.73,7.8c-2.52,0-4.31,0-4.38-1.56,0-.32,0-.68,0-1.05,0-.62,0-1.26,0-1.75.05-.79.79-1.36,1.86-1.41.34,0,1.05,0,1.73,0a2.34,2.34,0,0,0-1-.57.56.56,0,0,1-.41-.52.9.9,0,0,1,.92-.77c.11,0,1.9.37,1.9,1.31a.83.83,0,0,1-.25.55l.57,0c1.56.07,2.18.86,2.18,1.65,0,1.94,0,5.67,0,7.47,0,.94,0,1.77,0,2.45,0,1.41-.72,2.65-3,2.65-1.43,0-2.15-.19-2.15-1.07a.81.81,0,0,1,.81-.87l.15,0a7.45,7.45,0,0,0,1.09.11c.64,0,1.09-.22,1.11-1.18,0-1.39,0-4.12,0-5.51C61.45,52.25,61,52.27,60.51,52.27ZM61.7,48.4c0-.57-.17-.64-1.85-.64-1.5,0-1.84.05-1.88.58v.47H61.7Zm0,1.54H58v.47c0,.51.11.58,2.22.58.64,0,1.28,0,1.58,0Z"/><path class="cls-2" d="M77.89,57.43V59.8a1,1,0,0,1-1,1,1,1,0,0,1-1-1V57.43l-7,0a.86.86,0,0,1-.94-.88.94.94,0,0,1,.94-1l7,0,0-1.51c-1.24,0-2.65,0-3.46,0-1.52,0-2.26-.86-2.33-2,0-.53,0-1.26,0-2s0-1.43,0-2a2,2,0,0,1,2.26-1.94c1.28,0,2.63,0,4,0l3,0a16.22,16.22,0,0,0,1.64-3.35,1,1,0,0,1,1-.73,1.11,1.11,0,0,1,1.18,1c0,.64-1.71,3-1.8,3.09h.13a2.13,2.13,0,0,1,2.18,1.79c0,.52.06,1.18.06,1.86s0,1.58-.06,2.16a2.21,2.21,0,0,1-2.29,2c-1,0-2.37,0-3.56,0l0,1.51,7.17,0a.85.85,0,0,1,.88.92.86.86,0,0,1-.88.92Zm-5.06-11.5a.78.78,0,0,1-.72-.47,6.32,6.32,0,0,0-1.35-1.65.7.7,0,0,1-.23-.51c0-.45.53-.85,1.08-.85.94,0,2.33,1.85,2.33,2.43A1.14,1.14,0,0,1,72.83,45.93ZM76,47.83c-1,0-2,0-2.93,0S72,48.59,72,49.41h4Zm0,3.09H72c0,1,0,1.58,1.08,1.62.86,0,1.86.05,2.89.05Zm1.19-5.29a.75.75,0,0,1-.77-.6,6,6,0,0,0-1-1.94.78.78,0,0,1-.13-.41.93.93,0,0,1,1-.79c1.2,0,2,2.39,2,2.71A1.14,1.14,0,0,1,77.12,45.63Zm4.72,3.78c0-.26,0-.47,0-.67,0-.53-.34-.85-1-.87s-1.88,0-2.92,0l0,1.58Zm-4,1.51v1.67c1,0,2,0,2.92-.05s1-.7,1-1.62Z"/><path class="cls-2" d="M101.21,55.72c0,.67,0,1,.06,1.61,0,1.64-.88,3-4.23,2.41-1.94-.34-1.15-2.54.2-2.12.87.28,2,.41,2-.72s-.09-3.48-.15-5.72a24.71,24.71,0,0,1-6.94,6.51c-1.77,1.13-2.81-.9-1.47-1.6a19.31,19.31,0,0,0,7.17-6.64c-1.9,0-3.8.11-5.59.17a1,1,0,1,1-.06-2c2.13-.09,4.46-.13,6.76-.15,0-1.22-.08-2.25-.1-2.8a1,1,0,1,1,2.07-.09c0,.6,0,1.65,0,2.86,1.22,0,2.41,0,3.54,0a1,1,0,1,1-.06,2c-1.11,0-2.29-.08-3.46-.08C101,51.67,101.1,54.12,101.21,55.72Z"/><path class="cls-2" d="M116.81,50.26a7.81,7.81,0,0,0-3.15-1.58c-1.29-.3-.75-2.45.87-2a13.53,13.53,0,0,1,3.76,1.63,1.26,1.26,0,0,1,.28,1.77A1.14,1.14,0,0,1,116.81,50.26Zm-1.32,8.82a1.22,1.22,0,1,1-.72-2.31c4.29-1.09,8.6-5.51,10.75-9.69a1.17,1.17,0,1,1,2,1.26C124.82,53.14,120.4,57.52,115.49,59.08Z"/><path class="cls-2" d="M137.65,59.7c-1.75.53-2.54-1.58-.83-2,4.21-1.13,6.92-3.72,7.88-6.43.21-.57.11-.92-.71-.94-2.17,0-6.14,0-8.43.11a1,1,0,1,1-.06-2c2.75-.06,6.34-.08,9.24-.06,2.14,0,3.18,1.22,2.31,3.31C145.55,55.21,143,58.07,137.65,59.7Zm6.79-13.33c-2,0-4.95.07-7.26,0-1.4,0-1.49-2,.15-2,2,0,5,0,7.2,0a1,1,0,0,1,1.15,1C145.68,45.88,145.32,46.37,144.44,46.37Z"/><path class="cls-2" d="M156.38,55.75c-2,1.19-3.07-1-1.62-1.69a28.29,28.29,0,0,0,10.41-9.65,1.12,1.12,0,1,1,1.91,1.13c-1,1.28-1.88,2.44-2.8,3.5-.07,2.18-.11,7.77,0,9.91A1.13,1.13,0,1,1,162,59c0-1.71.11-5.19.13-7.68A31.37,31.37,0,0,1,156.38,55.75Z"/><path class="cls-2" d="M180.87,50.26a7.92,7.92,0,0,0-3.16-1.58c-1.28-.3-.75-2.45.87-2a13.28,13.28,0,0,1,3.76,1.63,1.26,1.26,0,0,1,.28,1.77A1.13,1.13,0,0,1,180.87,50.26Zm-1.32,8.82a1.22,1.22,0,1,1-.73-2.31c4.29-1.09,8.6-5.51,10.76-9.69a1.16,1.16,0,1,1,1.94,1.26C188.87,53.14,184.46,57.52,179.55,59.08Z"/><path class="cls-2" d="M201.3,59.82a1.06,1.06,0,0,1-2.09,0v0L199.3,52a20.6,20.6,0,0,1-2.16,3,1.1,1.1,0,0,1-.81.38,1.08,1.08,0,0,1-1.09-1,1,1,0,0,1,.34-.71,18.8,18.8,0,0,0,3.72-5.1v-.28l-2.46,0h0a.94.94,0,1,1,0-1.88h2.44l-.07-3.61v0a1,1,0,0,1,1-.94,1,1,0,0,1,1,.94v0s0,1.69-.06,3.61h2.07a.94.94,0,0,1,0,1.88h0l-2.09,0c0,.54,0,1,0,1.52a.93.93,0,0,1,.23,0c.43,0,2.82,1.51,2.82,2.45a1.11,1.11,0,0,1-1,1.07.83.83,0,0,1-.66-.36,9.94,9.94,0,0,0-1.34-1.43c0,3.33.08,8.34.08,8.34Zm3.76-8.36c0-2.16,0-4.32,0-6,0-2.46,1.5-2.54,4.38-2.54,2.3,0,4.1,0,4.16,2.41,0,1.79.07,4,.07,6.34,0,2,0,4-.05,5.7,0,2.35-1.17,2.84-3.73,2.84-3.57,0-4.76-.11-4.83-2.8C205.08,55.72,205.06,53.59,205.06,51.46Zm6.7-1.63h-4.82V53h4.82Zm0-1.81c0-.71,0-1.37,0-1.94,0-1.26-.15-1.33-2.31-1.33-.44,0-.89,0-1.3,0C207,44.86,207,45.2,207,48ZM207,54.79c0,.79,0,1.53,0,2.17,0,1.22.34,1.33,2.63,1.33,2,0,2.05-.47,2.07-1.39,0-.64,0-1.37,0-2.11Z"/><path class="cls-2" d="M217.79,47.16a.85.85,0,0,1-.92-.87.87.87,0,0,1,.92-.88h6a.88.88,0,1,1,0,1.75Zm4.29,13.05c-.45,0-1,0-1.45,0s-1,0-1.41,0a1.63,1.63,0,0,1-1.58-1.69c0-.55,0-1.09,0-1.62s0-1,0-1.5a1.59,1.59,0,0,1,1.56-1.62c.4,0,.85,0,1.32,0s1.13,0,1.62,0a1.7,1.7,0,0,1,1.71,1.52c0,.49,0,1.07,0,1.62s0,1.11,0,1.58A1.73,1.73,0,0,1,222.08,60.21Zm-3.42-16a.86.86,0,0,1,0-1.71h4.27a.86.86,0,1,1,0,1.71Zm.05,5.7a.86.86,0,1,1,0-1.71H223a.86.86,0,1,1,0,1.71Zm0,2.75a.85.85,0,1,1,0-1.7H223a.85.85,0,1,1,0,1.7ZM222.1,57c0-.38,0-.79,0-1.08,0-.52-.45-.58-1.37-.58-1.36,0-1.36,0-1.36,1.64,0,.39,0,.79,0,1.11s.1.52,1.3.52,1.39-.22,1.41-.54S222.1,57.37,222.1,57Zm6.77-5.78a1,1,0,0,1,1-1,.92.92,0,0,1,.92,1c0,.55,0,1.09-.09,1.62,0,0,0,.09,0,.13a4.85,4.85,0,0,0,.36,1.43,12.07,12.07,0,0,0,1.86-2,.69.69,0,0,1,.61-.35,1.11,1.11,0,0,1,1,1c0,.7-1.54,2-2.67,2.69a7.23,7.23,0,0,0,3.54,2.63,1,1,0,0,1,.79,1,1,1,0,0,1-1,1.07c-1,0-3.74-1.67-5.17-4.68a8.06,8.06,0,0,1-5.42,4.87,1,1,0,0,1-1-1,.88.88,0,0,1,.68-.87c3.65-1.18,4.55-4,4.55-7.24V51.2Zm1.88-6.32a4.75,4.75,0,0,0,.34,1.37,10.86,10.86,0,0,0,2.13-2.16.75.75,0,0,1,.64-.36,1.15,1.15,0,0,1,1.07,1.11c0,.21-.17,1.09-3,2.84A6.77,6.77,0,0,0,235.29,50a1,1,0,0,1,.79.94,1,1,0,0,1-1,1c-1.11,0-3.74-1.82-5-4.31a7.66,7.66,0,0,1-4.76,4.48,1,1,0,0,1-.94-1,.89.89,0,0,1,.62-.83c3-1.29,3.91-3.61,3.91-6.6,0-.21,0-.45,0-.68v0a1,1,0,0,1,1-1c.92,0,.94.85.94,1.49a11.26,11.26,0,0,1-.07,1.31Zm-5.64,11.06a.71.71,0,0,1,.09-.36,8.9,8.9,0,0,0,.23-2.69.72.72,0,0,1,.81-.73c.47,0,.94.26,1,.7s0,.67,0,1c0,2.35-.51,2.84-1.21,2.84A.84.84,0,0,1,225.11,55.94Zm.19-8.48a.76.76,0,0,1,.09-.36,8.69,8.69,0,0,0,.23-2.67.73.73,0,0,1,.81-.72c.47,0,.94.25,1,.7s0,.66,0,1c0,1.71-.28,2.82-1.22,2.82A.84.84,0,0,1,225.3,47.46Z"/></g><path class="cls-2" d="M42.22,50.21a4.85,4.85,0,0,0,.09-.64,7.28,7.28,0,0,0,0-.84c-.26-4.51-4.95-8.11-10.69-8.11-5.91,0-10.7,3.81-10.7,8.51,0,4.32,4.05,7.89,9.29,8.44a.58.58,0,0,1,.52.64l-.23,2a.59.59,0,0,0,.84.59A25.34,25.34,0,0,0,40,54.57c.29-.35,1.22-1.67,1.42-2A7.21,7.21,0,0,0,42.22,50.21Z"/><path class="cls-4" d="M25.73,50.85V47.27a.55.55,0,0,0-.55-.55h0a.55.55,0,0,0-.55.55V51.4a.55.55,0,0,0,.55.55h2.19a.55.55,0,0,0,.55-.55h0a.55.55,0,0,0-.55-.55Z"/><path class="cls-4" d="M29.1,52h-.24a.42.42,0,0,1-.42-.43V47.15a.42.42,0,0,1,.42-.43h.24a.43.43,0,0,1,.43.43v4.37A.43.43,0,0,1,29.1,52Z"/><path class="cls-4" d="M33.53,47.27v2.52l-2.22-2.88a.57.57,0,0,0-.43-.19.56.56,0,0,0-.53.57V51.4a.55.55,0,0,0,.55.55h0a.55.55,0,0,0,.55-.55V48.89L33.7,51.8a.52.52,0,0,0,.37.15.57.57,0,0,0,.55-.57V47.27a.55.55,0,0,0-.55-.55h0A.55.55,0,0,0,33.53,47.27Z"/><path class="cls-4" d="M38.72,47.27h0a.55.55,0,0,0-.54-.55H36a.55.55,0,0,0-.55.55V51.4A.55.55,0,0,0,36,52h2.19a.55.55,0,0,0,.54-.55h0a.55.55,0,0,0-.54-.55H36.54v-1h1.64a.54.54,0,0,0,.54-.54h0a.54.54,0,0,0-.54-.55H36.54v-1h1.64A.55.55,0,0,0,38.72,47.27Z"/><line class="cls-5" x1="22" y1="31.5" x2="236" y2="31.5"/></g></g></svg>