<svg xmlns="http://www.w3.org/2000/svg" viewBox="0 0 255 76"><defs><style>.cls-1{fill:#fff;}.cls-2{fill:#f35b5b;}.cls-3{fill:#222;}</style></defs><g id="Layer_2" data-name="Layer 2"><g id="レイヤー_2" data-name="レイヤー 2"><rect class="cls-1" x="1" y="1" width="253" height="74" rx="13"/><path class="cls-2" d="M241,2a12,12,0,0,1,12,12V62a12,12,0,0,1-12,12H14A12,12,0,0,1,2,62V14A12,12,0,0,1,14,2H241m0-2H14A14,14,0,0,0,0,14V62A14,14,0,0,0,14,76H241a14,14,0,0,0,14-14V14A14,14,0,0,0,241,0Z"/><path class="cls-3" d="M38.74,24.62c-.18-.33-.54-.92-.91-1.45v6H36.59V23.45a14.82,14.82,0,0,1-1.67,3.34,6.59,6.59,0,0,0-.63-1.21,15.23,15.23,0,0,0,2-4.12H34.49V20.24h2.1V18.32c-.61.13-1.22.22-1.8.29a3.8,3.8,0,0,0-.38-1,19.48,19.48,0,0,0,4.21-1.07l.91,1a13.13,13.13,0,0,1-1.7.53v2.19h1.61v1.22H37.83v.4c.39.37,1.43,1.52,1.68,1.82Zm5.92,3.27c.46,0,.53-.37.58-2.08a3.47,3.47,0,0,0,1.15.54c-.14,2.07-.46,2.73-1.62,2.73H43c-1.26,0-1.61-.41-1.62-1.81a16,16,0,0,1-2,1.56,4.1,4.1,0,0,0-.93-.93,15,15,0,0,0,3-2.42V19.23h1.27v4.69a18.71,18.71,0,0,0,2.84-6.85l1.2.27a25.48,25.48,0,0,1-1.17,3.85l.6-.17a13.66,13.66,0,0,1,1.32,4.09l-1.19.34a13.75,13.75,0,0,0-1-3.63A16.87,16.87,0,0,1,42.67,26v1.23c0,.58.08.68.54.68Zm-5.78-2.51a10,10,0,0,0,1-4.19l1.05.2a11.35,11.35,0,0,1-1.07,4.47Zm4.88-6A11.56,11.56,0,0,0,41,17.24l.82-.83a11.47,11.47,0,0,1,2.78,2Z"/><path class="cls-3" d="M55.43,24.19A3.11,3.11,0,0,1,54,24a24.47,24.47,0,0,1-3.46,1.22,5.63,5.63,0,0,0-.74-1.06,22.92,22.92,0,0,0,3.68-1.18v-2.8h1.18v2.25a10.88,10.88,0,0,0,3.91-3.12l1.12.5a12.74,12.74,0,0,1-4,3.38H58c.6,0,.7-.17.75-1.22a3.65,3.65,0,0,0,1.07.41c-.14,1.48-.49,1.85-1.7,1.85Zm-2.6-3.48a5,5,0,0,1-1.89,2.69l-1-.67a4.55,4.55,0,0,0,1.82-2.42Zm-1.21-.46H50.35v-2.8h5.19V16.33h1.34v1.12h5.29v2.8H60.84V18.63H51.62Zm8.21,4.86h1.3v4.05h-1.3v-.55H52.77v.58H51.48V25.11h1.29v2.3h2.79v-3h1.32v3h2.95Zm-3.35-4.24a10.88,10.88,0,0,0-2.39-1.46l.63-.74A9.78,9.78,0,0,1,57.15,20Zm3.8-.48A12.41,12.41,0,0,1,62.69,23l-1,.7A13.12,13.12,0,0,0,59.34,21Z"/><path class="cls-3" d="M67.44,22.2c0,2-.19,5.07-1.37,7a5,5,0,0,0-1-.76c1.06-1.81,1.16-4.39,1.16-6.26V18.26H67.9A11,11,0,0,0,67,16.93l1.09-.53A7,7,0,0,1,69.21,18l-.58.29h2.65a7.51,7.51,0,0,0-.78-1.55l1.07-.42a5.79,5.79,0,0,1,.9,1.63l-.81.34h2.91l-.4-.14a10.56,10.56,0,0,0,1.24-1.86l1.33.4c-.42.56-.88,1.15-1.27,1.6h2.39V19.4H67.44Zm4.84.61V29.2H71.21V28c-1.32.17-2.62.29-3.67.42l-.24-1c.31,0,.66,0,1-.08V22.81h-.59v-.95h2V21H68.06V20h4.58V21H70.87v.9h1.95v.95Zm-1.07,0H69.4v.83h1.81ZM69.4,25.38h1.81v-.87H69.4Zm0,1.87,1.81-.18v-.84H69.4Zm8-5A13,13,0,0,1,76,26.37a5.59,5.59,0,0,0,2.24,1.88,4,4,0,0,0-.79,1,6.21,6.21,0,0,1-2.13-1.89,7.74,7.74,0,0,1-2.21,1.87,4.9,4.9,0,0,0-.77-.91,6.45,6.45,0,0,0,2.34-2,11.84,11.84,0,0,1-.9-2.3,7.17,7.17,0,0,1-.59.94,6.79,6.79,0,0,0-.86-.82,10,10,0,0,0,1.59-4.44l1.16.19c-.08.45-.18.88-.28,1.32H78v1Zm-3,.31a12.34,12.34,0,0,0,.92,2.71,10.71,10.71,0,0,0,.9-3H74.53Z"/><path class="cls-3" d="M93.21,22.87h-3.5V27.6c0,.79-.2,1.17-.75,1.38a9.8,9.8,0,0,1-2.74.21,6.21,6.21,0,0,0-.46-1.31c.95,0,1.94,0,2.24,0s.38-.07.38-.31V22.87H80.9V21.59h7.48V19.73h1.33v1.86h3.5Zm-10.7-2H81.19V17.8h5.13V16.33H87.7V17.8h5.17v3.08H91.5V19h-9Zm1,2.55a12.41,12.41,0,0,1,2.27,2.83L84.69,27a12.81,12.81,0,0,0-2.17-2.91Z"/><path class="cls-3" d="M97.84,18.64c1-.1,3.48-.34,6-.55,1.47-.13,2.88-.21,3.81-.24l0,1.42a13.52,13.52,0,0,0-2.71.19,4.59,4.59,0,0,0-3,4.16c0,2.54,2.35,3.36,4.64,3.48l-.51,1.48c-2.71-.14-5.56-1.59-5.56-4.65a5.51,5.51,0,0,1,2.34-4.5c-1.2.13-4.61.47-6.16.8l-.14-1.52Zm9,4.09-.86.39a13.19,13.19,0,0,0-1.12-2l.84-.37A19.83,19.83,0,0,1,106.88,22.73Zm1.6-.65-.85.42a13.6,13.6,0,0,0-1.18-1.93l.84-.38C107.63,20.67,108.17,21.51,108.48,22.08Z"/><path class="cls-3" d="M115,27.14c3-2.69,4.61-4.7,4.61-6.39a1.69,1.69,0,0,0-1.76-1.89,2.81,2.81,0,0,0-2,1.15l-.91-.9A4.08,4.08,0,0,1,118,17.57a2.92,2.92,0,0,1,3.11,3.1c0,2-1.58,4-3.77,6.13.53-.05,1.18-.1,1.68-.1h2.58v1.38H115Z"/><path class="cls-3" d="M131.29,25.3H130v2.78h-1.51V25.3H124V24.22l4.11-6.45H130v6.28h1.32Zm-2.83-1.25v-2.7c0-.56,0-1.43.08-2h-.06c-.25.52-.53,1.05-.82,1.59l-2,3.11Z"/><path class="cls-3" d="M141.78,26.46h-2.91v1.18h-1.2V17.2h4.11Zm-2.91-8.08V21.2h1.68V18.38Zm1.68,6.92v-3h-1.68V25.3Zm7.89-3.57v1.4h1.5v1.15h-1.5v3.44c0,.68-.16,1-.62,1.22a6.78,6.78,0,0,1-2.3.21,4.43,4.43,0,0,0-.42-1.22c.79,0,1.56,0,1.77,0s.29-.07.29-.26V24.28h-5.1V23.13h5.1v-1.4H142V20.58h3.34V19h-2.81V17.9h2.81V16.31h1.3V17.9h2.88V19h-2.88v1.54h3.4v1.15Zm-4.6,2.9A10.16,10.16,0,0,1,145.59,27l-1.1.68a10.57,10.57,0,0,0-1.7-2.4Z"/><path class="cls-3" d="M154.55,21.76v7.42h-1.29V16.88h5.17v4.88Zm0-3.9v1h2.65v-1Zm2.65,2.93v-1h-2.65v1Zm7.63,6.76c0,.75-.15,1.17-.66,1.39a7.09,7.09,0,0,1-2.43.22,5.86,5.86,0,0,0-.41-1.27h-3.78v.7h-1.19V22.72h5.25v5.13c.69,0,1.36,0,1.58,0s.33-.08.33-.32V21.78h-4v-4.9h5.29Zm-7.28-3.85v1.09h2.84V23.7Zm2.84,3.21V25.75h-2.84v1.16Zm.39-9v1h2.74v-1Zm2.74,3V19.75h-2.74v1.07Z"/><path class="cls-3" d="M178.72,23.29a8.56,8.56,0,0,1-3,3.41,18.78,18.78,0,0,0,4.93,1.16,5.42,5.42,0,0,0-.8,1.23,17,17,0,0,1-5.46-1.62,19.64,19.64,0,0,1-5.54,1.64,3.93,3.93,0,0,0-.75-1.18,19.13,19.13,0,0,0,5-1.23,9.63,9.63,0,0,1-2.55-2.58l.26-.11h-.61V22.8h7.36l.24,0Zm-9.08-.08h-1.22v-2.9h2.12a9.73,9.73,0,0,0-.8-1.67l1.13-.32a7.3,7.3,0,0,1,.9,1.75l-.76.24h3a8.1,8.1,0,0,0-.63-2l1.16-.26a7.78,7.78,0,0,1,.7,1.94l-1.17.29h2.78A14.73,14.73,0,0,0,178,18.06l1.36.36c-.36.63-.77,1.33-1.16,1.89h2.2v2.9h-1.27V21.46h-9.49Zm10.1-5.9a74.53,74.53,0,0,1-10.9,1.05,3.43,3.43,0,0,0-.28-1.1,71.81,71.81,0,0,0,10.27-1ZM172,24a7.8,7.8,0,0,0,2.45,2.06A7.16,7.16,0,0,0,176.76,24Z"/><path class="cls-3" d="M188.08,16.81a22.74,22.74,0,0,1-1.41,3v9.39h-1.32V21.79a12,12,0,0,1-1.23,1.45,8.92,8.92,0,0,0-.79-1.33,15.08,15.08,0,0,0,3.46-5.51Zm8.1,3.86h-1.67v6.84c0,.91-.24,1.27-.82,1.47a10.4,10.4,0,0,1-3.1.22,5.61,5.61,0,0,0-.5-1.3c1.13.06,2.29,0,2.63,0s.45-.11.45-.42V20.67h-5.48v-1.3h5.48v-2.9h1.34v2.9h1.67Zm-5.8,5.24a35.26,35.26,0,0,0-1.92-3.43l1.13-.53c.68,1.05,1.59,2.46,2,3.3Z"/><path class="cls-3" d="M210.85,18.77v6.69h-1.36v-.75h-3.64v4.45h-1.36V24.71h-3.63v.82h-1.3V18.77h4.93V16.33h1.36v2.44Zm-6.36,4.66V20h-3.63v3.39Zm5,0V20h-3.64v3.39Z"/><path class="cls-3" d="M219.33,27a1.28,1.28,0,0,1,2.55,0,1.28,1.28,0,0,1-2.55,0Zm.29-7.51,0-1.85h2.06l0,1.85-.42,5.15H220Z"/><path class="cls-2" d="M71.35,50c0,3.78-.54,6.66-1.61,8.66a5,5,0,0,1-9.21,0q-1.59-3-1.59-8.67c0-3.81.54-6.71,1.61-8.71a5,5,0,0,1,9.22,0Q71.36,44.31,71.35,50Zm-8.08,0A26.79,26.79,0,0,0,63.68,56c.28,1.06.77,1.59,1.46,1.59S66.3,57,66.57,56A27.73,27.73,0,0,0,67,50a28.17,28.17,0,0,0-.41-6c-.27-1-.75-1.57-1.42-1.57S64,43,63.7,44A27,27,0,0,0,63.27,50Z"/><path class="cls-2" d="M80.3,47.89a7,7,0,0,1,1.48-.82,3.72,3.72,0,0,1,1.36-.26,3.89,3.89,0,0,1,3.36,1.73,8.33,8.33,0,0,1,1.21,4.83,10.14,10.14,0,0,1-1.64,6.16,5.29,5.29,0,0,1-4.54,2.19,5.6,5.6,0,0,1-4.67-2,9.18,9.18,0,0,1-1.62-5.87q0-3.7,3-9.81l.25-.52,2.35-4.85h4.37l-3.65,7.16c-.23.44-.44.83-.65,1.18S80.48,47.63,80.3,47.89Zm1.21,9.81a1.41,1.41,0,0,0,1.3-.89,6,6,0,0,0,.45-2.62,7,7,0,0,0-.39-2.71,1.29,1.29,0,0,0-1.23-.87,1.41,1.41,0,0,0-1.34.92,7.46,7.46,0,0,0-.43,2.92,5.65,5.65,0,0,0,.4,2.43A1.31,1.31,0,0,0,81.51,57.7Z"/><path class="cls-2" d="M91.89,56.25v-5h8v4.95Z"/><path class="cls-2" d="M110.84,61.46V55.81h-6.56V52.36l6-13.69h4.39l0,13.71h1.86v3.43h-1.85v5.65Zm-3.62-9.09H111V45.93c0-.2,0-.5,0-.89s.07-1.11.14-2.16c-.26.89-.52,1.7-.78,2.44a20.61,20.61,0,0,1-.77,1.92Z"/><path class="cls-2" d="M121.07,61.47l7.22-19h-6.87V38.68l12.45,0-8.3,22.78Z"/><path class="cls-2" d="M149.21,50.13q0,5.67-1.61,8.66a5,5,0,0,1-9.21,0q-1.59-3-1.58-8.66c0-3.81.54-6.72,1.6-8.71a5.05,5.05,0,0,1,9.23,0C148.69,43.42,149.22,46.33,149.21,50.13Zm-8.08,0a27.55,27.55,0,0,0,.41,5.93c.28,1.05.77,1.58,1.47,1.58s1.15-.52,1.43-1.56a27.89,27.89,0,0,0,.42-5.94,29,29,0,0,0-.4-6c-.28-1.05-.75-1.57-1.43-1.58s-1.19.54-1.47,1.6A27.81,27.81,0,0,0,141.13,50.15Z"/><path class="cls-2" d="M156.73,49.15V49a3.34,3.34,0,0,1-2.15-1.59,6.32,6.32,0,0,1-.73-3.24,5.83,5.83,0,0,1,1.43-4.21,5.33,5.33,0,0,1,4.05-1.48,5.39,5.39,0,0,1,4,1.49,5.9,5.9,0,0,1,1.41,4.22,6.2,6.2,0,0,1-.75,3.23A3.39,3.39,0,0,1,161.89,49v.18a4.28,4.28,0,0,1,2.62,2,7.7,7.7,0,0,1,.9,4,6.94,6.94,0,0,1-1.63,4.9,5.76,5.76,0,0,1-4.48,1.77A5.83,5.83,0,0,1,154.81,60a7,7,0,0,1-1.62-4.91,7.86,7.86,0,0,1,.91-4A4.23,4.23,0,0,1,156.73,49.15Zm2.59,2.22a1.49,1.49,0,0,0-1.4.77,4.77,4.77,0,0,0-.47,2.34A5.39,5.39,0,0,0,157.9,57a1.63,1.63,0,0,0,2.8,0,5.09,5.09,0,0,0,.45-2.43,5,5,0,0,0-.45-2.44A1.48,1.48,0,0,0,159.32,51.37Zm0-9.37a1.29,1.29,0,0,0-1.15.56,3.34,3.34,0,0,0-.37,1.76,4.28,4.28,0,0,0,.36,2,1.25,1.25,0,0,0,1.18.61,1.29,1.29,0,0,0,1.17-.58,3.92,3.92,0,0,0,.37-1.92,3.65,3.65,0,0,0-.38-1.88A1.31,1.31,0,0,0,159.3,42Z"/><path class="cls-2" d="M169.76,56.36v-5h8.06v4.95Z"/><path class="cls-2" d="M188.7,61.57V55.92h-6.55V52.48l6-13.7h4.38l0,13.7h1.86v3.44h-1.86v5.65Zm-3.62-9.09h3.79V46c0-.2,0-.49,0-.88s.07-1.11.15-2.16c-.26.88-.53,1.69-.79,2.44a20.51,20.51,0,0,1-.76,1.91Z"/><path class="cls-2" d="M198.42,61l.58-4.11a7.74,7.74,0,0,0,1.68.75,5.3,5.3,0,0,0,1.61.26,3.47,3.47,0,0,0,2.63-.94,3.78,3.78,0,0,0,.92-2.72,3.71,3.71,0,0,0-1.42-3.13,6.65,6.65,0,0,0-4.1-1.09c-.2,0-.5,0-.92,0h-.23l1.59-11.25h8.88v3.87h-5.71l-.58,4.16h.15a6.73,6.73,0,0,1,5,1.85,7,7,0,0,1,1.8,5.12,8.36,8.36,0,0,1-2,5.9,7.1,7.1,0,0,1-5.48,2.17,11.65,11.65,0,0,1-2.37-.22A8.74,8.74,0,0,1,198.42,61Z"/><path class="cls-2" d="M214.6,55.08h3.81v.26a3.68,3.68,0,0,0,.46,2,1.49,1.49,0,0,0,1.33.69,1.66,1.66,0,0,0,1.49-.85,4.83,4.83,0,0,0,.53-2.44,3.91,3.91,0,0,0-.67-2.58,2.78,2.78,0,0,0-2.22-.78l-.26,0h-.28V47.71h.3a4.14,4.14,0,0,0,2.65-.67,2.74,2.74,0,0,0,.8-2.2,3.14,3.14,0,0,0-.46-1.83,1.61,1.61,0,0,0-2.6,0,3.46,3.46,0,0,0-.45,1.94v.25h-3.68v-.53a6.48,6.48,0,0,1,1.46-4.55A5.47,5.47,0,0,1,221,38.53,4.88,4.88,0,0,1,225,40.15a6.85,6.85,0,0,1,1.37,4.6,5.51,5.51,0,0,1-.88,3.29,3.53,3.53,0,0,1-2.51,1.44v.28A4.9,4.9,0,0,1,226,51.49a5.86,5.86,0,0,1,1,3.61,7,7,0,0,1-1.78,5,6.47,6.47,0,0,1-4.85,1.82,5.67,5.67,0,0,1-4.3-1.63,6.47,6.47,0,0,1-1.51-4.61c0-.06,0-.16,0-.29S214.6,55.17,214.6,55.08Z"/><path class="cls-2" d="M236,48.12a6.34,6.34,0,0,1,1.48-.82,3.7,3.7,0,0,1,1.36-.27,3.87,3.87,0,0,1,3.35,1.74,8.33,8.33,0,0,1,1.22,4.83,10.23,10.23,0,0,1-1.65,6.16A5.3,5.3,0,0,1,237.26,62a5.6,5.6,0,0,1-4.67-2.06A9.21,9.21,0,0,1,231,54q0-3.72,3-9.81l.25-.52,2.35-4.85h4.37L237.25,46c-.23.43-.45.83-.65,1.18S236.21,47.86,236,48.12Zm1.2,9.81a1.42,1.42,0,0,0,1.31-.89,6.33,6.33,0,0,0,.45-2.62,7,7,0,0,0-.39-2.71,1.29,1.29,0,0,0-1.23-.87,1.42,1.42,0,0,0-1.35.92,7.46,7.46,0,0,0-.42,2.92,5.65,5.65,0,0,0,.4,2.43A1.33,1.33,0,0,0,237.23,57.93Z"/><path class="cls-2" d="M11.62,38.56v3.93A22.56,22.56,0,0,1,19.89,44c.45.18.89.38,1.32.58a20.74,20.74,0,0,1,3.13-1.2,23.23,23.23,0,0,1,6.49-.92A22.68,22.68,0,0,1,39.13,44c.46.18.9.38,1.33.58a20.74,20.74,0,0,1,3.13-1.2,23,23,0,0,1,6.46-.92V38.56Z"/><path class="cls-2" d="M35.68,53.46a4.79,4.79,0,0,0,2.92,4.4,4.58,4.58,0,0,0,1.86.38,4.76,4.76,0,0,0,4.77-4.78,4.26,4.26,0,0,0-.3-1.5,7.09,7.09,0,0,0-1-1.62,12.11,12.11,0,0,0-3.52-2.93,12.56,12.56,0,0,0-2.89,2.21,7.26,7.26,0,0,0-1.65,2.52A4,4,0,0,0,35.68,53.46Z"/><path class="cls-2" d="M45.13,47.9a9.76,9.76,0,0,1,2.2,3.41,6.62,6.62,0,0,1,.38,2.15,7.27,7.27,0,0,1-4.43,6.69,7.36,7.36,0,0,1-2.82.57,7.26,7.26,0,0,1-4.06-1.24,7.23,7.23,0,0,1-3.2-6A6.87,6.87,0,0,1,34,50.28a10.8,10.8,0,0,1,2.19-2.82,13.43,13.43,0,0,1,1.57-1.28q-.57-.21-1.17-.39a20.57,20.57,0,0,0-5.8-.82,19.87,19.87,0,0,0-7,1.21,14.86,14.86,0,0,1,2,1.72,9.59,9.59,0,0,1,2.19,3.41,6.37,6.37,0,0,1,.38,2.15,7.19,7.19,0,0,1-1.24,4.06A7.27,7.27,0,0,1,24,60.15a7.36,7.36,0,0,1-2.82.57,7.26,7.26,0,0,1-4.06-1.24,7.36,7.36,0,0,1-2.62-3.19A7.22,7.22,0,0,1,14,53.46a6.85,6.85,0,0,1,.83-3.18A10.8,10.8,0,0,1,17,47.46a14.32,14.32,0,0,1,1.57-1.28Q18,46,17.38,45.79A20.29,20.29,0,0,0,11.62,45v18.8H50.05V45a20.17,20.17,0,0,0-6.93,1.21A14.18,14.18,0,0,1,45.13,47.9Z"/><path class="cls-2" d="M16.43,53.46a4.79,4.79,0,0,0,2.92,4.4,4.62,4.62,0,0,0,1.86.38A4.79,4.79,0,0,0,26,53.46a4.07,4.07,0,0,0-.31-1.5,7.09,7.09,0,0,0-.95-1.62,12.11,12.11,0,0,0-3.52-2.93,13,13,0,0,0-2.89,2.21,7.08,7.08,0,0,0-1.64,2.52A3.79,3.79,0,0,0,16.43,53.46Z"/></g></g></svg>