<svg xmlns="http://www.w3.org/2000/svg" viewBox="0 0 375.42 49.96"><defs><style>.cls-1{fill:#5a9cd5;}.cls-2{fill:#f9d490;}</style></defs><g id="Layer_2" data-name="Layer 2"><g id="レイヤー_2" data-name="レイヤー 2"><path class="cls-1" d="M21.21,26.62A41.11,41.11,0,0,1,15,36.94a56.63,56.63,0,0,1-8.36,7.93C4,46.68,2.06,46.6.68,44.66q-1.7-3.93.85-5.94a50.93,50.93,0,0,0,4.88-3.85,36.5,36.5,0,0,0,5.28-6,46.7,46.7,0,0,0,5.06-9.42H4.66q-4,0-4-4t4-4.08H21.21V8.79q0-4.14,4.14-4.14t4.14,4.14v2.5h2c2.68,0,4,1.34,4,4s-1.35,4.08-4,4.08h-2V45.62q0,4.13-4.14,4.13t-4.14-4.13Z"/><path class="cls-1" d="M68.22,10.49q3.72,0,5,2.79a5.21,5.21,0,0,1-.88,5.65,22.24,22.24,0,0,1-3.11,4.19q-2.4,2.76-4.16,4.51a50.1,50.1,0,0,0,5.07,3.58,45.23,45.23,0,0,0,4.16,2.2q3.56,2.07,1.7,5.94Q74,42.49,70.08,40.63a65.87,65.87,0,0,1-7.32-4.88V46q0,4-4,4c-2.66,0-4-1.32-4-4v-9.5a55.48,55.48,0,0,1-9.34,5q-3.14,1.11-4.88-1.91c-.53-2.45.17-4.21,2.12-5.31,1.59-.71,3.59-1.71,6-3a43.07,43.07,0,0,0,7.24-5.07,32.86,32.86,0,0,0,5.7-6.08c.67-1,.57-1.5-.32-1.43h-15c-2.72,0-4.09-1.36-4.09-4.08s1.37-4.09,4.09-4.09Z"/><path class="cls-1" d="M83.77,11.13q0-4.24,4.24-4.25h17.56A5.76,5.76,0,0,1,111.38,10q1.73,3.26-.39,7.5a60.43,60.43,0,0,1-5.21,10.3c1.6,2.08,3.26,4.2,5,6.34s3.43,4.09,5.09,5.86q2.44,3.4-.15,6.15-3.08,1.81-5.31-.74a34.51,34.51,0,0,1-4.3-4.67c-1.69-2.12-3.38-4.3-5-6.52a57.1,57.1,0,0,1-6.6,6.92,47.32,47.32,0,0,1-6.82,5c-2.33,1.38-4.25,1-5.73-1.06q-1.59-4.19,1.48-6.15a28.15,28.15,0,0,0,6.72-4.83A57.92,57.92,0,0,0,97,26.41a42.31,42.31,0,0,0,5.25-9.08c.39-1.27,0-1.91-1.22-1.91H88q-4.24,0-4.24-4.24Z"/><path class="cls-1" d="M123.51,9.06c0-2.8,1.39-4.19,4.19-4.19s4.19,1.39,4.19,4.19V19.19H150q4.14,0,4.14,4.14T150,27.52H131.89V45.14q0,4.19-4.19,4.19c-2.8,0-4.19-1.4-4.19-4.19Z"/><path class="cls-1" d="M166.32,46.57A4.61,4.61,0,0,1,161.71,42V10.76a4.61,4.61,0,0,1,4.61-4.62h.48a4.45,4.45,0,0,1,3.26,1.35,4.48,4.48,0,0,1,1.36,3.27V37.87a.47.47,0,0,0,.53.53H183a4.09,4.09,0,1,1,0,8.17Z"/><path class="cls-1" d="M206.71,10.17h9.39q9.43-.11,8,10.3a38.7,38.7,0,0,1-3,10,27.84,27.84,0,0,1-5.75,8.67,33.68,33.68,0,0,1-7.09,5.47,55.69,55.69,0,0,1-7.9,3.66q-3.76,1.42-5.52-2.13-1.11-4.08,2.28-5.41a28.58,28.58,0,0,0,4.56-1.85,27.4,27.4,0,0,0,6.21-4.35,24,24,0,0,0,5.23-6.74,20.85,20.85,0,0,0,2.36-6.9c.25-1.84-.57-2.78-2.44-2.81h-9.5a39.31,39.31,0,0,1-6.15,7.9q-3.13,3-5.95.85-2.6-3.49.06-6.21a26.86,26.86,0,0,0,3.5-4.13,32.82,32.82,0,0,0,3.87-8.34q1.11-4,5.52-3.18Q208,6,206.71,10.17"/><path class="cls-1" d="M231.54,9.38q0-4.1,4.09-4.09t4.14,4.09V26.09c0,2.72-1.37,4.08-4.09,4.08s-4.14-1.36-4.14-4.08Zm10,31.25A16.66,16.66,0,0,0,247.64,37a18.42,18.42,0,0,0,3.24-5,18.06,18.06,0,0,0,1.41-7.29V9.38q0-4.1,4.08-4.09t4.14,4.09V24.71A28.21,28.21,0,0,1,258.39,36a20.5,20.5,0,0,1-5.47,7.51,32.13,32.13,0,0,1-8.59,5q-4.2,1.27-5.52-2.55c-.53-2.83.39-4.59,2.76-5.3"/><path class="cls-1" d="M297.81,38.29q4.14,0,4.14,4.14c0,2.8-1.38,4.19-4.14,4.19H272.45q-4.14,0-4.14-4.14t4.14-4.19ZM269.32,11.92q0-4.14,4.14-4.14H296.7q4.13,0,4.13,4.14c0,2.8-1.38,4.19-4.13,4.19H273.46c-2.76,0-4.14-1.37-4.14-4.13Z"/><path class="cls-1" d="M314.31,48q-3.76.86-4.51-2.54-.53-3.78,2.49-4.3a16.86,16.86,0,0,0,7.64-3.85,20.86,20.86,0,0,0,5.2-7,44.72,44.72,0,0,0,2.9-7.95,53.87,53.87,0,0,0,1.24-5.95A3.47,3.47,0,0,1,333,13c2.41.11,3.43,1.44,3.08,4a55.77,55.77,0,0,1-2.87,12.55,36.28,36.28,0,0,1-4.83,8.62,27.34,27.34,0,0,1-6.84,6.56A22.63,22.63,0,0,1,314.31,48"/><path class="cls-1" d="M357.87,10.17h9.39q9.45-.11,8,10.3a39,39,0,0,1-3,10,28,28,0,0,1-5.76,8.67,33.38,33.38,0,0,1-7.08,5.47,55.82,55.82,0,0,1-7.91,3.66q-3.76,1.42-5.52-2.13-1.11-4.08,2.28-5.41a28.23,28.23,0,0,0,4.57-1.85A27.4,27.4,0,0,0,359,34.53a24,24,0,0,0,5.22-6.74,20.63,20.63,0,0,0,2.36-6.9c.25-1.84-.56-2.78-2.44-2.81h-9.5a39.31,39.31,0,0,1-6.15,7.9q-3.14,3-5.94.85-2.61-3.49,0-6.21a25.78,25.78,0,0,0,3.5-4.13A32.45,32.45,0,0,0,350,8.15q1.11-4,5.51-3.18,3.66,1.07,2.39,5.2"/><path class="cls-2" d="M58.58,0h0a4.4,4.4,0,0,0-4.39,4.39v5a4.39,4.39,0,0,0,8.78,0v-5A4.39,4.39,0,0,0,58.58,0"/><path class="cls-2" d="M309.72,12.06h0a4.4,4.4,0,0,0-4.39,4.39v5a4.39,4.39,0,0,0,8.78,0v-5a4.4,4.4,0,0,0-4.39-4.39"/><path class="cls-2" d="M319.44,12.06h0a4.4,4.4,0,0,0-4.39,4.39v5a4.39,4.39,0,0,0,8.78,0v-5a4.4,4.4,0,0,0-4.39-4.39"/></g></g></svg>