<svg xmlns="http://www.w3.org/2000/svg" viewBox="0 0 423.26 101.18"><defs><style>.cls-1{fill:#00c200;}.cls-2{fill:#fff;}.cls-3{fill:#00c500;}.cls-4{fill:none;stroke:#fff;stroke-linecap:round;stroke-miterlimit:10;stroke-width:1.88px;}</style></defs><g id="Layer_2" data-name="Layer 2"><g id="レイヤー_2" data-name="レイヤー 2"><rect class="cls-1" x="1.81" y="1.81" width="419.63" height="97.55" rx="40.65"/><path class="cls-2" d="M380.79,3.63a38.83,38.83,0,0,1,38.84,38.83V58.72a38.84,38.84,0,0,1-38.84,38.83H42.46A38.83,38.83,0,0,1,3.63,58.72V42.46A38.82,38.82,0,0,1,42.46,3.63H380.79m0-3.63H42.46A42.51,42.51,0,0,0,0,42.46V58.72a42.51,42.51,0,0,0,42.46,42.46H380.79a42.51,42.51,0,0,0,42.47-42.46V42.46A42.51,42.51,0,0,0,380.79,0Z"/><path class="cls-2" d="M100.63,24.53c0,1.1,0,2.2.1,3.32.21,2.2.54,3.74,1.51,3.74.78,0,1.37-2.1,1.61-3.23l2.05,2.5c-1.17,3-2.24,4-3.71,4-2,0-3.63-1.69-4.1-6.28-.17-1.6-.19-3.51-.19-4.58a9.81,9.81,0,0,0-.15-1.81l3.12,0A15.26,15.26,0,0,0,100.63,24.53Zm11.55,6.79-2.69,1c-.24-2.53-1-6.81-3-8.95l2.59-.84C110.71,24.5,112.05,28.9,112.18,31.32Z"/><path class="cls-2" d="M127.3,34.71a13.19,13.19,0,0,0-3-2.19v.34c0,1.58-1.27,2.64-3.49,2.64-2.83,0-4.3-1.11-4.3-3s1.61-3.06,4.28-3.06c.28,0,.55,0,.82,0l0-1.12h-.82c-.89,0-2.86-.08-3.93-.22l0-2.38a27.39,27.39,0,0,0,4,.32h.74l0-1.37h-.8a26.48,26.48,0,0,1-3.47-.26l0-2.3a21.45,21.45,0,0,0,3.48.32h.83V21.9a8,8,0,0,0-.11-1.22h2.75c0,.36-.1.83-.12,1.22l0,.51a35.85,35.85,0,0,0,3.83-.41l0,2.33c-1,.1-2.3.23-3.91.3L124,26c1.73-.09,3.07-.24,4.36-.39V28c-1.47.15-2.71.25-4.32.3,0,.53.07,1.09.11,1.63a13.38,13.38,0,0,1,4.59,2.49Zm-5.59-3.07a8.66,8.66,0,0,0-1.25-.1c-.94,0-1.48.36-1.48.83s.56.85,1.43.85,1.32-.24,1.32-1.1A4.65,4.65,0,0,0,121.71,31.64Z"/><path class="cls-2" d="M147.45,25c-1,0-2.58-.09-4.7-.1,0,.79,0,1.64,0,2.33a4.42,4.42,0,0,1,.66,2.43c0,2.15-1.39,5.06-5.59,6.19l-2.15-2.16a9.16,9.16,0,0,0,3.85-1.48,1.62,1.62,0,0,1-.31,0,3.11,3.11,0,0,1-3-3.22,3.31,3.31,0,0,1,3.57-3.27,3,3,0,0,1,.43,0l0-.85c-2.52,0-5,.14-7,.24l-.07-2.44c1.94,0,4.91-.05,7.08-.08l0-.19c-.05-.64-.12-1.35-.19-1.68h2.93c0,.33-.11,1.36-.13,1.66v.19c1.56,0,3.81,0,4.69,0Zm-7.69,5c.54,0,1.1-.39.91-1.67a1.08,1.08,0,0,0-.91-.44,1,1,0,0,0-1.07,1.08A1.06,1.06,0,0,0,139.76,30Z"/><path class="cls-2" d="M161.82,22.46c-.63.46-1.2.9-1.66,1.25-1,.8-3.15,2.41-4.2,3.32-.83.71-.8.87,0,1.58,1.1,1,4.4,3.52,6.08,5.11l-2.37,2.2c-.55-.61-1.11-1.18-1.65-1.74-.93-1-3.33-3-4.86-4.34-1.71-1.47-1.61-2.49.17-3.94C154.69,24.81,156.84,23,158,22a12.19,12.19,0,0,0,1.48-1.59Zm.25,4.66-1.66.69a25.54,25.54,0,0,0-1.35-2.59l1.61-.64A24,24,0,0,1,162.07,27.12Zm2.09-.83-1.63.69a25.6,25.6,0,0,0-1.42-2.56l1.64-.67C163.19,24.41,163.85,25.69,164.16,26.29Z"/><path class="cls-2" d="M179.65,20.09A11.18,11.18,0,0,0,184,24.35a13.26,13.26,0,0,0-1.3,2.24,13.42,13.42,0,0,1-4.08-4.18,13.4,13.4,0,0,1-4.15,4.33,10,10,0,0,0-1.16-2h-5.67V22.8h6.49v1.27a12.17,12.17,0,0,0,3.28-4Zm-6,15.12h-3.24v.61h-2.05V29.94h5.29Zm0-8.16h-5.2V25.22h5.2Zm-5.2.51h5.2v1.83h-5.2Zm5.17-5.25h-5.12V20.48h5.12Zm-3.17,9.55V33.3h1.15V31.86Zm12.93-1.12a15.25,15.25,0,0,1-7.79,5.37A9,9,0,0,0,174,34c2.87-.75,5.66-2.14,7.12-4.24Zm-2.88-5.28a13.76,13.76,0,0,1-4.07,3.42,8.38,8.38,0,0,0-1.54-1.48,10.07,10.07,0,0,0,3.47-2.79Zm1.61,2.45a15.77,15.77,0,0,1-5.66,4.2,8.55,8.55,0,0,0-1.53-1.69,12.14,12.14,0,0,0,5-3.42Z"/><path class="cls-2" d="M196.73,25.52h4.77v2.27h-1.28V36H197.9V27.79h-1.17c-.07,2.51-.49,6-2.59,8.27a5.55,5.55,0,0,0-1.46-1.49H188v1.15h-2.11V20.54H188v9a9.12,9.12,0,0,0,1.93-2.69h-1.67v-2h1.82v-.61l-1.42.45a11.73,11.73,0,0,0-.47-2.89l1.45-.48a10.72,10.72,0,0,1,.44,1.71V20.2h2v3.24a18.06,18.06,0,0,0,.44-2.19l1.9.43c-.42,1-.85,2.2-1.18,2.93l-1.16-.34v.51h1.83v2h-1.83v.05c.44.34,1.73,1.54,2,1.86l-1.28,1.63c-.19-.32-.46-.76-.77-1.2v3h-2V29.94a7.44,7.44,0,0,1-1.36,1.76A11.19,11.19,0,0,0,188,30v2.49h5.57v.08a13.4,13.4,0,0,0,.85-5.39V21.25l1.32.38a18.25,18.25,0,0,0,3.83-1.48l2,1.78a26.32,26.32,0,0,1-4.77,1.53Z"/><path class="cls-2" d="M208.07,26.45c.61.66,2,2.41,2.3,2.83l-1.37,2c-.22-.49-.56-1.15-.93-1.79v6.6h-2.35V30.2a12.81,12.81,0,0,1-1.59,3.1A13.28,13.28,0,0,0,203,31a14.9,14.9,0,0,0,2.42-5.24h-2V23.4h2.27V20h2.36V23.4h2v2.32h-2Zm10.64-5.61V35.78h-2.48V35H212.9v1h-2.36V20.85Zm-5.81,2.33v1.67h3.33V23.17Zm0,3.89v1.73h3.33V27.06Zm3.33,5.68V31H212.9v1.73Z"/><path class="cls-2" d="M227.52,24.71H221V22.79h6.57v.8a6.08,6.08,0,0,0,1.12-2.68l2,.39a6.58,6.58,0,0,1-1.31,3.22l-1.81-.75ZM227,35.21h-3.24v.61h-2V29.94H227ZM227,27h-5.2V25.21H227Zm-5.2.51H227v1.83h-5.2Zm5.17-5.25h-5.12V20.47h5.12Zm-3.17,9.55v1.44h1.16V31.85Zm6.81-3.11a7.5,7.5,0,0,1-1.52,3.57l-2-1a6.28,6.28,0,0,0,1.43-3Zm3.24,2.55A5.6,5.6,0,0,0,237.14,34a21.51,21.51,0,0,0-1.42,2.1,6.28,6.28,0,0,1-3.49-3.45,6.93,6.93,0,0,1-3.79,3.45,10.61,10.61,0,0,0-1.36-2c2.88-1,3.88-3,3.88-4.18V27.25h2.52v2.66a3.33,3.33,0,0,0,.12.84,16.28,16.28,0,0,0,1-2.57l2.42.73c-.61,1.08-1.24,2.18-1.75,2.91Zm1.55-3.23a25.54,25.54,0,0,0-3.15-2.29,6.72,6.72,0,0,1-3.55,2.42,6.26,6.26,0,0,0-1.36-1.94c3.56-1.1,3.71-3,3.83-6.27h2.4a18.46,18.46,0,0,1-.42,3.74A35.66,35.66,0,0,1,237,26.21ZM233.5,23.6a14.21,14.21,0,0,0,1.08-2.81l2.38.71c-.6,1-1.17,2.07-1.63,2.76Z"/><path class="cls-2" d="M246.72,31.94c0-.43.07-1.05.09-1.68-1.05.61-1.51,1.15-1.51,1.83s.52,1,2.1,1a25.22,25.22,0,0,0,4.88-.53l-.09,2.63a46.4,46.4,0,0,1-4.84.29c-2.76,0-4.74-.71-4.74-2.95s2-3.59,3.86-4.57a1.25,1.25,0,0,0-.92-.34,4,4,0,0,0-2.47,1.12,20.18,20.18,0,0,0-1.56,1.89L239.35,29a15.31,15.31,0,0,0,3.59-4.32c-.69,0-1.91,0-2.79-.12V22.21a21.12,21.12,0,0,0,3,.21h.67a9.61,9.61,0,0,0,.28-1.83l2.68.22c-.07.37-.19.9-.37,1.52a38.61,38.61,0,0,0,4.52-.47l0,2.35c-1.57.21-3.62.36-5.42.43a9.2,9.2,0,0,1-.64,1.18,8.15,8.15,0,0,1,1.66-.17,2.43,2.43,0,0,1,2.23,1.19c.68-.32,1.22-.54,1.82-.81s1.42-.65,2.13-1l1,2.34c-.59.17-1.64.56-2.29.81s-1.45.56-2.33.95c0,.92,0,2.05.06,2.8Z"/><path class="cls-2" d="M259.72,26.79v9.28h-2.4V20.59h6.77v6.2Zm0-4.49v.57h2.07V22.3Zm2.07,2.76v-.63h-2.07v.63Zm5.4,7.35v3.35H265V32.41h-1.18a5.59,5.59,0,0,1-2.12,3.69,8.37,8.37,0,0,0-1.56-1.39,3.65,3.65,0,0,0,1.56-2.3h-1.46v-2h1.56v-1H260.5V27.55h8.1v1.91h-1.41v1h1.64v2Zm-2.15-2v-1h-1.12v1Zm6.83,2.88c0,1.16-.19,1.83-.87,2.23a5.48,5.48,0,0,1-2.89.46,8.49,8.49,0,0,0-.71-2.42c.64,0,1.45,0,1.71,0s.33-.1.33-.34V26.84H265V20.59h6.9Zm-4.56-11v.57h2.13V22.3Zm2.13,2.81v-.68h-2.13v.68Z"/><path class="cls-2" d="M281.11,25.77A21.72,21.72,0,0,1,280,31a12.09,12.09,0,0,1,1.76,1.74l-1.48,2a11.14,11.14,0,0,0-1.37-1.52,9.21,9.21,0,0,1-2.95,2.91,9,9,0,0,0-1.47-2A6.58,6.58,0,0,0,277,31.65l-.62-.51-.14.51-2-1.07c.39-1.36.81-3.15,1.22-5h-1V23.28H276c.22-1.15.42-2.27.59-3.32l2.31.25c-.19,1-.39,2-.63,3.07h1.15l.43-.05,1.45.23q0,1-.15,1.95l1.32-.07A34.76,34.76,0,0,0,283.82,20l2.74.49c-.51,1.63-1.12,3.35-1.69,4.78l2.28-.14c-.28-.51-.59-1-.89-1.47l1.94-1a18.7,18.7,0,0,1,2.51,4.64l-2.13,1.12a9.79,9.79,0,0,0-.39-1.15c-2.43.2-5,.39-6.88.53Zm-3.34-.22c-.25,1.13-.51,2.25-.76,3.3.32.22.66.44,1,.7a19.72,19.72,0,0,0,.84-4Zm4.35,3.28h7.66V36h-2.44v-.54h-2.9v.61h-2.32Zm2.32,2.22v2.19h2.9V31.05Z"/><path class="cls-2" d="M307.44,25c-1-.05-2.58-.08-4.7-.1,0,.8,0,1.64,0,2.34a4.41,4.41,0,0,1,.66,2.42c0,2.15-1.39,5.07-5.59,6.2l-2.15-2.17a9.15,9.15,0,0,0,3.85-1.47,1.62,1.62,0,0,1-.31,0,3.11,3.11,0,0,1-3-3.22,3.31,3.31,0,0,1,3.57-3.27,3,3,0,0,1,.43,0l0-.85c-2.52,0-5,.13-7,.24l-.07-2.44c1.95,0,4.91-.05,7.08-.09l0-.18a16.39,16.39,0,0,0-.19-1.68h2.93c-.05.32-.11,1.35-.13,1.66v.18c1.56,0,3.81,0,4.69,0Zm-7.69,5c.54,0,1.1-.39.91-1.68a1.11,1.11,0,0,0-.91-.44,1,1,0,0,0-1.07,1.09A1.06,1.06,0,0,0,299.75,30Z"/><path class="cls-2" d="M322.72,22.92c-.44.27-.86.52-1.28.81-.95.65-2.43,1.85-3.34,2.56a6,6,0,0,1,1.17-.1c2.88,0,5.15,1.84,5.15,4.37s-1.9,4.91-6.23,4.91c-2.38,0-4.34-1.1-4.34-2.95a3.06,3.06,0,0,1,3.25-2.84,3.44,3.44,0,0,1,3.66,2.77,2.21,2.21,0,0,0,1-1.93c0-1.44-1.47-2.33-3.32-2.33-2.45,0-4.22,1.47-5.82,3.44l-1.85-1.92c1.08-.85,3-2.51,4-3.32s2.49-2,3.3-2.71c-.84,0-2.57.09-3.47.15-.51,0-1.1.09-1.51.16L313,21.36a13.55,13.55,0,0,0,1.71.1c.9,0,4.25-.05,5.25-.13a8.75,8.75,0,0,0,1.49-.21Zm-4.3,10.21c-.08-.93-.59-1.52-1.3-1.52-.54,0-.87.32-.87.66,0,.52.56.9,1.41.9C317.93,33.17,318.19,33.15,318.42,33.13Z"/><path class="cls-2" d="M124.84,61.07c-.17.19-2.18,2.51-3.24,2.51a1.07,1.07,0,0,1-1.11-1,1,1,0,0,1,.47-.76,10.64,10.64,0,0,0,3.5-3.71.82.82,0,0,1,.73-.43,1.15,1.15,0,0,1,1.11,1.09,1,1,0,0,1-.16.54v0h3.33a.85.85,0,1,1,0,1.7Zm-.66,9.44c0,2-.05,5-.1,7.71a1,1,0,0,1-1.11,1,1,1,0,0,1-1.09-.94v0c.12-3.62.12-8.66.17-12.92,0-1,.45-1.89,2.27-2,.61,0,1.72,0,2.62,0a2.62,2.62,0,0,0-1.09-.63.62.62,0,0,1-.44-.57,1,1,0,0,1,1-.85c.45,0,2.11.56,2.11,1.44a.87.87,0,0,1-.31.64c1.09.09,1.89.71,1.94,1.56,0,.57.05,1.28.05,1.94,0,2.34-.05,2.88-4.71,2.88-.5,0-1,0-1.32,0Zm4-3.38h-4v1.13c.33,0,1,0,1.63,0,2.29,0,2.32-.14,2.34-.63Zm0-1.8c-.05-.59-.43-.62-1.94-.62-1.7,0-2,0-2,.78v.38h4Zm-1.59,10c0-.38,0-.81,0-1.23,0-.71,0-1.44,0-2a2,2,0,0,1,2.17-1.79c.69,0,1.4,0,2.08,0s1.38,0,2,0a2.07,2.07,0,0,1,2.08,1.65c.05.59.07,1.28.07,2,0,.49,0,1,0,1.42a2.16,2.16,0,0,1-2.2,1.89c-.62,0-1.28,0-2,0s-1.34,0-2,0C127.44,77.08,126.61,76.35,126.56,75.31Zm6.51-2.44c0-.14,0-.28,0-.4,0-.76-.63-.8-2-.8-2.13,0-2.6,0-2.65.82,0,.12,0,.24,0,.38Zm-4.73,1.45v.56c0,.74.71.78,2.32.78s2.36,0,2.41-.8c0-.17,0-.36,0-.54Zm4.94-13.25c-.45.52-1.89,2-2.7,2a1,1,0,0,1-1.06-.94.92.92,0,0,1,.45-.73,8.49,8.49,0,0,0,2.93-3.24.81.81,0,0,1,.71-.43,1.17,1.17,0,0,1,1.11,1.11,1,1,0,0,1-.14.5h5.23a.85.85,0,1,1,0,1.7Zm3,8.63c-2.79,0-4.78,0-4.85-1.72,0-.36,0-.76,0-1.16,0-.69,0-1.4,0-1.94.05-.88.88-1.52,2.06-1.56.38,0,1.16,0,1.92,0a2.68,2.68,0,0,0-1.09-.63.62.62,0,0,1-.45-.57,1,1,0,0,1,1-.85c.11,0,2.1.4,2.1,1.44a.87.87,0,0,1-.28.61c.23,0,.47,0,.64,0,1.72.07,2.41.94,2.41,1.82,0,2.15.05,6.29.05,8.28,0,1,0,2,0,2.72,0,1.56-.8,2.93-3.31,2.93-1.59,0-2.39-.21-2.39-1.18a.9.9,0,0,1,.9-1l.16,0a8,8,0,0,0,1.21.12c.71,0,1.21-.24,1.23-1.3,0-1.54,0-4.57,0-6.1C137.35,69.68,136.85,69.7,136.31,69.7Zm1.32-4.28c0-.64-.19-.71-2-.71-1.66,0-2,.05-2.09.64v.52h4.14Zm.05,1.71h-4.19v.52c0,.56.12.63,2.46.63.71,0,1.42,0,1.75,0Z"/><path class="cls-2" d="M156.74,75.43v2.62a1.09,1.09,0,0,1-1.11,1.14,1.07,1.07,0,0,1-1.09-1.14V75.43l-7.81,0a1,1,0,0,1-1-1,1,1,0,0,1,1-1.06l7.81,0,0-1.68c-1.37,0-2.93,0-3.83,0-1.68,0-2.51-.94-2.58-2.19,0-.6-.05-1.4-.05-2.18s0-1.59.05-2.15a2.26,2.26,0,0,1,2.51-2.16c1.42,0,2.91,0,4.44,0l3.32,0a18,18,0,0,0,1.82-3.71,1.11,1.11,0,0,1,1.09-.81,1.22,1.22,0,0,1,1.3,1.12c0,.7-1.9,3.31-2,3.42h.14a2.35,2.35,0,0,1,2.41,2c.05.57.07,1.3.07,2.06s0,1.75-.07,2.39a2.42,2.42,0,0,1-2.53,2.24c-1.06,0-2.62,0-3.95,0l0,1.68,7.94,0a1,1,0,0,1,0,2Zm-5.61-12.75a.86.86,0,0,1-.8-.52,6.73,6.73,0,0,0-1.49-1.82.78.78,0,0,1-.26-.57,1.15,1.15,0,0,1,1.2-1c1,0,2.58,2.06,2.58,2.7A1.26,1.26,0,0,1,151.13,62.68Zm3.45,2.1c-1.15,0-2.27,0-3.24,0s-1.18.81-1.18,1.7h4.4Zm0,3.43h-4.4c0,1.14,0,1.75,1.21,1.8.94,0,2.06,0,3.19,0Zm1.33-5.86a.84.84,0,0,1-.86-.66,6.79,6.79,0,0,0-1.11-2.16.91.91,0,0,1-.14-.45,1,1,0,0,1,1.11-.87c1.33,0,2.27,2.65,2.27,3A1.26,1.26,0,0,1,155.89,62.35Zm5.22,4.18c0-.28,0-.52,0-.73,0-.59-.38-1-1.16-1-1,0-2.08,0-3.24,0l0,1.75Zm-4.4,1.68v1.85c1.11,0,2.23,0,3.24,0,1.16-.05,1.16-.78,1.16-1.8Z"/><path class="cls-2" d="M183.74,73.53c0,.74,0,1.14.07,1.78.05,1.82-1,3.31-4.68,2.67-2.15-.38-1.28-2.81.21-2.34,1,.31,2.22.45,2.2-.8,0-1.4-.09-3.86-.16-6.34a27.46,27.46,0,0,1-7.69,7.21c-2,1.25-3.12-1-1.63-1.77A21.51,21.51,0,0,0,180,66.58c-2.1,0-4.21.12-6.19.19a1.1,1.1,0,1,1-.07-2.18c2.36-.09,4.94-.14,7.49-.16,0-1.35-.09-2.48-.11-3.1a1.15,1.15,0,1,1,2.29-.09c0,.66,0,1.82.05,3.17,1.35,0,2.67,0,3.92,0a1.14,1.14,0,1,1-.07,2.24c-1.23,0-2.53-.09-3.83-.09C183.53,69,183.62,71.76,183.74,73.53Z"/><path class="cls-2" d="M202.21,67.48a8.82,8.82,0,0,0-3.5-1.75c-1.42-.33-.83-2.72,1-2.22a15,15,0,0,1,4.16,1.79,1.42,1.42,0,0,1,.31,2A1.26,1.26,0,0,1,202.21,67.48Zm-1.47,9.77a1.36,1.36,0,1,1-.8-2.56c4.75-1.2,9.53-6.1,11.92-10.73A1.29,1.29,0,1,1,214,65.35C211.08,70.67,206.18,75.52,200.74,77.25Z"/><path class="cls-2" d="M226.47,77.93c-1.94.6-2.82-1.75-.93-2.24,4.66-1.26,7.67-4.12,8.73-7.12.24-.64.12-1-.78-1-2.41,0-6.81,0-9.34.12a1.13,1.13,0,1,1-.07-2.23c3-.07,7-.09,10.24-.07,2.36,0,3.52,1.35,2.55,3.67C235.22,73,232.33,76.14,226.47,77.93ZM234,63.18c-2.23,0-5.49.07-8,0-1.56,0-1.66-2.23.16-2.2,2.27,0,5.58,0,8,0a1.15,1.15,0,0,1,1.28,1.08C235.36,62.63,235,63.18,234,63.18Z"/><path class="cls-2" d="M248.39,73.56c-2.18,1.32-3.41-1.09-1.8-1.87A31.42,31.42,0,0,0,258.13,61a1.23,1.23,0,1,1,2.1,1.25c-1.06,1.42-2.08,2.7-3.09,3.88-.07,2.41-.12,8.61-.05,11a1.25,1.25,0,1,1-2.48.07c0-1.89.11-5.75.14-8.52A34.67,34.67,0,0,1,248.39,73.56Z"/><path class="cls-2" d="M276.69,67.48a8.82,8.82,0,0,0-3.5-1.75c-1.42-.33-.83-2.72,1-2.22a14.92,14.92,0,0,1,4.16,1.79,1.41,1.41,0,0,1,.31,2A1.26,1.26,0,0,1,276.69,67.48Zm-1.47,9.77a1.36,1.36,0,1,1-.8-2.56c4.75-1.2,9.53-6.1,11.92-10.73a1.29,1.29,0,1,1,2.15,1.39C285.56,70.67,280.66,75.52,275.22,77.25Z"/><path class="cls-2" d="M300.5,78.08a1.05,1.05,0,0,1-1.16,1,1,1,0,0,1-1.16-1v0l.1-8.63a22,22,0,0,1-2.39,3.26,1.19,1.19,0,0,1-2.11-.68,1.11,1.11,0,0,1,.38-.78,21.29,21.29,0,0,0,4.12-5.66v-.3l-2.72,0h0a1,1,0,1,1,0-2.08h2.69l-.07-4v0a1,1,0,0,1,1.16-1,1.08,1.08,0,0,1,1.16,1v0s-.05,1.86-.07,4h2.29a1,1,0,0,1,0,2.08h0l-2.31,0c0,.59,0,1.16,0,1.68a.85.85,0,0,1,.26,0c.48,0,3.12,1.68,3.12,2.72a1.22,1.22,0,0,1-1.13,1.18.9.9,0,0,1-.73-.4,11.63,11.63,0,0,0-1.49-1.59c0,3.69.09,9.25.09,9.25Zm4.16-9.28c0-2.38,0-4.77,0-6.66,0-2.72,1.66-2.82,4.85-2.82,2.55,0,4.54,0,4.61,2.67.05,2,.07,4.5.07,7,0,2.2,0,4.4-.05,6.31,0,2.6-1.3,3.15-4.13,3.15-3.95,0-5.28-.12-5.35-3.1C304.69,73.53,304.66,71.17,304.66,68.8ZM312.09,67h-5.35v3.47h5.35Zm0-2c0-.78,0-1.52-.05-2.16,0-1.39-.17-1.46-2.56-1.46-.49,0-1,0-1.44,0-1.23.07-1.25.44-1.25,3.57Zm-5.3,7.49c0,.88,0,1.71.05,2.42,0,1.34.37,1.46,2.9,1.46,2.2,0,2.27-.52,2.3-1.53,0-.71,0-1.52.05-2.35Z"/><path class="cls-2" d="M319.94,64.05a.94.94,0,0,1-1-1,1,1,0,0,1,1-1h6.59a.94.94,0,0,1,1,1,1,1,0,0,1-1,1Zm4.75,14.45c-.5,0-1.06,0-1.61,0s-1.09,0-1.56,0a1.8,1.8,0,0,1-1.75-1.87c0-.61,0-1.2,0-1.79s0-1.14,0-1.66a1.76,1.76,0,0,1,1.73-1.8c.45,0,.94,0,1.46,0s1.26,0,1.8,0a1.87,1.87,0,0,1,1.89,1.68c0,.55,0,1.18,0,1.8s0,1.23,0,1.75A1.91,1.91,0,0,1,324.69,78.5Zm-3.78-17.69a.95.95,0,1,1,0-1.89h4.73a.95.95,0,1,1,0,1.89Zm0,6.32a1,1,0,0,1,0-1.9h4.73a1,1,0,1,1,0,1.9Zm0,3.05a1,1,0,0,1,0-1.9h4.73a1,1,0,1,1,0,1.9Zm3.76,4.75c0-.43,0-.87,0-1.21-.05-.56-.5-.63-1.51-.63-1.52,0-1.52,0-1.52,1.82,0,.42,0,.87,0,1.23s.11.56,1.44.56,1.54-.23,1.56-.59S324.71,75.36,324.71,74.93Zm7.5-6.41a1.12,1.12,0,0,1,1.14-1.13,1,1,0,0,1,1,1.13c0,.62,0,1.21-.09,1.8,0,.05,0,.09,0,.14a5.56,5.56,0,0,0,.4,1.58,12.22,12.22,0,0,0,2.06-2.17.79.79,0,0,1,.69-.38,1.23,1.23,0,0,1,1.11,1.16c0,.78-1.7,2.18-3,3a8,8,0,0,0,3.93,2.91,1.1,1.1,0,0,1,.87,1.09,1.14,1.14,0,0,1-1.16,1.18c-1.11,0-4.13-1.85-5.72-5.18a8.9,8.9,0,0,1-6,5.39,1.1,1.1,0,0,1-1.08-1.11,1,1,0,0,1,.75-1c4.05-1.3,5-4.42,5-8v-.4Zm2.08-7a5.67,5.67,0,0,0,.38,1.51A12.13,12.13,0,0,0,337,60.65a.81.81,0,0,1,.7-.41,1.28,1.28,0,0,1,1.19,1.23c0,.24-.19,1.21-3.34,3.15a7.55,7.55,0,0,0,3.74,2.58,1.07,1.07,0,0,1,.87,1,1.13,1.13,0,0,1-1.15,1.13c-1.23,0-4.14-2-5.54-4.78a8.5,8.5,0,0,1-5.27,5,1,1,0,0,1-1-1.06,1,1,0,0,1,.68-.93c3.38-1.41,4.33-4,4.33-7.3,0-.24,0-.5,0-.76v0a1.09,1.09,0,0,1,1.11-1.11c1,0,1,.95,1,1.66a13.62,13.62,0,0,1-.07,1.44Zm-6.24,12.25a.89.89,0,0,1,.09-.4,9.65,9.65,0,0,0,.26-3,.8.8,0,0,1,.9-.8,1,1,0,0,1,1.07.78c0,.35,0,.73,0,1.11,0,2.6-.57,3.14-1.35,3.14A.92.92,0,0,1,328.05,73.77Zm.21-9.39a.79.79,0,0,1,.1-.4,9.47,9.47,0,0,0,.26-3,.8.8,0,0,1,.89-.8,1,1,0,0,1,1.07.78c0,.35,0,.73,0,1.11,0,1.89-.31,3.12-1.35,3.12A.93.93,0,0,1,328.26,64.38Z"/><path class="cls-2" d="M111.18,68.14a9.08,9.08,0,0,0,.13-.92c0-.4,0-1,0-1.19-.37-6.44-7.06-11.58-15.25-11.58-8.44,0-15.28,5.44-15.28,12.15,0,6.16,5.78,11.26,13.26,12a.83.83,0,0,1,.74.92l-.32,2.87a.83.83,0,0,0,1.19.83c6.33-3.05,10.11-6.19,12.36-8.91.41-.49,1.75-2.37,2-2.86A10,10,0,0,0,111.18,68.14Z"/><path class="cls-3" d="M87.64,69.06V63.94a.78.78,0,0,0-.78-.78h0a.78.78,0,0,0-.78.78v5.9a.78.78,0,0,0,.78.78H90a.78.78,0,0,0,.78-.78h0a.78.78,0,0,0-.78-.78Z"/><path class="cls-3" d="M92.46,70.62h-.34A.61.61,0,0,1,91.5,70V63.77a.61.61,0,0,1,.62-.61h.34a.61.61,0,0,1,.61.61V70A.61.61,0,0,1,92.46,70.62Z"/><path class="cls-3" d="M98.77,63.94v3.6s-3.12-4.07-3.17-4.12a.77.77,0,0,0-.61-.26.8.8,0,0,0-.75.81v5.87a.78.78,0,0,0,.78.78h0a.78.78,0,0,0,.78-.78V66.26S99,70.36,99,70.41a.74.74,0,0,0,.52.21.81.81,0,0,0,.79-.81V63.94a.78.78,0,0,0-.78-.78h0A.78.78,0,0,0,98.77,63.94Z"/><path class="cls-3" d="M106.19,63.94h0a.78.78,0,0,0-.78-.78h-3.13a.78.78,0,0,0-.78.78v5.9a.78.78,0,0,0,.78.78h3.13a.78.78,0,0,0,.78-.78h0a.78.78,0,0,0-.78-.78h-2.34V67.67h2.34a.78.78,0,0,0,.78-.78h0a.78.78,0,0,0-.78-.78h-2.34V64.72h2.34A.78.78,0,0,0,106.19,63.94Z"/><line class="cls-4" x1="77.63" y1="45.36" x2="345.62" y2="45.36"/></g></g></svg>