<svg xmlns="http://www.w3.org/2000/svg" viewBox="0 0 423.26 135.52"><defs><style>.cls-1{fill:#fff;}.cls-2{fill:#f35b5b;}.cls-3{fill:#fee;}</style></defs><g id="Layer_2" data-name="Layer 2"><g id="レイヤー_2" data-name="レイヤー 2"><rect class="cls-1" x="1.81" y="36.16" width="419.63" height="97.55" rx="40.65"/><path class="cls-2" d="M380.79,38A38.84,38.84,0,0,1,419.63,76.8V93.06a38.83,38.83,0,0,1-38.84,38.83H42.46A38.82,38.82,0,0,1,3.63,93.06V76.8A38.83,38.83,0,0,1,42.46,38H380.79m0-3.63H42.46A42.51,42.51,0,0,0,0,76.8V93.06a42.51,42.51,0,0,0,42.46,42.46H380.79a42.51,42.51,0,0,0,42.47-42.46V76.8a42.51,42.51,0,0,0-42.47-42.46Z"/><path class="cls-3" d="M208.84,44H81.13a7,7,0,0,1-7.2-6.69V8.19a7,7,0,0,1,7.2-6.69H353.52a7,7,0,0,1,7.2,6.69V37.26a7,7,0,0,1-7.2,6.69H225.81l-8.48,7.73Z"/><path class="cls-2" d="M353.52,3a5.46,5.46,0,0,1,5.7,5.19V37.26a5.46,5.46,0,0,1-5.7,5.19H225.23l-7.9,7.2-7.91-7.2H81.13a5.46,5.46,0,0,1-5.7-5.19V8.19A5.46,5.46,0,0,1,81.13,3H353.52m0-3H81.13a8.46,8.46,0,0,0-8.7,8.19V37.26a8.46,8.46,0,0,0,8.7,8.19H208.26l7.05,6.42,2,1.84,2-1.84,7-6.42H353.52a8.46,8.46,0,0,0,8.7-8.19V8.19A8.46,8.46,0,0,0,353.52,0Z"/><path class="cls-2" d="M106.74,25.63c-.23-.44-.71-1.21-1.18-1.9v7.82h-1.63V24.1a18.73,18.73,0,0,1-2.17,4.35,8.13,8.13,0,0,0-.82-1.58,19.88,19.88,0,0,0,2.67-5.36H101.2V19.92h2.73v-2.5c-.78.17-1.58.29-2.33.39a5.46,5.46,0,0,0-.49-1.3,25.39,25.39,0,0,0,5.47-1.39l1.18,1.26a19.06,19.06,0,0,1-2.2.7v2.84h2.09v1.59h-2.09V22c.51.47,1.86,2,2.19,2.37Zm7.7,4.25c.6,0,.69-.48.76-2.7a4.56,4.56,0,0,0,1.5.69c-.18,2.7-.6,3.56-2.12,3.56h-2.26c-1.64,0-2.09-.53-2.11-2.36a19.51,19.51,0,0,1-2.65,2,4.91,4.91,0,0,0-1.2-1.21,19.23,19.23,0,0,0,3.85-3.15V18.61h1.64v6.11a24.32,24.32,0,0,0,3.7-8.92l1.57.34a33.47,33.47,0,0,1-1.53,5l.78-.22a17.52,17.52,0,0,1,1.71,5.32l-1.55.44A17.69,17.69,0,0,0,115.24,22a21.82,21.82,0,0,1-3.39,5.42V29c0,.75.11.88.71.88Zm-7.52-3.27a12.87,12.87,0,0,0,1.34-5.45l1.36.26c-.18,2-.51,4.41-1.38,5.81Zm6.35-7.82A14.72,14.72,0,0,0,109.71,16l1.08-1.08a14.64,14.64,0,0,1,3.61,2.63Z"/><path class="cls-2" d="M127.57,25.06a4.08,4.08,0,0,1-1.88-.29,32,32,0,0,1-4.5,1.59,7.92,7.92,0,0,0-1-1.39A28.2,28.2,0,0,0,125,23.44V19.79h1.54v2.94a14.17,14.17,0,0,0,5.08-4.07l1.46.66a16.62,16.62,0,0,1-5.25,4.39h3c.78,0,.91-.22,1-1.59a4.5,4.5,0,0,0,1.39.53c-.18,1.94-.64,2.41-2.21,2.41Zm-3.39-4.52a6.56,6.56,0,0,1-2.47,3.5l-1.31-.88A5.83,5.83,0,0,0,122.77,20Zm-1.57-.6H121V16.29h6.76V14.83h1.73v1.46h6.9v3.65h-1.73V17.82h-12Zm10.68,6.32H135v5.27h-1.7v-.71H124.1v.75h-1.67V26.26h1.67v3h3.63V25.3h1.72v3.95h3.84Zm-4.36-5.52a13.7,13.7,0,0,0-3.11-1.9l.82-1a12.81,12.81,0,0,1,3.17,1.76Zm4.95-.62A16.59,16.59,0,0,1,137,23.47l-1.29.91a17.61,17.61,0,0,0-3.06-3.44Z"/><path class="cls-2" d="M142.3,22.47c0,2.66-.25,6.6-1.78,9.14a6.2,6.2,0,0,0-1.28-1c1.39-2.35,1.51-5.71,1.51-8.15V17.35h2.15a14.63,14.63,0,0,0-1.2-1.74l1.42-.69a9.18,9.18,0,0,1,1.48,2l-.75.39h3.45a9.41,9.41,0,0,0-1-2l1.4-.55a7.59,7.59,0,0,1,1.17,2.14l-1.06.44h3.79l-.52-.18a14,14,0,0,0,1.62-2.42l1.73.53c-.55.73-1.15,1.49-1.66,2.07h3.12v1.48H142.3Zm6.29.8v8.32h-1.38V30.07c-1.71.22-3.41.39-4.78.55l-.31-1.35c.4,0,.86-.05,1.35-.11V23.27h-.77V22h2.59V20.86H143.1V19.64h6v1.22h-2.3V22h2.53v1.24Zm-1.38,0h-2.35v1.08h2.35Zm-2.35,3.34h2.35V25.48h-2.35Zm0,2.44,2.35-.24V27.72h-2.35Zm10.43-6.55a16.47,16.47,0,0,1-1.83,5.4,7.36,7.36,0,0,0,2.92,2.45,5.32,5.32,0,0,0-1,1.27,7.87,7.87,0,0,1-2.77-2.46,10,10,0,0,1-2.88,2.44,6.09,6.09,0,0,0-1-1.18,8.57,8.57,0,0,0,3.05-2.61,15.13,15.13,0,0,1-1.17-3,10.17,10.17,0,0,1-.76,1.22A7.88,7.88,0,0,0,148.68,25a12.82,12.82,0,0,0,2.08-5.78l1.52.25c-.11.59-.24,1.15-.37,1.72H156V22.5Zm-3.91.41a15.69,15.69,0,0,0,1.21,3.52,14,14,0,0,0,1.16-3.92h-2.22Z"/><path class="cls-2" d="M174.94,23.34h-4.55v6.17c0,1-.26,1.51-1,1.78a12.29,12.29,0,0,1-3.57.28,8.07,8.07,0,0,0-.61-1.7c1.24,0,2.54,0,2.92,0s.49-.09.49-.4V23.34h-9.73V21.68h9.73V19.26h1.73v2.42h4.56ZM161,20.75H159.3v-4H166V14.83h1.81v1.91h6.72v4h-1.79v-2.4H161Zm1.35,3.32a16.4,16.4,0,0,1,3,3.69l-1.46,1A16.84,16.84,0,0,0,161,24.93Z"/><path class="cls-2" d="M180.07,17.83c1.31-.12,4.54-.43,7.86-.71,1.91-.16,3.74-.27,5-.31l0,1.84a17,17,0,0,0-3.52.26,6,6,0,0,0-4,5.42c0,3.3,3.07,4.37,6,4.52l-.66,1.93c-3.54-.18-7.24-2.08-7.24-6.05a7.16,7.16,0,0,1,3-5.86c-1.57.17-6,.61-8,1l-.18-2C179.08,17.91,179.7,17.87,180.07,17.83Zm11.78,5.33-1.13.51a17,17,0,0,0-1.46-2.55l1.09-.48A24.3,24.3,0,0,1,191.85,23.16Zm2.08-.84-1.11.55a16.92,16.92,0,0,0-1.54-2.52l1.1-.49C192.81,20.48,193.53,21.57,193.93,22.32Z"/><path class="cls-2" d="M201.46,28.9c4-3.5,6-6.11,6-8.31a2.2,2.2,0,0,0-2.28-2.47,3.63,3.63,0,0,0-2.64,1.5l-1.19-1.17a5.25,5.25,0,0,1,4.08-2,3.79,3.79,0,0,1,4,4c0,2.59-2.06,5.27-4.9,8,.69-.07,1.53-.12,2.19-.12h3.35v1.79h-8.66Z"/><path class="cls-2" d="M221.81,26.51H220.1v3.61h-2V26.51h-5.8v-1.4l5.34-8.41h2.42v8.19h1.71Zm-3.68-1.62V21.37c0-.73.07-1.86.11-2.59h-.08c-.33.67-.69,1.37-1.07,2.06l-2.65,4.05Z"/><path class="cls-2" d="M234.58,28h-3.8v1.53h-1.57V16h5.36Zm-3.8-10.52v3.67H233V17.5Zm2.19,9V22.66h-2.19v3.85Zm10.27-4.65v1.82h1.95v1.5h-1.95v4.48c0,.88-.2,1.33-.81,1.59a9.08,9.08,0,0,1-3,.27,6.43,6.43,0,0,0-.54-1.58c1,0,2,0,2.29,0s.39-.09.39-.34V25.18h-6.64v-1.5h6.64V21.86h-6.7v-1.5h4.34v-2h-3.64V16.88h3.64V14.8h1.7v2.08h3.76v1.48h-3.76v2h4.43v1.5Zm-6,3.77a14.21,14.21,0,0,1,2.28,3l-1.45.88a13.5,13.5,0,0,0-2.2-3.12Z"/><path class="cls-2" d="M250.29,21.89v9.67h-1.68v-16h6.72v6.34Zm0-5.06v1.25h3.45V16.83Zm3.45,3.81V19.29h-3.45v1.35Zm9.94,8.8c0,1-.2,1.52-.86,1.81a9.33,9.33,0,0,1-3.17.29,7.26,7.26,0,0,0-.53-1.66H254.2v.91h-1.55V23.15h6.84v6.68c.89,0,1.76,0,2.06,0s.42-.11.42-.42V21.93h-5.17V15.55h6.89Zm-9.48-5v1.42h3.7V24.43Zm3.7,4.17V27.09h-3.7V28.6Zm.51-11.78v1.26H262V16.82ZM262,20.67V19.29h-3.55v1.38Z"/><path class="cls-2" d="M280.86,23.9A11.2,11.2,0,0,1,277,28.33a23.82,23.82,0,0,0,6.42,1.51,7.41,7.41,0,0,0-1,1.61,22.56,22.56,0,0,1-7.11-2.12,25.38,25.38,0,0,1-7.2,2.14,5.46,5.46,0,0,0-1-1.54,24.75,24.75,0,0,0,6.55-1.6A12.34,12.34,0,0,1,270.28,25l.33-.14h-.78V23.26h9.57l.31-.06ZM269,23.79h-1.59V20h2.76a12.94,12.94,0,0,0-1-2.17l1.48-.41a9.58,9.58,0,0,1,1.16,2.27l-1,.31h3.94a11,11,0,0,0-.82-2.57l1.51-.33a10.62,10.62,0,0,1,.91,2.52l-1.53.38h3.63a20,20,0,0,0,1.46-2.93l1.77.47c-.48.82-1,1.73-1.52,2.46H283v3.78h-1.65V21.51H269Zm13.15-7.68A97.46,97.46,0,0,1,268,17.48a4.91,4.91,0,0,0-.36-1.44A94.09,94.09,0,0,0,281,14.73Zm-10.1,8.72a10,10,0,0,0,3.19,2.68,9.12,9.12,0,0,0,3-2.68Z"/><path class="cls-2" d="M292.14,15.45a28.28,28.28,0,0,1-1.84,3.85V31.52h-1.71V22a16.79,16.79,0,0,1-1.6,1.87,12.28,12.28,0,0,0-1-1.73,19.76,19.76,0,0,0,4.51-7.16Zm10.54,5h-2.17v8.89c0,1.19-.3,1.66-1.07,1.92a13.81,13.81,0,0,1-4,.29,6.65,6.65,0,0,0-.66-1.69c1.48.07,3,.05,3.43,0s.58-.14.58-.55V20.49h-7.13v-1.7h7.13V15h1.75v3.77h2.17Zm-7.54,6.82a48,48,0,0,0-2.5-4.47l1.47-.69c.88,1.36,2.06,3.2,2.61,4.3Z"/><path class="cls-2" d="M320.88,18v8.72h-1.76v-1h-4.74v5.79h-1.77V25.74h-4.73v1.07h-1.69V18h6.42V14.83h1.77V18Zm-8.27,6.08V19.66h-4.73v4.42Zm6.51,0V19.66h-4.75v4.42Z"/><path class="cls-2" d="M331,28.65a1.66,1.66,0,1,1,1.66,1.59A1.59,1.59,0,0,1,331,28.65Zm.39-9.77-.06-2.41H334l0,2.41-.55,6.71h-1.49Z"/><path class="cls-2" d="M94.11,66.54A11.87,11.87,0,0,1,97.57,66c2.3,0,4,1.27,4,3.15s-1.2,3.13-3.37,3.65a9.6,9.6,0,0,1-1.94.21l-.45-1.26a8.93,8.93,0,0,0,1.85-.11c1.39-.26,2.65-1,2.65-2.48s-1.21-2.05-2.71-2.05a10.14,10.14,0,0,0-3.43.62c0,1.34.06,2.73.06,3.41,0,1.47-.56,1.93-1.4,1.93-1.25,0-3.31-1.19-3.31-2.61s1.65-2.67,3.46-3.45v-.89c0-.64,0-1.38,0-2.08-.43,0-.83,0-1.16,0-.72,0-1.41,0-2-.08l0-1.21a14.45,14.45,0,0,0,2,.12c.37,0,.79,0,1.22,0,0-.83,0-1.52,0-1.81a5.59,5.59,0,0,0-.1-1.11H94.3c0,.28-.06.71-.08,1.08s0,1,0,1.71a21.6,21.6,0,0,0,3.24-.64l0,1.26a29.74,29.74,0,0,1-3.29.54c0,.75,0,1.5,0,2.14ZM93,70.94c0-.57,0-1.64-.05-2.79-1.28.61-2.22,1.5-2.22,2.22s1.09,1.34,1.71,1.34C92.82,71.71,93,71.44,93,70.94Zm6.22-9.29A26.87,26.87,0,0,1,102.84,64l-.64,1a20,20,0,0,0-3.54-2.36Z"/><path class="cls-2" d="M112.51,62.71h-5v2.23h-1.07V61.85h6.08v-1h-5.17V60h11.58v.92h-5.26v1h6.19v3.09h-1.1V62.71h-5.09v3.64h-1.15Zm5.82,10.05c.85,0,1-.28,1.09-1.88a3,3,0,0,0,1,.4c-.18,1.93-.55,2.41-2,2.41h-3.67c-1.79,0-2.28-.3-2.28-1.58V71.6h-3.54v.83h-1.14V66.89h10.76V71.6h-5v.51c0,.54.19.65,1.2.65ZM108,65.18h3.67v.75H108Zm3.67-.88h-3.36v-.73h3.36Zm-2.77,3.45v1.1h3.54v-1.1Zm3.54,3V69.65h-3.54v1.09Zm4.93-3h-3.8v1.1h3.8Zm0,3V69.65h-3.8v1.09Zm.53-7.17v.73H114.5v-.73Zm-3.42,1.61h3.8v.75h-3.8Z"/><path class="cls-2" d="M123.21,61.94h5.91v1h-5.91Zm5.43,11.16H125v.72h-1V68.49h4.71Zm0-8H124v-1h4.63ZM124,66.32h4.63v.94H124Zm4.6-5.54h-4.5v-1h4.5ZM125,69.46v2.67h2.63V69.46ZM134.15,65v2.67h3v6H136V73h-4.69v.8h-1.11V67.69H133V65h-3.72V63.89H133V61.35c-1,.13-2,.23-3,.3a3.69,3.69,0,0,0-.34-1,40.8,40.8,0,0,0,6.83-1.14l.87,1a28.09,28.09,0,0,1-3.16.69v2.71h3.73V65ZM136,68.77h-4.69V72H136Z"/><path class="cls-2" d="M142.66,62c1-.1,4-.39,6.93-.64,1.72-.14,3.21-.22,4.26-.27v1.28a13.12,13.12,0,0,0-3.1.25,5.52,5.52,0,0,0-3.6,5c0,3.08,2.87,4,5.44,4.15l-.46,1.34c-2.92-.13-6.26-1.7-6.26-5.22a6.39,6.39,0,0,1,2.94-5.33c-1.39.16-5.7.57-7.41.92l-.14-1.4C141.87,62.1,142.36,62.07,142.66,62Zm10.27,4.51-.82.39a13.8,13.8,0,0,0-1.31-2.25l.82-.35A20.17,20.17,0,0,1,152.93,66.55Zm1.82-.68-.83.38A15.16,15.16,0,0,0,152.56,64l.8-.36A25.71,25.71,0,0,1,154.75,65.87Z"/><path class="cls-2" d="M165.08,71.84a9.48,9.48,0,0,0,1.36-.19,4.74,4.74,0,0,0,4-4.68,4.38,4.38,0,0,0-4.2-4.58,34.07,34.07,0,0,1-.94,4.55c-1,3.24-2.24,4.91-3.71,4.91s-2.82-1.62-2.82-4.23a6.75,6.75,0,0,1,6.93-6.43A5.74,5.74,0,0,1,171.77,67c0,3.32-2.19,5.54-6,6Zm-1-5.17a25.91,25.91,0,0,0,.87-4.26,5.5,5.5,0,0,0-4.88,5.1c0,2,.93,2.88,1.61,2.88S163.23,69.33,164.05,66.67Z"/><path class="cls-2" d="M181.07,66.54a11.87,11.87,0,0,1,3.46-.58c2.3,0,4,1.27,4,3.15s-1.19,3.13-3.37,3.65a9.6,9.6,0,0,1-1.94.21l-.45-1.26a8.89,8.89,0,0,0,1.85-.11c1.39-.26,2.65-1,2.65-2.48s-1.21-2.05-2.71-2.05a10.14,10.14,0,0,0-3.43.62c0,1.34.06,2.73.06,3.41,0,1.47-.56,1.93-1.4,1.93-1.25,0-3.31-1.19-3.31-2.61s1.65-2.67,3.47-3.45v-.89c0-.64,0-1.38,0-2.08-.43,0-.83,0-1.16,0-.72,0-1.41,0-2-.08l0-1.21a14.53,14.53,0,0,0,2,.12c.37,0,.79,0,1.22,0,0-.83,0-1.52,0-1.81a5.59,5.59,0,0,0-.1-1.11h1.39c0,.28-.06.71-.08,1.08s0,1-.05,1.71a21.6,21.6,0,0,0,3.24-.64l0,1.26a29.74,29.74,0,0,1-3.29.54c0,.75,0,1.5,0,2.14Zm-1.1,4.4c0-.57,0-1.64-.05-2.79-1.28.61-2.22,1.5-2.22,2.22s1.09,1.34,1.71,1.34C179.78,71.71,180,71.44,180,70.94Zm6.22-9.29A26.87,26.87,0,0,1,189.8,64l-.64,1a20,20,0,0,0-3.54-2.36Z"/><path class="cls-2" d="M194.79,65.53v8.32h-1.16V60h5.73v5.58Zm0-4.63v1.35h3.43V60.9Zm3.43,3.68V63.12h-3.43v1.46Zm-.08,7v1h-1.08V67H203V71.6Zm0-3.64v2.63h3.75V68Zm8.51,4.28c0,.78-.19,1.18-.7,1.39a10.62,10.62,0,0,1-2.86.2,5.57,5.57,0,0,0-.41-1.21c1,0,2.07,0,2.39,0s.38-.1.38-.4V65.53h-4.67V60h5.87Zm-4.74-11.35v1.36h3.54V60.89Zm3.54,3.7V63.12h-3.54v1.47Z"/><path class="cls-2" d="M213,63c0,1,0,2.45.11,3.74.26,2.65,1,4.39,2.14,4.39.82,0,1.55-1.63,2-3.23l1,1.15c-.94,2.68-1.91,3.59-3,3.59-1.48,0-2.92-1.48-3.35-5.58a42,42,0,0,1-.18-4.22,8.36,8.36,0,0,0-.09-1.4l1.53,0C213.05,61.89,213,62.63,213,63Zm11.14,6.64-1.29.51a15.62,15.62,0,0,0-2.73-7.82l1.24-.43A16.17,16.17,0,0,1,224.12,69.68Z"/><path class="cls-2" d="M235.37,59.31a19.06,19.06,0,0,0,7,5.7,5.25,5.25,0,0,0-.79,1,21.45,21.45,0,0,1-6.75-5.57,19.57,19.57,0,0,1-6.62,5.66,4.35,4.35,0,0,0-.73-.94,17.9,17.9,0,0,0,6.68-5.87Zm-5.32,8.19h9.71v6.35h-1.21v-.66h-7.33v.66h-1.17Zm8.83-3v1h-8v-1Zm-7.66,4.12v3.56h7.33V68.57Z"/><path class="cls-2" d="M250.66,63c-.2.28-.47.72-.71,1.1,0,.32,0,.67-.08,1a8,8,0,0,1,5-2,4,4,0,0,1,4.17,4c0,3.18-2.31,4.87-5.76,5.52l-.58-1.19c2.67-.4,5.06-1.63,5-4.36a2.87,2.87,0,0,0-3-2.79,7.31,7.31,0,0,0-4.93,2.26c0,.66-.05,1.3-.05,1.85,0,1.44,0,2.4.06,3.82,0,.27.05.67.08,1h-1.39c0-.23.05-.69.05-1,0-1.51,0-2.29.05-4,0-.16,0-.37,0-.61-.77,1.17-1.81,2.69-2.57,3.74l-.8-1.1c.88-1.1,2.7-3.56,3.49-4.81,0-.51.07-1,.1-1.51-.72.08-2.09.27-3.08.4l-.13-1.33a7.26,7.26,0,0,0,1,0c.51,0,1.43-.13,2.25-.26,0-.75.08-1.31.08-1.48a6,6,0,0,0-.06-1.19l1.51,0c-.08.39-.21,1.28-.32,2.38l.08,0Z"/><path class="cls-2" d="M273.46,60.36c0,.26-.07.8-.08,1.14,0,.71,0,1.5,0,2.2l1.73-.13,1.24-.08v1.28c-.25,0-.84,0-1.24,0s-1.07,0-1.76.08a24.45,24.45,0,0,1-.24,3.32c-.14.7-.49.91-1.21.91a17.11,17.11,0,0,1-2.09-.23l0-1.13a9.72,9.72,0,0,0,1.58.21c.38,0,.54-.07.59-.42.08-.52.14-1.58.18-2.57-1.63.13-3.48.31-5.05.47,0,1.62,0,3.27,0,3.87.05,1.71.07,2.29,2.81,2.29a33,33,0,0,0,4.69-.35l0,1.34c-1.06.11-3,.27-4.58.27-3.66,0-4-.85-4.09-3.37,0-.69,0-2.35,0-3.93l-1.67.18-1.62.22-.12-1.31c.48,0,1.07,0,1.64-.08l1.77-.16,0-2.2a8.38,8.38,0,0,0-.1-1.32h1.39c0,.35-.05.78-.05,1.27v2.13l5-.47V61.54a8.42,8.42,0,0,0-.08-1.18Z"/><path class="cls-2" d="M283.19,60.47a7.62,7.62,0,0,0-.27,1.07,38.8,38.8,0,0,0-.78,6.37,14.25,14.25,0,0,0,.14,2.16c.25-.72.62-1.66.89-2.3l.67.52a34.64,34.64,0,0,0-1.11,3.5,2.47,2.47,0,0,0-.08.7c0,.16,0,.39,0,.54l-1.13.1a19,19,0,0,1-.61-5,49.38,49.38,0,0,1,.72-6.64,6.33,6.33,0,0,0,.11-1.12ZM293.47,72a11.93,11.93,0,0,0-2.38-1.8v.29c0,1.3-.61,2.58-2.75,2.58s-3.28-.88-3.28-2.28,1.18-2.41,3.25-2.41a7.49,7.49,0,0,1,1.47.14c0-1.21-.14-2.73-.16-4-.51,0-1,0-1.52,0-.89,0-1.72,0-2.64-.1V63.19a26.12,26.12,0,0,0,2.68.14l1.48,0v-2a6.12,6.12,0,0,0-.08-1H291a9.36,9.36,0,0,0-.09.94c0,.43,0,1.16,0,1.9a18.94,18.94,0,0,0,2.73-.37V64.1c-.86.14-1.79.24-2.73.3,0,1.58.13,3.16.19,4.49a10.78,10.78,0,0,1,3.11,2Zm-3.64-2.34a4.81,4.81,0,0,0-1.61-.26c-1.18,0-2,.53-2,1.26s.77,1.23,1.9,1.23c1.34,0,1.72-.65,1.72-1.71C289.84,70,289.84,69.83,289.83,69.64Z"/><path class="cls-2" d="M300.9,67.82a6.22,6.22,0,0,0-.32,1.8c0,1.18,1.21,2,3.74,2a20.44,20.44,0,0,0,5.41-.61V72.4a23.39,23.39,0,0,1-5.39.54c-3.21,0-5.08-1-5.08-3a10.21,10.21,0,0,1,.32-2.22Zm-.65-6.39a33.91,33.91,0,0,0,4.18.21c1.51,0,3.13-.11,4.26-.22v1.3c-1.07.08-2.81.2-4.26.2s-2.92-.07-4.18-.18Z"/><path class="cls-2" d="M326.34,62.87a51.86,51.86,0,0,1-6.4.67,34.35,34.35,0,0,1-1,3.73,7,7,0,0,1,4.42-1.37c2.52,0,4,1.29,4,3.14,0,3.29-3.35,4.54-8.14,4l-.35-1.26c3.64.51,7.18-.13,7.18-2.71,0-1.18-1-2.08-2.81-2.08a5.92,5.92,0,0,0-4.66,1.89,3.14,3.14,0,0,0-.5.73l-1.18-.43a26.07,26.07,0,0,0,1.84-5.62h0c-1.07,0-2.09-.06-3-.14V62.17a20,20,0,0,0,3,.27H319c.08-.42.13-.77.16-1a6.05,6.05,0,0,0,.08-1.31l1.42.08c-.11.42-.2.91-.29,1.33,0,.23-.09.55-.17.91a37.45,37.45,0,0,0,6.16-.77Z"/><path class="cls-2" d="M335.65,67.43a7.52,7.52,0,0,1,5.11-1.9c2.43,0,4,1.46,4,3.31,0,2.84-2.51,4.75-8.38,4.26L336,71.79c5,.61,7.42-.83,7.42-3,0-1.27-1.17-2.14-2.78-2.14a6.1,6.1,0,0,0-4.88,2.09,3,3,0,0,0-.48.8l-1.2-.29a56.85,56.85,0,0,0,.8-6.42l1.36.18C336.07,64.11,335.8,66.41,335.65,67.43Zm1-7.28a41,41,0,0,0,6.11,1.22l-.3,1.24c-1.5-.2-4.94-.91-6.15-1.24Z"/><path class="cls-2" d="M133.37,99q0,7-2,10.64a6.18,6.18,0,0,1-11.31,0q-2-3.68-2-10.64t2-10.69a6.2,6.2,0,0,1,11.33,0Q133.38,92,133.37,99Zm-9.93,0a33.89,33.89,0,0,0,.51,7.27q.51,1.95,1.8,2c.83,0,1.42-.64,1.76-1.91a34.43,34.43,0,0,0,.52-7.31,35.68,35.68,0,0,0-.5-7.41c-.34-1.28-.92-1.92-1.75-1.93s-1.46.66-1.81,2A35,35,0,0,0,123.44,99.07Z"/><path class="cls-2" d="M144.37,96.43a8.16,8.16,0,0,1,1.81-1,4.43,4.43,0,0,1,1.68-.32A4.77,4.77,0,0,1,152,97.23a10.16,10.16,0,0,1,1.48,5.93q0,4.86-2,7.56a6.56,6.56,0,0,1-5.57,2.7,6.9,6.9,0,0,1-5.74-2.53c-1.33-1.68-2-4.08-2-7.2s1.21-7.06,3.64-12l.3-.64,2.89-6h5.37l-4.48,8.8c-.29.53-.55,1-.8,1.45S144.59,96.11,144.37,96.43Zm1.48,12a1.73,1.73,0,0,0,1.6-1.09,7.46,7.46,0,0,0,.55-3.22,8.81,8.81,0,0,0-.47-3.32A1.6,1.6,0,0,0,146,99.77a1.73,1.73,0,0,0-1.65,1.13,9.24,9.24,0,0,0-.52,3.58,7,7,0,0,0,.49,3A1.62,1.62,0,0,0,145.85,108.47Z"/><path class="cls-2" d="M158.6,106.69v-6.08l9.89,0v6.07Z"/><path class="cls-2" d="M181.87,113.09v-6.94h-8v-4.22l7.37-16.82h5.38l0,16.83h2.28v4.22h-2.28v6.94Zm-4.45-11.16h4.66V94c0-.24,0-.6,0-1.08s.09-1.36.18-2.65q-.48,1.62-1,3a23.9,23.9,0,0,1-.95,2.34Z"/><path class="cls-2" d="M194.44,113.11l8.87-23.36h-8.44V85.12l15.3,0-10.2,28Z"/><path class="cls-2" d="M229,99.18q0,7-2,10.64a6.18,6.18,0,0,1-11.31,0q-2-3.67-1.95-10.64t2-10.69a6.2,6.2,0,0,1,11.33,0Q229,92.17,229,99.18Zm-9.93,0a33.42,33.42,0,0,0,.5,7.27q.53,2,1.8,2c.83,0,1.42-.64,1.76-1.91a34.43,34.43,0,0,0,.52-7.31,34.29,34.29,0,0,0-.5-7.41c-.33-1.28-.92-1.92-1.75-1.93s-1.46.66-1.8,2A33.63,33.63,0,0,0,219.08,99.21Z"/><path class="cls-2" d="M238.24,98v-.23a4.09,4.09,0,0,1-2.64-1.95,7.77,7.77,0,0,1-.9-4,7.17,7.17,0,0,1,1.75-5.17,7.69,7.69,0,0,1,10,0,7.21,7.21,0,0,1,1.74,5.18,7.67,7.67,0,0,1-.93,4,4.1,4.1,0,0,1-2.63,2V98a5.21,5.21,0,0,1,3.21,2.48,9.44,9.44,0,0,1,1.11,4.87,8.56,8.56,0,0,1-2,6,8.07,8.07,0,0,1-11,0,8.63,8.63,0,0,1-2-6,9.6,9.6,0,0,1,1.12-4.86A5.16,5.16,0,0,1,238.24,98Zm3.18,2.73a1.84,1.84,0,0,0-1.72,1,5.76,5.76,0,0,0-.57,2.88,6.56,6.56,0,0,0,.55,3.08,2,2,0,0,0,3.43,0,8.3,8.3,0,0,0,0-6A1.82,1.82,0,0,0,241.42,100.7Zm0-11.51a1.56,1.56,0,0,0-1.41.69,4.06,4.06,0,0,0-.45,2.17,5.18,5.18,0,0,0,.44,2.51,1.78,1.78,0,0,0,2.88,0,4.7,4.7,0,0,0,.46-2.35,4.48,4.48,0,0,0-.47-2.31A1.6,1.6,0,0,0,241.39,89.19Z"/><path class="cls-2" d="M254.24,106.83v-6.08l9.89,0v6.07Z"/><path class="cls-2" d="M277.51,113.23v-6.94h-8v-4.22l7.37-16.82h5.39l0,16.83h2.28v4.22h-2.29v6.93Zm-4.45-11.17h4.66V94.15c0-.24,0-.6,0-1.08s.08-1.36.17-2.65q-.48,1.62-1,3c-.32.91-.64,1.69-.94,2.34Z"/><path class="cls-2" d="M289.44,112.5l.72-5.06a9.17,9.17,0,0,0,2.06.93,6.81,6.81,0,0,0,2,.32,4.3,4.3,0,0,0,3.22-1.16,4.63,4.63,0,0,0,1.14-3.34,4.55,4.55,0,0,0-1.74-3.84,8.16,8.16,0,0,0-5-1.34c-.24,0-.62,0-1.13,0l-.29,0,2-13.82,10.9,0V90h-7l-.72,5.1h.19a8.2,8.2,0,0,1,6.17,2.28,8.61,8.61,0,0,1,2.22,6.28,10.28,10.28,0,0,1-2.48,7.25,8.69,8.69,0,0,1-6.72,2.67,14.55,14.55,0,0,1-2.91-.27A11.2,11.2,0,0,1,289.44,112.5Z"/><path class="cls-2" d="M309.32,105.26H314v.32a4.59,4.59,0,0,0,.56,2.49,1.85,1.85,0,0,0,1.64.85,2,2,0,0,0,1.83-1.05,5.75,5.75,0,0,0,.65-3,4.82,4.82,0,0,0-.82-3.17,3.4,3.4,0,0,0-2.72-1,1.85,1.85,0,0,0-.32,0,2.37,2.37,0,0,1-.35,0V96.2h.36a5.08,5.08,0,0,0,3.25-.82,3.33,3.33,0,0,0,1-2.7,3.86,3.86,0,0,0-.57-2.25,2,2,0,0,0-3.19,0,4.21,4.21,0,0,0-.55,2.38v.31h-4.52v-.65A8,8,0,0,1,312,86.85a6.72,6.72,0,0,1,5.18-1.92,6,6,0,0,1,4.82,2,8.42,8.42,0,0,1,1.68,5.65,6.81,6.81,0,0,1-1.08,4,4.29,4.29,0,0,1-3.09,1.77v.34a6.06,6.06,0,0,1,3.78,2.13,7.15,7.15,0,0,1,1.24,4.43,8.49,8.49,0,0,1-2.19,6.15,7.89,7.89,0,0,1-5.95,2.24,6.9,6.9,0,0,1-5.28-2,7.91,7.91,0,0,1-1.86-5.66,2.71,2.71,0,0,1,0-.36C309.31,105.49,309.32,105.36,309.32,105.26Z"/><path class="cls-2" d="M335.64,96.71a8.16,8.16,0,0,1,1.81-1,4.43,4.43,0,0,1,1.68-.32,4.77,4.77,0,0,1,4.12,2.13,10.15,10.15,0,0,1,1.48,5.92q0,4.88-2,7.57a6.56,6.56,0,0,1-5.57,2.7,6.92,6.92,0,0,1-5.74-2.53c-1.33-1.68-2-4.08-2-7.2s1.21-7.06,3.64-12l.3-.64,2.89-6h5.36l-4.47,8.8c-.29.53-.55,1-.8,1.45S335.85,96.39,335.64,96.71Zm1.47,12a1.73,1.73,0,0,0,1.61-1.09,7.65,7.65,0,0,0,.55-3.22,8.54,8.54,0,0,0-.48-3.32,1.59,1.59,0,0,0-1.51-1.07,1.72,1.72,0,0,0-1.65,1.13,9.05,9.05,0,0,0-.52,3.58,7,7,0,0,0,.49,3A1.6,1.6,0,0,0,337.11,108.75Z"/><path class="cls-2" d="M78,90.42v3.12a18.16,18.16,0,0,1,6.56,1.23c.36.14.71.29,1.05.46a16.57,16.57,0,0,1,2.48-1,18,18,0,0,1,5.15-.74,17.81,17.81,0,0,1,6.58,1.23,11.09,11.09,0,0,1,1,.46,17.13,17.13,0,0,1,2.49-1,18.19,18.19,0,0,1,5.12-.74V90.42Z"/><path class="cls-2" d="M97.09,102.25a3.79,3.79,0,0,0,2.32,3.49,3.79,3.79,0,0,0,1.47.3,3.74,3.74,0,0,0,2.12-.65,3.74,3.74,0,0,0,1.67-3.14,3.28,3.28,0,0,0-.24-1.19,5.58,5.58,0,0,0-.75-1.29,9.65,9.65,0,0,0-2.8-2.32,10.08,10.08,0,0,0-2.29,1.75,5.51,5.51,0,0,0-1.3,2A3.09,3.09,0,0,0,97.09,102.25Z"/><path class="cls-2" d="M104.59,97.84a7.43,7.43,0,0,1,1.74,2.7,5.06,5.06,0,0,1,.31,1.71,5.76,5.76,0,1,1-11.51,0,5.38,5.38,0,0,1,.66-2.52,8.64,8.64,0,0,1,1.74-2.24,11.42,11.42,0,0,1,1.24-1c-.3-.11-.61-.22-.92-.31a16.44,16.44,0,0,0-4.6-.65,16.06,16.06,0,0,0-5.53,1,10.28,10.28,0,0,1,1.6,1.37,7.6,7.6,0,0,1,1.75,2.7,5.31,5.31,0,0,1,.3,1.71,5.75,5.75,0,0,1-1,3.22,5.85,5.85,0,0,1-2.53,2.08,5.78,5.78,0,0,1-2.24.45,5.72,5.72,0,0,1-3.22-1,5.72,5.72,0,0,1-2.54-4.77,5.38,5.38,0,0,1,.66-2.52,8.64,8.64,0,0,1,1.74-2.24,11.42,11.42,0,0,1,1.24-1c-.3-.11-.6-.22-.92-.31A16.22,16.22,0,0,0,78,95.51v14.91h30.48V95.51a15.89,15.89,0,0,0-5.5,1A10.76,10.76,0,0,1,104.59,97.84Z"/><path class="cls-2" d="M81.83,102.25a3.76,3.76,0,0,0,.64,2.12,3.86,3.86,0,0,0,1.67,1.37,3.8,3.8,0,0,0,1.48.3,3.74,3.74,0,0,0,2.11-.65,3.74,3.74,0,0,0,1.67-3.14,3.08,3.08,0,0,0-.24-1.19,5.24,5.24,0,0,0-.75-1.29,9.65,9.65,0,0,0-2.8-2.32,10.08,10.08,0,0,0-2.29,1.75,5.51,5.51,0,0,0-1.3,2A3.07,3.07,0,0,0,81.83,102.25Z"/></g></g></svg>