<svg xmlns="http://www.w3.org/2000/svg" viewBox="0 0 501.45 186.58"><defs><style>.cls-1,.cls-6{fill:#222;stroke:#222;}.cls-1{stroke-width:0.3px;}.cls-2{fill:#ef5252;stroke:#ef5252;}.cls-2,.cls-3{stroke-miterlimit:10;stroke-width:1.12px;}.cls-3{fill:#00c200;stroke:#00c200;}.cls-4{fill:#444;}.cls-5{fill:#5a9cd5;}.cls-6{stroke-width:0.59px;}</style></defs><g id="Layer_2" data-name="Layer 2"><g id="レイヤー_2" data-name="レイヤー 2"><path class="cls-1" d="M4.33,110.05c-.53-.61-.69-1.37-.37-1.73.57-.61,1.37,0,1.78.24a6.47,6.47,0,0,0,2.18,1,9.78,9.78,0,0,0,2.62-.13c2.34-.2,3.91-.4,5.77-.56,1.09-.08,3.55-.32,5.28-.48s3.43-.33,4.2-.45a3.1,3.1,0,0,1,2,.49c.4.28.8.6.8,1s0,.57-.88,1.21a45.8,45.8,0,0,1-4.44,3,19.75,19.75,0,0,1-5.65,2,41.19,41.19,0,0,1-.2,4.31,22,22,0,0,1-1.86,6.5,14.58,14.58,0,0,1-2.94,4.4,29,29,0,0,1-5,3.51c-.68.36-1-.25-.56-.49s1-.76,1.85-1.37a16.24,16.24,0,0,0,3.92-4A14.14,14.14,0,0,0,15,122.27a21.5,21.5,0,0,0,.12-6.17,6.77,6.77,0,0,0-1.74-4.19,1.81,1.81,0,0,1-.56-1.09,7.28,7.28,0,0,0-1.05.16,28.8,28.8,0,0,1-4.56.32A3.36,3.36,0,0,1,4.33,110.05Zm10.53.52a6.22,6.22,0,0,1,1.81,1.13,3,3,0,0,1,.85,2.18c0,.24,0,.57,0,.89a15.06,15.06,0,0,0,2.54-1.41,9.45,9.45,0,0,0,2.46-2.06c.53-.56.85-1,.69-1.25s-.45-.36-1.17-.32-3,.4-4.72.56C16.59,110.37,15.7,110.45,14.86,110.57Z"/><path class="cls-1" d="M67.66,110.82a1.45,1.45,0,0,1-.36,1.77,5.94,5.94,0,0,0-1.21,2.22,28,28,0,0,1-3,6,32.66,32.66,0,0,1-5.29,6.3,22.84,22.84,0,0,1-5.72,4.07,29.56,29.56,0,0,1-4.6,2.14c-.69.2-1.21.2-1.29,0s.08-.57.52-.69.93-.48,2.38-1.21a25.05,25.05,0,0,0,5.49-3.59,25.1,25.1,0,0,0,5.32-5.93,32.69,32.69,0,0,0,2.83-5.45c.52-1.45.88-2.9,1.17-3.79.2-.6.28-1.09,0-1.33a4.09,4.09,0,0,0-1.94,0,43.83,43.83,0,0,0-4.84.57c-1.7.28-3.43.8-4.88,1a4,4,0,0,1-3.23-.68c-.93-.65-1.25-1.66-.85-1.94a1.22,1.22,0,0,1,1.37,0,7.5,7.5,0,0,0,2.34.53,25.67,25.67,0,0,0,4.36-.25c1.9-.16,4.4-.44,5.57-.6a5.06,5.06,0,0,0,2.3-.57,1.65,1.65,0,0,1,1.85-.2A4.23,4.23,0,0,1,67.66,110.82Z"/><path class="cls-1" d="M98.19,127a27,27,0,0,0,3.35-4.64c-.2-.24-.36-.48-.52-.64a8.91,8.91,0,0,0-2.79-2.18c-.4-.24-.44-.52-.32-.69s.77-.16,1.13,0a17.11,17.11,0,0,1,3.39,1.94c.8-1.41,1.49-2.7,2-3.95a13.45,13.45,0,0,0,1.09-3.47c.08-.53-.24-.57-.56-.57-.81,0-1.45,0-2.7.12a24.29,24.29,0,0,0-3.63.45,3.69,3.69,0,0,0-.69.16,27.66,27.66,0,0,1-2.7,4,23.21,23.21,0,0,1-3.51,3.67,12.44,12.44,0,0,1-2.91,2c-.64.24-1.13.4-1.29.12s.12-.6.48-.8a13.36,13.36,0,0,0,1.7-1.21,24.86,24.86,0,0,0,3.79-4.2c.93-1.41,2-3.19,2.5-4.2a18.55,18.55,0,0,0,1.13-3.14,1.44,1.44,0,0,0-.48-1.5.69.69,0,0,1-.24-1c.16-.25.72-.25,1.49,0A2.36,2.36,0,0,1,99.48,109a5.92,5.92,0,0,1-.72,3c1.33,0,2.94-.12,4.15-.25a8.86,8.86,0,0,0,2.5-.52,11,11,0,0,0,.81-.77,1.32,1.32,0,0,1,1.33-.32,3.77,3.77,0,0,1,1.78,1.57c.28.61.2,1-.49,1.54a3.52,3.52,0,0,0-1.41,1.61c-.28.73-.61,1.82-1.21,3.23a40,40,0,0,1-2.1,4,13,13,0,0,1,1.7,1.62c.84,1,1.57,2.7.28,3.47s-2.42-.93-2.95-2.1a4.85,4.85,0,0,0-.48-.89,33.66,33.66,0,0,1-2.62,3.19A26.92,26.92,0,0,1,95.77,131a33,33,0,0,1-6.29,3.43,15.25,15.25,0,0,1-2.38.81c-.41.12-.81.12-.89-.09s0-.52.65-.72a19.93,19.93,0,0,0,3.06-1.25,28.46,28.46,0,0,0,3.39-2.06A27.87,27.87,0,0,0,98.19,127Z"/><path class="cls-1" d="M154.63,122c-.09.49-.65.65-1.5.49s-3.1-.41-4.56-.53-4.64-.28-6.13-.2-4.4.2-6.29.4c-1.5.16-3.23.57-4.64.61a6.38,6.38,0,0,1-3.63-1.05c-.81-.61-1.13-1.53-.69-1.86.69-.52,1.86,0,2.87.25a16.82,16.82,0,0,0,4.39.44c1.66-.08,5.09-.24,6.82-.28s6.42-.24,8-.29a13.17,13.17,0,0,1,4.16.41A1.67,1.67,0,0,1,154.63,122Z"/><path class="cls-1" d="M191.13,132.24c-1.25.16-2.18.24-4.92.4a29,29,0,0,1-7.3-.12c-2.47-.48-3.8-1.17-4.68-2.34s-.85-3.1-.69-5.61.2-4.43.28-6.45a30.25,30.25,0,0,0-.08-4.8,4.21,4.21,0,0,0-1.21-2.54c-.44-.41-.72-.69-.56-1,.24-.61,1.77-.45,2.7-.2a2.26,2.26,0,0,1,1.73,1.57c.37.81-.12,1.9-.24,2.54a43.07,43.07,0,0,0-.56,6.09v.12c.4-.08,1-.2,1.69-.4a48.05,48.05,0,0,0,5.53-2.06,35,35,0,0,0,4.72-2.46,1.39,1.39,0,0,0,.73-1.77c-.25-.41-.37-1-.08-1.21a1.82,1.82,0,0,1,2,.48,2.14,2.14,0,0,1,.61,2.91c-.73,1.37-2.46,2.09-5.05,3.1a45.64,45.64,0,0,1-7,2.14,20.49,20.49,0,0,1-3.18.44c-.08,1.86-.25,4.44-.2,6.06.08,2,1.29,2.7,2.7,3.34a11,11,0,0,0,4.72.69,18.18,18.18,0,0,0,4.64-.69,8,8,0,0,1,3.59-.72c1.37.08,2.14,1,2,1.49S192.38,132,191.13,132.24Zm4.4-20.9c-.93.44-1.7.2-1.9-.2s0-.85.61-1a1.43,1.43,0,0,0,1-1.37,1.39,1.39,0,0,0-1.85-1.41c-1.09.24-1.25,1.45-.77,2.5.2.48.37.93.08,1.13s-.84-.16-1.21-1a2.94,2.94,0,0,1,2.75-4.44c2.22.12,3.55,1.62,2.86,4A2.64,2.64,0,0,1,195.53,111.34Z"/><path class="cls-1" d="M213,131.51a14.69,14.69,0,0,1-3.59,2.54c-.61.25-1.09.41-1.25.17s.24-.49.64-.77a13.59,13.59,0,0,0,2.87-2.18,17.48,17.48,0,0,0,3.35-4.56,23.12,23.12,0,0,0,2-5.32,27.2,27.2,0,0,0,.85-5.13c.12-1.93,0-2.86-.93-3.63-.52-.4-.88-1-.6-1.37s.72-.4,1.65-.16a4.42,4.42,0,0,1,2.46,1.53c.77.85.73,1.45.49,1.82a1.88,1.88,0,0,0-.41,1.13,34.28,34.28,0,0,1-.52,4.35,19,19,0,0,1-2.66,6.74A23.75,23.75,0,0,1,213,131.51Zm11.62-5.69c.36-.4.48-.8.48-2s0-3.67,0-5.89.08-3.88.08-5.21-.16-2.1-1-2.74-1.05-1.25-.8-1.61.76-.37,1.33-.25a6.06,6.06,0,0,1,2.38,1,1.73,1.73,0,0,1,.81,2.22c-.33.61-.33,1.49-.45,5s-.16,6.26-.2,7.18.12,1.17.61,1.17a5.6,5.6,0,0,0,2.58-1.13,25,25,0,0,0,3.83-2.86c1.53-1.33,2.9-2.54,3.67-3.35s1.49-1.29,1.74-1,0,.77-.89,1.78c-1,1.17-3,3.31-4.92,5.16a45.63,45.63,0,0,1-5,4.16c-1.37,1-2,1.33-2.66,1.37a2.26,2.26,0,0,1-1.77-1.13C223.92,127,224.08,126.43,224.61,125.82Z"/><path class="cls-1" d="M252.6,122.72a46.84,46.84,0,0,1,1-5.45c.44-2.14.8-3.1,1.05-4.4a5.12,5.12,0,0,0-.33-3.14c-.36-.49-.64-1.13-.32-1.41s1.25.12,1.82.68a4.87,4.87,0,0,1,1.09,2.54,7.86,7.86,0,0,1-.61,3c-.28.77-.89,2.34-1.21,3.43a26.71,26.71,0,0,0-.81,3.43,22.22,22.22,0,0,0-.32,2.86c0,.69,0,1.17.16,1.17s.32-.4.49-.77a13.85,13.85,0,0,1,1.29-2.17c.28-.37.52-.57.76-.45s.17.49,0,.81a9.49,9.49,0,0,0-.88,4,13,13,0,0,0,.8,4.52c.33,1.05.29,2.46-.36,2.7s-1.49-.28-2.06-1.08a8.69,8.69,0,0,1-1.37-4.16A24.22,24.22,0,0,1,252.6,122.72Zm12.79,5.16a8.12,8.12,0,0,0,2.26,1.21,11.41,11.41,0,0,0,4.36.33c1.77-.13,3.38-.69,4.23-.69s1.82.16,2.1,1-.77,1.41-2.18,1.77a16.5,16.5,0,0,1-4.72.29,14.3,14.3,0,0,1-4.28-1.09,9.45,9.45,0,0,1-2.74-2.1c-.52-.61-.69-1.25-.36-1.41S264.94,127.56,265.39,127.88Zm0-15.69c-.57-.24-1.05-.57-.89-.93s.69-.28,1.57,0a10.68,10.68,0,0,0,3.27.24,13.21,13.21,0,0,0,3.51-.76c.93-.33,1.9-.29,2.18.24s-.16,1.37-1.33,1.77a11.26,11.26,0,0,1-4.44.41A13.41,13.41,0,0,1,265.39,112.19Z"/><path class="cls-1" d="M302.42,106.74l1.37-1.69c1.33,1.13,2,1.81,2,2.14a.43.43,0,0,1-.29.44l-.76.52v9.32h-2v-1.33h-8.19v21.42h-2.18v-32c1,.4,1.82.81,2.62,1.21Zm-7.91.89v3.19h8.19v-3.19Zm0,7.58h8.19V111.7h-8.19ZM319,106.74l1.33-1.69c1.41,1.17,2.14,1.93,2.14,2.22a.59.59,0,0,1-.32.52l-.69.48v26.51c0,1.7-1.17,2.54-3.43,2.54v0a1.57,1.57,0,0,0-1.05-1.45,18.67,18.67,0,0,0-2.66-.65,1,1,0,0,1-.81.49,1.66,1.66,0,0,1-1.13-.73,18.59,18.59,0,0,0-5.57-4.56c-1.25,2.87-4.19,4.8-8.83,5.85l-.49-.88q7-2.13,7.87-7.27h-8l-.4-.92h8.47a3,3,0,0,0,0-.69v-3h-7.1l-.44-.92h9.6a31.26,31.26,0,0,0,2.22-5c1.94.81,2.9,1.42,2.9,1.82s-.44.44-1.49.48a18.68,18.68,0,0,1-2.54,2.75h3.63l1.49-1.94a11,11,0,0,1,1.9,2.22l-.44.64H307.5v2.87a4.32,4.32,0,0,1,0,.81h5.93l1.53-1.86a16.61,16.61,0,0,1,1.94,2.1l-.4.68h-9.08c0,.17-.16.61-.28,1.38a17.47,17.47,0,0,1,6.17,3,3.07,3.07,0,0,1,1.29,1.94c1.45,0,2.58.12,3.43.12s1.25-.36,1.25-1.13V116.14h-8.59v1.09h-2.06V105.69c.93.37,1.73.73,2.46,1Zm-18,11c2.63,1.08,3.92,2.21,3.92,3.47,0,.84-.4,1.25-1.21,1.25-.53,0-.81-.33-1-.93a6.07,6.07,0,0,0-2.14-3.19Zm9.65-10.09v3.19h8.59v-3.19Zm8.59,7.58V111.7h-8.59v3.51Z"/><path class="cls-1" d="M363.29,115c-.32.37-1.13.24-1.66,0a23.16,23.16,0,0,0-3.51-.6c-1.37-.12-2.54-.2-4.76-.2-.72,0-1.49,0-2.21.08,0,.88-.09,2.18,0,3.18,0,.65.16,1.66.24,2.71a6.35,6.35,0,0,1,.52,1.89,10.39,10.39,0,0,1,.08,4c-.08.52-.32,1.81-.6,3.47a11,11,0,0,1-2.63,4.76,6.18,6.18,0,0,1-3.47,1.93c-.64.08-1.08,0-1.12-.2s.52-.44.92-.6a8.18,8.18,0,0,0,3-2.14,7.94,7.94,0,0,0,1.61-3.47c.08-.73.08-1.78.08-2.78a3.25,3.25,0,0,1-1.33,1.12c-1.41.45-2.66-.44-3.63-1.93a7.46,7.46,0,0,1-1.21-4.8c0-1.94.73-3,1.65-3.43a5,5,0,0,1,3.6-.08c.24.12.44.24.64.36,0-1.17.08-2.34.12-3.39v-.52c-1,.08-1.85.16-2.54.2a48.05,48.05,0,0,0-4.76.81,43.37,43.37,0,0,1-5.16.84,3.17,3.17,0,0,1-2.87-1c-.6-.64-.6-1.33-.24-1.65a1.16,1.16,0,0,1,1.33,0,11,11,0,0,0,6.05.4c.93-.12,2.38-.4,3.71-.56s3.07-.49,4.36-.69c-.08-.76-.16-1.49-.24-2a12.41,12.41,0,0,0-.93-2.91c-.36-.81-.44-1.45,0-1.69s1.17,0,2.06.56a2.37,2.37,0,0,1,.89,1.09.84.84,0,0,1,.24.16c.44.37,1.21,1,1.73,1.41a27.23,27.23,0,0,0,3.35,2,16.73,16.73,0,0,0,2.91,1.21c.72.2,2,.49,3.06.85S363.57,114.61,363.29,115Zm-13.92,7.71c0-.41-.12-.85-.2-1.37a2.86,2.86,0,0,0-3-2.22,1.92,1.92,0,0,0-1.77,2,8.34,8.34,0,0,0,.72,3.68,3,3,0,0,0,2.34,1.45c.61,0,1.13-.45,1.54-1.45A5.77,5.77,0,0,0,349.37,122.72Zm5.45-10.45c-.65-.44-1.66-1.29-2.1-1.66s-.93-.72-1.37-1.08c0,.8-.08,2.13-.12,3A17.24,17.24,0,0,1,354.82,112.27Z"/><path class="cls-1" d="M400.07,131a10.31,10.31,0,0,1-5.36,3.19,14,14,0,0,1-6.46,0c-2.46-.53-3.43-1.38-3.43-2.59s1.54-2.17,2.87-2.42a5.07,5.07,0,0,1,4.2.77,2,2,0,0,1,.52,2.78,9.93,9.93,0,0,0,5-1.85,6.28,6.28,0,0,0,2.3-5,5.93,5.93,0,0,0-3.59-5.13,10,10,0,0,0-7.18-.24,10.21,10.21,0,0,0-5.37,3.67,16.35,16.35,0,0,0-2.42,4.52,2.92,2.92,0,0,1-1.21,1.9,1.09,1.09,0,0,1-1.33-.21,2.25,2.25,0,0,1-.44-1.77A9.68,9.68,0,0,1,380,126c.77-1,1.82-2.47,3.19-4s3.55-4.15,4.44-5.16,3.63-4.4,4.07-5,.65-1,.45-1.17-.89.08-1.29.32-2.42,1.45-3.55,2.1a6.31,6.31,0,0,1-3,.88,3.09,3.09,0,0,1-2.1-.88,1.43,1.43,0,0,1-.44-1.29.64.64,0,0,1,.89-.33,5.94,5.94,0,0,0,1.37.24,4.63,4.63,0,0,0,2.26-.56,45.36,45.36,0,0,0,4.19-2,8.89,8.89,0,0,1,3-1.29,2.84,2.84,0,0,1,2.14,1c.52.57.56.93.48,1.29s-.28.57-.85.93a19.32,19.32,0,0,0-2.86,2.46c-1.09,1.13-2.42,2.78-3.39,3.83,0,0-1,1-2.86,3a8.39,8.39,0,0,1,2.21-1.13,11.61,11.61,0,0,1,5.29-.69,10.64,10.64,0,0,1,5.32,1.94,6.68,6.68,0,0,1,3,5A6.53,6.53,0,0,1,400.07,131Zm-11.61-.65c-1.3,0-2.1.81-1.54,1.62.33.44,1.33.84,3,.88C391.52,131.47,390.11,130.38,388.46,130.38Z"/><path class="cls-2" d="M2.57,177.1a11,11,0,0,0,4.1,2,23.77,23.77,0,0,0,7.26.88A22.55,22.55,0,0,0,19,178.76a3.33,3.33,0,0,1,2.45,0,2.47,2.47,0,0,1,1.35,1.31c.09.43-.22,1-1.92,1.48a24.34,24.34,0,0,1-7.43.7A27.41,27.41,0,0,1,6.06,181a10.79,10.79,0,0,1-4.28-2.19A5.12,5.12,0,0,1,.6,176.13c-.13-.78.09-1.26.35-1.31s.61.48.7.88A3.6,3.6,0,0,0,2.57,177.1Zm11-16.79a32.66,32.66,0,0,1-3.41-.39c-1.53-.26-3.1-.48-4-.74s-1.26-1-1.05-1.23a1.18,1.18,0,0,1,1.4,0,9.62,9.62,0,0,0,2.45.3,21.74,21.74,0,0,0,3.41-.35c1.31-.26,3.06-.83,4.15-1s1.4.18,1.58,1-.48,1-1.23,1.45a14.82,14.82,0,0,0-1.4,1c-.57.39-1.35,1-1.88,1.35s-.83.4-1,.27-.13-.49,0-.7A10.38,10.38,0,0,0,13.58,160.31Zm9.18-.61a16.49,16.49,0,0,0-2.54-2c-.35-.22-.52-.53-.35-.79s.53-.22.7-.22a7.8,7.8,0,0,1,2.41.57A5.28,5.28,0,0,1,25.6,159a1,1,0,0,1-.61,1.57A2.53,2.53,0,0,1,22.76,159.7Zm3.45-1.79a6.31,6.31,0,0,0-2.66-1.84.55.55,0,0,1-.4-.78c.09-.22.48-.22.7-.22a9.47,9.47,0,0,1,2.45.39A5.36,5.36,0,0,1,29,157.12a1.05,1.05,0,0,1-.57,1.62A2.51,2.51,0,0,1,26.21,157.91Z"/><path class="cls-2" d="M39.87,168.1a38.42,38.42,0,0,1-5.81,10.61l-.76-.64a50.45,50.45,0,0,0,6.29-15.26l.08-.44H34.06l-.36-.92h6.17v-7.93q3.48.12,3.48.84c0,.28-.48.6-1.48,1v6.09h2.65l1.64-2.4a15.68,15.68,0,0,1,2.2,2.64l-.32.68H41.87v3.93c3.85,2.2,5.77,4.24,5.77,6.17,0,.88-.44,1.28-1.2,1.28-.52,0-.92-.44-1.2-1.24a14,14,0,0,0-3.37-5.09v18.42h-2Zm21.87-11.41,1.4-1.77c1.44,1.21,2.16,2,2.16,2.33a.33.33,0,0,1-.2.32l-1,.72v27.43H62v-2.6H51.88v2.6H49.72V155.56a20.85,20.85,0,0,1,2.49,1.13ZM62,164.9v-7.33H51.88v7.33Zm0,.88H51.88v7.49H62Zm0,16.46v-8.09H51.88v8.09Z"/><path class="cls-2" d="M71.9,161.73l-.28-.92h10l1.8-2.16a17.14,17.14,0,0,1,2.29,2.44l-.32.64Zm1.76,4.49-.32-.88h6.89L82,163.25a23.13,23.13,0,0,1,2.12,2.37l-.4.6Zm0,4.52-.32-.92h6.93L82,167.74a21.9,21.9,0,0,1,2.12,2.32l-.48.68Zm1.88,12.78v2.32h-2V173.27c.88.36,1.68.8,2.41,1.16h4.6l1.28-1.56c1.36,1.12,2,1.84,2,2.2a.55.55,0,0,1-.24.4l-.8.56v9.25h-2v-1.76Zm-1.36-26.35-.24-.88h5.93l1.72-2.09a14.47,14.47,0,0,1,2.2,2.33l-.4.64Zm1.36,25.47h5.33v-7.29H75.54Zm24.88-11.94c1.72,1,2.52,1.69,2.52,2.13,0,.28-.44.44-1.44.44A34.67,34.67,0,0,1,96.17,178c1.6,2.21,4.37,4,8.33,5.25a6.83,6.83,0,0,0-1.64,2,16.12,16.12,0,0,1-6.25-4.2,12.44,12.44,0,0,1-2.48-5.37q-1.38,7.4-10,10.17l-.53-.76c3.61-1.56,6.05-3.64,7.37-6.25a13.62,13.62,0,0,0,1.37-6.28v-5.37c2.2.12,3.32.4,3.32.88,0,.28-.4.56-1.32.88v2.85a11,11,0,0,0,1.28,5.36A37.11,37.11,0,0,0,100.42,170.7Zm-.28-15.26c1.72,1.17,2.6,2,2.6,2.37s-.32.4-1,.4a2.83,2.83,0,0,1-.6,0,32.77,32.77,0,0,1-4.61,4.4,19.65,19.65,0,0,0,7.61,5.09,7.55,7.55,0,0,0-1.64,2.08c-4.45-2.6-7.17-5.64-8.17-9.05-.52,5.09-3.69,8.65-9.37,10.61l-.48-.76q7.92-3.84,7.93-11.65v-5.37c2.2.08,3.32.4,3.32.88,0,.28-.44.6-1.28.92v3.09A8.74,8.74,0,0,0,96,161.93,39,39,0,0,0,100.14,155.44ZM84.84,178c0-.32.28-.76,1-1.24,1.4-1,2.36-2.8,2.88-5.41l.88.24A12.55,12.55,0,0,1,88,177.75c-.64,1-1.32,1.44-2,1.44C85.2,179.19,84.84,178.75,84.84,178Zm.64-14.7c0-.36.24-.72.8-1.2a7.69,7.69,0,0,0,2.16-5.28l.8.12c.08.72.12,1.32.12,1.68a9.12,9.12,0,0,1-1,4.52c-.52.89-1.08,1.33-1.72,1.33A1,1,0,0,1,85.48,163.25Z"/><path class="cls-3" d="M144.78,153.52h11.38v1.06c-2.1.1-3.3.5-3.75,1.06a3.65,3.65,0,0,0-.38,1.91v23.59c0,1.26.32,2,1.08,2.31a7.88,7.88,0,0,0,2.86.36h2.92c4.33,0,6.74-2.62,7.12-7.86h1.4v9.12H144.78v-1c1.91-.1,3-.41,3.37-1a3.23,3.23,0,0,0,.45-1.91V157.55c0-1.31-.38-2.11-1.08-2.47a9.15,9.15,0,0,0-2.74-.5Z"/><path class="cls-3" d="M179.69,153.52h12.08v1.06c-1.91.1-3.18.4-3.69,1a2.69,2.69,0,0,0-.57,2V181c0,1.37.44,2.22,1.33,2.57a12.23,12.23,0,0,0,2.93.46v1H179.69v-1c2-.1,3.18-.46,3.69-1A2.93,2.93,0,0,0,184,181V157.55c0-1.36-.44-2.16-1.33-2.52a8.69,8.69,0,0,0-2.93-.45Z"/><path class="cls-3" d="M204.05,153.52h7L224,178.06V157.55a2.86,2.86,0,0,0-.76-2.36,5,5,0,0,0-2.67-.61v-1.06h8.9v1.06c-1.65.1-2.73.4-3.11,1a3.63,3.63,0,0,0-.32,2v28.37h-1.46L209.45,157.2V181c0,1.26.25,2.07.83,2.42a6.13,6.13,0,0,0,2.6.61v1h-8.83v-1c1.59-.2,2.6-.46,3-1a4.37,4.37,0,0,0,.44-2.07V157.5a2.79,2.79,0,0,0-.76-2.31,5.39,5.39,0,0,0-2.67-.61Z"/><path class="cls-3" d="M241.75,153.52H264.5v7.76h-1.33c-.19-2.52-.76-4.28-1.72-5.14s-2.6-1.36-4.95-1.36h-3.75c-1.85,0-3,.3-3.37.81a3.16,3.16,0,0,0-.45,1.86v10.28h4.26c2.42,0,4-.4,4.64-1.16a4.92,4.92,0,0,0,1-3.17h1.33v10.28h-1.33c-.13-2.17-.77-3.48-1.72-4a8.71,8.71,0,0,0-3.94-.66h-4.26v12.15c0,1.26.38,2,1.08,2.31a7.73,7.73,0,0,0,2.8.36h3.81c3.18,0,5.15-.81,6.17-2.42a12.06,12.06,0,0,0,1.14-4.59h1.27v8.27H241.75v-1c1.84-.1,2.92-.41,3.37-1a3.22,3.22,0,0,0,.44-1.91V157.45a2.54,2.54,0,0,0-1-2.37,7.21,7.21,0,0,0-2.8-.5Z"/><path class="cls-3" d="M293.63,160.27l1.95-2.14a15.89,15.89,0,0,1,2.55,2.42l-.41.63H282.36l-.37-.91Zm-1.87,4.48,1.91-2.06A24.16,24.16,0,0,1,296,165l-.46.59H284.35l-.36-.87Zm0,4.44,2-2.06a13,13,0,0,1,2.32,2.3l-.5.67H284.35l-.36-.91Zm.37,4.56,1.45-1.62c1.64,1.15,2.41,1.9,2.41,2.22,0,.16-.14.28-.36.43l-1,.48v9.8h-2.23v-2.3h-5.95v2.3h-2.27V172.64c.68.24,1.54.64,2.63,1.11Zm-.73-18,2-2.06c.77.67,1.36,1.27,1.91,1.82l.5.48-.46.63H285l-.32-.87Zm-4.91,18.88v7.21h5.95v-7.21ZM308.26,155c2.45,4.24,6.59,7.45,11.32,10.19a7.48,7.48,0,0,0-2.05,1.94,32,32,0,0,1-9.91-11.18A28.42,28.42,0,0,1,296.67,168l-.68-.67a29.13,29.13,0,0,0,10-14.63c2.59.47,3.91.95,3.91,1.42,0,.32-.55.52-1.73.68Zm-10.77,29.42a38.74,38.74,0,0,0,17.63-12.25c2.09,1.07,3.14,1.86,3.14,2.38,0,.31-.32.47-1.05.43a7.57,7.57,0,0,1-.91-.08A39.19,39.19,0,0,1,298,185.13Zm.36-12.65a25.55,25.55,0,0,0,9.82-9.2c2.09.87,3.09,1.51,3.09,1.94s-.59.48-1.82.48a26.72,26.72,0,0,1-10.59,7.49Zm.59,6a33.51,33.51,0,0,0,12.46-10.31c2,1,3,1.7,3,2.18,0,.28-.41.44-1.09.44-.32,0-.59,0-.82,0A31.85,31.85,0,0,1,299,178.51Z"/><path class="cls-3" d="M332.21,180.63V184H330V153.7c2.55.08,3.73.37,3.73.9,0,.32-.48.65-1.53,1v24.11h10.31l1.67-2c.79.7,1.4,1.27,1.75,1.64a26.37,26.37,0,0,0,2.19-11.18V155.9a2.24,2.24,0,0,0,.36.13,4.14,4.14,0,0,1,.52.2c.09,0,.57.24,1.63.69a31,31,0,0,0,8-3.75c1.84,1,2.72,1.79,2.72,2.24,0,.21-.26.33-.7.33a7.92,7.92,0,0,1-1.23-.2,49.89,49.89,0,0,1-9,2.44v7.72h9l1.89-2.49a21.47,21.47,0,0,1,2.41,2.69l-.44.69H358V185h-2.33V166.59h-5.22v1.6q0,11.56-7.9,17.38l-.7-.65a17.49,17.49,0,0,0,3.38-4.29Zm6.27-10.32a23.2,23.2,0,0,1-5.39,6.24l-.71-.65a28.25,28.25,0,0,0,6-9.39h-5.26l-.31-.94h5.7V153.41c2.37.09,3.56.33,3.56.86,0,.25-.49.61-1.5,1v10.28h2.64l1.44-1.91a19.61,19.61,0,0,1,2.07,2.16l-.4.69h-5.75v2.12c3.69,1.23,5.49,2.66,5.49,4.17a1.07,1.07,0,0,1-1.19,1.22,1,1,0,0,1-1-.69,8.92,8.92,0,0,0-3.3-3.68v8.7h-2.06ZM334,156.07c2,2.28,3,4.28,3,6.08,0,1.1-.44,1.67-1.32,1.67a.81.81,0,0,1-.92-1l.05-.65v-.41a11.47,11.47,0,0,0-1.63-5.22Zm7.68,7.55a47,47,0,0,0,2.11-7.68c2.19.66,3.24,1.19,3.24,1.64,0,.28-.48.49-1.44.57a35.17,35.17,0,0,1-3,5.83Z"/><path class="cls-4" d="M13.5,25.36a1.68,1.68,0,0,1-1.79-1.66c0-2.81.13-9.25.13-13.24,0-4.23-.15-4.57-1.18-4.57h-.43a1.5,1.5,0,0,1-1.54-1.6,1.76,1.76,0,0,1,1.57-1.84c.61,0,.85,0,1.49,0a3.22,3.22,0,0,1,3.5,3.23c0,.4,0,.94,0,1.6,0,2.42-.09,6.47-.09,10.8,0,1.87,0,3.77.06,5.65v.06A1.62,1.62,0,0,1,13.5,25.36Z"/><path class="cls-4" d="M52.77,18.53c0,5.14-4.21,7-8,7-4.26,0-7.82-2.51-7.82-7a6.51,6.51,0,0,1,3.74-6A5.21,5.21,0,0,1,38,8c0-4.17,3.51-5.86,6.84-5.86,4.53,0,6.83,2.81,6.83,5.86A5.28,5.28,0,0,1,49,12.57,6.2,6.2,0,0,1,52.77,18.53Zm-7.92-4.26c-3,0-4.66,2-4.66,4.23,0,2.54,2.3,4,4.66,4s4.65-1.45,4.65-4C49.5,17.08,48.9,14.27,44.85,14.27Zm0-9.19c-2.09,0-3.6,1.39-3.6,3,0,2.18,1.57,3.11,3.5,3.11,3.57,0,3.69-2.47,3.69-3.11C48.44,5.74,46.09,5.08,44.85,5.08Z"/><path class="cls-4" d="M68.52,22.28c-.61,0-1.18,0-1.73-.06a2.68,2.68,0,0,1-2.48-2.84c0-2.12,0-5.29,0-8.26,0-2.14,0-4.17,0-5.59.06-2.72,2.51-2.72,4.11-2.72.64,0,1.24,0,1.85,0A2.62,2.62,0,0,1,73,5.41c0,1.72.06,4,.06,6.35,0,2.81,0,5.68-.06,7.65C72.93,22.28,70.33,22.28,68.52,22.28Zm1.87-11.22c0-1.9,0-3.71-.09-5-.06-.85-.91-.88-1.66-.88-1.09,0-1.7.15-1.7.91,0,1.14,0,3,0,5Zm-3.48,2.39c0,2.09,0,4.11,0,5.41,0,.67.34.88,1.7.88s1.63-.21,1.66-.91c.06-1.39.09-3.35.09-5.38Zm7.83-1.66a1.19,1.19,0,0,1-1.33-1.18,1.3,1.3,0,0,1,1.33-1.3l5.26,0V6.8H76.1a1.2,1.2,0,0,1-1.36-1.18A1.29,1.29,0,0,1,76.1,4.35H80V1.6a1.44,1.44,0,0,1,2.87,0V4.35h4.3a1.23,1.23,0,1,1,0,2.45H82.81V9.34l6,0A1.2,1.2,0,0,1,90,10.55a1.22,1.22,0,0,1-1.27,1.24ZM85.93,16.9l0,2,.09,4.23v.09c0,1.67-1.3,3.81-4.84,3.81-2.48,0-3.2-.54-3.2-1.63a1.34,1.34,0,0,1,1.3-1.42,1.13,1.13,0,0,1,.3,0,8.69,8.69,0,0,0,1.72.21c1.06,0,1.85-.36,1.85-1.63l0-5.65-8.41,0a1.19,1.19,0,0,1-1.33-1.18,1.3,1.3,0,0,1,1.33-1.3l8.37,0V13.33a1.4,1.4,0,0,1,2.79,0l0,1.15,3,0a1.19,1.19,0,0,1,1.27,1.24A1.21,1.21,0,0,1,89,16.93Zm-7.17,5.26A7.92,7.92,0,0,0,76.28,20a1.07,1.07,0,0,1-.66-.94A1.37,1.37,0,0,1,77,17.83c.82,0,4.17,1.73,4.17,3.33a1.57,1.57,0,0,1-1.42,1.57A1.3,1.3,0,0,1,78.76,22.16Z"/><path class="cls-4" d="M104.26,12.94a20.87,20.87,0,0,1-3.56.27c-1.75-.05-1.84-2.41.22-2.16a12.69,12.69,0,0,0,3.52-.16c0-1.2,0-2.26,0-3a1.16,1.16,0,0,1,2.31,0c-.07.82-.11,1.72-.14,2.63.48-.09,1-.23,1.55-.34,1.49-.34,2.1,1.77.13,2.09-.61.09-1.18.2-1.7.29,0,.84,0,1.68,0,2.52.55-.16,1.12-.32,1.73-.52,1.68-.55,2.54,1.54.52,2.1-.8.23-1.52.43-2.18.59,0,.77.09,1.48.16,2.14s.14,1.42.18,2.24a10.29,10.29,0,0,1,2.81,1.61c1.52,1.25,0,3.31-1.38,2A10,10,0,0,0,106.8,24a4.62,4.62,0,0,1-6.35,2.06c-2.16-1.06-2.29-3.6.18-4.64A7.65,7.65,0,0,1,105,21c0-.48-.07-1-.11-1.47s-.1-1.18-.14-1.89a12.31,12.31,0,0,1-4.13.25,1.13,1.13,0,1,1,.48-2.17,9.87,9.87,0,0,0,3.54-.21c0-.86-.09-1.74-.12-2.63Zm-2.93,10.11a.68.68,0,0,0-.07,1.29,2.5,2.5,0,0,0,3.49-1.27A5,5,0,0,0,101.33,23.05Z"/><path class="cls-4" d="M126.25,14.61a7.92,7.92,0,0,1,.72-1.18c.37-.47.25-.45-.18-.31a29.7,29.7,0,0,0-2.85,1.13c-.73.27-1.37.5-2,.68-2,.54-2.6-2.06-.79-2.45.48-.11,1.79-.36,2.52-.54,1.11-.27,3.1-.73,5.42-1.39a30.32,30.32,0,0,1,6.16-1.33A1.34,1.34,0,0,1,136.75,11c-.14.39-.64.84-2.23.75a9.38,9.38,0,0,0-3.35.64A6.59,6.59,0,0,0,128.24,15c-2,3.33-.47,8.09,4.61,7.91,2.38-.09,2.54,2.59.13,2.56C126.13,25.45,123.78,19.17,126.25,14.61Zm7,1.5c-1.2-.52-.29-1.93.82-1.52A7.44,7.44,0,0,1,136.43,16c.93,1-.48,2.45-1.27,1.52A8.63,8.63,0,0,0,133.23,16.11Zm2.29-2c-1.22-.48-.34-1.93.77-1.57a7.76,7.76,0,0,1,2.41,1.36c1,1-.39,2.45-1.21,1.54A7.75,7.75,0,0,0,135.52,14.14Z"/><path class="cls-4" d="M145.61,24.57c-1.81-4.47,0-11.18.38-13.88a1.1,1.1,0,1,1,2.2.14c-.36,1.83-1.72,7.16-1.17,9.27.06.3.15.23.24,0s.3-.56.39-.72a.91.91,0,0,1,1.59.88,11.61,11.61,0,0,0-1.34,3.18c-.14.61.14,1.31-.43,1.81S146.06,25.68,145.61,24.57ZM151.69,23a1.12,1.12,0,0,1,1.61-1.57c1.22,1.11,3.94.75,5.71.39s2,2,.45,2.4C157,24.79,153.32,24.73,151.69,23Zm1.29-9a1.07,1.07,0,1,1-.32-2.11,13.58,13.58,0,0,1,6-.13,1.11,1.11,0,1,1-.38,2.17A11.43,11.43,0,0,0,153,13.91Z"/><path class="cls-4" d="M167.53,7.86a1.21,1.21,0,0,1-1.3-1.24,1.22,1.22,0,0,1,1.3-1.24h8.68a1.21,1.21,0,0,1,1.3,1.24,1.23,1.23,0,0,1-1.3,1.24Zm6.23,18.53c-.64,0-1.39.06-2.15.06s-1.45,0-2.05-.06A2.31,2.31,0,0,1,167.32,24c0-.79,0-1.57,0-2.33s0-1.48,0-2.14a2.25,2.25,0,0,1,2.21-2.3c.57,0,1.24-.06,1.93-.06.85,0,1.69,0,2.39.06a2.4,2.4,0,0,1,2.42,2.15c0,.69,0,1.51,0,2.32s0,1.61,0,2.27A2.45,2.45,0,0,1,173.76,26.39Zm-5-22.67a1.16,1.16,0,0,1-1.21-1.21,1.15,1.15,0,0,1,1.21-1.21H175a1.18,1.18,0,0,1,1.24,1.21A1.19,1.19,0,0,1,175,3.72Zm.06,8.07a1.21,1.21,0,0,1,0-2.42H175a1.21,1.21,0,1,1,0,2.42Zm0,3.9a1.21,1.21,0,0,1,0-2.42H175a1.21,1.21,0,1,1,0,2.42Zm5,6.1c0-.57,0-1.14,0-1.57-.06-.72-.58-.81-2-.81-.42,0-.84,0-1.18,0-.84.06-.84.57-.84,2.32,0,.58,0,1.15,0,1.61s.51.72,1.9.72c1.69,0,2.06-.24,2.09-.75S173.79,22.34,173.79,21.79ZM185.06,4a.38.38,0,0,0-.33-.21.42.42,0,0,0-.36.24,35.41,35.41,0,0,1-5.41,6.8,1.48,1.48,0,0,1-1,.42,1.44,1.44,0,0,1-1.42-1.36,1.2,1.2,0,0,1,.54-1,24,24,0,0,0,5.5-6.74,2.27,2.27,0,0,1,2-1.21,2.85,2.85,0,0,1,2.21,1.21A27,27,0,0,0,193,8.25a1.32,1.32,0,0,1,.61,1.12A1.68,1.68,0,0,1,192,11C190.69,11,188.12,8.1,185.06,4ZM178,27.05a1.39,1.39,0,0,1-1.36-1.45,1.35,1.35,0,0,1,1.18-1.36A17.19,17.19,0,0,0,190.08,16a1.45,1.45,0,0,1,1.24-.72,1.49,1.49,0,0,1,1.51,1.39,1.52,1.52,0,0,1-.3.87A21.73,21.73,0,0,1,178,27.05Zm.79-5.44a1.2,1.2,0,0,1-1.21-1.27,1.29,1.29,0,0,1,.84-1.21,16.32,16.32,0,0,0,8.65-6.8,1.36,1.36,0,0,1,1.21-.66,1.3,1.3,0,0,1,1.39,1.24,1.6,1.6,0,0,1-.33.93C185.43,19.47,179.59,21.61,178.75,21.61Zm.15-5.17a1.16,1.16,0,0,1-1.15-1.21,1.27,1.27,0,0,1,.72-1.14,14.41,14.41,0,0,0,5.87-5.48,1.33,1.33,0,0,1,1.18-.75,1.39,1.39,0,0,1,1.36,1.33,1.44,1.44,0,0,1-.24.79C183.73,14.36,179.77,16.44,178.9,16.44Z"/><path class="cls-4" d="M208.43,20.13a1.15,1.15,0,0,1-1.3,1.09,1.14,1.14,0,0,1-1.24-1.06V20.1l.21-5.38c-1.93,4-2.66,4.5-3.32,4.5a1.46,1.46,0,0,1-.85-.3v1.73a1.07,1.07,0,0,0,1.15,1.11h1c1.54,0,3.08-.06,4.75-.12h.06a1.11,1.11,0,0,1,1.14,1.15,1.23,1.23,0,0,1-1.2,1.27c-1.79.09-4.54.12-6.35.12-2.09,0-3.21-1.12-3.24-2.93V19.56c0-4.48.06-14.3.09-16.78a1.29,1.29,0,0,1,1.33-1.3A1.27,1.27,0,0,1,202,2.78v0c0,1.94-.09,9.55-.09,14.33a23.41,23.41,0,0,0,3.57-5.56l-2.21.06h0a1.07,1.07,0,0,1-1.12-1.12,1.14,1.14,0,0,1,1.15-1.18l2.72,0,0-1.9a1.15,1.15,0,0,1-1.15.9.94.94,0,0,1-.93-.72,10.08,10.08,0,0,0-1.27-2.42,1,1,0,0,1-.18-.54,1.14,1.14,0,0,1,1.21-1c1.17,0,2.14,2.57,2.23,2.87a1.22,1.22,0,0,1,.06.21l-.06-4.53v0a1.27,1.27,0,0,1,2.54,0v0s0,2.11-.06,4.65c0,0,.06-.12.09-.15a17.93,17.93,0,0,0,1.42-2.63,1,1,0,0,1,.91-.63,1.35,1.35,0,0,1,1.33,1.24c0,.6-1.27,2.32-1.93,3.2a1,1,0,0,1-.79.39,1.18,1.18,0,0,1-1-.6l0,1.63,2.57,0A1.07,1.07,0,0,1,212,10.46a1.08,1.08,0,0,1-1.06,1.18h0l-2.6-.06v1.3a1.23,1.23,0,0,1,.73-.24c.6,0,3,1.81,3,2.87a1.36,1.36,0,0,1-1.3,1.33,1.05,1.05,0,0,1-.88-.52,10.11,10.11,0,0,0-1.57-1.87c0,3.78.12,5.65.12,5.65Zm10.37-8.22h-3.3c-.12,4.87-.69,10.16-3.38,13.84a1.78,1.78,0,0,1-1.45.79,1.5,1.5,0,0,1-1.57-1.33,1.22,1.22,0,0,1,.33-.82c2.87-3.38,3.41-8.19,3.41-12.81,0-1.51-.06-3-.12-4.42V6.8c0-2,.79-2.9,2.81-3.51a54.78,54.78,0,0,0,5.29-1.93,1.9,1.9,0,0,1,.76-.18,1.55,1.55,0,0,1,1.54,1.51,1.43,1.43,0,0,1-1,1.33c-1,.45-4.44,1.36-5.25,1.6a1.58,1.58,0,0,0-1.37,1.7v2l8.35-.06a1.32,1.32,0,1,1,0,2.63h-2.33l0,13.84a1.41,1.41,0,0,1-2.81,0Z"/><path class="cls-4" d="M243.23,16.72a3.21,3.21,0,1,1,3.2-3.21A3.19,3.19,0,0,1,243.23,16.72Z"/><path class="cls-4" d="M265.78,12.88A13.16,13.16,0,0,0,262,10.82a1,1,0,0,1-.76-1,1.5,1.5,0,0,1,1.45-1.45,12.32,12.32,0,0,1,4.66,1.91,1.54,1.54,0,0,1,.63,1.27,1.6,1.6,0,0,1-1.39,1.66A1.25,1.25,0,0,1,265.78,12.88Zm-2.27,13.51a1.56,1.56,0,0,1-1.57-1.45,1.48,1.48,0,0,1,.3-.88,29.67,29.67,0,0,0,3.84-7.31,1.26,1.26,0,0,1,1.24-.88,1.4,1.4,0,0,1,1.45,1.39A28,28,0,0,1,265,25.51,1.75,1.75,0,0,1,263.51,26.39Zm3.72-20.1A13.86,13.86,0,0,0,264,3.69a1.12,1.12,0,0,1-.57-.94,1.52,1.52,0,0,1,1.51-1.36c.51,0,4.87,2,4.87,3.78a1.67,1.67,0,0,1-1.54,1.63A1.29,1.29,0,0,1,267.23,6.29Zm20.07,9.46-7.95-.06a14.13,14.13,0,0,0,8.37,7.92,1.43,1.43,0,0,1,1,1.39,1.69,1.69,0,0,1-1.69,1.69c-1.45,0-6.59-2.9-9.52-8.7-2.76,7.07-9.28,9.06-9.89,9.06a1.53,1.53,0,0,1-1.48-1.54,1.3,1.3,0,0,1,1-1.27,12.1,12.1,0,0,0,8.25-8.55l-5.56.06h0a1.26,1.26,0,0,1-1.3-1.33,1.28,1.28,0,0,1,1.33-1.33h6A27.43,27.43,0,0,0,276,9.76c0-.75,0-1.48,0-2.17-1.6,0-3.17,0-4.26,0h0a1.24,1.24,0,0,1-1.3-1.3A1.28,1.28,0,0,1,271.79,5c1.12,0,2.63,0,4.23,0,0-1.06,0-2.09,0-3v0A1.36,1.36,0,0,1,277.41.45a1.43,1.43,0,0,1,1.52,1.42V5c1,0,2,0,2.84,0,2,.06,3.17,1.15,3.2,2.6,0,.93.06,2.05.06,3.17,0,.79,0,1.57,0,2.33h2.3a1.25,1.25,0,0,1,1.27,1.33,1.25,1.25,0,0,1-1.24,1.33Zm-5.11-2.66c0-.88,0-1.78,0-2.66,0-2.21,0-2.78-1.3-2.81-.54,0-1.24,0-2,0v2a28,28,0,0,1-.22,3.48Z"/><path class="cls-4" d="M297.37,12.76a12.74,12.74,0,0,0-3.72-2,1,1,0,0,1-.76-1,1.52,1.52,0,0,1,1.45-1.48A12.19,12.19,0,0,1,299,10.16a1.54,1.54,0,0,1,.63,1.27,1.6,1.6,0,0,1-1.39,1.66A1.25,1.25,0,0,1,297.37,12.76Zm-1.88,13.6a1.57,1.57,0,0,1-1.57-1.48,1.39,1.39,0,0,1,.42-1,23.54,23.54,0,0,0,4.51-7.22,1.28,1.28,0,0,1,1.21-.79,1.38,1.38,0,0,1,1.42,1.36c0,.79-1.85,5.29-4.6,8.43A1.84,1.84,0,0,1,295.49,26.36ZM299.06,6a13.33,13.33,0,0,0-3.24-2.54,1.14,1.14,0,0,1-.57-.94,1.51,1.51,0,0,1,1.48-1.42c.55,0,4.87,2,4.87,3.78a1.68,1.68,0,0,1-1.54,1.63A1.29,1.29,0,0,1,299.06,6Zm14.75,15.47H307c-1.36,4.51-4.6,5.59-5.17,5.59a1.53,1.53,0,0,1-1.54-1.51,1.2,1.2,0,0,1,.82-1.12C304.56,23,305,19.56,305,16.29c0-.66,0-1.3,0-1.93a1.55,1.55,0,0,1,.09-.55,8.51,8.51,0,0,1-2.2.43A1.3,1.3,0,0,1,301.45,13a1.28,1.28,0,0,1,1.15-1.27,18.51,18.51,0,0,0,6.19-1.94,15.44,15.44,0,0,1-2.08-1.84c-1.09.94-1.67,1.42-2.33,1.42a1.3,1.3,0,0,1-1.33-1.21A1.35,1.35,0,0,1,304,7a5.23,5.23,0,0,0,1.93-1.39l-2.54,0h0a1.14,1.14,0,0,1-1.15-1.21,1.16,1.16,0,0,1,1.18-1.21l5.81.06V1.51c0-.81.75-1.21,1.51-1.21a1.36,1.36,0,0,1,1.51,1.21V3.23l6.29-.06a1.15,1.15,0,0,1,1.17,1.21,1.14,1.14,0,0,1-1.14,1.21h-2a15,15,0,0,1-3.2,4.05A20.58,20.58,0,0,0,319,11.09a1.23,1.23,0,0,1,1.15,1.27,1.48,1.48,0,0,1-1.57,1.45,9.25,9.25,0,0,1-2.18-.36,1.12,1.12,0,0,1,.18.64l0,11.66A1.28,1.28,0,0,1,315.23,27a1.3,1.3,0,0,1-1.42-1.27Zm0-7.37a1.18,1.18,0,0,1,.88-1.18,23.62,23.62,0,0,1-3.57-1.64,18.78,18.78,0,0,1-4,1.91,1.38,1.38,0,0,1,.67,1.21v.39h6Zm0,2.87h-6.08a20.69,20.69,0,0,1-.21,2.3h6.29ZM308.25,5.53a.6.6,0,0,1,.06.27.94.94,0,0,1-.06.28,11.81,11.81,0,0,0,2.63,2.29,9.38,9.38,0,0,0,2.36-2.84Z"/><path class="cls-4" d="M338.84,4.56A10.77,10.77,0,0,0,340.11,4c1.66-1,3.3,1.51,1.06,2.63a17.18,17.18,0,0,1-3.33,1,29.87,29.87,0,0,1-1.45,3,4.41,4.41,0,0,1,5.08,2.63c1.24-.63,2.51-1.27,3.69-1.78.72-.31,1.54-.67,2.36-1.12a1.61,1.61,0,1,1,1.69,2.72c-1,.48-1.66.63-3.27,1.24-1.26.48-2.63,1.09-3.83,1.66a24.41,24.41,0,0,1,.06,3.33,1.78,1.78,0,0,1-1.61,1.87c-.75,0-1.45-.54-1.36-1.72,0-.64.06-1.33.06-2-.27.15-.54.3-.78.46-3.75,2.41-3.3,4.23-1.6,5.07s4.56.22,6-.24c2.66-.81,3.51,2.45.73,3.18-1.79.45-5.9.9-8.26-.43-4.08-2.29-3.35-6.38,2.12-10,.42-.27.91-.61,1.48-.94-.81-2.54-3.14-2.24-5.11,0l-.12.12a6.79,6.79,0,0,1-.69.79c-1.66,1.48-3.87-.24-2.06-1.88a14.54,14.54,0,0,0,2.45-2.84,24.44,24.44,0,0,0,1.42-2.69,6.16,6.16,0,0,1-3.75-.33c-2.17-1.09-.69-3.93,1.42-2.51.58.39,1.79.24,2.84.06.13,0,.31,0,.46-.06a12.72,12.72,0,0,0,.33-2.54c.12-1.81,3-1.63,3-.15a5.74,5.74,0,0,1-.24,1.75Z"/><path class="cls-4" d="M358.67,27.24a1.47,1.47,0,0,1-1.6-1.46,1.53,1.53,0,0,1,1.33-1.51c5-.9,6.77-3.78,7.37-6.68a1.57,1.57,0,0,1,3.09.24,2,2,0,0,1-.06.4C367.07,25.75,359.58,27.24,358.67,27.24ZM371.82,3.6c2.27,0,4.54,0,6.8.06A3.48,3.48,0,0,1,382,6.83c0,.45,0,1.06,0,1.6s0,.82,0,1.12A1.57,1.57,0,0,1,380.38,11a1.36,1.36,0,0,1-1.49-1.33V9.58c0-3,0-3.35-1.87-3.38-2.39,0-5-.06-7.65-.06-2.14,0-4.26,0-6.1.06-1.64,0-1.88.51-2,1.63V9.67a1.43,1.43,0,0,1-1.54,1.39,1.4,1.4,0,0,1-1.48-1.42c0-.39,0-.87,0-1.39s0-1.09,0-1.57a3.22,3.22,0,0,1,3.51-3c2.29,0,4.59-.06,6.89-.06V1.36a1.59,1.59,0,0,1,3.14,0ZM374,15.9c0,1.84-.06,4.44-.06,5.8,0,1.55,0,2.15,2.66,2.15,1.54,0,3.47,0,3.47-3a1.35,1.35,0,0,1,1.42-1.42,1.52,1.52,0,0,1,1.61,1.63c0,5.32-4,5.47-6.62,5.47S371,26.51,371,23c0-.87,0-4.68,0-7.07H370L359.76,16a1.27,1.27,0,1,1,0-2.54h21.13a1.27,1.27,0,0,1,0,2.54Zm-9.89-4.75a1.27,1.27,0,1,1,0-2.54H376.2a1.22,1.22,0,0,1,1.27,1.27,1.22,1.22,0,0,1-1.27,1.27Z"/><path class="cls-4" d="M406,17.29c0,8.22-4.84,9.49-7.68,9.49-1.24,0-3.35-.06-3.35-1.75a1.46,1.46,0,0,1,1.48-1.51,2.32,2.32,0,0,1,.45.06,6.75,6.75,0,0,0,1.51.18c2.75,0,4.48-1.94,4.48-6.65,0-3-.94-6.2-3.66-7.26a1,1,0,0,1-.73-1,1.69,1.69,0,0,1,1.67-1.58,4.87,4.87,0,0,1,2.48,1.15c1.26-.84,4.44-3.2,4.44-3.71,0-.16-.15-.28-.46-.28-.81,0-1.87,0-3.05,0-3.2,0-7.25.06-9.85.15h-.06a1.31,1.31,0,0,1-1.39-1.33,1.35,1.35,0,0,1,1.42-1.36c1.87-.06,4.65-.09,7.4-.09s5.47,0,7.26.06,2.81,1,2.81,2.18a2.74,2.74,0,0,1-.85,1.9,36,36,0,0,1-5.92,4.6A13.63,13.63,0,0,1,406,17.29Z"/><path class="cls-4" d="M426.83,19.38a3.14,3.14,0,0,1,1.82-4.27,4.55,4.55,0,0,1,2-.2c0-.5-.05-1.18-.07-1.84-1.91.18-3.79.45-5,.64-1.63.25-2.69.54-3.37.65a1.15,1.15,0,1,1-.19-2.29c.91-.15,2.38-.31,3.34-.47,1.13-.18,3.17-.43,5.17-.61v-.41c0-1.41-.12-1.5-.12-2.22a1.19,1.19,0,0,1,2.38-.07,20.63,20.63,0,0,1-.09,2.17c0,.12,0,.23,0,.34.66,0,1.25-.06,1.75-.06,1.11,0,1.9,0,3.44,0,1.91,0,1.82,2.44,0,2.31-1.61-.14-2.15-.14-3.56-.16-.52,0-1.06,0-1.65,0,0,.72,0,1.42,0,2.08,0,.32.05.8.07,1.29,2,3.18-.38,8-2.79,9.91-1.52,1.2-3.49-.41-1.52-1.81A8.1,8.1,0,0,0,431,21.08,2.9,2.9,0,0,1,426.83,19.38ZM430.64,17a1.5,1.5,0,0,0-1.45-.09,1.4,1.4,0,0,0-.66,1.73,1.35,1.35,0,0,0,2.61-.39,1,1,0,0,0-.13-.86A3.41,3.41,0,0,0,430.64,17Z"/><path class="cls-4" d="M457.06,22.59c1.65-1.47,1.58-3.62.29-4.48s-3.63-1-5.92.38a5,5,0,0,0-1.9,1.7c-.82,1.2-3.09-.13-1.68-1.52a82,82,0,0,0,6.85-7.32c.25-.32,0-.23-.16-.14a18,18,0,0,1-3.81,1.16c-1.79.38-2.13-1.86-.59-2a35.55,35.55,0,0,0,5-1.11c1.81-.52,3.31,1.09,2.18,2.35-.73.82-1.64,1.71-2.54,2.54s-1.82,1.66-2.63,2.45a7,7,0,0,1,6.37-.06c3.26,1.95,2.2,5.94-.18,7.66s-5.79,1.7-7.51.57c-2.4-1.57-1.34-4.38,1.34-4.47a3.22,3.22,0,0,1,3.58,3.06A3,3,0,0,0,457.06,22.59Zm-4.83-.68c-1,.1-1.05,1-.32,1.41a4.13,4.13,0,0,0,1.9.34C453.84,22.62,453.22,21.82,452.23,21.91Z"/><path class="cls-4" d="M473,10.78c-1.18-1.45,1-2.67,1.95-1.38a23.26,23.26,0,0,1,2.65,5.28,43.5,43.5,0,0,1,4-2.49c1.54-.86,2.72,1.31,1,2.2a33.81,33.81,0,0,0-6.44,4c-2.25,1.9-2.31,3.61-.55,4.47,1.59.79,4.83.2,6.19-.3,1.91-.72,2.59,1.88.57,2.45-1.79.5-5.58.95-7.82-.18-3.27-1.66-3.13-5.33.54-8.25.23-.19.43-.37.66-.53A18.53,18.53,0,0,0,473,10.78Z"/><path class="cls-4" d="M494.58,26.18a8.74,8.74,0,0,0-2.79-2.38,1,1,0,0,1-.61-.91,1,1,0,0,1,1.06-1c.79,0,4.42,2,4.42,3.54a1.26,1.26,0,0,1-1.22,1.25A1,1,0,0,1,494.58,26.18Z"/><path class="cls-5" d="M5.38,62.07a1.44,1.44,0,1,1,0-2.87H22.76c0-2.93-.27-3.2-1.69-3.26s-4.38-.1-7.45-.1c-3.53,0-7.19,0-9,.1H4.59a1.31,1.31,0,0,1-1.42-1.35A1.49,1.49,0,0,1,4.72,53.1c1.58,0,4.81,0,8.14,0L12.8,42a1.49,1.49,0,0,1,1.65-1.45A1.55,1.55,0,0,1,16.16,42L16.09,53.1c2.54,0,4.82,0,6,.07,2.53.06,3.56,1.22,3.69,3.36.07,1.25.1,2.9.1,4.58,0,1.49,0,3-.1,4.19-.13,2-1.58,3.3-3.89,3.37-2,.06-6,.06-9.7.06-3,0-5.93,0-7.51,0a1.42,1.42,0,0,1-1.52-1.45,1.39,1.39,0,0,1,1.45-1.42h0c1.82,0,5.21,0,8.51,0s6.53,0,8.05,0c.82,0,1.38-.1,1.45-1.35,0-.66.06-1.52.1-2.41ZM7.49,50.2a14.28,14.28,0,0,0-3.43-3.66,1.32,1.32,0,0,1-.63-1.09,1.73,1.73,0,0,1,1.72-1.61c1.51,0,4.78,3.69,5.17,4.38a1.85,1.85,0,0,1,.27,1,1.88,1.88,0,0,1-1.78,1.85A1.51,1.51,0,0,1,7.49,50.2Zm12.3.89a1.56,1.56,0,0,1-1.58-1.48,1.53,1.53,0,0,1,.56-1.16,29.3,29.3,0,0,0,3.75-4.65,1.39,1.39,0,0,1,1.22-.72,2,2,0,0,1,1.88,1.81,1.75,1.75,0,0,1-.36,1C21.4,50.86,20.45,51.09,19.79,51.09Z"/><path class="cls-5" d="M54.24,68.5c-1.45.07-3.23.07-5,.07s-3.42,0-4.78-.07c-2.87-.1-4.28-1.55-4.38-4-.07-2.14-.1-5.74-.1-9.33,0-3.2,0-6.43.1-8.64S41.75,43,44.22,43c1.25,0,3.4-.07,5.51-.07,1.74,0,3.46,0,4.58.07a4,4,0,0,1,4,3.85c.07,2,.1,5.31.1,8.61,0,3.63,0,7.25-.1,9A4.08,4.08,0,0,1,54.24,68.5Zm1-15.17c0-2.07,0-4-.07-5.31-.06-2.27-.56-2.3-5.83-2.3-5.58,0-6,0-6.14,2.3,0,1.36-.06,3.24-.06,5.31Zm-12.1,2.9c0,2.77,0,5.41.06,7,.07,2.15.43,2.28,6,2.28,1.28,0,2.6,0,3.46,0,1.85-.07,2.41-.93,2.47-2.34.07-1.65.07-4.26.07-6.9Z"/><path class="cls-5" d="M82,59.43c-2.58,0-5.12-.06-7.42-.16A3.44,3.44,0,0,1,71,55.94c0-1-.07-2-.07-3.07s0-1.94.07-2.84a3.44,3.44,0,0,1,3.56-3.39c2.28-.07,4.85-.1,7.49-.1V41.86a1.5,1.5,0,0,1,1.64-1.45,1.54,1.54,0,0,1,1.69,1.45v4.68c2.67,0,5.31,0,7.68.1a3.64,3.64,0,0,1,3.4,3.13c.06.79.09,1.78.09,2.8s0,2.35-.09,3.33a3.61,3.61,0,0,1-3.57,3.37c-2.4.1-4.94.16-7.51.16v8.81c0,.89-.83,1.35-1.69,1.35A1.47,1.47,0,0,1,82,68.24Zm0-9.92c-2.31,0-4.49.06-6.27.1A1.53,1.53,0,0,0,74.12,51c0,.63-.06,1.42-.06,2.18,0,2.07,0,3.1,1.71,3.16s4,.17,6.24.17Zm3.33,7c2.21,0,4.38-.06,6.33-.13,1.58-.06,1.65-.79,1.65-3.36s-.07-3.33-1.69-3.36c-1.81-.07-4-.1-6.29-.1Z"/><path class="cls-5" d="M108.81,66.79c-2.64-6.5,0-16.26.56-20.18.37-2.44,3.56-1.72,3.2.19-.53,2.67-2.5,10.42-1.71,13.49.1.43.23.33.36,0s.43-.82.56-1a1.32,1.32,0,0,1,2.31,1.28,16.8,16.8,0,0,0-2,4.62c-.2.89.2,1.91-.62,2.64S109.47,68.4,108.81,66.79Zm8.84-2.35A1.63,1.63,0,0,1,120,62.17c1.78,1.62,5.74,1.09,8.31.56s2.84,2.93.66,3.5C125.43,67.12,120,67,117.65,64.44Zm1.88-13.15a1.55,1.55,0,1,1-.46-3.07,20,20,0,0,1,8.67-.2c2.31.56,1.68,3.66-.56,3.17A16.66,16.66,0,0,0,119.53,51.29Z"/><path class="cls-5" d="M163.52,60.69l-6.17-.07c0,2.11,0,3.89,0,4.32.06,1.22,1.12,1.35,2.73,1.35,2.11,0,3.14-.53,3.14-2.47a1.41,1.41,0,0,1,1.51-1.49,1.68,1.68,0,0,1,1.78,1.82c0,3.89-2.21,5.08-6.69,5.08-1.78,0-5.54,0-5.54-3.83,0-.43,0-2.47,0-4.81l-3.56,0c-.59,4-2.7,7.75-9.26,9.1a3.05,3.05,0,0,1-.56.07,1.61,1.61,0,0,1-1.72-1.65,1.39,1.39,0,0,1,1.19-1.45c5-.69,6.66-3,7.19-6l-5.25.1h0a1.38,1.38,0,0,1-1.52-1.42,1.52,1.52,0,0,1,1.55-1.59l5.48,0V53.86h-.4A1.45,1.45,0,0,1,146,53.1c-2.58,1.91-5.21,3.17-5.94,3.17a1.58,1.58,0,0,1-1.52-1.62,1.52,1.52,0,0,1,1-1.42c6.86-2.9,10.55-8.41,10.55-8.77s-.19-.33-.52-.33c-1.22,0-2.77.07-4.65.07a1.4,1.4,0,0,1,0-2.8h4.65c2.11,0,3.79,0,4.22,1.84a1.22,1.22,0,0,1,.89.46c.43.5.86,1,1.32,1.49a18.69,18.69,0,0,0,2.44-2.87,1.24,1.24,0,0,1,1.08-.63,1.79,1.79,0,0,1,1.72,1.65c0,1.12-2.54,3.27-3.23,3.83.53.49,1,.92,1.58,1.38a18.42,18.42,0,0,0,3-3,1.27,1.27,0,0,1,1.06-.56,1.83,1.83,0,0,1,1.71,1.68c0,.72-1.08,1.88-3.46,3.63a25,25,0,0,0,4.39,2.34A1.52,1.52,0,0,1,167.37,54a1.8,1.8,0,0,1-1.84,1.72c-1.36,0-4-1.72-6-3.37v.07a1.43,1.43,0,0,1-1.55,1.45h-.53c0,1,0,2.37,0,3.86l6.14,0a1.49,1.49,0,0,1,1.58,1.52,1.44,1.44,0,0,1-1.55,1.49ZM143.4,49a13.35,13.35,0,0,0-2.87-2.28,1.14,1.14,0,0,1-.66-1,1.61,1.61,0,0,1,1.65-1.45c1.32,0,4.06,2.34,4.16,2.44a1.57,1.57,0,0,1,.43,1,1.8,1.8,0,0,1-1.72,1.72A1.28,1.28,0,0,1,143.4,49Zm14.44,2A50.34,50.34,0,0,1,153,46a35.46,35.46,0,0,1-4.45,5Zm-3.53,6.76c0-1.49,0-2.87,0-3.86h-3.46V57c0,.26,0,.49,0,.76Z"/><path class="cls-5" d="M174.63,69.32a1.86,1.86,0,0,1-1.82-1.74,1.42,1.42,0,0,1,.83-1.26,16.63,16.63,0,0,0,4.58-3.43c0-1.48.07-2.76.07-4,0-2.24,0-2.31-1.55-2.31h-1.39c-.69,0-1.85,0-1.85-1.41a1.42,1.42,0,0,1,1.39-1.49c1.19,0,2.27,0,3.36,0,2.11.06,3.1,1,3.1,3.09,0,1.92-.06,4.19-.06,6.3,2.24,2.84,5.7,3.33,9.92,3.33,3.3,0,6.86-.36,9.37-.56h.16a1.54,1.54,0,0,1,1.58,1.59,1.61,1.61,0,0,1-1.64,1.61c-2.08.2-5.08.4-8.08.4-8.08,0-10.23-1.39-12.83-4.06C179.57,65.63,176.24,69.32,174.63,69.32Zm4.28-21.66A10.44,10.44,0,0,0,175.55,45a1.21,1.21,0,0,1-.73-1.06,1.7,1.7,0,0,1,1.69-1.55c.89,0,5.24,2.21,5.24,4.06A1.83,1.83,0,0,1,180,48.25,1.38,1.38,0,0,1,178.91,47.66Zm20.91,8.05-6-.1a15.17,15.17,0,0,0,6.56,5.93,1.41,1.41,0,0,1,.82,1.32,1.64,1.64,0,0,1-1.58,1.68c-1.25,0-5.44-2.9-7.75-7.38-1.91,4.78-6.33,7.55-7.42,7.55a1.54,1.54,0,0,1-1.55-1.49,1.22,1.22,0,0,1,.73-1.12c3.26-1.78,5-3.89,5.83-6.49l-5.21.1h0a1.3,1.3,0,0,1-1.38-1.32A1.31,1.31,0,0,1,184.25,53H190a20.46,20.46,0,0,0,.2-3h-4.84a1.32,1.32,0,1,1,0-2.63H192a31.27,31.27,0,0,0,2.6-5.25,1.41,1.41,0,0,1,1.39-1,1.72,1.72,0,0,1,1.81,1.46c0,.82-2.4,4.25-2.77,4.78h3.5a1.32,1.32,0,1,1,0,2.63h-5.28a28.81,28.81,0,0,1-.26,3h6.86a1.25,1.25,0,0,1,1.28,1.35,1.24,1.24,0,0,1-1.25,1.32Zm-11-8.77a1.27,1.27,0,0,1-1.16-.73,10.88,10.88,0,0,0-2-2.54,1.17,1.17,0,0,1-.4-.82,1.49,1.49,0,0,1,1.55-1.32c1.42,0,3.6,2.93,3.6,3.89A1.59,1.59,0,0,1,188.84,46.94Z"/><path class="cls-5" d="M222.21,68.6a2.29,2.29,0,0,1-2.28-2.18,2.37,2.37,0,0,1,2.28-2.27,2.12,2.12,0,0,1,2.27,2.27A2.19,2.19,0,0,1,222.21,68.6Zm-1.42-8.38v-.69c0-3.2-.33-10.88-.53-16.06v-.1a1.79,1.79,0,0,1,1.91-1.81,1.87,1.87,0,0,1,2,1.91c0,3.89-.53,13-.53,16.16,0,.79,0,2.18-1.45,2.18a1.42,1.42,0,0,1-1.38-1.55Z"/><path class="cls-5" d="M256.46,54.62V68.34a1.28,1.28,0,0,1-1.35,1.35,1.29,1.29,0,0,1-1.35-1.35V65.4c-2.54.83-8.61,2.7-9.89,2.7a1.37,1.37,0,0,1-.2-2.73c1-.13,2-.36,3.1-.6V54.62h-3a1.24,1.24,0,0,1-1.35-1.25A1.32,1.32,0,0,1,243.77,52H270a1.32,1.32,0,0,1,0,2.64Zm1.16-4c-2.21,0-4.39,0-6.47-.06-3.39,0-3.56-1.79-3.56-4.88s.27-4.62,3.47-4.75c1.31-.07,3.33-.1,5.47-.1,2.47,0,5.08,0,6.79.1,3.07.1,3.13,2.5,3.13,4.48,0,2.9,0,5-3.36,5.15C261.24,50.63,259.43,50.66,257.62,50.66Zm-3.86,4h-4.29v1.65h4.29Zm0,3.63h-4.29v1.61h4.29Zm0,3.62h-4.29v2.24c1.59-.39,3.14-.79,4.29-1.12Zm-3.3-15c0,.2,0,.36,0,.53.06.85.46,1.05,1.48,1.05,1.58,0,3.63,0,5.67,0,1.52,0,3.07,0,4.49,0,.79,0,1.31-.29,1.35-1.09,0-.16,0-.33,0-.49Zm13.06-2c0-.16,0-.32,0-.46-.07-.79-.33-1.08-1.35-1.12-1.22,0-3-.06-4.79-.06-2.17,0-4.32,0-5.4.06s-1.45.56-1.45,1.22v.36Zm-5.31,13.85a1.13,1.13,0,0,1-1.12-1.22,1.19,1.19,0,0,1,1.12-1.31c1.35,0,2.64,0,3.93,0s2.53,0,3.89.07a2,2,0,0,1,2.21,2.11c0,2.37-2.81,5.93-3,6.13a15.19,15.19,0,0,0,4.55,1.91,1.39,1.39,0,0,1,1.09,1.32,1.63,1.63,0,0,1-1.65,1.62c-1.39,0-4.29-1.55-6-2.8-1.85,1.58-4.06,2.63-4.81,2.63A1.47,1.47,0,0,1,257,67.64a1.27,1.27,0,0,1,.93-1.22,12.14,12.14,0,0,0,3.29-1.78c-1.64-1.65-3-3.72-3-4.38a1.55,1.55,0,0,1,1.59-1.32,1,1,0,0,1,.89.53,12.36,12.36,0,0,0,2.44,3.29A10.36,10.36,0,0,0,265,59a.45.45,0,0,0-.49-.43h-1.06c-1.55,0-3.16,0-5.21.06Z"/><path class="cls-5" d="M285.48,55.71c-.07.82-.17,1.68-.3,2.54,1.68,1.08,4.75,3.39,4.75,4.88a1.69,1.69,0,0,1-1.58,1.68,1.43,1.43,0,0,1-1.22-.79,16.48,16.48,0,0,0-2.61-3c-1.48,4.71-5.21,7.81-6.56,7.81a1.6,1.6,0,0,1-1.58-1.55,1.54,1.54,0,0,1,.79-1.29c4.09-2.6,5.18-6.59,5.41-10.28h-4.06a1.41,1.41,0,1,1,0-2.81h4.12V48l-.95,0c-1.45,3.76-2.21,4.09-3.2,4.09A1.42,1.42,0,0,1,277,50.79a1.85,1.85,0,0,1,.4-1,19,19,0,0,0,3.1-8.34,1.17,1.17,0,0,1,1.28-1c.83,0,1.75.53,1.75,1.38a29.48,29.48,0,0,1-.82,3.37H288a1.43,1.43,0,0,1,1.55,1.42A1.37,1.37,0,0,1,288.05,48H288l-2.43-.07v5h3.13a1.41,1.41,0,1,1,0,2.81Zm3.69,12.59a1.36,1.36,0,1,1,0-2.7h8.51a29.05,29.05,0,0,0,2.18-5.31,1.32,1.32,0,0,1,1.38-1.06A1.68,1.68,0,0,1,303,60.72c0,.79-1.81,3.92-2.38,4.88h4.55A1.37,1.37,0,0,1,306.62,67a1.34,1.34,0,0,1-1.46,1.32ZM290.72,45a1.44,1.44,0,1,1,0-2.87h13.59a1.44,1.44,0,1,1,0,2.87Zm6.76,2.57c1,0,2,0,3.07.07a3.18,3.18,0,0,1,3.3,2.74c.06.82.09,2.5.09,3.72,0,3.3-.65,4.26-6.52,4.26-3.33,0-6.2,0-6.34-3.14,0-.42,0-1,0-1.68,0-1.12,0-2.37.1-3a3,3,0,0,1,3.2-2.87C295.4,47.59,296.46,47.59,297.48,47.59Zm-3.56,16.49a10.36,10.36,0,0,0-1.71-2.73,1.09,1.09,0,0,1-.37-.8,1.51,1.51,0,0,1,1.55-1.28c1.26,0,3.3,3,3.3,4a1.65,1.65,0,0,1-1.58,1.62A1.29,1.29,0,0,1,293.92,64.08Zm7-12.76c-.09-1-.89-1.09-3.33-1.09-.82,0-1.61,0-2.4.07-1.26,0-1.32.43-1.32,3.49,0,1.75.1,2,3.53,2,2.53,0,3.59-.07,3.59-1.25C301,53.79,301,51.91,300.94,51.32Z"/><path class="cls-5" d="M313.44,68.53A1.34,1.34,0,0,1,312,67.15a1.43,1.43,0,0,1,1.42-1.49l7.95,0a11.32,11.32,0,0,0-2-2.81.92.92,0,0,1-.27-.65c0-.73.93-1.36,1.78-1.36,1.52,0,3.53,3.43,3.53,4.13a1.46,1.46,0,0,1-.23.72l2,0,1.22,0a16.85,16.85,0,0,0,1.85-3.86,1.45,1.45,0,0,1,1.42-1,1.91,1.91,0,0,1,1.94,1.65,8.86,8.86,0,0,1-1.78,3.2l8,0a1.44,1.44,0,0,1,0,2.87Zm.36-24.1a1.27,1.27,0,0,1-1.32-1.35,1.37,1.37,0,0,1,1.36-1.42c1.35-.07,2.8-.07,4.22-.07s2.83,0,4.12.07c2.18.07,3.13,1.22,3.2,3.23.06,2.24.06,5.9.1,7.55v.17c0,2.31-1.75,3.43-4.26,3.43-1.18,0-3.1-.1-3.1-1.55A1.44,1.44,0,0,1,319.57,53a1.54,1.54,0,0,1,.37,0,4.76,4.76,0,0,0,1.12.13c.89,0,1.35-.36,1.35-1.22,0,0,.07-1.71.07-3.49,0-3.76-.17-4-1.22-4.06s-2.18-.07-3.5-.07-2.67,0-3.92.07Zm.27,9.76a1.42,1.42,0,0,1-1.39-1.48,1.27,1.27,0,0,1,.93-1.29A27.48,27.48,0,0,0,319.8,49a1.34,1.34,0,0,1,.66-.2,1.26,1.26,0,0,1,1.19,1.32,1.43,1.43,0,0,1-.79,1.25C318.25,52.77,314.89,54.19,314.07,54.19ZM317.43,49a14.78,14.78,0,0,0-3-1.45,1.15,1.15,0,0,1-.89-1.09,1.33,1.33,0,0,1,1.38-1.29A13.09,13.09,0,0,1,319,46.61a1.27,1.27,0,0,1,.6,1.08,1.52,1.52,0,0,1-1.39,1.52A1.54,1.54,0,0,1,317.43,49Zm-1.88,11.31a1.31,1.31,0,0,1-1.42-1.32,1.39,1.39,0,0,1,1.42-1.45h8.87V56.17a1.72,1.72,0,0,1,3.43,0v1.32h8.9a1.39,1.39,0,0,1,0,2.77Zm12.17-6.1a1.44,1.44,0,0,1-1.42-1.49,1.29,1.29,0,0,1,.92-1.25A29.66,29.66,0,0,0,333.29,49a1.28,1.28,0,0,1,.63-.2,1.33,1.33,0,0,1,1.22,1.39,1.42,1.42,0,0,1-.76,1.22A27.75,27.75,0,0,1,327.72,54.16Zm.1-9.73a1.27,1.27,0,0,1-1.32-1.35,1.36,1.36,0,0,1,1.35-1.42c1.35-.07,2.7-.07,4.06-.07s2.67,0,3.95.07a3,3,0,0,1,3.27,3.23c.06,2.24.06,6,.1,7.65v.13c0,1.88-1.29,3.37-4.22,3.37-2.48,0-3.1-.53-3.1-1.55A1.4,1.4,0,0,1,333.32,53a1.5,1.5,0,0,1,.37,0,4.74,4.74,0,0,0,1.08.13c.9,0,1.32-.36,1.32-1.12,0,0,.07-1.75.07-3.56,0-1.12,0-2.24-.1-3-.13-1.19-.2-1.19-4.45-1.19-1.22,0-2.51,0-3.76.07ZM331.05,49a14.78,14.78,0,0,0-3-1.45,1.13,1.13,0,0,1-.86-1.09,1.33,1.33,0,0,1,1.35-1.29,13.07,13.07,0,0,1,4.15,1.49,1.27,1.27,0,0,1,.6,1.08A1.4,1.4,0,0,1,331.05,49Z"/><path class="cls-5" d="M365.83,68.5c-1.45.07-3.23.07-5,.07s-3.43,0-4.79-.07c-2.86-.1-4.28-1.55-4.38-4-.07-2.14-.1-5.74-.1-9.33,0-3.2,0-6.43.1-8.64s1.65-3.5,4.12-3.59c1.25,0,3.4-.07,5.51-.07,1.74,0,3.46,0,4.58.07a4,4,0,0,1,4,3.85c.07,2,.1,5.31.1,8.61,0,3.63,0,7.25-.1,9A4.08,4.08,0,0,1,365.83,68.5Zm1-15.17c0-2.07,0-4-.06-5.31-.07-2.27-.57-2.3-5.84-2.3-5.57,0-6,0-6.13,2.3,0,1.36-.07,3.24-.07,5.31Zm-12.1,2.9c0,2.77,0,5.41.07,7,.06,2.15.42,2.28,6,2.28,1.29,0,2.61,0,3.46,0,1.85-.07,2.41-.93,2.48-2.34.06-1.65.06-4.26.06-6.9Z"/><path class="cls-5" d="M393.47,63.62c.26,4.72-4,4.65-6.67,3.33-3.92-1.91-2.83-4.25-1.08-6.17a21.3,21.3,0,0,1,4.65-3.49c0-1.39-.07-2.8-.07-4.12a12.63,12.63,0,0,1-4,.13c-2.44-.3-2-3.59.7-3a8.33,8.33,0,0,0,3.33-.3c0-1.55-.07-2.61-.14-3.86a1.67,1.67,0,1,1,3.33,0c-.06.72-.09,1.78-.16,2.77a10.91,10.91,0,0,0,1.32-.76c1.78-1.19,3.79,1.42,1.48,2.8a18.76,18.76,0,0,1-3.1,1.49c0,1,0,2.24,0,3.49a20,20,0,0,1,2.77-1,12.64,12.64,0,0,1,7.32,0c5.44,1.88,4.55,6.33,2.87,8.77a8,8,0,0,1-10.58,2,1.57,1.57,0,1,1,1.42-2.8c2.57,1.25,4.68,1.28,6.26-.83.79-1,1.71-3.39-1.15-4.45a9.27,9.27,0,0,0-5.35-.06,16.5,16.5,0,0,0-3.46,1.25C393.27,60.49,393.4,62.2,393.47,63.62Zm-5.54-1c-.7.75-.7,1.61.06,2,1.42.7,2.38.6,2.41-.69,0-.89,0-2.11,0-3.46A15.68,15.68,0,0,0,387.93,62.57Zm18.69-10.42a6.18,6.18,0,0,0-4.35-1.36,1.46,1.46,0,1,1-.16-2.9c2.37-.2,5.67.63,6.85,1.88a1.6,1.6,0,0,1,0,2.34A1.67,1.67,0,0,1,406.62,52.15Z"/><path class="cls-5" d="M433.76,54.09c1.45,0,2.9,0,4.25.07,2.34.1,3.66,1.41,3.73,3s.13,3.43.13,5.18c0,1.12,0,2.21-.1,3.33-.1,1.68-1.52,3.1-3.76,3.17-2,.06-3.86.1-5.7.1s-3.66,0-5.54-.1c-2.44-.1-3.63-1.35-3.7-3.14-.06-1.18-.09-2.44-.09-3.72,0-1.62.06-3.27.13-4.75s1-2.93,3.66-3c1.25,0,2.6-.07,4-.07V51.65a1.23,1.23,0,0,1,.85-1.25c-1.51,0-3.09,0-4.71,0s-3.2,0-4.81,0V51c0,6.07-.57,12.26-3.86,16.49a2,2,0,0,1-1.59.85A1.64,1.64,0,0,1,415,66.72a1.82,1.82,0,0,1,.43-1.12c2.87-3.76,3.43-8.31,3.43-13.09,0-2.48-.16-5-.2-7.52v-.07c0-1.94,1.22-3.33,3.66-3.39,2.08-.07,5-.07,7.88-.07s5.87,0,8,.07c2.87.06,3.49,1.45,3.62,2.34a23.2,23.2,0,0,1,.1,2.5c0,2-.13,3.83-4.09,3.93l-5,.1a1.28,1.28,0,0,1,1,1.25Zm-11.71-6.46c1.85,0,3.76,0,5.61,0,3.76,0,7.32,0,9.79-.13.79,0,1.12-.4,1.16-.79V45.09c0-.63-.47-.83-1.22-.86-1.82,0-4.09-.06-6.4-.06-2.8,0-5.61,0-7.59.06-.92,0-1.41.4-1.41,1.29Zm8.71,8.83c-1.12,0-2.21,0-3.23.07-1.52,0-1.62.69-1.62,3.56h4.85Zm0,6h-4.85c0,.82,0,1.65,0,2.54s.63,1.28,1.65,1.32,2.08,0,3.2,0Zm3,0,0,3.89c1.21,0,2.4,0,3.52,0,.93,0,1.55-.4,1.59-1.35s0-1.69,0-2.51Zm5.08-2.41c0-.76,0-1.48,0-2.24-.06-1.35-.49-1.39-5-1.39v3.63Z"/><path class="cls-5" d="M456.54,65.24c-3-5.71-1.45-12-1.09-16,.17-1.88.37-2.93.43-4.35a1.6,1.6,0,0,1,3.2.06,43.22,43.22,0,0,1-.53,4.42c-.39,2.77-1.35,5.61-.85,8.87.09.56.29.79.56.1.16-.39.52-1.05.69-1.45a1.31,1.31,0,1,1,2.44,1,17.32,17.32,0,0,0-1.65,5.77c0,.36.2,1.32-.26,1.91A1.75,1.75,0,0,1,456.54,65.24Zm16.69-16.69c.72-.16,1.38-.3,1.94-.46,2.11-.59,3.4,2.27.6,2.87-.86.2-1.72.39-2.61.56,0,.95.07,1.94.13,3.26.3,6.6-1.42,11.38-6.56,15-1.91,1.35-4-1.22-2-2.54,4.23-2.74,5.54-6.76,5.41-12.4,0-1-.06-2-.1-2.84a23.86,23.86,0,0,1-5.54.23c-2.2-.19-2-3.39.53-3a20,20,0,0,0,5-.16v-.86a21.48,21.48,0,0,0-.36-3.89c-.27-2.44,3-2.31,3.39-.49a16.23,16.23,0,0,1,.17,3.92Z"/><path class="cls-5" d="M499.18,68.6a2.29,2.29,0,0,1-2.28-2.18,2.37,2.37,0,0,1,2.28-2.27,2.12,2.12,0,0,1,2.27,2.27A2.19,2.19,0,0,1,499.18,68.6Zm-1.42-8.38v-.69c0-3.2-.33-10.88-.53-16.06v-.1a1.79,1.79,0,0,1,1.91-1.81,1.87,1.87,0,0,1,2,1.91c0,3.89-.53,13-.53,16.16,0,.79,0,2.18-1.45,2.18a1.42,1.42,0,0,1-1.38-1.55Z"/><path class="cls-6" d="M389,171.54c-.18.38-.62,1.85-1,2.81s-.92,3-1.37,4.43a7.29,7.29,0,0,0,0,3.56c.2.76.13,1.72-.38,1.82s-1,0-1.51-1a11.43,11.43,0,0,1-.82-4,24,24,0,0,1,.17-4.32,37.71,37.71,0,0,1,.79-4.12,20.54,20.54,0,0,0,.55-3.91,3.86,3.86,0,0,0-.62-2.46c-.31-.48-.45-.83-.21-1.14s.86-.1,1.2.28a5.5,5.5,0,0,1,1.2,1.85,4.52,4.52,0,0,1,0,2.95c-.28.92-.82,2.5-1.3,4.25a19.88,19.88,0,0,0-.45,4.49c0,.58.41.48.48.17.24-.68.79-2.29,1.23-3.22s.72-1.3,1.41-2.74c.17-.38.45-.69.69-.55S389.09,171.13,389,171.54Zm16.76,11.8c-.17.37-.89.41-1.33-.07a27.92,27.92,0,0,0-2.37-1.92,7,7,0,0,0-1.13-.76c0,.31,0,.55,0,.76a3.34,3.34,0,0,1-2.67,2.81,7.74,7.74,0,0,1-4.77-.48,2.67,2.67,0,0,1-1.78-2.61,2.75,2.75,0,0,1,2-2.33,8.79,8.79,0,0,1,4-.41,10.92,10.92,0,0,1,1.72.27c0-.82,0-1.68,0-2.4,0-1.13-.07-2.46-.07-4,0-.68,0-1.51,0-2.23a9.83,9.83,0,0,1-2.88-.24,4.9,4.9,0,0,1-2.37-1.23c-.62-.58-.65-1.27-.48-1.34s.65.17,1.13.48a4.92,4.92,0,0,0,1.61.65,10.45,10.45,0,0,0,3,.28,2.81,2.81,0,0,0,0-.82,28.84,28.84,0,0,0-.2-3.47c-.14-1-.25-1.37-.66-1.78s-.58-.82-.37-1.17.55-.34,1.3,0a2.6,2.6,0,0,1,1.71,1.82,6.2,6.2,0,0,1,.07,2.81,6.84,6.84,0,0,0,1.72.68c.65.18,1.47.21,1.81.52s.24,1.13-.58,1.71a7.12,7.12,0,0,1-3.36,1c0,.86-.07,1.72,0,2.2,0,1.09.1,3,.2,4.76,0,.72,0,1.51,0,2.23.41.14.85.28,1.27.45a7.09,7.09,0,0,1,3,1.85A1.92,1.92,0,0,1,405.72,183.34Zm-6.41-3.5c-.14-.07-.34-.14-.51-.21a9.14,9.14,0,0,0-3.78-.31c-1,.14-2.12.69-2.22,1.72s.48,1.58,1.92,1.88a4.13,4.13,0,0,0,3.18-.41,3.1,3.1,0,0,0,1.41-2.64Zm1.78-13.34a4.31,4.31,0,0,0-.07.65c-.06.35-.06.72-.13,1.2.51-.13,1-.27,1.3-.37s.34-.31.1-.45S401.57,166.91,401.09,166.5Z"/><path class="cls-6" d="M418.44,178.5a8.37,8.37,0,0,0,3.19,1.54,14.08,14.08,0,0,0,9.71-.2,2.45,2.45,0,0,1,1.92,0,2,2,0,0,1,1.06,1c.07.38-.17.79-1.51,1.2a20.22,20.22,0,0,1-5.83.58,22.32,22.32,0,0,1-5.83-1,8.53,8.53,0,0,1-3.32-1.72,4.09,4.09,0,0,1-.93-2.09c-.1-.65,0-1.06.24-1.06s.48.38.59.68A2.75,2.75,0,0,0,418.44,178.5Zm8.65-13.16c-.76,0-1.51-.14-2.71-.31a25.22,25.22,0,0,1-3.09-.59c-.68-.24-1-.75-.82-1s.68-.2,1.09,0a6.92,6.92,0,0,0,1.93.27,18.36,18.36,0,0,0,2.67-.3c1-.18,2.4-.69,3.22-.76s1.13.17,1.27.76-.38.82-1,1.13a6.75,6.75,0,0,0-1.1.79c-.41.3-1.09.75-1.47,1s-.65.31-.79.21-.14-.38,0-.55A8.75,8.75,0,0,0,427.09,165.34Z"/><path class="cls-6" d="M449.37,167.7a7.08,7.08,0,0,0,1.82-.14,30.69,30.69,0,0,0,.38-3.42,3.29,3.29,0,0,0-.58-2c-.35-.41-.48-.93-.21-1.24s1.44-.07,2,.48a3.34,3.34,0,0,1,.92,2.16,4,4,0,0,1-.27,1.27,2.75,2.75,0,0,0,.45.28A9.77,9.77,0,0,0,456,166c.55.11,1.2.21,1.47.65s-.27.93-.75,1.14a27,27,0,0,1-3.81,1,1.32,1.32,0,0,1-.51.06,3.55,3.55,0,0,0-.11.76c-.13,1-.37,2.54-.37,3.36a3.18,3.18,0,0,0,.58,2c.24.31.51.37.75.17s1-.55,1.82-1a14.27,14.27,0,0,1,3.91-1.3,8.72,8.72,0,0,1,4.29.14,4,4,0,0,1,2.81,2.57,5.24,5.24,0,0,1-.14,3.74,8.61,8.61,0,0,1-2.37,2.74,11,11,0,0,1-3,1.65,21.78,21.78,0,0,1-3.94.75c-1,.1-1.75.17-2.16.17s-.52-.2-.52-.27.07-.31.45-.31a6.26,6.26,0,0,0,1.27-.1,24.83,24.83,0,0,0,3.46-1,11.65,11.65,0,0,0,4.46-2.95,4.64,4.64,0,0,0,.72-4.18,3.08,3.08,0,0,0-2.16-2.06,7.23,7.23,0,0,0-3.29.07,13.64,13.64,0,0,0-3.4,1.37,5.8,5.8,0,0,0-1.81,1.72,10.51,10.51,0,0,0-.79,1.85c-.31.58-.52.79-.93.92a.92.92,0,0,1-1.06-.27,6.27,6.27,0,0,1-.65-3c0-1.33.17-2.71.27-4.11.1-1,.28-2.16.48-3.29a11,11,0,0,1-1.61-.11,5.51,5.51,0,0,1-2.19-.61c-.38-.17-.72-.59-.45-.83s.55-.06.93.11A6.85,6.85,0,0,0,449.37,167.7Zm3.74-2.09a2.07,2.07,0,0,0-.17.45c-.07.27-.17.68-.27,1.16a8,8,0,0,0,1.2-.44c.3-.18.27-.45.17-.48a3.13,3.13,0,0,1-.79-.52A.7.7,0,0,0,453.11,165.61Z"/><path class="cls-6" d="M494.53,177.27A3.52,3.52,0,0,0,493,173.7a6,6,0,0,0-4.62-.51,13.27,13.27,0,0,0-4.05,2.5,35.41,35.41,0,0,0-2.78,2.54,2.2,2.2,0,0,1-1.68.48c-.72,0-.82-.31-1.27-1.07a3.13,3.13,0,0,1-.58-2.26c.17-.75.38-2,.65-3.5s.38-3.15.52-4.35.48-1.78,1.23-2.16a12.32,12.32,0,0,1,2.85-.75c.65-.07,1.57-.18,1.71-.52s-.24-1-.89-1.51a7.29,7.29,0,0,0-2-1c-.35-.13-.79-.3-.72-.58s.37-.31.72-.34a4.13,4.13,0,0,1,1.3,0,5.63,5.63,0,0,1,2.6,1.17,4.75,4.75,0,0,1,1.62,2.19,1.52,1.52,0,0,1-.17,1.61,1,1,0,0,1-1,.24,11,11,0,0,0-2-.51,6.51,6.51,0,0,0-2.64.21c-.62.17-1.06.48-1.13,1s-.24,1.44-.41,2.85-.35,3.25-.45,4-.27,1.71.21,1.95,1,.17,1.78-.34,2.13-1.41,3.57-2.2a9.66,9.66,0,0,1,3.84-1.26c2.77-.18,4.56.3,6.07,1.88a4.83,4.83,0,0,1,1,5.11,9.37,9.37,0,0,1-4.32,4.32,17.92,17.92,0,0,1-5.86,1.61,22.67,22.67,0,0,1-3.57.1c-.45,0-1-.13-1-.44s.48-.31,1-.28a16.83,16.83,0,0,0,3.46-.3,16.49,16.49,0,0,0,5.28-2C493.37,180.28,494.4,178.91,494.53,177.27Z"/></g></g></svg>