<svg xmlns="http://www.w3.org/2000/svg" viewBox="0 0 320 100"><defs><style>.cls-1{fill:#fff;}.cls-2{fill:#f35b5b;}.cls-3{fill:none;stroke:#f35b5b;stroke-linecap:round;stroke-miterlimit:10;stroke-width:1.41px;}</style></defs><g id="Layer_2" data-name="Layer 2"><g id="レイヤー_2" data-name="レイヤー 2"><rect class="cls-1" x="1.64" y="1.64" width="316.72" height="96.72"/><path class="cls-2" d="M316.72,3.28V96.72H3.28V3.28H316.72M320,0H0V100H320V0Z"/><line class="cls-3" x1="10" y1="45.02" x2="310" y2="45.02"/><path class="cls-2" d="M17.33,25.63a14.69,14.69,0,0,1,4.34-.72c2.88,0,5,1.58,5,3.94s-1.5,3.92-4.22,4.58a12.69,12.69,0,0,1-2.44.26l-.56-1.58A11.39,11.39,0,0,0,21.73,32c1.74-.32,3.32-1.26,3.32-3.1,0-1.68-1.52-2.58-3.4-2.58a12.76,12.76,0,0,0-4.3.78c0,1.68.08,3.42.08,4.28,0,1.84-.7,2.42-1.76,2.42-1.56,0-4.14-1.5-4.14-3.28,0-1.62,2.06-3.34,4.34-4.32V25.05c0-.81,0-1.73,0-2.61-.54,0-1,.06-1.46.06a24.78,24.78,0,0,1-2.52-.1l0-1.52a18,18,0,0,0,2.52.16c.46,0,1,0,1.52-.06,0-1,0-1.9,0-2.26a7.77,7.77,0,0,0-.12-1.4h1.74c0,.36-.08.9-.1,1.36s0,1.26-.06,2.14a26.05,26.05,0,0,0,4.06-.8l0,1.58a40.23,40.23,0,0,1-4.12.68c0,.94,0,1.89,0,2.69ZM16,31.15c0-.72,0-2.06-.06-3.5-1.6.76-2.78,1.88-2.78,2.78s1.36,1.68,2.14,1.68C15.71,32.11,16,31.77,16,31.15Zm7.8-11.65a33.35,33.35,0,0,1,4.52,2.9l-.8,1.28a25.61,25.61,0,0,0-4.44-3Z"/><path class="cls-2" d="M38.59,20.82H32.31v2.8H31V19.74h7.62V18.52H32.11V17.36H46.63v1.16H40v1.22h7.76v3.88H46.41v-2.8H40v4.57H38.59Zm7.3,12.61c1.06,0,1.26-.36,1.36-2.36a4.09,4.09,0,0,0,1.3.5c-.22,2.42-.68,3-2.56,3h-4.6c-2.24,0-2.86-.38-2.86-2V32H34.09v1H32.67V26.07H46.15V32H40v.64c0,.68.24.82,1.5.82ZM33,23.92h4.6v.94H33Zm4.6-1.1H33.35V21.9h4.22Zm-3.48,4.33v1.38h4.44V27.15Zm4.44,3.74V29.53H34.09v1.36Zm6.18-3.74H40v1.38h4.76Zm0,3.74V29.53H40v1.36Zm.66-9v.92H41.09V21.9Zm-4.28,2h4.76v.94H41.09Z"/><path class="cls-2" d="M50.21,19.86h7.4v1.22h-7.4Zm6.8,14h-4.6v.9h-1.3V28.07H57ZM57,23.8h-5.8V22.62H57Zm-5.8,1.55H57v1.18h-5.8Zm5.76-7H51.27V17.2h5.64Zm-4.5,10.89v3.34h3.3V29.29Zm11.5-5.57v3.35h3.76v7.58H66.19v-.88H60.31v1h-1.4v-7.7h3.5V23.72H57.75V22.3h4.66V19.12c-1.28.16-2.56.28-3.76.38a4.78,4.78,0,0,0-.42-1.24,52.11,52.11,0,0,0,8.56-1.42L67.87,18a32.15,32.15,0,0,1-4,.86v3.4h4.68v1.42Zm2.28,4.71H60.31v4h5.88Z"/><path class="cls-2" d="M72.79,20c1.3-.12,5-.48,8.68-.8,2.16-.18,4-.28,5.34-.34v1.6a16.41,16.41,0,0,0-3.88.32A6.94,6.94,0,0,0,78.41,27c0,3.86,3.6,5.08,6.82,5.2l-.58,1.68c-3.66-.16-7.84-2.12-7.84-6.54a8,8,0,0,1,3.68-6.69c-1.74.2-7.14.72-9.28,1.16L71,20.08C71.79,20.06,72.41,20,72.79,20Zm12.86,5.67-1,.48A19.17,19.17,0,0,0,83,23.3l1-.44A23.91,23.91,0,0,1,85.65,25.65Zm2.28-.86-1,.48a17.46,17.46,0,0,0-1.7-2.79l1-.46A29.12,29.12,0,0,1,87.93,24.79Z"/><path class="cls-2" d="M99.09,32.27a12.41,12.41,0,0,0,1.7-.24,5.94,5.94,0,0,0,5-5.86,5.49,5.49,0,0,0-5.26-5.75,42.31,42.31,0,0,1-1.18,5.71c-1.22,4.06-2.8,6.16-4.64,6.16s-3.54-2-3.54-5.3c0-4.31,3.84-8.07,8.68-8.07a7.19,7.19,0,0,1,7.6,7.29c0,4.16-2.74,6.94-7.46,7.56Zm-1.3-6.48a32.07,32.07,0,0,0,1.1-5.35,6.92,6.92,0,0,0-6.12,6.41c0,2.5,1.16,3.6,2,3.6S96.77,29.13,97.79,25.79Z"/><path class="cls-2" d="M117.33,25.63a14.69,14.69,0,0,1,4.34-.72c2.88,0,5,1.58,5,3.94s-1.5,3.92-4.22,4.58a12.69,12.69,0,0,1-2.44.26l-.56-1.58a11.39,11.39,0,0,0,2.32-.14c1.74-.32,3.32-1.26,3.32-3.1,0-1.68-1.52-2.58-3.4-2.58a12.76,12.76,0,0,0-4.3.78c0,1.68.08,3.42.08,4.28,0,1.84-.7,2.42-1.76,2.42-1.56,0-4.14-1.5-4.14-3.28,0-1.62,2.06-3.34,4.34-4.32V25.05c0-.81,0-1.73,0-2.61-.54,0-1,.06-1.46.06a24.78,24.78,0,0,1-2.52-.1l0-1.52a18,18,0,0,0,2.52.16c.46,0,1,0,1.52-.06,0-1,0-1.9,0-2.26a7.77,7.77,0,0,0-.12-1.4h1.74c0,.36-.08.9-.1,1.36s0,1.26-.06,2.14a26.05,26.05,0,0,0,4.06-.8l0,1.58a40.23,40.23,0,0,1-4.12.68c0,.94,0,1.89,0,2.69ZM116,31.15c0-.72,0-2.06-.06-3.5-1.6.76-2.78,1.88-2.78,2.78s1.36,1.68,2.14,1.68C115.71,32.11,116,31.77,116,31.15Zm7.8-11.65a33.35,33.35,0,0,1,4.52,2.9l-.8,1.28a25.61,25.61,0,0,0-4.44-3Z"/><path class="cls-2" d="M132.73,24.36V34.79h-1.46V17.36h7.18v7Zm0-5.8v1.68H137V18.56Zm4.3,4.6V21.34h-4.3v1.82Zm-.1,8.81v1.2h-1.36v-7H143V32Zm0-4.56v3.3h4.7v-3.3Zm10.66,5.36c0,1-.24,1.48-.88,1.74a13.09,13.09,0,0,1-3.58.26,7.19,7.19,0,0,0-.52-1.52c1.3.06,2.6,0,3,0s.48-.12.48-.5V24.36h-5.86v-7h7.36Zm-5.94-14.23v1.7h4.44v-1.7Zm4.44,4.64V21.34h-4.44v1.84Z"/><path class="cls-2" d="M153.73,21.24c0,1.24,0,3.06.14,4.69.32,3.32,1.28,5.5,2.68,5.5,1,0,1.94-2,2.46-4l1.26,1.44c-1.18,3.36-2.4,4.5-3.76,4.5-1.86,0-3.66-1.86-4.2-7a52.73,52.73,0,0,1-.22-5.29,10.56,10.56,0,0,0-.12-1.76l1.92,0C153.81,19.8,153.75,20.72,153.73,21.24Zm14,8.33-1.62.64c-.34-3.56-1.54-7.49-3.42-9.81l1.56-.54A20.42,20.42,0,0,1,167.69,29.57Z"/><path class="cls-2" d="M180,16.56a23.76,23.76,0,0,0,8.78,7.14,6.55,6.55,0,0,0-1,1.29,26.91,26.91,0,0,1-8.46-7,24.76,24.76,0,0,1-8.3,7.11,5.45,5.45,0,0,0-.92-1.19,22.47,22.47,0,0,0,8.38-7.36Zm-6.66,10.27h12.16v8H184V34h-9.18v.82h-1.46ZM184.39,23v1.32h-10V23Zm-9.6,5.17v4.46H184V28.17Z"/><path class="cls-2" d="M197.35,21.12c-.24.36-.58.9-.88,1.38,0,.4-.06.84-.1,1.26a10,10,0,0,1,6.28-2.46,5,5,0,0,1,5.22,5c0,4-2.9,6.1-7.22,6.92l-.72-1.5c3.34-.5,6.34-2,6.32-5.46a3.61,3.61,0,0,0-3.82-3.51,9.12,9.12,0,0,0-6.18,2.85c0,.82-.06,1.62-.06,2.32,0,1.8,0,3,.08,4.78,0,.34.06.84.1,1.2h-1.74c0-.28.06-.86.06-1.18,0-1.9,0-2.88.06-5.08,0-.2,0-.46,0-.76-1,1.46-2.26,3.36-3.22,4.68l-1-1.38c1.1-1.38,3.38-4.46,4.38-6,0-.65.08-1.29.12-1.91-.9.1-2.62.34-3.86.5L191,21.1a9.5,9.5,0,0,0,1.3,0c.64,0,1.8-.16,2.82-.32.06-.94.1-1.64.1-1.86a7.51,7.51,0,0,0-.08-1.48l1.9.06c-.1.48-.26,1.6-.4,3l.1,0Z"/><path class="cls-2" d="M224.13,17.88c0,.32-.08,1-.1,1.42,0,.9,0,1.88,0,2.76l2.16-.16c.52,0,1.08-.06,1.56-.1v1.6c-.32,0-1.06,0-1.56,0s-1.34,0-2.2.1a32.26,32.26,0,0,1-.3,4.17c-.18.88-.62,1.14-1.52,1.14a23.42,23.42,0,0,1-2.62-.28l0-1.42a12,12,0,0,0,2,.26c.48,0,.68-.08.74-.52.1-.66.18-2,.22-3.23-2,.16-4.36.38-6.32.58,0,2.05,0,4.11,0,4.87.06,2.14.08,2.86,3.52,2.86a40.46,40.46,0,0,0,5.88-.44l-.06,1.68c-1.32.14-3.74.34-5.74.34-4.58,0-5-1.06-5.12-4.22,0-.86,0-2.94,0-4.93l-2.1.22-2,.28-.16-1.64c.6,0,1.34,0,2.06-.1l2.22-.2,0-2.76a11.59,11.59,0,0,0-.12-1.66h1.74c0,.44-.06,1-.06,1.6l0,2.66c1.92-.18,4.22-.4,6.32-.58V19.36a11,11,0,0,0-.1-1.48Z"/><path class="cls-2" d="M234.53,18a9.38,9.38,0,0,0-.34,1.34,48.76,48.76,0,0,0-1,8,17.5,17.5,0,0,0,.18,2.7c.32-.9.78-2.08,1.12-2.88l.84.66a42.76,42.76,0,0,0-1.4,4.38,3.4,3.4,0,0,0-.1.88c0,.2,0,.48.06.68l-1.42.12a23.93,23.93,0,0,1-.76-6.28,61.89,61.89,0,0,1,.9-8.33,8.73,8.73,0,0,0,.14-1.4Zm12.88,14.43a15,15,0,0,0-3-2.26v.36c0,1.64-.76,3.24-3.44,3.24s-4.12-1.1-4.12-2.86,1.48-3,4.08-3a8.83,8.83,0,0,1,1.84.18c-.06-1.52-.18-3.42-.2-5.07-.64,0-1.26,0-1.9,0-1.12,0-2.16-.06-3.32-.12V21.42a31,31,0,0,0,3.36.18c.62,0,1.24,0,1.86,0V19.1a8.09,8.09,0,0,0-.1-1.2h1.82a11.22,11.22,0,0,0-.12,1.18c0,.54,0,1.46-.06,2.38a25.23,25.23,0,0,0,3.42-.46v1.56c-1.08.18-2.24.3-3.42.38,0,2,.16,4,.24,5.63a13.5,13.5,0,0,1,3.9,2.58Zm-4.56-2.94a6.19,6.19,0,0,0-2-.32c-1.48,0-2.5.66-2.5,1.58s1,1.54,2.38,1.54c1.68,0,2.16-.82,2.16-2.14C242.87,30,242.87,29.75,242.85,29.51Z"/><path class="cls-2" d="M254.93,27.23a7.81,7.81,0,0,0-.4,2.26c0,1.48,1.52,2.52,4.68,2.52a25.74,25.74,0,0,0,6.78-.76L266,33a29.13,29.13,0,0,1-6.76.68c-4,0-6.36-1.32-6.36-3.8a12.56,12.56,0,0,1,.4-2.78Zm-.82-8a44.21,44.21,0,0,0,5.24.26c1.9,0,3.92-.14,5.34-.28v1.64c-1.34.1-3.52.24-5.34.24-2,0-3.66-.08-5.24-.22Z"/><path class="cls-2" d="M285,21a63.58,63.58,0,0,1-8,.84,40.89,40.89,0,0,1-1.24,4.69,8.82,8.82,0,0,1,5.54-1.72c3.16,0,5,1.62,5,3.94,0,4.12-4.2,5.68-10.2,5l-.44-1.58c4.56.64,9-.16,9-3.4,0-1.48-1.2-2.6-3.52-2.6a7.44,7.44,0,0,0-5.84,2.36,4.13,4.13,0,0,0-.62.92L273.19,29a32.53,32.53,0,0,0,2.3-7h0c-1.34,0-2.62-.08-3.76-.18l0-1.58a24.55,24.55,0,0,0,3.76.34h.32c.1-.52.16-1,.2-1.3a7.92,7.92,0,0,0,.1-1.64l1.78.1c-.14.52-.26,1.14-.36,1.66-.06.3-.12.7-.22,1.14a46.81,46.81,0,0,0,7.72-1Z"/><path class="cls-2" d="M294.89,26.75a9.39,9.39,0,0,1,6.4-2.39c3,0,5.06,1.83,5.06,4.15,0,3.56-3.14,6-10.5,5.34l-.48-1.64c6.24.76,9.3-1,9.3-3.74,0-1.58-1.46-2.68-3.48-2.68a7.69,7.69,0,0,0-6.12,2.62,4.14,4.14,0,0,0-.6,1l-1.5-.36a70.24,70.24,0,0,0,1-8l1.7.22C295.41,22.58,295.07,25.47,294.89,26.75Zm1.22-9.13a53,53,0,0,0,7.66,1.52l-.38,1.56c-1.88-.26-6.18-1.14-7.7-1.56Z"/><path class="cls-2" d="M85.25,69.76q0,6.74-1.92,10.28A6,6,0,0,1,72.4,80c-1.26-2.38-1.89-5.8-1.89-10.29s.65-8,1.91-10.34a6,6,0,0,1,11,0Q85.26,63,85.25,69.76Zm-9.6,0a32.13,32.13,0,0,0,.49,7c.33,1.25.91,1.88,1.74,1.88s1.37-.61,1.7-1.85a33.85,33.85,0,0,0,.5-7.06,34.4,34.4,0,0,0-.48-7.16c-.33-1.24-.89-1.86-1.7-1.87s-1.41.64-1.74,1.9A32.53,32.53,0,0,0,75.65,69.79Z"/><path class="cls-2" d="M95.88,67.24a7.83,7.83,0,0,1,1.75-1A4.51,4.51,0,0,1,99.25,66a4.6,4.6,0,0,1,4,2.06,9.87,9.87,0,0,1,1.44,5.73c0,3.14-.66,5.57-2,7.31a6.33,6.33,0,0,1-5.39,2.61,6.65,6.65,0,0,1-5.54-2.45q-1.94-2.43-1.93-7T93.38,62.6l.3-.61,2.79-5.76h5.18l-4.33,8.5c-.27.52-.53,1-.77,1.41S96.09,66.93,95.88,67.24ZM97.3,78.88a1.66,1.66,0,0,0,1.55-1.06,7.17,7.17,0,0,0,.54-3.11,8.44,8.44,0,0,0-.46-3.21,1.53,1.53,0,0,0-1.47-1,1.64,1.64,0,0,0-1.59,1.09A8.88,8.88,0,0,0,95.36,75a6.71,6.71,0,0,0,.48,2.89A1.55,1.55,0,0,0,97.3,78.88Z"/><path class="cls-2" d="M109.64,77.15V71.28h9.57v5.88Z"/><path class="cls-2" d="M132.13,83.34V76.63h-7.78V72.54l7.12-16.26h5.21l0,16.27h2.2v4.08h-2.21v6.71Zm-4.3-10.79h4.5V64.9c0-.23,0-.58,0-1.05s.08-1.31.17-2.56c-.31,1.05-.62,2-.93,2.9a23.7,23.7,0,0,1-.91,2.27Z"/><path class="cls-2" d="M144.27,83.36l8.58-22.58H144.7V56.3l14.79,0-9.86,27.05Z"/><path class="cls-2" d="M177.69,69.9q0,6.72-1.91,10.28a6,6,0,0,1-10.93,0c-1.27-2.37-1.89-5.8-1.89-10.28s.64-8,1.91-10.34a6,6,0,0,1,10.95,0Q177.71,63.12,177.69,69.9Zm-9.6,0a32.73,32.73,0,0,0,.49,7q.51,1.89,1.74,1.89c.81,0,1.37-.62,1.7-1.85a32.54,32.54,0,0,0,.5-7.06,33.13,33.13,0,0,0-.48-7.17c-.32-1.24-.89-1.86-1.69-1.86s-1.41.63-1.74,1.9A32.88,32.88,0,0,0,168.09,69.92Z"/><path class="cls-2" d="M186.62,68.72V68.5a3.94,3.94,0,0,1-2.55-1.88,7.34,7.34,0,0,1-.87-3.85,6.91,6.91,0,0,1,1.69-5,7.47,7.47,0,0,1,9.62,0,7,7,0,0,1,1.68,5,7.36,7.36,0,0,1-.9,3.83,4,4,0,0,1-2.54,1.89v.22a5,5,0,0,1,3.1,2.4,9.17,9.17,0,0,1,1.08,4.71A8.31,8.31,0,0,1,195,81.66a7.79,7.79,0,0,1-10.65,0,8.25,8.25,0,0,1-1.92-5.83,9.17,9.17,0,0,1,1.08-4.71A5,5,0,0,1,186.62,68.72Zm3.07,2.64a1.81,1.81,0,0,0-1.66.92,5.55,5.55,0,0,0-.55,2.78,6.39,6.39,0,0,0,.53,3,1.93,1.93,0,0,0,3.32,0,5.93,5.93,0,0,0,.54-2.88,6.14,6.14,0,0,0-.53-2.89A1.78,1.78,0,0,0,189.69,71.36Zm0-11.12a1.51,1.51,0,0,0-1.37.67,3.91,3.91,0,0,0-.43,2.09,4.88,4.88,0,0,0,.42,2.43,1.49,1.49,0,0,0,1.4.72,1.53,1.53,0,0,0,1.39-.69,4.55,4.55,0,0,0,.44-2.27,4.17,4.17,0,0,0-.46-2.23A1.52,1.52,0,0,0,189.67,60.24Z"/><path class="cls-2" d="M202.08,77.29V71.42h9.56V77.3Z"/><path class="cls-2" d="M224.58,83.48V76.77H216.8V72.68l7.12-16.26h5.21l0,16.27h2.21v4.08h-2.2v6.71Zm-4.3-10.8h4.5V65c0-.24,0-.59,0-1.05s.08-1.32.17-2.57c-.31,1-.62,2-.93,2.9s-.62,1.64-.91,2.27Z"/><path class="cls-2" d="M236.11,82.77l.69-4.89a10,10,0,0,0,2,.9,6.73,6.73,0,0,0,1.91.31A4.16,4.16,0,0,0,243.83,78a4.47,4.47,0,0,0,1.1-3.22A4.39,4.39,0,0,0,243.24,71a7.87,7.87,0,0,0-4.87-1.29c-.23,0-.6,0-1.09,0l-.28,0,1.89-13.36,10.55,0v4.59h-6.78L242,66h.19a8,8,0,0,1,6,2.2,8.31,8.31,0,0,1,2.14,6.08,9.93,9.93,0,0,1-2.39,7,8.37,8.37,0,0,1-6.5,2.57,14.36,14.36,0,0,1-2.81-.26A10.66,10.66,0,0,1,236.11,82.77Z"/><path class="cls-2" d="M255.33,75.77h4.52v.32a4.4,4.4,0,0,0,.54,2.4,1.77,1.77,0,0,0,1.58.82,1.94,1.94,0,0,0,1.77-1,5.53,5.53,0,0,0,.63-2.89,4.68,4.68,0,0,0-.79-3.07,3.33,3.33,0,0,0-2.63-.92,2.07,2.07,0,0,0-.32,0h-.33V67h.35a4.93,4.93,0,0,0,3.14-.8,3.21,3.21,0,0,0,1-2.61,3.76,3.76,0,0,0-.56-2.18,1.81,1.81,0,0,0-1.53-.79,1.75,1.75,0,0,0-1.55.78,4.14,4.14,0,0,0-.53,2.3V64h-4.38v-.63A7.72,7.72,0,0,1,258,58a6.49,6.49,0,0,1,5-1.86A5.85,5.85,0,0,1,267.62,58a8.17,8.17,0,0,1,1.62,5.47,6.6,6.6,0,0,1-1,3.9,4.15,4.15,0,0,1-3,1.71v.33a5.78,5.78,0,0,1,3.65,2.06,6.92,6.92,0,0,1,1.2,4.29A8.21,8.21,0,0,1,268,81.74a7.69,7.69,0,0,1-5.76,2.16,6.66,6.66,0,0,1-5.1-1.93,7.64,7.64,0,0,1-1.8-5.47,2.58,2.58,0,0,1,0-.35C255.32,76,255.33,75.87,255.33,75.77Z"/><path class="cls-2" d="M280.77,67.51a8.05,8.05,0,0,1,1.75-1,4.51,4.51,0,0,1,1.62-.31,4.62,4.62,0,0,1,4,2.06A9.79,9.79,0,0,1,289.56,74c0,3.14-.65,5.57-1.94,7.31a6.35,6.35,0,0,1-5.39,2.61,6.67,6.67,0,0,1-5.55-2.45q-1.94-2.43-1.93-7t3.52-11.65l.3-.61,2.79-5.76h5.19L282.22,65c-.27.52-.53,1-.77,1.41S281,67.2,280.77,67.51Zm1.43,11.64a1.67,1.67,0,0,0,1.55-1.06,7.19,7.19,0,0,0,.53-3.11,8.24,8.24,0,0,0-.46-3.21,1.52,1.52,0,0,0-1.46-1,1.66,1.66,0,0,0-1.6,1.09,8.92,8.92,0,0,0-.5,3.46,6.71,6.71,0,0,0,.48,2.89A1.54,1.54,0,0,0,282.2,79.15Z"/><path class="cls-2" d="M26.84,58.63V62A19.4,19.4,0,0,1,34,63.36c.4.16.78.32,1.15.5a18,18,0,0,1,2.7-1,20.06,20.06,0,0,1,12.79.53c.39.16.77.32,1.14.5a18,18,0,0,1,2.7-1A19.54,19.54,0,0,1,60,62v-3.4Z"/><path class="cls-2" d="M47.63,71.51a4.14,4.14,0,0,0,2.52,3.8,4.14,4.14,0,0,0,1.61.33,4.07,4.07,0,0,0,2.31-.71,4.18,4.18,0,0,0,1.49-1.81,4.14,4.14,0,0,0,.33-1.61,3.56,3.56,0,0,0-.27-1.3,5.72,5.72,0,0,0-.82-1.4,10.34,10.34,0,0,0-3-2.53,11,11,0,0,0-2.5,1.91,6.17,6.17,0,0,0-1.42,2.17A3.51,3.51,0,0,0,47.63,71.51Z"/><path class="cls-2" d="M55.8,66.7a8.38,8.38,0,0,1,1.89,3A5.41,5.41,0,0,1,58,71.51,6.28,6.28,0,0,1,46,74a6.4,6.4,0,0,1-.49-2.44,6,6,0,0,1,.72-2.75,9.33,9.33,0,0,1,1.89-2.44,13.66,13.66,0,0,1,1.36-1.11c-.33-.12-.66-.23-1-.33a17.73,17.73,0,0,0-5-.71,17.52,17.52,0,0,0-6,1,12.72,12.72,0,0,1,1.74,1.49,8.38,8.38,0,0,1,1.89,3,5.41,5.41,0,0,1,.34,1.86,6.28,6.28,0,0,1-12,2.44,6.4,6.4,0,0,1-.49-2.44,6,6,0,0,1,.72-2.75,9.33,9.33,0,0,1,1.89-2.44,13.66,13.66,0,0,1,1.36-1.11c-.33-.12-.66-.23-1-.33a17.57,17.57,0,0,0-5-.71V80.41H60V64.17a17.35,17.35,0,0,0-6,1A12.72,12.72,0,0,1,55.8,66.7Z"/><path class="cls-2" d="M31,71.51a4.14,4.14,0,0,0,2.52,3.8,4.14,4.14,0,0,0,1.61.33,4,4,0,0,0,2.3-.71,4.14,4.14,0,0,0,1.5-1.81,4.33,4.33,0,0,0,.33-1.61,3.56,3.56,0,0,0-.27-1.3,5.72,5.72,0,0,0-.82-1.4,10.34,10.34,0,0,0-3-2.53,11,11,0,0,0-2.5,1.91,6.17,6.17,0,0,0-1.42,2.17A3.51,3.51,0,0,0,31,71.51Z"/></g></g></svg>