<svg xmlns="http://www.w3.org/2000/svg" viewBox="0 0 320 100"><defs><style>.cls-1{fill:#00c200;}.cls-2{fill:#fff;}.cls-3{fill:#00c500;}</style></defs><g id="Layer_2" data-name="Layer 2"><g id="レイヤー_2" data-name="レイヤー 2"><rect class="cls-1" width="320" height="100"/><path class="cls-2" d="M28,21.26c0,1.25,0,3.07.14,4.69.32,3.32,1.28,5.5,2.68,5.5,1,0,1.94-2,2.46-4l1.26,1.44c-1.18,3.36-2.4,4.5-3.76,4.5-1.86,0-3.66-1.86-4.2-7a52.5,52.5,0,0,1-.22-5.29,10.56,10.56,0,0,0-.12-1.76l1.92,0C28.09,19.82,28,20.74,28,21.26Zm14,8.33-1.62.64c-.34-3.57-1.54-7.49-3.42-9.81l1.56-.54A20.39,20.39,0,0,1,42,29.59Z"/><path class="cls-2" d="M61,33a14.71,14.71,0,0,0-4.78-3c0,.5,0,.94,0,1.24,0,1.36-.92,2.78-3.5,2.79-2.84,0-4.42-1-4.42-2.94s1.74-3,4.6-3a11.18,11.18,0,0,1,1.66.12c0-.88-.08-1.82-.1-2.64h-1.1c-1.36,0-3.56-.12-5-.28V23.78a35.24,35.24,0,0,0,5,.38h1.06V21.32h-1c-1.38,0-3.48-.16-4.66-.3V19.54a31.57,31.57,0,0,0,4.64.38h1v-1.3a11.09,11.09,0,0,0-.06-1.18h1.7a10.19,10.19,0,0,0-.1,1.32c0,.24,0,.62,0,1.1a44,44,0,0,0,5.08-.48l0,1.46c-1.56.16-3.26.32-5.12.42V24.1a53.43,53.43,0,0,0,5.5-.52l0,1.5c-1.86.24-3.62.38-5.5.46,0,1,.1,2.06.14,3a16.26,16.26,0,0,1,5.76,3.08ZM54.65,29.6a10.08,10.08,0,0,0-1.92-.18c-1.88,0-2.9.72-2.9,1.62s.78,1.61,2.74,1.61c1.14,0,2.1-.35,2.1-1.71C54.67,30.6,54.65,30.14,54.65,29.6Z"/><path class="cls-2" d="M78.05,21.42c0,1.12,0,2.34,0,3.24a4.84,4.84,0,0,1,.64,2.54c0,2.68-1.3,5.66-5.9,7L71.45,32.9c2.6-.6,4.44-1.68,5.26-3.44A2.84,2.84,0,0,1,75,30a3.19,3.19,0,0,1-3.28-3.32,3.48,3.48,0,0,1,3.5-3.46,4,4,0,0,1,1.32.22c0-.58,0-1.28,0-2-3,0-6.36.16-8.84.34l0-1.56c2.2,0,5.92-.16,8.86-.2,0-.56,0-1,0-1.3s-.08-1-.12-1.24h1.82l-.1,1.24c0,.3,0,.76,0,1.28h.3l5.8,0,0,1.5c-1.12-.06-2.92-.1-5.82-.1ZM77,25.76a1.76,1.76,0,0,0-1.76-1.22,2,2,0,0,0-2,2.08,1.9,1.9,0,0,0,2,2C76.41,28.58,77.17,27.64,77,25.76Z"/><path class="cls-2" d="M100.43,18.56c-.42.32-1,.84-1.36,1.12-1.36,1.18-4.2,3.46-5.66,4.66-1.2,1-1.22,1.34.06,2.4,1.8,1.44,5.48,4.48,7.4,6.4l-1.42,1.3c-.4-.48-.94-1-1.36-1.44-1.08-1.16-4.4-4-6.24-5.5s-1.66-2.46.12-4c1.5-1.26,4.5-3.62,5.84-5A10.66,10.66,0,0,0,99,17.24Zm.74,6.26-1.12.48c-.42-.82-1.16-2.18-1.68-3l1.06-.46C99.93,22.62,100.75,24.06,101.17,24.82Zm2.36-1-1.08.48a29.91,29.91,0,0,0-1.76-2.88l1.08-.48A27.65,27.65,0,0,1,103.53,23.86Z"/><path class="cls-2" d="M115.85,21.06h-7.36V19.84h7.36Zm-.62,12.58h-4.54v.92h-1.3v-6.7h5.84Zm0-9.92h-5.8V22.54h5.8Zm-5.8,1.46h5.8v1.2h-5.8Zm5.76-6.76h-5.68v-1.2h5.68Zm-4.48,10.66v3.36H114V29.08Zm11-12.52a15.53,15.53,0,0,0,5.42,5.5,9.76,9.76,0,0,0-.82,1.32A18.27,18.27,0,0,1,121.05,18a16.59,16.59,0,0,1-5.18,5.56,7.75,7.75,0,0,0-.76-1.22,14.6,14.6,0,0,0,5.16-5.74Zm4.58,11.56c-1.86,3.18-5.26,5.46-9.42,6.7a7.35,7.35,0,0,0-.92-1.24c4-1.06,7.32-3.18,9-6Zm-3.52-6a15.79,15.79,0,0,1-5,4.06,6.26,6.26,0,0,0-1-.9,14.27,14.27,0,0,0,4.74-3.66Zm1.68,3a17.07,17.07,0,0,1-6.62,5,9.24,9.24,0,0,0-1-1,14.88,14.88,0,0,0,6.26-4.48Z"/><path class="cls-2" d="M148,24.59h-2.24V34.78h-1.4V24.6h-3v.6c0,2.94-.34,7-3,9.76a3,3,0,0,0-1.06-1,8.46,8.46,0,0,0,1.06-1.38h-6.72v1.5h-1.32V17.23h1.32v14h7.26v.26a15.81,15.81,0,0,0,1-6.32v-7l1.06.34a28.85,28.85,0,0,0,5.44-1.7l1.2,1.06a30.44,30.44,0,0,1-6.3,1.84V23.2H148Zm-12.9,1.19a13.35,13.35,0,0,1-2.58,3.9,9.9,9.9,0,0,0-.64-1.2,13.82,13.82,0,0,0,3-4.68h-2.66V22.52h2.86V16.67h1.24v5.85h2.82V23.8h-2.82v.76c.6.5,2.32,2.08,2.74,2.48l-.86,1c-.34-.48-1.18-1.44-1.88-2.2v4.9h-1.24Zm-1.76-4.08a12.87,12.87,0,0,0-.86-3.49l1-.32a12.87,12.87,0,0,1,.92,3.45Zm5.82-3.49c-.48,1.18-1.06,2.63-1.54,3.53l-.9-.34a24.46,24.46,0,0,0,1.24-3.55Z"/><path class="cls-2" d="M155.41,24c.72.74,2.54,2.82,2.94,3.36l-.92,1.22a28.41,28.41,0,0,0-2-2.88v9.09H154V25.19a21,21,0,0,1-2.9,5.89,8.27,8.27,0,0,0-.78-1.36,21.39,21.39,0,0,0,3.5-7.53h-3.06v-1.4H154V16.51h1.42v4.28h2.84v1.4h-2.84Zm12.66-6.28V34.57h-1.46V33.43h-6.06v1.2h-1.42V17.69Zm-7.52,1.4v3.34h6.06V19.09Zm0,8.14h6.06V23.79h-6.06Zm6.06,4.82V28.59h-6.06v3.47Z"/><path class="cls-2" d="M178.89,21.05h-7.4V19.83h7.4Zm-.66,12.58h-4.54v.92h-1.3v-6.7h5.84Zm0-9.92h-5.8V22.53h5.8Zm-5.8,1.46h5.8v1.2h-5.8Zm5.76-6.76h-5.68v-1.2h5.68Zm-4.48,10.66v3.36H177V29.07Zm11.42-1.44c0,1.1.7,4.36,4.84,5.9a12.28,12.28,0,0,0-.9,1.26,7.94,7.94,0,0,1-4.68-5,8,8,0,0,1-5.2,5,6.81,6.81,0,0,0-.88-1.2c4.64-1.6,5.34-4.82,5.34-6V24.77h1.48Zm-6.34,2.24a5.74,5.74,0,0,0,1.86-3.48l1.32.28a6.62,6.62,0,0,1-2,3.9Zm10-4.48a39.44,39.44,0,0,0-4.58-3.3,7,7,0,0,1-4.42,3.46,4.29,4.29,0,0,0-.84-1.16c4.1-1.26,4.66-3.62,4.86-7.86h1.44a19.54,19.54,0,0,1-.56,4.3,47.2,47.2,0,0,1,5.08,3.44Zm-6.68-7.28a6.07,6.07,0,0,1-1.68,3.58l-1.14-.56a5.42,5.42,0,0,0,1.58-3.26Zm7.26.14a30.59,30.59,0,0,1-2,3.18l-1.1-.46a19,19,0,0,0,1.7-3.22Zm-3.06,11.48a20.76,20.76,0,0,0,1.86-3.48l1.44.5a32.63,32.63,0,0,1-2.18,3.46Z"/><path class="cls-2" d="M202,30.55c.06-.76.08-2,.08-3.08-1.84,1-3.12,2-3.12,3.32,0,1.56,1.54,1.78,3.58,1.78a34.87,34.87,0,0,0,5.4-.48l0,1.62a51,51,0,0,1-5.42.32c-2.84,0-5.12-.6-5.12-3s2.36-3.82,4.66-5a1.67,1.67,0,0,0-1.78-1.22,5.27,5.27,0,0,0-3.42,1.46c-.56.54-1.12,1.28-1.8,2.08l-1.36-1a21,21,0,0,0,4.56-6h-.82c-.84,0-2.18,0-3.26-.12v-1.5c1.06.12,2.44.2,3.34.2.42,0,.84,0,1.3,0a10.73,10.73,0,0,0,.5-2.46l1.64.14c-.14.56-.32,1.38-.6,2.28a53.15,53.15,0,0,0,6.06-.6l0,1.48a61.19,61.19,0,0,1-6.56.56,14.21,14.21,0,0,1-1.78,3,5.62,5.62,0,0,1,2.74-.74,2.49,2.49,0,0,1,2.62,1.8c1.36-.64,2.56-1.12,3.6-1.6.6-.26,1.08-.5,1.64-.78l.64,1.5c-.5.14-1.22.42-1.74.62-1.12.44-2.54,1-4,1.72,0,1.14,0,2.82.06,3.78Z"/><path class="cls-2" d="M216,24.05V34.79h-1.46V17.37h7.24v6.68Zm0-5.54v1.62h4.38V18.51Zm4.38,4.4V21.19H216v1.72Zm5,7v4.46H224V30h-2.84a6.41,6.41,0,0,1-2.68,4.72,5.21,5.21,0,0,0-1-.88A5,5,0,0,0,219.83,30h-2.5V28.69h2.54V26.53h-2.16V25.31h9.86v1.22h-2.28v2.16H228V30ZM224,28.69V26.53h-2.8v2.16Zm6.94,4.16c0,.88-.2,1.36-.78,1.62a9.29,9.29,0,0,1-3.1.26,4.91,4.91,0,0,0-.48-1.48c1.1,0,2.18,0,2.48,0s.42-.12.42-.44V24.07h-6v-6.7h7.42Zm-6-14.34v1.62h4.54V18.51Zm4.54,4.42V21.19h-4.54v1.74Z"/><path class="cls-2" d="M242,20.77a26.38,26.38,0,0,1-1.86,8.7,14.65,14.65,0,0,1,2.32,2.16l-.9,1.18a15.28,15.28,0,0,0-2.06-2,10.89,10.89,0,0,1-3.86,4,6.6,6.6,0,0,0-.92-1.2,8.79,8.79,0,0,0,3.62-3.76c-.66-.5-1.38-1-2.06-1.42l-.24.86-1.24-.66c.5-1.7,1.1-4.16,1.68-6.64h-1.88V20.63h2.18c.32-1.46.6-2.88.84-4.13l1.42.16c-.24,1.23-.54,2.59-.86,4h2.66l.26,0ZM237.87,22c-.42,1.78-.86,3.54-1.26,5.1.76.44,1.58.94,2.34,1.48A23.29,23.29,0,0,0,240.47,22Zm4.22,1.4,1.58-.08A50.75,50.75,0,0,0,246,16.5l1.62.34c-.7,2-1.62,4.55-2.46,6.41l5.36-.34a24,24,0,0,0-1.82-2.73l1.2-.6a22.77,22.77,0,0,1,3.2,5.33l-1.28.72a11,11,0,0,0-.6-1.42c-3.24.24-6.58.5-8.94.64Zm1.36,3.32h8.48v8h-1.48v-.82h-5.58v.9h-1.42Zm1.42,1.36v4.46h5.58V28.09Z"/><path class="cls-2" d="M267.05,21.4c0,1.12,0,2.34,0,3.24a4.84,4.84,0,0,1,.64,2.54c0,2.69-1.3,5.67-5.9,7l-1.38-1.34c2.6-.6,4.44-1.68,5.26-3.44a2.84,2.84,0,0,1-1.7.5,3.19,3.19,0,0,1-3.28-3.32,3.48,3.48,0,0,1,3.5-3.47,4,4,0,0,1,1.32.22c0-.58,0-1.28,0-2-3,0-6.36.16-8.84.34l0-1.56c2.2,0,5.92-.16,8.86-.2,0-.56,0-1,0-1.3s-.08-1-.12-1.24h1.82l-.1,1.24c0,.3,0,.76,0,1.28h.3l5.8,0,0,1.5c-1.12-.06-2.92-.1-5.82-.1ZM266,25.74a1.76,1.76,0,0,0-1.76-1.22,2,2,0,0,0-2,2.08,1.89,1.89,0,0,0,2,2C265.41,28.56,266.17,27.62,266,25.74Z"/><path class="cls-2" d="M290.63,19.36c-.36.24-.8.54-1.1.76-1,.74-3.64,3.08-5.16,4.36a8.42,8.42,0,0,1,2.68-.42c3.3,0,5.68,2,5.68,4.68,0,3.2-2.66,5.28-6.84,5.28-2.7,0-4.36-1.2-4.36-2.84a2.81,2.81,0,0,1,3.06-2.6,3.91,3.91,0,0,1,4.08,3.5,3.45,3.45,0,0,0,2.46-3.36c0-1.94-2-3.36-4.46-3.36-3.26,0-5.06,1.38-7.58,3.94l-1.16-1.18,5.34-4.44c1.1-.92,3.56-3,4.54-3.88-1,0-4.94.22-6,.28a9.54,9.54,0,0,0-1.34.12l0-1.66a11.25,11.25,0,0,0,1.4.06c1,0,5.72-.14,6.76-.24a7.09,7.09,0,0,0,1.08-.16Zm-3.42,13.1a2.64,2.64,0,0,0-2.62-2.64c-.9,0-1.58.54-1.58,1.22,0,1,1.14,1.54,2.62,1.54A9.76,9.76,0,0,0,287.21,32.46Z"/><path class="cls-2" d="M50.57,59.4c-.2.22-2.58,3-3.84,3a1.27,1.27,0,0,1-1.32-1.15,1.13,1.13,0,0,1,.56-.9,12.48,12.48,0,0,0,4.15-4.39,1,1,0,0,1,.87-.51,1.37,1.37,0,0,1,1.31,1.29,1.23,1.23,0,0,1-.19.65v0h3.94a1,1,0,1,1,0,2Zm-.79,11.17c0,2.35-.05,5.91-.11,9.13a1.22,1.22,0,0,1-1.32,1.18,1.18,1.18,0,0,1-1.28-1.12V79.7c.14-4.28.14-10.25.19-15.29,0-1.15.53-2.24,2.69-2.35.73,0,2,0,3.11,0a3.09,3.09,0,0,0-1.29-.75.73.73,0,0,1-.53-.68,1.17,1.17,0,0,1,1.2-1c.53,0,2.49.67,2.49,1.7a1.05,1.05,0,0,1-.36.76c1.29.11,2.24.84,2.3,1.85,0,.67.05,1.51.05,2.29,0,2.78-.05,3.42-5.57,3.42-.59,0-1.15,0-1.57-.06Zm4.71-4H49.78v1.34c.39,0,1.18,0,1.93,0,2.72,0,2.75-.17,2.78-.76Zm0-2.13c-.06-.7-.51-.73-2.3-.73-2,0-2.32,0-2.38.93v.44h4.68ZM52.61,76.26c0-.45,0-1,0-1.46,0-.84,0-1.71.06-2.41a2.36,2.36,0,0,1,2.57-2.13c.82,0,1.66-.05,2.47-.05s1.62,0,2.32.05a2.48,2.48,0,0,1,2.47,2c.05.7.08,1.52.08,2.33,0,.59,0,1.15,0,1.68a2.56,2.56,0,0,1-2.6,2.24c-.73,0-1.51,0-2.33,0s-1.59,0-2.32,0C53.65,78.36,52.67,77.49,52.61,76.26Zm7.7-2.89c0-.17,0-.33,0-.47-.05-.9-.75-1-2.41-1-2.52,0-3.08,0-3.13,1,0,.14,0,.28,0,.45Zm-5.6,1.71v.67c0,.87.84.93,2.74.93s2.8,0,2.86-1c0-.19,0-.42,0-.64ZM60.56,59.4c-.53.62-2.24,2.41-3.19,2.41a1.23,1.23,0,0,1-1.26-1.12,1.12,1.12,0,0,1,.53-.87A9.94,9.94,0,0,0,60.11,56a1,1,0,0,1,.84-.5,1.4,1.4,0,0,1,1.32,1.32,1.17,1.17,0,0,1-.17.58h6.19a1,1,0,1,1,0,2Zm3.59,10.22c-3.31,0-5.66,0-5.74-2,0-.42,0-.9,0-1.38,0-.81,0-1.65,0-2.29.06-1,1-1.79,2.44-1.85.45,0,1.37,0,2.27,0a3.09,3.09,0,0,0-1.29-.75.73.73,0,0,1-.53-.68,1.17,1.17,0,0,1,1.2-1c.14,0,2.49.47,2.49,1.7a1.06,1.06,0,0,1-.33.73c.28,0,.56,0,.75,0,2,.08,2.86,1.12,2.86,2.16,0,2.54.06,7.44.06,9.8,0,1.23,0,2.32,0,3.22,0,1.84-1,3.47-3.92,3.47-1.87,0-2.83-.25-2.83-1.4a1.07,1.07,0,0,1,1.07-1.15c.06,0,.11,0,.2,0a9.45,9.45,0,0,0,1.42.14c.84,0,1.43-.28,1.46-1.54,0-1.82,0-5.41,0-7.23C65.38,69.59,64.79,69.62,64.15,69.62Zm1.56-5.07c0-.75-.22-.84-2.43-.84-2,0-2.41.06-2.47.76v.61h4.9Zm.06,2h-5v.61c0,.68.14.76,2.92.76.84,0,1.68,0,2.07,0Z"/><path class="cls-2" d="M88.34,76.4v3.1A1.29,1.29,0,0,1,87,80.85a1.27,1.27,0,0,1-1.29-1.35V76.4l-9.24,0a1.12,1.12,0,0,1-1.23-1.15A1.23,1.23,0,0,1,76.49,74l9.24.06,0-2c-1.62,0-3.47,0-4.53,0-2,0-3-1.12-3.06-2.6,0-.7,0-1.65,0-2.58s0-1.87,0-2.54a2.67,2.67,0,0,1,3-2.55c1.68,0,3.44-.06,5.27-.06,1.28,0,2.6,0,3.92,0a20.8,20.8,0,0,0,2.15-4.4,1.32,1.32,0,0,1,1.29-1,1.45,1.45,0,0,1,1.54,1.32c0,.84-2.24,3.92-2.35,4.06h.16A2.78,2.78,0,0,1,96,64.16c.06.67.09,1.54.09,2.44s0,2.07-.09,2.82a2.86,2.86,0,0,1-3,2.66c-1.26,0-3.11,0-4.68,0l0,2L97.75,74a1.21,1.21,0,0,1,0,2.41ZM81.7,61.3a1,1,0,0,1-1-.61A7.85,7.85,0,0,0,79,58.53a.9.9,0,0,1-.31-.67c0-.59.7-1.12,1.43-1.12,1.23,0,3,2.44,3,3.19A1.49,1.49,0,0,1,81.7,61.3Zm4.09,2.5c-1.37,0-2.69,0-3.84.05s-1.4.95-1.4,2h5.21Zm0,4.06H80.55c0,1.34,0,2.07,1.43,2.12,1.12,0,2.44.06,3.78.06Zm1.57-7a1,1,0,0,1-1-.78A7.9,7.9,0,0,0,85,57.58a1.07,1.07,0,0,1-.16-.53,1.22,1.22,0,0,1,1.31-1c1.57,0,2.69,3.14,2.69,3.56A1.49,1.49,0,0,1,87.33,60.91Zm6.19,5c0-.34,0-.62,0-.87,0-.7-.45-1.12-1.37-1.15-1.12,0-2.47-.05-3.84-.05l0,2.07Zm-5.21,2V70c1.31,0,2.63,0,3.84-.06,1.37,0,1.37-.92,1.37-2.12Z"/><path class="cls-2" d="M120.31,74.16c.06.86.06,1.34.09,2.1,0,2.15-1.15,3.92-5.55,3.16-2.54-.45-1.51-3.33.26-2.77,1.14.36,2.63.53,2.6-1,0-1.66-.11-4.57-.2-7.51a32.11,32.11,0,0,1-9.1,8.54c-2.32,1.49-3.69-1.17-1.93-2.1a25.24,25.24,0,0,0,9.41-8.71c-2.49.06-5,.14-7.34.23a1.3,1.3,0,1,1-.08-2.58c2.8-.11,5.85-.17,8.88-.19-.06-1.6-.12-2.94-.14-3.67a1.36,1.36,0,1,1,2.71-.11c0,.78,0,2.15.06,3.75,1.59,0,3.16,0,4.64,0a1.35,1.35,0,1,1-.08,2.66c-1.46-.06-3-.11-4.53-.11C120.06,68.84,120.17,72.06,120.31,74.16Z"/><path class="cls-2" d="M142.18,67A10.24,10.24,0,0,0,138,64.92c-1.68-.4-1-3.22,1.15-2.64a17.78,17.78,0,0,1,4.92,2.13,1.66,1.66,0,0,1,.37,2.33A1.49,1.49,0,0,1,142.18,67Zm-1.73,11.56a1.6,1.6,0,1,1-1-3c5.63-1.43,11.29-7.23,14.12-12.71a1.52,1.52,0,1,1,2.54,1.65C152.68,70.77,146.89,76.51,140.45,78.55Z"/><path class="cls-2" d="M170.91,79.36c-2.3.7-3.33-2.07-1.09-2.66,5.51-1.48,9.07-4.87,10.33-8.42.28-.76.14-1.21-.92-1.24-2.86-.05-8.07,0-11.06.14a1.33,1.33,0,1,1-.09-2.63c3.61-.08,8.32-.11,12.13-.08,2.8,0,4.17,1.59,3,4.34C181.27,73.48,177.85,77.24,170.91,79.36Zm8.9-17.47c-2.63,0-6.49.09-9.52,0-1.84,0-2-2.63.2-2.6,2.69,0,6.61,0,9.44,0a1.36,1.36,0,0,1,1.51,1.29C181.44,61.25,181,61.89,179.81,61.89Z"/><path class="cls-2" d="M196.87,74.18c-2.58,1.57-4-1.28-2.13-2.21,5.15-2.52,10.5-7.67,13.66-12.65a1.46,1.46,0,1,1,2.49,1.48c-1.26,1.68-2.46,3.19-3.66,4.59-.09,2.86-.15,10.19-.06,13a1.48,1.48,0,1,1-2.94.09c0-2.24.14-6.81.17-10.08A41,41,0,0,1,196.87,74.18Z"/><path class="cls-2" d="M230.38,67a10.24,10.24,0,0,0-4.14-2.07c-1.68-.4-1-3.22,1.15-2.64a17.78,17.78,0,0,1,4.92,2.13,1.67,1.67,0,0,1,.37,2.33A1.49,1.49,0,0,1,230.38,67Zm-1.73,11.56a1.6,1.6,0,1,1-1-3c5.63-1.43,11.29-7.23,14.12-12.71.89-1.74,3.77-.56,2.54,1.65C240.88,70.77,235.08,76.51,228.65,78.55Z"/><path class="cls-2" d="M258.58,79.53a1.39,1.39,0,0,1-2.75,0v0L256,69.28a26.65,26.65,0,0,1-2.83,3.87,1.42,1.42,0,0,1-2.5-.81,1.36,1.36,0,0,1,.45-.93A25,25,0,0,0,256,64.72v-.36l-3.22,0h0a1.23,1.23,0,1,1,0-2.46h3.19l-.09-4.73v0A1.25,1.25,0,0,1,257.21,56a1.27,1.27,0,0,1,1.37,1.23v0s-.06,2.21-.09,4.73h2.72a1.23,1.23,0,0,1,0,2.46h0l-2.74,0c0,.7,0,1.37,0,2a1.54,1.54,0,0,1,.31,0c.56,0,3.69,2,3.69,3.22a1.45,1.45,0,0,1-1.34,1.4,1.06,1.06,0,0,1-.87-.48,14,14,0,0,0-1.76-1.87c0,4.36.11,10.94.11,10.94Zm4.93-11c0-2.83,0-5.66.05-7.9,0-3.22,2-3.33,5.74-3.33,3,0,5.38,0,5.46,3.16.06,2.35.09,5.32.09,8.32,0,2.6,0,5.21-.06,7.47-.06,3.08-1.54,3.73-4.9,3.73-4.68,0-6.24-.14-6.33-3.67C263.53,74.16,263.51,71.36,263.51,68.56Zm8.79-2.13H266v4.11h6.33Zm0-2.38c0-.93,0-1.79-.06-2.55,0-1.65-.19-1.74-3-1.74-.59,0-1.18,0-1.71.06-1.45.08-1.48.53-1.48,4.23ZM266,72.92c0,1,0,2,.05,2.86,0,1.6.45,1.74,3.45,1.74,2.6,0,2.69-.62,2.71-1.82,0-.84,0-1.8.06-2.78Z"/><path class="cls-2" d="M281.59,62.93a1.11,1.11,0,0,1-1.2-1.15,1.13,1.13,0,0,1,1.2-1.15h7.82a1.11,1.11,0,0,1,1.2,1.15,1.13,1.13,0,0,1-1.2,1.15ZM287.22,80c-.59,0-1.26,0-1.9,0s-1.29,0-1.85,0a2.14,2.14,0,0,1-2.07-2.22c0-.72,0-1.42,0-2.12s0-1.35,0-2a2.08,2.08,0,0,1,2-2.13c.53,0,1.12-.06,1.74-.06s1.48,0,2.13.06a2.2,2.2,0,0,1,2.23,2c0,.64,0,1.4,0,2.12s0,1.46,0,2.08A2.26,2.26,0,0,1,287.22,80Zm-4.48-21a1.12,1.12,0,0,1,0-2.24h5.6a1.12,1.12,0,1,1,0,2.24Zm.06,7.48a1.12,1.12,0,0,1,0-2.24h5.6a1.12,1.12,0,1,1,0,2.24Zm0,3.61a1.12,1.12,0,0,1,0-2.24h5.6a1.12,1.12,0,1,1,0,2.24Zm4.45,5.63c0-.51,0-1,0-1.43-.05-.67-.59-.76-1.79-.76-1.79,0-1.79,0-1.79,2.16,0,.5,0,1,0,1.46s.14.67,1.7.67,1.82-.28,1.85-.7S287.25,76.31,287.25,75.81Zm8.87-7.59a1.33,1.33,0,0,1,1.35-1.34,1.2,1.2,0,0,1,1.2,1.34c0,.73-.05,1.43-.11,2.13,0,.05,0,.11,0,.17a6.21,6.21,0,0,0,.48,1.87,15.24,15.24,0,0,0,2.43-2.57.91.91,0,0,1,.81-.45,1.44,1.44,0,0,1,1.32,1.37c0,.92-2,2.58-3.5,3.53a9.38,9.38,0,0,0,4.65,3.44,1.32,1.32,0,0,1,1,1.29,1.36,1.36,0,0,1-1.37,1.4c-1.32,0-4.9-2.18-6.77-6.13a10.57,10.57,0,0,1-7.12,6.38,1.3,1.3,0,0,1-1.28-1.31,1.15,1.15,0,0,1,.89-1.15c4.79-1.54,6-5.24,6-9.49v-.48Zm2.47-8.29a6.54,6.54,0,0,0,.45,1.79,14.36,14.36,0,0,0,2.8-2.82,1,1,0,0,1,.84-.48,1.52,1.52,0,0,1,1.4,1.46c0,.28-.23,1.42-3.95,3.72a8.89,8.89,0,0,0,4.42,3.05,1.29,1.29,0,0,1,1,1.23,1.35,1.35,0,0,1-1.37,1.35c-1.46,0-4.9-2.38-6.55-5.66a10.06,10.06,0,0,1-6.25,5.88,1.24,1.24,0,0,1-1.23-1.26A1.16,1.16,0,0,1,291,67.1c4-1.68,5.12-4.73,5.12-8.65,0-.28,0-.59,0-.9v0a1.3,1.3,0,0,1,1.31-1.32c1.21,0,1.24,1.12,1.24,2a15.9,15.9,0,0,1-.09,1.71ZM291.2,74.44a1.14,1.14,0,0,1,.11-.48,11.32,11.32,0,0,0,.31-3.53,1,1,0,0,1,1.06-1c.62,0,1.23.34,1.26.92,0,.42,0,.87,0,1.32,0,3.08-.67,3.72-1.6,3.72A1.1,1.1,0,0,1,291.2,74.44Zm.25-11.12a1.14,1.14,0,0,1,.11-.48,11.11,11.11,0,0,0,.31-3.5,1,1,0,0,1,1.06-1c.62,0,1.24.34,1.26.93,0,.42,0,.86,0,1.31,0,2.24-.36,3.7-1.6,3.7A1.1,1.1,0,0,1,291.45,63.32Z"/><path class="cls-2" d="M40.16,67.65a5.45,5.45,0,0,0,.11-.86,9.62,9.62,0,0,0,0-1.11c-.35-6-6.61-10.84-14.28-10.84-7.89,0-14.29,5.09-14.29,11.37,0,5.77,5.41,10.53,12.41,11.27a.77.77,0,0,1,.69.85L24.49,81a.78.78,0,0,0,1.12.78C31.52,79,35.06,76,37.17,73.47c.39-.47,1.64-2.22,1.9-2.68A9.78,9.78,0,0,0,40.16,67.65Z"/><path class="cls-3" d="M18.13,68.51V63.72A.73.73,0,0,0,17.4,63h0a.73.73,0,0,0-.73.73v5.52a.73.73,0,0,0,.73.73h2.92a.73.73,0,0,0,.73-.73h0a.73.73,0,0,0-.73-.73Z"/><path class="cls-3" d="M22.64,70h-.32a.56.56,0,0,1-.57-.57V63.56a.57.57,0,0,1,.57-.57h.32a.58.58,0,0,1,.57.57V69.4A.57.57,0,0,1,22.64,70Z"/><path class="cls-3" d="M28.54,63.72v3.37l-3-3.86A.75.75,0,0,0,25,63a.76.76,0,0,0-.71.76v5.49A.73.73,0,0,0,25,70h0a.74.74,0,0,0,.74-.73V65.89s3,3.84,3,3.88a.75.75,0,0,0,.5.2.76.76,0,0,0,.74-.76V63.72a.74.74,0,0,0-.74-.73h0A.73.73,0,0,0,28.54,63.72Z"/><path class="cls-3" d="M35.49,63.72h0a.73.73,0,0,0-.73-.73H31.83a.73.73,0,0,0-.73.73v5.52a.73.73,0,0,0,.73.73h2.93a.73.73,0,0,0,.73-.73h0a.73.73,0,0,0-.73-.73h-2.2v-1.3h2.2a.73.73,0,0,0,.73-.73h0a.73.73,0,0,0-.73-.73h-2.2v-1.3h2.2A.73.73,0,0,0,35.49,63.72Z"/></g></g></svg>