<svg xmlns="http://www.w3.org/2000/svg" viewBox="0 0 426.7 32.25"><defs><style>.cls-1{fill:none;stroke:#fff;stroke-linecap:round;stroke-linejoin:round;stroke-width:1px;stroke-dasharray:5 5;}.cls-2{fill:#fff;}</style></defs><title>Asset 3</title><g id="Layer_2" data-name="Layer 2"><g id="Layer_1-2" data-name="Layer 1"><line class="cls-1" x1="0.5" y1="31.75" x2="426.21" y2="31.75"/><path class="cls-2" d="M160.44,12c-.4-.55-1.21-1.53-1.93-2.34v7.13h-1.66V9.42a21,21,0,0,1-2.84,4.7,10.8,10.8,0,0,0-.85-1.61,18.58,18.58,0,0,0,3.37-5.43h-3V5.49h3.29V2.9c-1,.2-1.94.34-2.86.47a6.21,6.21,0,0,0-.51-1.28A29.72,29.72,0,0,0,160.15.38l1.18,1.24a20.77,20.77,0,0,1-2.82.92v3h2.93V7.08h-2.93v.81c.66.57,2.5,2.36,2.93,2.79Zm7.77,4.83a17.65,17.65,0,0,0-.39-1.73c-2.81.4-5.71.77-7.84,1.05l-.39-1.77,1.65-.16A107.94,107.94,0,0,0,163.86.67l1.89.3A122.44,122.44,0,0,1,163,14c1.35-.15,2.86-.29,4.36-.47a38,38,0,0,0-1.66-4.09l1.6-.48A31.81,31.81,0,0,1,170,16.24Z"/><path class="cls-2" d="M180.31,1.42c-.09.38-.2.83-.27,1.23s-.26,1.4-.42,2.21c.72-.05,1.37-.09,1.79-.09,1.71,0,3,.72,3,3.21a17.5,17.5,0,0,1-1,6.46A2.68,2.68,0,0,1,180.67,16a10.25,10.25,0,0,1-2.13-.27l-.3-1.87a9.88,9.88,0,0,0,2.19.37,1.41,1.41,0,0,0,1.46-.84,14.35,14.35,0,0,0,.79-5.21c0-1.53-.68-1.78-1.81-1.78-.37,0-1,0-1.63.09A35.79,35.79,0,0,1,175.57,16l-1.85-.74c1.78-2.37,3.06-6.21,3.69-8.62-.81.09-1.53.16-1.95.22s-1.26.16-1.76.25l-.18-1.95a16.64,16.64,0,0,0,1.73,0c.57,0,1.53-.09,2.52-.18a21.28,21.28,0,0,0,.43-3.81Zm6.41,2.32a34,34,0,0,1,2.93,6l-1.78.84a20.61,20.61,0,0,0-3.12-6.55l1.68-.74.29.4a20.27,20.27,0,0,0-1.44-2.49l1.17-.48a27.8,27.8,0,0,1,1.46,2.48ZM188.81,3A16.75,16.75,0,0,0,187.33.49L188.5,0A24.93,24.93,0,0,1,190,2.47Z"/><path class="cls-2" d="M197.1,10.1v4.74c0,.86-.18,1.29-.7,1.53a6.14,6.14,0,0,1-2.56.3,6.29,6.29,0,0,0-.48-1.51c.79,0,1.54,0,1.76,0s.36-.09.36-.36V10.55c-.77.22-1.5.43-2.18.61l-.45-1.6c.74-.16,1.64-.4,2.63-.65V5.37h-2.4V3.82h2.4V.29h1.62V3.82h2.05V5.37H197.1V8.48L199,8l.19,1.53Zm12.26,6H198.49V14.58h10.87Zm-1.21-3.62h-8.37v-11h8.37Zm-1.67-9.45H201.4V6.21h5.08Zm0,4.7H201.4V11h5.08Z"/><path class="cls-2" d="M221.9,6.54h5.8V16.82h-1.78v-.76H214.09V14.39h11.83V12H215.06v-1.6h10.86V8.21H214.45V6.54h5.64V.29h1.81Zm-5.56-.76a15.94,15.94,0,0,0-2.2-4.14L215.66,1a15.54,15.54,0,0,1,2.28,4.05ZM228,1.46a38.06,38.06,0,0,1-2.51,4.41L224,5.33A28,28,0,0,0,226.14.86Z"/><path class="cls-2" d="M238.2,1.31a18,18,0,0,0-.2,2c-.08,2-.22,6.09-.22,8.57,0,1.87,1.19,2.52,2.72,2.52a7.27,7.27,0,0,0,6.27-3.67L248,12.33a9,9,0,0,1-7.58,4c-2.71,0-4.53-1.17-4.53-4.12,0-2.54.18-7.13.18-8.86a10.64,10.64,0,0,0-.18-2Z"/><path class="cls-2" d="M266.19,15.3a13.57,13.57,0,0,0-4-2.59c0,.36,0,.67,0,.92,0,1.35-1,2.59-3.3,2.59-2.7,0-4.16-1-4.16-2.79s1.6-2.88,4.27-2.88c.45,0,.88,0,1.31.07,0-.66-.05-1.38-.07-2h-1c-1.13,0-3.15-.09-4.39-.24V6.66a30.06,30.06,0,0,0,4.4.34h.92V4.75h-.89a34.7,34.7,0,0,1-4.05-.27V2.84a26.85,26.85,0,0,0,4,.35h.91v-1A10.26,10.26,0,0,0,260.19,1h1.91c0,.33-.09.72-.11,1.21,0,.2,0,.52,0,.88a41.16,41.16,0,0,0,4.45-.45l0,1.64c-1.3.13-2.79.29-4.48.36V7c1.76-.09,3.33-.25,4.86-.47l0,1.69c-1.66.2-3.14.31-4.85.38,0,.81.07,1.66.13,2.43a14.12,14.12,0,0,1,5.09,2.76Zm-5.78-3.13A9.36,9.36,0,0,0,258.8,12c-1.51,0-2.32.57-2.32,1.31s.67,1.28,2.2,1.28c1,0,1.75-.29,1.75-1.44,0-.25,0-.59,0-1"/><path class="cls-2" d="M288.07,5c-1.06,0-2.73-.09-5.32-.09,0,1,0,2,0,2.79a4.33,4.33,0,0,1,.63,2.38c0,2.38-1.26,5.17-5.49,6.39l-1.53-1.51c2.09-.47,3.73-1.24,4.59-2.58a2.86,2.86,0,0,1-1.24.26,3,3,0,0,1-3-3.12A3.23,3.23,0,0,1,280,6.27a3.45,3.45,0,0,1,1,.12V4.88c-2.7,0-5.62.14-7.83.29l-.06-1.73c2,0,5.33-.13,7.87-.16,0-.38,0-.7,0-.9,0-.45-.09-1-.14-1.3h2.05c0,.23-.09,1-.09,1.3s0,.52,0,.88h5.33ZM280,11c.92,0,1.61-.74,1.37-2.43A1.45,1.45,0,0,0,280,7.76a1.61,1.61,0,0,0-1.61,1.68A1.55,1.55,0,0,0,280,11"/><path class="cls-2" d="M144.71,10.5a2,2,0,0,0-.4,4v.44a1.21,1.21,0,0,1-1.21,1.2h-1.6a1.2,1.2,0,0,1-1.2-1.2V13.58a.79.79,0,0,0,.4-.68V11.21a4.09,4.09,0,0,0,3.61-3.91,3.77,3.77,0,0,0-.89-2.38,1.22,1.22,0,0,0,.09-.43A1.21,1.21,0,1,0,142.3,5.7a1.16,1.16,0,0,0,.59-.17,3,3,0,0,1,.62,1.77,3.29,3.29,0,0,1-2.82,3.11.8.8,0,0,0-.79-.71.79.79,0,0,0-.78.71A3.29,3.29,0,0,1,136.3,7.3a3,3,0,0,1,.61-1.77,1.22,1.22,0,0,0,.59.17,1.21,1.21,0,1,0-1.12-.78,3.76,3.76,0,0,0-.88,2.38,4.09,4.09,0,0,0,3.6,3.91V12.9a.81.81,0,0,0,.4.68V14.9a2,2,0,0,0,2,2h1.6a2,2,0,0,0,2-2v-.44a2,2,0,0,0-.39-4m0,2.4a.4.4,0,1,1,.39-.4.39.39,0,0,1-.39.4"/></g></g></svg>