<svg xmlns="http://www.w3.org/2000/svg" viewBox="0 0 426.7 33.81"><defs><style>.cls-1{fill:none;stroke:#fff;stroke-linecap:round;stroke-linejoin:round;stroke-width:1px;stroke-dasharray:5 5;}.cls-2{fill:#fff;}</style></defs><title>Asset 4</title><g id="Layer_2" data-name="Layer 2"><g id="Layer_1-2" data-name="Layer 1"><line class="cls-1" x1="0.5" y1="33.31" x2="426.21" y2="33.31"/><path class="cls-2" d="M183.86,15.72H170.08v.79h-1.67V.92h15v1.6H170.08v11.6h13.78ZM178,8.91c.94,1.71,2.75,2.79,5.27,3.21a5.54,5.54,0,0,0-1,1.4,8,8,0,0,1-5.15-3.22c-.73,1.24-2.25,2.41-5.15,3.28a6,6,0,0,0-1-1.25c3.42-.9,4.63-2.16,5-3.42H171V7.47h5.08V5.67h-2.54A10.29,10.29,0,0,1,172.32,7a10.29,10.29,0,0,0-1.41-.84,8.26,8.26,0,0,0,2.63-3.53l1.59.39a9.36,9.36,0,0,1-.58,1.19h7.72V5.67h-4.5v1.8h5.31V8.91Z"/><path class="cls-2" d="M203.35,6.46A9.49,9.49,0,0,1,202,7.64a8.25,8.25,0,0,0,2,1.06,5.51,5.51,0,0,0-1,1.19,8.73,8.73,0,0,1-1.3-.72v3.31H198.4V15c0,.74-.14,1.1-.68,1.31a7.41,7.41,0,0,1-2.47.24,5.25,5.25,0,0,0-.52-1.35c.77,0,1.53,0,1.76,0s.31-.06.31-.25V12.48h-3.24V9.2a15.29,15.29,0,0,1-1.32.78,3.86,3.86,0,0,0-.93-1.05c-.15,2.56-.72,5.56-2.54,7.6a7,7,0,0,0-1.19-1.12,9,9,0,0,0,2-5.11c-.68.43-1.37.85-2,1.21l-.53-1.5c.71-.3,1.66-.81,2.71-1.35,0-.47,0-.92,0-1.35V1.55h5.75V0h1.74V1.55h6.47V3H191.36V7.31c0,.47,0,1,0,1.5a10.57,10.57,0,0,0,2-1.21c-.38-.34-.85-.7-1.25-1l.89-.76c.39.27.88.63,1.29,1a8.93,8.93,0,0,0,1-1.12h-3.1V4.39H196a7.76,7.76,0,0,0,.54-1.4l1.57.2a11.9,11.9,0,0,1-.47,1.2h6v1.3H200a8.18,8.18,0,0,0,1.13,1.24,10.23,10.23,0,0,0,1.24-1.19Zm-15,.72a14.4,14.4,0,0,0-1.06-3.54l1.23-.51a13.86,13.86,0,0,1,1.15,3.46Zm6.88,6a10.51,10.51,0,0,1-2.83,3.06,6.82,6.82,0,0,0-1.24-1,8,8,0,0,0,2.56-2.49Zm5-4.63H195v.92h5.24Zm0,1.91H195v.94h5.24Zm-3.32-4.79a10.65,10.65,0,0,1-1.38,1.84h4.23a10.22,10.22,0,0,1-1.35-1.84Zm3.91,7.11a17.48,17.48,0,0,1,2.67,2.76l-1.35.72a15.33,15.33,0,0,0-2.6-2.81Z"/><path class="cls-2" d="M222.47,11.09a9.88,9.88,0,0,1-2.07,2.85c.45.77,1,1.19,1.55,1.19s.66-.4.75-1.91a3.85,3.85,0,0,0,1.12.73c-.25,2-.72,2.6-2,2.6a3,3,0,0,1-2.54-1.68,13.1,13.1,0,0,1-2.94,1.64,6.29,6.29,0,0,0-.9-1.08,10.88,10.88,0,0,0,3.23-1.8,15.93,15.93,0,0,1-.9-3.2h-2.45c0,.3-.07.59-.11.88a16.19,16.19,0,0,1,2.3,1.69l-.88,1.15a15.18,15.18,0,0,0-1.71-1.4,6.29,6.29,0,0,1-2.36,3.74,3.68,3.68,0,0,0-1-1.09c1.61-1.12,2.07-3,2.25-5h-1.2v-.9l-.62.86c-.21-.56-.66-1.53-1.09-2.38v8.5h-1.52V8.93a18.16,18.16,0,0,1-1.72,4.25,8.91,8.91,0,0,0-.78-1.4,21.28,21.28,0,0,0,2.36-6.45h-2V3.8h2.12V0h1.52V3.8h1.78V5.33h-1.78V6.1c.45.65,1.49,2.36,1.85,3h4.79A68.49,68.49,0,0,1,217,0h1.48c0,1,0,2.07,0,3.06l.58-.79.36.27a18.08,18.08,0,0,0,1-2.42l1.3.49c-.51.88-1.05,1.89-1.48,2.61a6.38,6.38,0,0,1,.63.67c.4-.69.76-1.35,1-1.93l1.18.56c-.73,1.22-1.65,2.66-2.48,3.78l1.53-.11c-.13-.3-.25-.61-.4-.88l1-.4a9.75,9.75,0,0,1,1,2.63l-1,.47c0-.21-.11-.47-.18-.72l-1.82.2a8.49,8.49,0,0,1,1.67,1.22l-.38.36h1.44v1.34h-4.24a17,17,0,0,0,.55,2.12,8.18,8.18,0,0,0,1.26-2ZM213,6.64c.38-.48.76-1.06,1.16-1.67a12.1,12.1,0,0,0-1.86-1.76l.67-.92.36.29c.38-.78.75-1.73,1-2.44l1.27.51c-.48.88-1,1.89-1.45,2.61.23.21.45.45.63.65.39-.69.75-1.35,1-1.93l1.19.56c-.77,1.3-1.75,2.83-2.63,4l1.39-.09c-.11-.34-.25-.68-.38-1l1-.34a9.54,9.54,0,0,1,.92,2.63l-1,.43a5.87,5.87,0,0,0-.13-.59c-1.24.14-2.41.27-3.47.36l-.24-1.28Zm6.25-.23c.32-.41.67-.92,1-1.44a12.88,12.88,0,0,0-1.75-1.69A49.71,49.71,0,0,0,219,9.09h2a10.37,10.37,0,0,0-1.21-.88l.75-.7L219,7.69l-.25-1.24Z"/><path class="cls-2" d="M229.39,6.61v9.92h-1.65V.72h6.68V6.61Zm0-3.51h3.46V1.93h-3.46Zm3.46,1.1H229.4V5.44h3.45Zm9.78,10.44c0,.84-.15,1.31-.69,1.58a5.47,5.47,0,0,1-2.39.29,7.72,7.72,0,0,0-.38-1.37c-.14.2-.25.38-.34.54a6.28,6.28,0,0,1-3.67-2.5,6.56,6.56,0,0,1-3.86,2.52,5.65,5.65,0,0,0-1-1.12c2.31-.61,3.28-1.53,3.68-2.41h-3.44V11h3.69V9.74h-3.4V8.52h1.69a6.17,6.17,0,0,0-.71-1.34l1.28-.39A6,6,0,0,1,234,8.52h2.14a12.89,12.89,0,0,0,.76-1.75l1.51.45c-.27.45-.57.9-.84,1.3h1.87V9.74h-3.73V11h4v1.22H236a5.57,5.57,0,0,0,3.73,2.29,3.48,3.48,0,0,0-.44.48c.6,0,1.18,0,1.38,0s.28-.09.28-.32v-8h-5.16V.72h6.82ZM237.41,3.1H241V1.93h-3.56ZM241,4.2h-3.56V5.46H241Z"/><path class="cls-2" d="M261.85,15a.46.46,0,0,0,.33-.09.91.91,0,0,0,.14-.41,15.62,15.62,0,0,0,.05-1.91,4.09,4.09,0,0,0,1.07.59,17.21,17.21,0,0,1-.15,2.23,1.27,1.27,0,0,1-.5.78,1.67,1.67,0,0,1-.83.2h-.81a1.29,1.29,0,0,1-1-.33c-.27-.25-.32-.54-.32-1.42V12.53a13,13,0,0,1-3.71,4,8.14,8.14,0,0,0-1.08-1A13.08,13.08,0,0,0,256.81,14l-.5.19c-.06-.28-.15-.63-.26-1-1.45.58-3,1.16-4.21,1.61l-.65-1.52,1.16-.34V8.88l-.8,1.29a17.72,17.72,0,0,0-1.08-1.73v8.07h-1.55V9.27a17.48,17.48,0,0,1-1.65,4,8.67,8.67,0,0,0-.81-1.44,22.13,22.13,0,0,0,2.34-6.63h-2V3.71h2.1V0h1.55V3.71H252V5.22h-1.5V6.61a25.93,25.93,0,0,1,1.88,2.05V1h4.48V8.66h-3.1v3.89c.61-.18,1.24-.4,1.89-.59-.25-.67-.52-1.35-.81-2l1.3-.45a26.32,26.32,0,0,1,1.46,3.64,11.34,11.34,0,0,0,2.28-4.38h-2.73V7.38h.79v-5h-.69V.92H263V2.36H261.8V3.94a23.8,23.8,0,0,1-.22,3.44h1.62V8.82h-1.89c0,.17-.09.31-.12.47V14.6c0,.11,0,.24.07.29a.38.38,0,0,0,.27.09ZM253.73,4.09h1.71V2.3h-1.71Zm1.71,1.31h-1.71V7.31h1.71Zm4.74,2a20.59,20.59,0,0,0,.25-3.45V2.36h-1.24v5Z"/><path class="cls-2" d="M279.4,11.06a7.62,7.62,0,0,1-2,2.62c1.89.51,3.6,1.05,4.9,1.53l-1,1.37a50.39,50.39,0,0,0-5.56-1.83,22.75,22.75,0,0,1-8.21,1.78,4.28,4.28,0,0,0-.63-1.46,26,26,0,0,0,6.44-.94c-.85-.21-1.71-.39-2.59-.59l-.29.4-1.6-.53c.5-.64,1.11-1.47,1.73-2.35h-4V9.69h4.91c.33-.49.65-1,.92-1.43h-4.59V3.48h3.92V2.18H267V.7h15.43V2.18h-5v1.3h4.29V8.26h-7.71l.27.08c-.27.43-.55.88-.86,1.35h9.42v1.37Zm-10-4.15h2.35V4.83h-2.35Zm3.11,4.15-.9,1.27c1.28.26,2.58.54,3.82.85a6.17,6.17,0,0,0,2.07-2.12Zm.85-7.58h2.5V2.18h-2.5Zm2.5,1.35h-2.5V6.91h2.5Zm1.58,2.08h2.63V4.83h-2.63Z"/><path class="cls-2" d="M144.41,6.7h-3.24v9.56h3.24ZM143.31,13h-1V12h1Zm0-2.08h-1V9.94h1Zm-1-3h1v.92h-1Z"/><path class="cls-2" d="M153.73,16.26H157V6.7h-3.25Zm1.1-8.4h1v.92h-1Zm0,2.08h1v.93h-1Zm1,3h-1V12h1Z"/><path class="cls-2" d="M145.34,16.26h1.18V14.11h5.1v2.15h1.19V2.53h-7.47ZM149.59,13h-1V12h1Zm0-2.08h-1V9.94h1Zm0-2.08h-1V7.86h1ZM151.68,13h-1V12h1Zm0-2.08h-1V9.94h1Zm0-2.08h-1V7.86h1Zm-4.17-4.06h1.1V3.63h.92v1.1h1.11v.93h-1.11v1.1h-.92V5.66h-1.1Zm-1,3.13h1v.92h-1Zm0,2.08h1v.93h-1Zm0,2.09h1V13h-1Z"/></g></g></svg>