<svg xmlns="http://www.w3.org/2000/svg" viewBox="0 0 92 92"><defs><style>.cls-1{fill:#f5b5a7;}.cls-2{fill:#fff;}</style></defs><g id="Layer_2" data-name="Layer 2"><g id="レイヤー_2" data-name="レイヤー 2"><path class="cls-1" d="M83.41,72.77a46.12,46.12,0,1,0-12,11.59l15.34,3.7Z"/><path class="cls-2" d="M22,38.72H19.73l1.86-14.3h3a11,11,0,0,1,2.46.19,3.58,3.58,0,0,1,1.34.66,3.34,3.34,0,0,1,1,1.27,4,4,0,0,1,.34,1.69,4.79,4.79,0,0,1-.39,2,3.92,3.92,0,0,1-1.15,1.46,3.85,3.85,0,0,1-1.51.72,11.78,11.78,0,0,1-2.69.22H22.76ZM23,30.57h.76a5.75,5.75,0,0,0,2.87-.5,1.94,1.94,0,0,0,.77-1.74,1.6,1.6,0,0,0-.65-1.45,5,5,0,0,0-2.49-.42h-.72Z"/><path class="cls-2" d="M37.5,29.1A4.69,4.69,0,0,1,41,30.37a4.49,4.49,0,0,1,1.29,3.37,5.17,5.17,0,0,1-1.51,3.84,5.35,5.35,0,0,1-3.89,1.51,4.68,4.68,0,0,1-3.39-1.24,4.44,4.44,0,0,1-1.27-3.3,5.36,5.36,0,0,1,1.48-3.92A5.15,5.15,0,0,1,37.5,29.1Zm0,1.86a2.9,2.9,0,0,0-2.28,1,3.76,3.76,0,0,0-.88,2.58,2.78,2.78,0,0,0,.66,2,2.39,2.39,0,0,0,1.82.71,3,3,0,0,0,2.33-1A3.7,3.7,0,0,0,40,33.68a2.86,2.86,0,0,0-.66-2A2.43,2.43,0,0,0,37.52,31Z"/><path class="cls-2" d="M45.63,38.7l1.22-9.26H49L47.73,38.7ZM47,26.2a1.16,1.16,0,0,1,.37-.88,1.26,1.26,0,0,1,.89-.37,1.18,1.18,0,0,1,.88.36,1.19,1.19,0,0,1,.36.88,1.22,1.22,0,0,1-.36.9,1.18,1.18,0,0,1-.88.36,1.15,1.15,0,0,1-.9-.36A1.21,1.21,0,0,1,47,26.2Z"/><path class="cls-2" d="M59.15,38.69l.7-5.33,0-.3c0-.11,0-.27,0-.48a2,2,0,0,0-.44-1.39,1.64,1.64,0,0,0-1.28-.48,2.59,2.59,0,0,0-2.05.84,4.89,4.89,0,0,0-1,2.6l-.58,4.54h-2.1l1.22-9.26h2l-.16,1.11a5.82,5.82,0,0,1,1.66-1.08A4.61,4.61,0,0,1,59,29.11a3.1,3.1,0,0,1,2.22.74,2.75,2.75,0,0,1,.8,2.1c0,.22,0,.49,0,.79s-.07.66-.12,1.06l-.64,4.88Z"/><path class="cls-2" d="M66,38.68l1-7.46h-1.6l.24-1.8h1.58l.46-3.5h2.1l-.44,3.51H71l-.24,1.8H69.11l-1,7.46Z"/><path class="cls-2" d="M42.84,57.21A19,19,0,0,1,42.26,62a13.25,13.25,0,0,1-1.68,4,7.18,7.18,0,0,1-2.49,2.45,6.39,6.39,0,0,1-3.23.82,5,5,0,0,1-4.32-2.06A9.9,9.9,0,0,1,29,61.24a18.91,18.91,0,0,1,.57-4.8,13.77,13.77,0,0,1,1.69-4A7.15,7.15,0,0,1,33.75,50,6.35,6.35,0,0,1,37,49.21a5,5,0,0,1,4.34,2.06A9.94,9.94,0,0,1,42.84,57.21Zm-6.1-5.4c-1.41,0-2.55.88-3.4,2.64a16.53,16.53,0,0,0-1.27,7.1,7.69,7.69,0,0,0,.74,3.79A2.36,2.36,0,0,0,35,66.6q2.19,0,3.48-2.59a15.66,15.66,0,0,0,1.3-7A8.24,8.24,0,0,0,39,53.06,2.45,2.45,0,0,0,36.74,51.81Z"/><path class="cls-2" d="M52.57,68.69l2.17-16.54H50.93l1.39-2.57H58L55.51,68.69Z"/></g></g></svg>