<svg xmlns="http://www.w3.org/2000/svg" viewBox="0 0 297.13 24.51"><defs><style>.cls-1{fill:#fff;}.cls-2{fill:none;stroke:#fff;stroke-width:0.5px;}</style></defs><title>Asset 1</title><g id="Layer_2" data-name="Layer 2"><g id="Layer_1-2" data-name="Layer 1"><path class="cls-1" d="M16.34,4.77A1.15,1.15,0,0,1,16,6.09a4.54,4.54,0,0,0-.91,1.68,20.08,20.08,0,0,1-2.21,4.43,24.19,24.19,0,0,1-4,4.66,17.44,17.44,0,0,1-4.24,3,20.26,20.26,0,0,1-3.43,1.54c-.54.15-.9.15-1,0s.09-.39.42-.51.7-.35,1.75-.89a19.12,19.12,0,0,0,4.12-2.65,18.72,18.72,0,0,0,4-4.39,23.9,23.9,0,0,0,2.15-4c.39-1.08.67-2.16.85-2.79.15-.45.24-.84,0-1s-.75-.06-1.41,0a26.75,26.75,0,0,0-3.6.38c-1.26.23-2.58.59-3.66.73a2.89,2.89,0,0,1-2.4-.52c-.66-.45-.89-1.2-.62-1.44a1,1,0,0,1,1,0,5.9,5.9,0,0,0,1.71.37,22.21,22.21,0,0,0,3.24-.14C9.23,4.35,11.12,4.15,12,4a4,4,0,0,0,1.74-.41,1.25,1.25,0,0,1,1.38-.11,3.1,3.1,0,0,1,1.23,1.26m3.81-.19c-.67.3-1.23.11-1.38-.16a.59.59,0,0,1,.42-.81,1,1,0,0,0,.75-.95,1,1,0,0,0-1.37-1.09c-.81.15-1,1.11-.58,1.89.15.33.24.69,0,.84s-.6-.15-.87-.75a2.18,2.18,0,0,1,2-3.3,2.17,2.17,0,0,1,2.14,3,2,2,0,0,1-1.17,1.32"/><path class="cls-2" d="M16.34,4.77A1.15,1.15,0,0,1,16,6.09a4.54,4.54,0,0,0-.91,1.68,20.08,20.08,0,0,1-2.21,4.43,24.19,24.19,0,0,1-4,4.66,17.44,17.44,0,0,1-4.24,3,20.26,20.26,0,0,1-3.43,1.54c-.54.15-.9.15-1,0s.09-.39.42-.51.7-.35,1.75-.89a19.12,19.12,0,0,0,4.12-2.65,18.72,18.72,0,0,0,4-4.39,23.9,23.9,0,0,0,2.15-4c.39-1.08.67-2.16.85-2.79.15-.45.24-.84,0-1s-.75-.06-1.41,0a26.75,26.75,0,0,0-3.6.38c-1.26.23-2.58.59-3.66.73a2.89,2.89,0,0,1-2.4-.52c-.66-.45-.89-1.2-.62-1.44a1,1,0,0,1,1,0,5.9,5.9,0,0,0,1.71.37,22.21,22.21,0,0,0,3.24-.14C9.23,4.35,11.12,4.15,12,4a4,4,0,0,0,1.74-.41,1.25,1.25,0,0,1,1.38-.11A3.1,3.1,0,0,1,16.34,4.77Zm3.81-.19c-.67.3-1.23.11-1.38-.16a.59.59,0,0,1,.42-.81,1,1,0,0,0,.75-.95,1,1,0,0,0-1.37-1.09c-.81.15-1,1.11-.58,1.89.15.33.24.69,0,.84s-.6-.15-.87-.75a2.18,2.18,0,0,1,2-3.3,2.17,2.17,0,0,1,2.14,3A2,2,0,0,1,20.15,4.58Z"/><path class="cls-1" d="M32.25,22.84c-.39.12-.66,0-.72-.12s.09-.27.51-.42a13.31,13.31,0,0,0,1.74-.74,22.64,22.64,0,0,0,3.85-2.36,18.37,18.37,0,0,0,4.1-4.15,18,18,0,0,0,2.64-5.38c.27-.9.09-1.32-.78-1.27s-1.92.11-3,.26-2.94.47-4.32.61A4.58,4.58,0,0,1,33,8.6c-.66-.55-1-1.3-.62-1.66s.84,0,1.29.16a7.22,7.22,0,0,0,1.82.46A16.85,16.85,0,0,0,39,7.48c1.15-.11,3.43-.25,4.27-.34a2.91,2.91,0,0,0,1.5-.53.88.88,0,0,1,1-.12c.27.18.78.6,1.31,1.06s.81,1,.75,1.23-.33.33-.72.39-.58.59-1,1.49a21.66,21.66,0,0,1-3,5.06A27.45,27.45,0,0,1,38,20.29a17,17,0,0,1-5.71,2.55M45.35,4.18c-.24.3-1,.24-1.89,0a8.94,8.94,0,0,0-2.82,0c-.84.06-2.16.29-3.45.43a3.88,3.88,0,0,1-2.7-.37c-.63-.42-1-1.2-.62-1.44s.69,0,1.13.15a10.09,10.09,0,0,0,3.54.14c1.33-.14,2.59-.38,3.43-.53a3.38,3.38,0,0,1,2.43.23c.71.36,1.19,1,1,1.41"/><path class="cls-2" d="M32.25,22.84c-.39.12-.66,0-.72-.12s.09-.27.51-.42a13.31,13.31,0,0,0,1.74-.74,22.64,22.64,0,0,0,3.85-2.36,18.37,18.37,0,0,0,4.1-4.15,18,18,0,0,0,2.64-5.38c.27-.9.09-1.32-.78-1.27s-1.92.11-3,.26-2.94.47-4.32.61A4.58,4.58,0,0,1,33,8.6c-.66-.55-1-1.3-.62-1.66s.84,0,1.29.16a7.22,7.22,0,0,0,1.82.46A16.85,16.85,0,0,0,39,7.48c1.15-.11,3.43-.25,4.27-.34a2.91,2.91,0,0,0,1.5-.53.88.88,0,0,1,1-.12c.27.18.78.6,1.31,1.06s.81,1,.75,1.23-.33.33-.72.39-.58.59-1,1.49a21.66,21.66,0,0,1-3,5.06A27.45,27.45,0,0,1,38,20.29,17,17,0,0,1,32.25,22.84ZM45.35,4.18c-.24.3-1,.24-1.89,0a8.94,8.94,0,0,0-2.82,0c-.84.06-2.16.29-3.45.43a3.88,3.88,0,0,1-2.7-.37c-.63-.42-1-1.2-.62-1.44s.69,0,1.13.15a10.09,10.09,0,0,0,3.54.14c1.33-.14,2.59-.38,3.43-.53a3.38,3.38,0,0,1,2.43.23C45.11,3.13,45.59,3.82,45.35,4.18Z"/><path class="cls-1" d="M60.66,15.59a18.61,18.61,0,0,0,1.92-1,33,33,0,0,0,4.58-3.07c1.74-1.41,3.4-2.81,4.75-4.15s2.2-2.33,2.75-3S75.17,3.35,75,3s-.23-.78,0-.9c.63-.39,1.77.31,2.15.79a1.4,1.4,0,0,1,.27,1.44,5,5,0,0,1-1.18,1.23c-.54.44-1.53,1.25-2.53,2.17L72.3,9.07a3.91,3.91,0,0,1,1.08.3c.65.31,1.1.67,1.19,1.15s-.18.72-.3,1.2a20.31,20.31,0,0,0-.17,2.76c-.06,1-.07,2.34,0,3.6s.08,2.76.07,3.84-.31,1.76-1.09,1.73-1-1.2-1-1.74A23.15,23.15,0,0,0,72.37,19c0-1.17.1-2.67.17-4s.07-2.13,0-3a3.75,3.75,0,0,0-.35-1.92,1,1,0,0,0-.6-.42c-.3.23-.57.47-.84.71a39,39,0,0,1-4.27,3,31.83,31.83,0,0,1-3.1,1.7,15.25,15.25,0,0,1-2.58,1c-.42.12-.63-.4-.18-.54"/><path class="cls-2" d="M60.66,15.59a18.61,18.61,0,0,0,1.92-1,33,33,0,0,0,4.58-3.07c1.74-1.41,3.4-2.81,4.75-4.15s2.2-2.33,2.75-3S75.17,3.35,75,3s-.23-.78,0-.9c.63-.39,1.77.31,2.15.79a1.4,1.4,0,0,1,.27,1.44,5,5,0,0,1-1.18,1.23c-.54.44-1.53,1.25-2.53,2.17L72.3,9.07a3.91,3.91,0,0,1,1.08.3c.65.31,1.1.67,1.19,1.15s-.18.72-.3,1.2a20.31,20.31,0,0,0-.17,2.76c-.06,1-.07,2.34,0,3.6s.08,2.76.07,3.84-.31,1.76-1.09,1.73-1-1.2-1-1.74A23.15,23.15,0,0,0,72.37,19c0-1.17.1-2.67.17-4s.07-2.13,0-3a3.75,3.75,0,0,0-.35-1.92,1,1,0,0,0-.6-.42c-.3.23-.57.47-.84.71a39,39,0,0,1-4.27,3,31.83,31.83,0,0,1-3.1,1.7,15.25,15.25,0,0,1-2.58,1C60.42,16.25,60.21,15.73,60.66,15.59Z"/><path class="cls-1" d="M88.85,18.05c0-.18.39-.3.75-.36a7.79,7.79,0,0,0,2.49-.88,16.09,16.09,0,0,0,4.07-2.72,16.49,16.49,0,0,0,3.4-4.24c.22-.36.43-.84.13-1.08a3.28,3.28,0,0,0-1.08-.64c-.33-.15-.51-.36-.51-.54s.25-.33.79-.32a4.37,4.37,0,0,1,1.82.39,2,2,0,0,1,1,3,17.37,17.37,0,0,1-4.82,4.66,15.53,15.53,0,0,1-3.76,2.05,11.5,11.5,0,0,1-3.36.94c-.6.06-1,0-1-.24m18.8-12.13a10.2,10.2,0,0,0-1.73-1.38.48.48,0,0,1-.27-.61.7.7,0,0,1,.54-.08,5.18,5.18,0,0,1,1.62.33,4,4,0,0,1,1.79,1.24.71.71,0,0,1-.45,1.08,1.76,1.76,0,0,1-1.5-.58m4.77,7.19c.74,1.15.8,2.35,0,2.7a1.64,1.64,0,0,1-2.1-1.15,18.71,18.71,0,0,0-1.42-2.94,9,9,0,0,0-2.18-2.65c-.45-.36-.75-.6-.54-.84s.6-.06,1.11.18a11.44,11.44,0,0,1,2.84,1.93,10.48,10.48,0,0,1,2.33,2.77M110,4.7a4.27,4.27,0,0,0-1.83-1.23.43.43,0,0,1-.27-.6c.1-.12.34-.12.49-.12a5.11,5.11,0,0,1,1.64.3,3.52,3.52,0,0,1,1.83,1.12.71.71,0,0,1-.34,1.11A1.6,1.6,0,0,1,110,4.7"/><path class="cls-2" d="M88.85,18.05c0-.18.39-.3.75-.36a7.79,7.79,0,0,0,2.49-.88,16.09,16.09,0,0,0,4.07-2.72,16.49,16.49,0,0,0,3.4-4.24c.22-.36.43-.84.13-1.08a3.28,3.28,0,0,0-1.08-.64c-.33-.15-.51-.36-.51-.54s.25-.33.79-.32a4.37,4.37,0,0,1,1.82.39,2,2,0,0,1,1,3,17.37,17.37,0,0,1-4.82,4.66,15.53,15.53,0,0,1-3.76,2.05,11.5,11.5,0,0,1-3.36.94C89.21,18.35,88.85,18.26,88.85,18.05Zm18.8-12.13a10.2,10.2,0,0,0-1.73-1.38.48.48,0,0,1-.27-.61.7.7,0,0,1,.54-.08,5.18,5.18,0,0,1,1.62.33,4,4,0,0,1,1.79,1.24.71.71,0,0,1-.45,1.08A1.76,1.76,0,0,1,107.65,5.92Zm4.77,7.19c.74,1.15.8,2.35,0,2.7a1.64,1.64,0,0,1-2.1-1.15,18.71,18.71,0,0,0-1.42-2.94,9,9,0,0,0-2.18-2.65c-.45-.36-.75-.6-.54-.84s.6-.06,1.11.18a11.44,11.44,0,0,1,2.84,1.93A10.48,10.48,0,0,1,112.42,13.11ZM110,4.7a4.27,4.27,0,0,0-1.83-1.23.43.43,0,0,1-.27-.6c.1-.12.34-.12.49-.12a5.11,5.11,0,0,1,1.64.3,3.52,3.52,0,0,1,1.83,1.12.71.71,0,0,1-.34,1.11A1.6,1.6,0,0,1,110,4.7Z"/><path class="cls-1" d="M121.82,11c0-.42,1.08-.3,1.89-.27a8,8,0,0,1,2.52.52,4.38,4.38,0,0,1,1.55,1.09,1.21,1.21,0,0,1,.09,1.8,1.29,1.29,0,0,1-1.71-.46,7.15,7.15,0,0,0-1.59-1.41,4.94,4.94,0,0,0-2-.88c-.57-.12-.78-.15-.75-.39m8.35-3.21a1.25,1.25,0,0,1,.24,1.71,1.21,1.21,0,0,1-1.59.06,7.66,7.66,0,0,1-1.62-1.45,4.42,4.42,0,0,0-2.72-1.6c-.45-.09-.66-.22-.66-.39s.45-.33.81-.33a8.9,8.9,0,0,1,1.35.09,12.08,12.08,0,0,1,2.19.61,5.29,5.29,0,0,1,2,1.3m12.09.36a30.66,30.66,0,0,1-3,3.94c-1.2,1.32-1.83,1.94-3.7,3.71a33.73,33.73,0,0,1-5.78,4.29,6.86,6.86,0,0,1-3.25,1.22,2.08,2.08,0,0,1-1.85-1.3c-.3-.63-.39-1.35,0-1.53s.57-.06,1,.24a2.41,2.41,0,0,0,1.4.49c.78,0,1.93-.56,3.91-1.73a32.89,32.89,0,0,0,3.82-2.68,29,29,0,0,0,4-3.52c1.08-1.23,2.35-2.9,2.83-3.59s1-1.4,1.3-1.22.15.69-.52,1.68"/><path class="cls-2" d="M121.82,11c0-.42,1.08-.3,1.89-.27a8,8,0,0,1,2.52.52,4.38,4.38,0,0,1,1.55,1.09,1.21,1.21,0,0,1,.09,1.8,1.29,1.29,0,0,1-1.71-.46,7.15,7.15,0,0,0-1.59-1.41,4.94,4.94,0,0,0-2-.88C122,11.3,121.79,11.27,121.82,11Zm8.35-3.21a1.25,1.25,0,0,1,.24,1.71,1.21,1.21,0,0,1-1.59.06,7.66,7.66,0,0,1-1.62-1.45,4.42,4.42,0,0,0-2.72-1.6c-.45-.09-.66-.22-.66-.39s.45-.33.81-.33a8.9,8.9,0,0,1,1.35.09,12.08,12.08,0,0,1,2.19.61A5.29,5.29,0,0,1,130.17,7.82Zm12.09.36a30.66,30.66,0,0,1-3,3.94c-1.2,1.32-1.83,1.94-3.7,3.71a33.73,33.73,0,0,1-5.78,4.29,6.86,6.86,0,0,1-3.25,1.22,2.08,2.08,0,0,1-1.85-1.3c-.3-.63-.39-1.35,0-1.53s.57-.06,1,.24a2.41,2.41,0,0,0,1.4.49c.78,0,1.93-.56,3.91-1.73a32.89,32.89,0,0,0,3.82-2.68,29,29,0,0,0,4-3.52c1.08-1.23,2.35-2.9,2.83-3.59s1-1.4,1.3-1.22S142.93,7.19,142.26,8.18Z"/><path class="cls-1" d="M173.53,13.86c-.06.36-.49.48-1.11.36s-2.31-.31-3.39-.41-3.45-.22-4.56-.17-3.27.14-4.68.28c-1.11.12-2.41.41-3.45.44a4.8,4.8,0,0,1-2.7-.79c-.6-.46-.84-1.15-.51-1.39.52-.38,1.38,0,2.13.19a12.37,12.37,0,0,0,3.27.35c1.23-.06,3.78-.17,5.07-.19s4.77-.16,6-.18a9.66,9.66,0,0,1,3.09.31,1.23,1.23,0,0,1,.87,1.2"/><path class="cls-2" d="M173.53,13.86c-.06.36-.49.48-1.11.36s-2.31-.31-3.39-.41-3.45-.22-4.56-.17-3.27.14-4.68.28c-1.11.12-2.41.41-3.45.44a4.8,4.8,0,0,1-2.7-.79c-.6-.46-.84-1.15-.51-1.39.52-.38,1.38,0,2.13.19a12.37,12.37,0,0,0,3.27.35c1.23-.06,3.78-.17,5.07-.19s4.77-.16,6-.18a9.66,9.66,0,0,1,3.09.31A1.23,1.23,0,0,1,173.53,13.86Z"/><path class="cls-1" d="M183.7,20a1.1,1.1,0,0,1,.64-1.53,7.23,7.23,0,0,0,1.77-1.28,5.47,5.47,0,0,0,1.3-1.59c.15-.3.33-.65.63-.62s.42.33.42.78a5.09,5.09,0,0,1-.73,2.61,4.9,4.9,0,0,1-1.93,1.94c-.75.32-1.68.38-2.1-.31m.41-11.19c.33-.3,1.2.13,1.95.28a9.93,9.93,0,0,0,2.58.19l4.83-.16c0-1-.06-1.71-.11-2.22a3.3,3.3,0,0,0-.65-1.77c-.42-.45-.78-1-.63-1.35s.54-.45,1.08-.33a3.41,3.41,0,0,1,1.71,1,1.5,1.5,0,0,1,.44,1.71,5.63,5.63,0,0,0-.22,1.65V9l2.7-.17c1.2-.11,2.52-.35,3.42-.5a2.48,2.48,0,0,1,1.95.22c.51.31.9.64.84,1.09s-.61.56-1.33.44a15.77,15.77,0,0,0-2.76-.22c-1.19,0-3.45.1-4.86.22,0,.78,0,1.59,0,2.28,0,1.62-.13,3.51-.08,4.59s.23,2.64.23,3.45a3.56,3.56,0,0,1-.49,2.31.86.86,0,0,1-1.29.2c-.51-.3-.54-1.08-.77-1.77a2.69,2.69,0,0,0-1.35-1.6c-.45-.18-.3-.6,0-.54s.51.06,1.11.13.85-.27.91-.84,0-1.41.07-2.94.1-2.46.11-4.44v-.72c-1,.09-2,.2-3.15.29a31,31,0,0,1-3.45.28,3.2,3.2,0,0,1-2.28-.58c-.62-.51-.83-1-.47-1.38m20.33,9.42c.56,1.44.29,2.1-.4,2.43a1.43,1.43,0,0,1-1.68-.58,5.62,5.62,0,0,1-.74-2.16,5.25,5.25,0,0,0-1.1-2.41c-.33-.39-.45-.57-.27-.84s.45-.15.81,0a6.13,6.13,0,0,1,1.5.88,5.27,5.27,0,0,1,1.88,2.68m.11-11.76c-.63.3-1.2.14-1.35-.16s0-.63.42-.77a1.11,1.11,0,0,0,.73-1A1,1,0,0,0,203,3.52c-.81.15-.93,1.08-.58,1.89.18.3.3.69.06.81s-.6-.15-.87-.75a2.18,2.18,0,0,1,2.06-3.29,2.15,2.15,0,0,1,2.12,3,2,2,0,0,1-1.21,1.34"/><path class="cls-2" d="M184.11,8.84c.33-.3,1.2.13,1.95.28a9.93,9.93,0,0,0,2.58.19l4.83-.16c0-1-.06-1.71-.11-2.22a3.3,3.3,0,0,0-.65-1.77c-.42-.45-.78-1-.63-1.35s.54-.45,1.08-.33a3.41,3.41,0,0,1,1.71,1,1.5,1.5,0,0,1,.44,1.71,5.63,5.63,0,0,0-.22,1.65V9l2.7-.17c1.2-.11,2.52-.35,3.42-.5a2.48,2.48,0,0,1,1.95.22c.51.31.9.64.84,1.09s-.61.56-1.33.44a15.77,15.77,0,0,0-2.76-.22c-1.19,0-3.45.1-4.86.22,0,.78,0,1.59,0,2.28,0,1.62-.13,3.51-.08,4.59s.23,2.64.23,3.45a3.56,3.56,0,0,1-.49,2.31.86.86,0,0,1-1.29.2c-.51-.3-.54-1.08-.77-1.77a2.69,2.69,0,0,0-1.35-1.6c-.45-.18-.3-.6,0-.54s.51.06,1.11.13.85-.27.91-.84,0-1.41.07-2.94.1-2.46.11-4.44v-.72c-1,.09-2,.2-3.15.29a31,31,0,0,1-3.45.28,3.2,3.2,0,0,1-2.28-.58C184,9.71,183.75,9.2,184.11,8.84ZM204.55,6.5c-.63.3-1.2.14-1.35-.16s0-.63.42-.77a1.11,1.11,0,0,0,.73-1A1,1,0,0,0,203,3.52c-.81.15-.93,1.08-.58,1.89.18.3.3.69.06.81s-.6-.15-.87-.75a2.18,2.18,0,0,1,2.06-3.29,2.15,2.15,0,0,1,2.12,3A2,2,0,0,1,204.55,6.5Z"/><path class="cls-1" d="M218.7,23.72a20.86,20.86,0,0,0,2.73-1.1,12.52,12.52,0,0,0,4.15-3,10.74,10.74,0,0,0,2.54-4.58,20.26,20.26,0,0,0,.66-5.18,39.48,39.48,0,0,0-.19-4.32,2,2,0,0,0-.81-1.6c-.42-.36-.75-.69-.44-1s.75-.39,1.77,0a3.32,3.32,0,0,1,1.22.72,1.26,1.26,0,0,1,.57,1.15,6.26,6.26,0,0,0-.13,1.11c0,.69.08,2,.08,3.84a15.39,15.39,0,0,1-1,5.78,12.12,12.12,0,0,1-2.69,4.28,14.31,14.31,0,0,1-3.73,2.8,20.26,20.26,0,0,1-4.57,1.63c-.45.12-.75.06-.81-.12s.27-.24.61-.36m4.87-16.87a29.58,29.58,0,0,0,0,3.33c0,1.68.08,3.39.14,4.23a3,3,0,0,1-.52,1.92.66.66,0,0,1-1,.15c-.24-.27-.36-.67-.3-1.71s.11-2.67.17-4.35,0-2.52,0-3.48a1.73,1.73,0,0,0-.68-1.63c-.39-.3-.78-.57-.66-.9s.45-.33,1.17-.2a3,3,0,0,1,1.77,1c.41.49.05,1.08-.07,1.65"/><path class="cls-2" d="M218.7,23.72a20.86,20.86,0,0,0,2.73-1.1,12.52,12.52,0,0,0,4.15-3,10.74,10.74,0,0,0,2.54-4.58,20.26,20.26,0,0,0,.66-5.18,39.48,39.48,0,0,0-.19-4.32,2,2,0,0,0-.81-1.6c-.42-.36-.75-.69-.44-1s.75-.39,1.77,0a3.32,3.32,0,0,1,1.22.72,1.26,1.26,0,0,1,.57,1.15,6.26,6.26,0,0,0-.13,1.11c0,.69.08,2,.08,3.84a15.39,15.39,0,0,1-1,5.78,12.12,12.12,0,0,1-2.69,4.28,14.31,14.31,0,0,1-3.73,2.8,20.26,20.26,0,0,1-4.57,1.63c-.45.12-.75.06-.81-.12S218.36,23.84,218.7,23.72Zm4.87-16.87a29.58,29.58,0,0,0,0,3.33c0,1.68.08,3.39.14,4.23a3,3,0,0,1-.52,1.92.66.66,0,0,1-1,.15c-.24-.27-.36-.67-.3-1.71s.11-2.67.17-4.35,0-2.52,0-3.48a1.73,1.73,0,0,0-.68-1.63c-.39-.3-.78-.57-.66-.9s.45-.33,1.17-.2a3,3,0,0,1,1.77,1C224.05,5.69,223.69,6.28,223.57,6.85Z"/><path class="cls-1" d="M245.42,11.57c0-.42,1.08-.3,1.89-.26a7.72,7.72,0,0,1,2.52.52,4.14,4.14,0,0,1,1.55,1.09,1.2,1.2,0,0,1,.08,1.8,1.3,1.3,0,0,1-1.7-.46,7.19,7.19,0,0,0-1.59-1.42,5.08,5.08,0,0,0-2-.88c-.57-.12-.78-.15-.75-.39m8.35-3.2a1.25,1.25,0,0,1,.24,1.71,1.21,1.21,0,0,1-1.59.05,7.15,7.15,0,0,1-1.62-1.45,4.47,4.47,0,0,0-2.72-1.6c-.45-.09-.66-.21-.66-.39s.45-.33.81-.33a9.29,9.29,0,0,1,1.35.1,10.65,10.65,0,0,1,2.19.61,5.06,5.06,0,0,1,2,1.3m12.09.35a30.66,30.66,0,0,1-3.05,3.95c-1.2,1.31-1.84,1.94-3.7,3.7a33.73,33.73,0,0,1-5.78,4.29,6.75,6.75,0,0,1-3.25,1.22,2.08,2.08,0,0,1-1.85-1.3c-.3-.63-.39-1.35,0-1.53s.57-.06,1,.25a2.34,2.34,0,0,0,1.4.48c.78,0,1.93-.56,3.91-1.72a35.56,35.56,0,0,0,3.82-2.68,29,29,0,0,0,3.95-3.53c1.08-1.22,2.35-2.9,2.83-3.58s1-1.41,1.3-1.23.14.69-.52,1.68"/><path class="cls-2" d="M245.42,11.57c0-.42,1.08-.3,1.89-.26a7.72,7.72,0,0,1,2.52.52,4.14,4.14,0,0,1,1.55,1.09,1.2,1.2,0,0,1,.08,1.8,1.3,1.3,0,0,1-1.7-.46,7.19,7.19,0,0,0-1.59-1.42,5.08,5.08,0,0,0-2-.88C245.6,11.84,245.39,11.81,245.42,11.57Zm8.35-3.2a1.25,1.25,0,0,1,.24,1.71,1.21,1.21,0,0,1-1.59.05,7.15,7.15,0,0,1-1.62-1.45,4.47,4.47,0,0,0-2.72-1.6c-.45-.09-.66-.21-.66-.39s.45-.33.81-.33a9.29,9.29,0,0,1,1.35.1,10.65,10.65,0,0,1,2.19.61A5.06,5.06,0,0,1,253.77,8.37Zm12.09.35a30.66,30.66,0,0,1-3.05,3.95c-1.2,1.31-1.84,1.94-3.7,3.7a33.73,33.73,0,0,1-5.78,4.29,6.75,6.75,0,0,1-3.25,1.22,2.08,2.08,0,0,1-1.85-1.3c-.3-.63-.39-1.35,0-1.53s.57-.06,1,.25a2.34,2.34,0,0,0,1.4.48c.78,0,1.93-.56,3.91-1.72a35.56,35.56,0,0,0,3.82-2.68,29,29,0,0,0,3.95-3.53c1.08-1.22,2.35-2.9,2.83-3.58s1-1.41,1.3-1.23S266.52,7.73,265.86,8.72Z"/><path class="cls-1" d="M297.13,14.41c-.07.36-.49.47-1.12.35s-2.3-.31-3.38-.4a43.14,43.14,0,0,0-4.56-.17c-1.08.08-3.27.13-4.68.28-1.12.11-2.41.41-3.46.43a4.69,4.69,0,0,1-2.69-.79c-.6-.45-.84-1.14-.51-1.38.51-.39,1.38,0,2.13.19a12.42,12.42,0,0,0,3.27.34c1.23,0,3.78-.16,5.07-.19s4.77-.16,6-.18a9.66,9.66,0,0,1,3.09.31,1.25,1.25,0,0,1,.87,1.21"/></g></g></svg>