<svg xmlns="http://www.w3.org/2000/svg" viewBox="0 0 279.32 24.62"><defs><style>.cls-1{fill:#fff;}</style></defs><title>Asset 5</title><g id="Layer_2" data-name="Layer 2"><g id="Layer_1-2" data-name="Layer 1"><path class="cls-1" d="M11.26.94a2.2,2.2,0,0,1,1.64.46A2.22,2.22,0,0,1,13.39,3V9.07h5.49a2.43,2.43,0,0,1,2.65,2.76v9.75c0,1.49-.92,2.24-2.76,2.24H1.61C.54,23.82,0,23.2,0,22s.37-1.82,1.12-1.82h16c.21,0,.31,0,.31-.1V18.12H2.24a1.71,1.71,0,0,1-1.3-.44,1.79,1.79,0,0,1-.45-1.4A1.78,1.78,0,0,1,1,14.87a2.11,2.11,0,0,1,1.23-.31H17.47V13c0-.21-.14-.31-.41-.31H1.22C.51,12.64.14,12.09.1,11c0-1.29.44-1.93,1.3-1.93H9.13V3a2.07,2.07,0,0,1,.49-1.56A2.14,2.14,0,0,1,11.26.94M2.52,2a2.05,2.05,0,0,1,1.74.7A7.32,7.32,0,0,1,5.51,4.84,4.39,4.39,0,0,1,6,6.53a1.4,1.4,0,0,1-.44,1.14,2,2,0,0,1-1.48.6A2.11,2.11,0,0,1,2.81,8a1.06,1.06,0,0,1-.39-.6C2,6.49,1.32,5.41.47,4.11A.75.75,0,0,1,.39,3.8,2.25,2.25,0,0,1,.57,3a2,2,0,0,1,1-.84A2.23,2.23,0,0,1,2.52,2M19.6,1.77A2.26,2.26,0,0,1,21,2.29a1.55,1.55,0,0,1,.83,1.3,1.9,1.9,0,0,1-.26,1A4.78,4.78,0,0,1,20.67,6a7.58,7.58,0,0,1-2.08,2.05,1.63,1.63,0,0,1-1,.42,2.59,2.59,0,0,1-1.69-.68,1.75,1.75,0,0,1-.65-1.38,1.54,1.54,0,0,1,.39-.8c.19-.2.39-.43.62-.71l1.3-1.53c.38-.54.66-.91.83-1.12a1.92,1.92,0,0,1,1.22-.49"/><path class="cls-1" d="M32.66,2.26H47A2.43,2.43,0,0,1,49.71,5V21.27A2.41,2.41,0,0,1,47,24H32.66a2.43,2.43,0,0,1-2.76-2.73V5a2.44,2.44,0,0,1,2.76-2.76m1.11,8.84H45.86V6.94a1,1,0,0,0-1.11-1.12H34.89a1,1,0,0,0-1.12,1.12Zm11,9.26a1,1,0,0,0,1.11-1.12V14.66H33.77v4.58a1,1,0,0,0,1.12,1.12Z"/><path class="cls-1" d="M79.46,12.92a9.51,9.51,0,0,1-2.86,7.15,11.23,11.23,0,0,1-5.13,2.84,5.92,5.92,0,0,1-.93.18,1.88,1.88,0,0,1-1.41-.57,2.07,2.07,0,0,1-.54-1.43,1.67,1.67,0,0,1,1.27-1.62A12.85,12.85,0,0,0,74,17.19a5.66,5.66,0,0,0,1.69-4.27q0-5.28-5.46-5.87c0,.31,0,.64,0,1a19.33,19.33,0,0,1-2.34,9.26q-2.55,4.65-5.85,4.65a4.21,4.21,0,0,1-3.8-2.26,8.27,8.27,0,0,1-1.12-4.29,11.9,11.9,0,0,1,3-8.5A11.26,11.26,0,0,1,68.8,3.54a11.74,11.74,0,0,1,7.67,2.31,8.66,8.66,0,0,1,3,7.07M66.51,8a7.64,7.64,0,0,0,0-.8A6.85,6.85,0,0,0,62.27,10a9.12,9.12,0,0,0-1.51,5.38c0,1.89.44,2.83,1.33,2.83.45,0,1-.4,1.64-1.22a11.24,11.24,0,0,0,1.87-3.46A16.38,16.38,0,0,0,66.51,8"/><path class="cls-1" d="M105.25,22.36a37.5,37.5,0,0,1-8.58.78,17.76,17.76,0,0,1-5.9-.86q-3.61-1.22-3.62-4.11A5.86,5.86,0,0,1,88,14.82a1.93,1.93,0,0,1,1.66-1,1.66,1.66,0,0,1,1.67,1.77,2.94,2.94,0,0,1-.24,1,3.61,3.61,0,0,0-.21.94c0,.71.49,1.2,1.46,1.46a18.16,18.16,0,0,0,4.37.36,33.23,33.23,0,0,0,7.64-.68,3.51,3.51,0,0,1,.55-.05,1.7,1.7,0,0,1,1.32.57,2.08,2.08,0,0,1,.5,1.36,1.7,1.7,0,0,1-1.43,1.79M103.51,5.62a1.75,1.75,0,0,1-.45,1.22,2,2,0,0,1-1.45.67,46.54,46.54,0,0,1-4.89.24c-1.44,0-3.41-.11-5.9-.31-1.37-.14-2.06-.79-2.06-1.95a1.7,1.7,0,0,1,.58-1.3,1.92,1.92,0,0,1,1.56-.47c2.27.19,3.83.28,4.68.28,1.8,0,3.67-.07,5.61-.2a2.16,2.16,0,0,1,1.77.49,1.78,1.78,0,0,1,.55,1.33m3.09-1a.81.81,0,0,1-.36.65,1,1,0,0,1-.68.29,1.14,1.14,0,0,1-1-.57c-.21-.37-.59-1-1.15-1.82a2.17,2.17,0,0,1-.47-1.15q0-.93,1.2-.93a1.29,1.29,0,0,1,1,.52,10.07,10.07,0,0,1,1.3,2.05,2.42,2.42,0,0,1,.18,1m3-1.11c0,.62-.35.93-1,.93a1.08,1.08,0,0,1-1-.54l-1.17-1.85A2.17,2.17,0,0,1,106,.94c0-.63.4-.94,1.2-.94a1.21,1.21,0,0,1,1,.52,9.38,9.38,0,0,1,1.32,2.05,2.43,2.43,0,0,1,.19,1"/><path class="cls-1" d="M124.05,1a1.39,1.39,0,0,1,1.27.52,1.72,1.72,0,0,1,.55,1.33,1.32,1.32,0,0,1-.6,1.22,13.63,13.63,0,0,1-3.36,1.45v2.6h2.73a2,2,0,0,1,1.36.39,1.68,1.68,0,0,1,.39,1.33,1.76,1.76,0,0,1-.32,1.17,1.73,1.73,0,0,1-1.43.57h-2.73v1.77a1.12,1.12,0,0,1,.29-.21,2.67,2.67,0,0,1,1.12-.23,1,1,0,0,1,.62.18,8.31,8.31,0,0,1,1.41,1.56c1.16,1.73,1.74,3,1.74,3.82a1,1,0,0,1-.5,1,2,2,0,0,1-1.43.44,1.33,1.33,0,0,1-1.22-.8c-.67-1.44-1.35-2.74-2-3.9v7.64a1.59,1.59,0,0,1-.44,1.3,2.1,2.1,0,0,1-2.57,0,1.63,1.63,0,0,1-.44-1.3V17.13a13.61,13.61,0,0,1-2.24,4.35A1.44,1.44,0,0,1,115,22a1.55,1.55,0,0,1-1.28-.6,2.31,2.31,0,0,1-.54-1.53,2.91,2.91,0,0,1,.41-1.33,43.52,43.52,0,0,0,4.06-6.89h-2.24a2,2,0,0,1-1.32-.41,1.72,1.72,0,0,1-.42-1.33,1.66,1.66,0,0,1,.42-1.33,1.89,1.89,0,0,1,1.32-.39h3V6.37c-.84.14-1.72.26-2.66.36s-1.57-.6-1.61-1.71c0-.94.39-1.48,1.12-1.64a46,46,0,0,0,7.8-2,3.82,3.82,0,0,1,.94-.31m4.75.83a1.73,1.73,0,0,1,1.25.42,1.51,1.51,0,0,1,.5,1.19V16.9a1.75,1.75,0,0,1-.34,1.07,1.68,1.68,0,0,1-1.41.54,1.51,1.51,0,0,1-1.24-.54,1.55,1.55,0,0,1-.37-1.07V3.48a1.56,1.56,0,0,1,.47-1.19,1.42,1.42,0,0,1,1.14-.42M134.29,1c1.14,0,1.73.48,1.74,1.43v19.4a2.17,2.17,0,0,1-1.09,1.92,5.09,5.09,0,0,1-3.07.83,5.65,5.65,0,0,1-2.75-.7A1.93,1.93,0,0,1,128,22.07q0-1.92,1.53-2.13a.72.72,0,0,1,.39.13,7.19,7.19,0,0,0,2,.5c.47,0,.7-.28.7-.84V2.47c0-.88.59-1.36,1.72-1.43"/><path class="cls-1" d="M146.85,2.47h14.84a2.33,2.33,0,0,1,2.63,2.65V20.85A6.3,6.3,0,0,1,164,23.5a1.58,1.58,0,0,1-1.46.81,11.38,11.38,0,0,1-3.82-.47,1.57,1.57,0,0,1-1.07-1.56,2.7,2.7,0,0,1,.42-1.66.9.9,0,0,1,.8-.37h1.75c.12,0,.18-.14.18-.41V17.32H156v4.86a1.68,1.68,0,0,1-.47,1.35,1.81,1.81,0,0,1-1.38.47,1.85,1.85,0,0,1-1.35-.47,1.68,1.68,0,0,1-.47-1.35V17.32h-4.68a20,20,0,0,1-1.3,5.87,1.84,1.84,0,0,1-1.95,1.33c-1.19-.07-1.83-.58-1.92-1.54a4.91,4.91,0,0,1,.62-2,29.19,29.19,0,0,0,1.2-8.66V5.12c0-1.77.85-2.65,2.55-2.65m1,11.49h4.49V11.62h-4.47v.7c0,.58,0,1.12,0,1.64m0-5.69h4.47V6h-4.05q-.42,0-.42.39ZM156,6V8.27h4.76V6.53c0-.33-.13-.5-.39-.5ZM156,14h4.76V11.62H156Z"/><path class="cls-1" d="M177.29,4.73a3,3,0,0,1-.07.44,38.38,38.38,0,0,0-1.23,9c0,.62,0,1.82.13,3.59s.08,3.12.08,4.08a1.52,1.52,0,0,1-.62,1.19,2.39,2.39,0,0,1-1.54.52,1.7,1.7,0,0,1-1.06-.36,1.24,1.24,0,0,1-.5-1q-.18-3-.18-7.57a40.17,40.17,0,0,1,1.2-10.09A1.79,1.79,0,0,1,175.34,3a2.2,2.2,0,0,1,1.41.44,1.53,1.53,0,0,1,.54,1.25m16.25,15.55a1.69,1.69,0,0,1-1.35,1.85,22.15,22.15,0,0,1-4.81.36,15.27,15.27,0,0,1-6.32-1,4.53,4.53,0,0,1-2.44-4.45,4.79,4.79,0,0,1,.81-2.52c.53-.87,1.11-1.3,1.74-1.3a2.18,2.18,0,0,1,1.43.44,1.44,1.44,0,0,1,.52,1.12,8.16,8.16,0,0,1-.42,1,3.42,3.42,0,0,0-.36,1.25q0,1.84,4.86,1.85a23.74,23.74,0,0,0,2.86-.18c1-.13,1.53-.19,1.64-.19,1.23,0,1.84.58,1.84,1.72m-.78-13.86a1.85,1.85,0,0,1-.49,1.33,1.83,1.83,0,0,1-1.61.44c-1-.1-2.28-.16-3.72-.16a44.31,44.31,0,0,0-4.94.26,1.71,1.71,0,0,1-1.48-.49A1.93,1.93,0,0,1,180,6.4c0-1,.63-1.6,1.87-1.72,1.75-.17,3.31-.26,4.66-.26s2.85.09,4.6.26a1.82,1.82,0,0,1,1.27.62,1.64,1.64,0,0,1,.39,1.12"/><path class="cls-1" d="M222.22,11.39q0,5.87-4.52,8.66a17.89,17.89,0,0,1-9.47,2.23,1.71,1.71,0,0,1-1.35-.54,1.8,1.8,0,0,1-.52-1.25,2.07,2.07,0,0,1,.44-1.41,1.78,1.78,0,0,1,1.43-.59q10.2,0,10.2-7.1a3.45,3.45,0,0,0-1.12-2.71,5.27,5.27,0,0,0-3.56-1.06,37.82,37.82,0,0,0-11.34,2,2.94,2.94,0,0,1-.65.07,1.64,1.64,0,0,1-1.33-.62,2.13,2.13,0,0,1-.49-1.43A1.71,1.71,0,0,1,201.27,6a41.14,41.14,0,0,1,12.48-2,9.16,9.16,0,0,1,6.13,2,6.65,6.65,0,0,1,2.34,5.36"/><path class="cls-1" d="M241,16.51a7,7,0,0,1-2,4.26q-2.16,2.44-4.14,2.45a4.21,4.21,0,0,1-3.92-2.63,18.85,18.85,0,0,1-1.38-6.52c-.07-1-.11-2.07-.11-3.07,0-.52.09-2.19.26-5a1.79,1.79,0,0,1,.71-1.33A2.6,2.6,0,0,1,232,4.21a1.79,1.79,0,0,1,1.32.5,1.8,1.8,0,0,1,.47,1.3c0,.13,0,1-.08,2.67,0,1.79-.08,3.2-.08,4.24a18.78,18.78,0,0,0,.39,4.16c.3,1.27.68,1.9,1.15,1.9.64,0,1.4-.88,2.29-2.65.43-.92,1-1.38,1.61-1.38,1.32,0,2,.52,2,1.56m9.23,1.85a1.65,1.65,0,0,1-.54,1.43,1.91,1.91,0,0,1-3.28-1.3,31.89,31.89,0,0,0-1-5.59,36,36,0,0,0-1.69-5.44,1.87,1.87,0,0,1-.21-.8,1.65,1.65,0,0,1,.63-1.33,2.1,2.1,0,0,1,1.4-.52A1.72,1.72,0,0,1,247.18,6a44.75,44.75,0,0,1,1.9,6.14,35,35,0,0,1,1.14,6.27"/><path class="cls-1" d="M279.32,4.81c.07,1.06-.57,1.71-1.93,2l-2.65.52a9.26,9.26,0,0,0-2.91,1.4,8.5,8.5,0,0,0-3.56,6.84A2.82,2.82,0,0,0,269.46,18c1,.7,2.84,1,5.49,1a1.67,1.67,0,0,1,1.87,1.9,1.83,1.83,0,0,1-.47,1.28,1.79,1.79,0,0,1-1.4.57q-10.45,0-10.45-7.31c0-2.81,1.32-5.48,3.95-8Q264,8,259.22,8.68a1.67,1.67,0,0,1-1.59-.49A2.1,2.1,0,0,1,257,6.71,1.55,1.55,0,0,1,258.65,5Q272.06,3,277.45,3a1.76,1.76,0,0,1,1.35.52,1.86,1.86,0,0,1,.52,1.25"/></g></g></svg>