<svg xmlns="http://www.w3.org/2000/svg" viewBox="0 0 278.88 23.76"><defs><style>.cls-1{fill:#fff;}</style></defs><title>Asset 4</title><g id="Layer_2" data-name="Layer 2"><g id="Layer_1-2" data-name="Layer 1"><path class="cls-1" d="M21.48,6.4q0,3.16-3.51,5.66A19.94,19.94,0,0,1,11.57,15a8.75,8.75,0,0,1-2.08,4.94,11,11,0,0,1-4.16,3,3.87,3.87,0,0,1-1.43.42c-1.33,0-2-.64-2-1.92,0-.54.41-1.05,1.22-1.54.47-.21,1.15-.56,2-1.06a5.66,5.66,0,0,0,2.47-3.46A19,19,0,0,0,8,11.08,1.58,1.58,0,0,1,8.53,9.8a1.92,1.92,0,0,1,1.35-.49,2.14,2.14,0,0,1,1.46.52,1.75,1.75,0,0,1,.59,1.4,7.39,7.39,0,0,0,3.41-1.61Q17.68,8,17.68,7.1c0-.31-.35-.47-1.07-.47H1.74A1.65,1.65,0,0,1,.49,6.11,1.75,1.75,0,0,1,0,4.89,1.49,1.49,0,0,1,.52,3.72a1.85,1.85,0,0,1,1.22-.44H18a3.58,3.58,0,0,1,2.45.83,2.87,2.87,0,0,1,1,2.29"/><path class="cls-1" d="M49.53,7.51q0,5.16-5.33,9.88a29,29,0,0,1-10,5.78,2.52,2.52,0,0,1-.7.1,1.59,1.59,0,0,1-1.3-.62,1.93,1.93,0,0,1-.5-1.36A1.68,1.68,0,0,1,33,19.6a26.42,26.42,0,0,0,8-4.36c2.58-2.08,4.13-4.17,4.63-6.27a1.81,1.81,0,0,0,.1-.49c0-.39-.31-.58-.93-.58H30.39A1.74,1.74,0,0,1,29,7.36,1.93,1.93,0,0,1,28.52,6,1.82,1.82,0,0,1,29,4.73a1.79,1.79,0,0,1,1.43-.62H46q3.56,0,3.56,3.4"/><path class="cls-1" d="M77.64,7.75A11.93,11.93,0,0,1,75.56,14,21,21,0,0,1,70,20a21,21,0,0,1-8.37,3.74,1.82,1.82,0,0,1-.45.05,1.65,1.65,0,0,1-1.32-.59,2.08,2.08,0,0,1-.47-1.33A1.75,1.75,0,0,1,60.84,20a17.64,17.64,0,0,0,7.33-3.53,23.19,23.19,0,0,0-2.75-1.69,1.84,1.84,0,0,1-.39-3,1.7,1.7,0,0,1,1.35-.57,1.81,1.81,0,0,1,.91.26L69,12.4l2,1.38A13,13,0,0,0,73.71,9a2,2,0,0,0,.08-.49.22.22,0,0,0-.21-.24H65.39a25.47,25.47,0,0,1-5.23,5.93,2,2,0,0,1-1.22.44A1.72,1.72,0,0,1,57.62,14a1.91,1.91,0,0,1-.57-1.35,1.73,1.73,0,0,1,.75-1.43,25.47,25.47,0,0,0,6.47-8.61,1.72,1.72,0,0,1,1.64-1.06,2,2,0,0,1,1.35.54,1.63,1.63,0,0,1,.6,1.28,2,2,0,0,1-.23.91l-.21.39H74c2.42,0,3.64,1,3.64,3"/><path class="cls-1" d="M108.26,12.64A2.1,2.1,0,0,1,107.8,14a1.67,1.67,0,0,1-1.41.71H86.27A1.75,1.75,0,0,1,84.84,14a2,2,0,0,1-.47-1.3,2.31,2.31,0,0,1,.5-1.43,1.65,1.65,0,0,1,1.4-.62h20.12a1.79,1.79,0,0,1,1.41.62,2,2,0,0,1,.46,1.33"/><path class="cls-1" d="M134.42,20.15a1.67,1.67,0,0,1-.36,1.2,1.7,1.7,0,0,1-1.25.62,59.78,59.78,0,0,1-9.07.73q-3.81,0-5.62-1.35c-1.4-1-2.11-2.68-2.11-5.07V4.19a1.78,1.78,0,0,1,.55-1.38,1.87,1.87,0,0,1,1.3-.5,1.78,1.78,0,0,1,1.3.45,1.73,1.73,0,0,1,.65,1.43V8.24q8.61-1.87,10.63-2.81a2.09,2.09,0,0,1,1-.23,1.72,1.72,0,0,1,1.23.68,2,2,0,0,1,.44,1.35,1.7,1.7,0,0,1-1.07,1.56q-2.66,1.31-12.27,3.3v4.19q0,1.78,1,2.31a9.45,9.45,0,0,0,3,.29,60.44,60.44,0,0,0,8.47-.63,1.91,1.91,0,0,1,1.56.5,2.09,2.09,0,0,1,.65,1.4m3.23-17.39a2.61,2.61,0,0,1-.89,2,2.88,2.88,0,0,1-2,.8,3,3,0,0,1-2.08-.75,2.59,2.59,0,0,1-.86-2,2.6,2.6,0,0,1,.81-2A2.91,2.91,0,0,1,134.76,0a2.88,2.88,0,0,1,2.05.78,2.53,2.53,0,0,1,.84,2m-1.72,0a1,1,0,0,0-.34-.81,1.2,1.2,0,0,0-.86-.31c-.79,0-1.19.38-1.19,1.14a1,1,0,0,0,.34.83,1.25,1.25,0,0,0,.85.32,1.18,1.18,0,0,0,.81-.34,1,1,0,0,0,.39-.83"/><path class="cls-1" d="M149,11.73a17,17,0,0,1-3.22,10.66,1.81,1.81,0,0,1-1.48.78,2.05,2.05,0,0,1-1.38-.63,1.77,1.77,0,0,1-.55-1.38,2,2,0,0,1,.42-1.06,13.48,13.48,0,0,0,2.42-8.37V5.23a1.8,1.8,0,0,1,.51-1.36A2,2,0,0,1,147,3.35a1.89,1.89,0,0,1,1.38.47A1.71,1.71,0,0,1,149,5.23Zm15.86,2.39q-3,5.85-6.21,7.93a4.74,4.74,0,0,1-2.5.91,3.09,3.09,0,0,1-2.76-1.48,5.82,5.82,0,0,1-.77-3.12v-14A1.72,1.72,0,0,1,153.14,3a2,2,0,0,1,1.33-.49,1.81,1.81,0,0,1,1.35.44,1.77,1.77,0,0,1,.57,1.41V17.68c0,.59.16.88.47.88s.5-.26.93-.78a24.89,24.89,0,0,0,3.7-5.4,1.75,1.75,0,0,1,1.56-1,1.93,1.93,0,0,1,1.4.52,1.67,1.67,0,0,1,.62,1.32,2,2,0,0,1-.23.94"/><path class="cls-1" d="M176.85,4.63a2.38,2.38,0,0,1-.08.44A38.71,38.71,0,0,0,175.55,14c0,.63,0,1.82.13,3.59s.08,3.13.08,4.08a1.54,1.54,0,0,1-.62,1.2,2.39,2.39,0,0,1-1.54.52,1.68,1.68,0,0,1-1.06-.36,1.25,1.25,0,0,1-.5-1q-.18-3-.18-7.56a40.11,40.11,0,0,1,1.2-10.09,1.78,1.78,0,0,1,1.84-1.48,2.22,2.22,0,0,1,1.41.44,1.53,1.53,0,0,1,.54,1.25M193.1,20.18A1.68,1.68,0,0,1,191.75,22a22,22,0,0,1-4.81.37,15.07,15.07,0,0,1-6.32-1A4.5,4.5,0,0,1,178.18,17a4.8,4.8,0,0,1,.8-2.52c.54-.87,1.12-1.3,1.75-1.3a2.13,2.13,0,0,1,1.43.44,1.42,1.42,0,0,1,.52,1.12,8.16,8.16,0,0,1-.42,1A3.37,3.37,0,0,0,181.9,17q0,1.85,4.86,1.84a23.74,23.74,0,0,0,2.86-.18c1-.12,1.53-.18,1.64-.18,1.23,0,1.84.57,1.84,1.72m-.78-13.86a1.81,1.81,0,0,1-.49,1.32,1.83,1.83,0,0,1-1.61.45,36.16,36.16,0,0,0-3.72-.16,44.18,44.18,0,0,0-4.94.26,1.73,1.73,0,0,1-1.48-.49,2,2,0,0,1-.55-1.41c0-1,.62-1.59,1.87-1.71a41.35,41.35,0,0,1,9.26,0,1.82,1.82,0,0,1,1.27.62,1.63,1.63,0,0,1,.39,1.12"/><path class="cls-1" d="M221.78,11.28q0,5.88-4.52,8.66a17.89,17.89,0,0,1-9.47,2.24,1.66,1.66,0,0,1-1.35-.55,1.74,1.74,0,0,1-.52-1.25,2,2,0,0,1,.44-1.4,1.75,1.75,0,0,1,1.43-.6q10.2,0,10.19-7.1a3.43,3.43,0,0,0-1.11-2.7,5.3,5.3,0,0,0-3.57-1.07,38.13,38.13,0,0,0-11.33,2,3,3,0,0,1-.65.08A1.67,1.67,0,0,1,200,9a2.15,2.15,0,0,1-.49-1.43,1.7,1.7,0,0,1,1.32-1.64A41.26,41.26,0,0,1,213.3,4a9.17,9.17,0,0,1,6.14,2,6.64,6.64,0,0,1,2.34,5.35"/><path class="cls-1" d="M240.55,16.41a7,7,0,0,1-2,4.26q-2.15,2.45-4.13,2.44a4.22,4.22,0,0,1-3.93-2.62A19.18,19.18,0,0,1,229.09,14c-.07-1-.11-2.06-.11-3.07,0-.52.09-2.18.26-5a1.77,1.77,0,0,1,.7-1.32,2.57,2.57,0,0,1,1.56-.47,1.79,1.79,0,0,1,1.33.49,1.82,1.82,0,0,1,.47,1.3c0,.14,0,1-.08,2.68s-.08,3.2-.08,4.24a18.84,18.84,0,0,0,.39,4.16c.3,1.26.68,1.9,1.15,1.9.64,0,1.4-.89,2.28-2.66.44-.91,1-1.37,1.62-1.37,1.31,0,2,.52,2,1.56m9.23,1.84a1.64,1.64,0,0,1-.54,1.43,2,2,0,0,1-2.68.05,1.79,1.79,0,0,1-.6-1.35,32.22,32.22,0,0,0-1-5.59,36.13,36.13,0,0,0-1.69-5.43,1.91,1.91,0,0,1-.21-.81,1.63,1.63,0,0,1,.63-1.32,2.1,2.1,0,0,1,1.4-.52,1.72,1.72,0,0,1,1.69,1.14,44.3,44.3,0,0,1,1.9,6.14,36,36,0,0,1,1.14,6.26"/><path class="cls-1" d="M278.88,4.71c.07,1-.57,1.7-1.93,2l-2.65.52a9,9,0,0,0-2.91,1.4,8.47,8.47,0,0,0-3.56,6.84A2.84,2.84,0,0,0,269,17.94q1.51,1,5.49,1a1.66,1.66,0,0,1,1.87,1.9,1.78,1.78,0,0,1-1.87,1.84q-10.45,0-10.45-7.3,0-4.22,3.95-8-4.44.53-9.23,1.2a1.69,1.69,0,0,1-1.59-.49,2.07,2.07,0,0,1-.59-1.49,1.54,1.54,0,0,1,1.61-1.71Q271.62,2.94,277,2.94a1.76,1.76,0,0,1,1.35.52,1.84,1.84,0,0,1,.52,1.25"/></g></g></svg>