<svg xmlns="http://www.w3.org/2000/svg" viewBox="0 0 244.28 23.58"><defs><style>.cls-1{fill:#fff;}</style></defs><title>Asset 3</title><g id="Layer_2" data-name="Layer 2"><g id="Layer_1-2" data-name="Layer 1"><path class="cls-1" d="M16.33,19.76a1.55,1.55,0,0,1-1.77,1.72H3.38Q0,21.48,0,18.43V4C0,2.67.64,2,1.92,2s1.82.67,1.82,2V16.9c0,.75.4,1.12,1.2,1.12h9.54c1.23,0,1.85.58,1.85,1.74"/><path class="cls-1" d="M24.1,20a1.72,1.72,0,0,1-2,1.93q-1.77,0-1.77-2v-16C20.36,2.64,21,2,22.13,2a1.72,1.72,0,0,1,2,1.93Z"/><path class="cls-1" d="M45.63,20c0,1.34-.56,2-1.66,2a2.32,2.32,0,0,1-1.9-1L32.53,8.68V20a1.73,1.73,0,0,1-2,1.93q-1.77,0-1.77-2v-16c0-1.29.59-1.93,1.77-1.93a2.42,2.42,0,0,1,2,1L41.89,15V3.93c0-1.29.59-1.93,1.76-1.93a1.73,1.73,0,0,1,2,1.93Z"/><path class="cls-1" d="M67.7,19.81c0,1.11-.61,1.67-1.84,1.67H53.32a3,3,0,0,1-2.23-.78,2.7,2.7,0,0,1-.78-2V5.23q0-2.76,2.88-2.76H65.7c1.13,0,1.69.61,1.69,1.82a1.49,1.49,0,0,1-.52,1.12,1.66,1.66,0,0,1-1.17.47H55.64a1.73,1.73,0,0,0-1.25.33,1.66,1.66,0,0,0-.31,1.17V10h10.4a1.46,1.46,0,0,1,1.17.52,1.77,1.77,0,0,1,.44,1.22,1.5,1.5,0,0,1-1.71,1.69H54.1v3.25c0,.92.57,1.38,1.7,1.38H66a1.61,1.61,0,0,1,1.24.52,1.74,1.74,0,0,1,.47,1.27"/><path class="cls-1" d="M94.87,0a3.28,3.28,0,0,1,2.45,1.17q1.74,1.63,4.57,4.11a1.66,1.66,0,0,1,.52,1.12,2,2,0,0,1-.57,1.43,1.88,1.88,0,0,1-1.38.62,1.77,1.77,0,0,1-1.27-.52,27.84,27.84,0,0,1-3.3-3.33c-.37-.48-.67-.73-.91-.73s-.44.17-.7.5A33.82,33.82,0,0,1,91,7.77a2.26,2.26,0,0,1-1.43.76A1.87,1.87,0,0,1,88,7.83a2.62,2.62,0,0,1-.39-.76,1.7,1.7,0,0,1-1,.26H80A1.62,1.62,0,0,1,78.81,7a1.44,1.44,0,0,1-.39-1.17,1.49,1.49,0,0,1,.39-1.2A1.65,1.65,0,0,1,80,4.26h6.71a1.64,1.64,0,0,1,1.19.37,1.09,1.09,0,0,1,.32.78q2.56-2.27,4.7-4.5a2.66,2.66,0,0,1,2-.91m-14,15h4.89A2,2,0,0,1,88,17.19v3.64a2,2,0,0,1-2.23,2.23H80.86a2,2,0,0,1-2.24-2.23V17.19A2,2,0,0,1,80.86,15M80.47,8h5.88a1.7,1.7,0,0,1,1.11.29,1.31,1.31,0,0,1,.32,1,1.51,1.51,0,0,1-.26,1,1.43,1.43,0,0,1-1.17.44H80.47a1.61,1.61,0,0,1-1.09-.31A1.42,1.42,0,0,1,79,9.36a1.25,1.25,0,0,1,.34-1A1.67,1.67,0,0,1,80.47,8m0,3.46h5.77a1.75,1.75,0,0,1,1.12.29,1.32,1.32,0,0,1,.31,1,1.51,1.51,0,0,1-.26,1,1.41,1.41,0,0,1-1.17.44H80.47a1.61,1.61,0,0,1-1.09-.31A1.42,1.42,0,0,1,79,12.82a1.25,1.25,0,0,1,.34-1,1.67,1.67,0,0,1,1.09-.29M80.57.62h5.57a1.44,1.44,0,0,1,1,.29c.22.16.33.53.33,1.12a1.79,1.79,0,0,1-.2,1,1.34,1.34,0,0,1-1.12.44H80.57a1.33,1.33,0,0,1-1-.34A1.33,1.33,0,0,1,79.25,2,1.48,1.48,0,0,1,79.61.88a1.43,1.43,0,0,1,1-.26m3.25,19.71a.64.64,0,0,0,.71-.73V18.38a.62.62,0,0,0-.71-.7h-1a.62.62,0,0,0-.7.7V19.6c0,.49.24.73.7.73ZM96.2,6.21a1.76,1.76,0,0,1,1.12.39,1.5,1.5,0,0,1,.52,1.12,1.94,1.94,0,0,1-.42,1.22,12.45,12.45,0,0,1-2.75,2.14,20.86,20.86,0,0,1-3.75,1.74A3.73,3.73,0,0,1,89.7,13a1.42,1.42,0,0,1-1.07-.75,2.64,2.64,0,0,1-.26-1.17,1.21,1.21,0,0,1,.73-1,15.51,15.51,0,0,0,3.75-1.61A13.49,13.49,0,0,0,95.29,6.5a1.44,1.44,0,0,1,.91-.29m3.15,3.54a1.62,1.62,0,0,1,1,.36,1.48,1.48,0,0,1,.49,1.07,1.94,1.94,0,0,1-.42,1.22,17.26,17.26,0,0,1-4,3,27,27,0,0,1-5.49,2.47,3.25,3.25,0,0,1-1.22.21c-.36,0-.72-.26-1.07-.78a2.59,2.59,0,0,1-.26-1.15,1.27,1.27,0,0,1,.73-1,24.35,24.35,0,0,0,5.64-2.31,18.22,18.22,0,0,0,3.7-2.76,1.32,1.32,0,0,1,.91-.31m1.32,5.3a1.68,1.68,0,0,1,1.12.42,1.65,1.65,0,0,1,.52,1.2,2,2,0,0,1-.52,1.32,18.88,18.88,0,0,1-4.42,2.86,31.73,31.73,0,0,1-5.93,2.32,2.92,2.92,0,0,1-1.32.31c-.4,0-.78-.27-1.15-.81a2.58,2.58,0,0,1-.28-1.22,1.41,1.41,0,0,1,.8-1.22A28.47,28.47,0,0,0,95.6,18a19.25,19.25,0,0,0,4-2.65,2,2,0,0,1,1.12-.29"/><path class="cls-1" d="M111.7,1.12a1.25,1.25,0,0,1,.9.31,10.48,10.48,0,0,1,1,2,13.82,13.82,0,0,1,.55,1.53V1.43a1.3,1.3,0,0,1,.42-1,1.2,1.2,0,0,1,1-.39,1.31,1.31,0,0,1,1,.39,1.35,1.35,0,0,1,.39,1V4.91a.88.88,0,0,0,0-.15,15.78,15.78,0,0,0,1.28-3.12c.17-.49.44-.73.8-.73a1.74,1.74,0,0,1,1.12.34c.28.12.42.41.42.88a2.91,2.91,0,0,1-.23.94,12,12,0,0,1-1.38,3,1,1,0,0,1-.94.49,1.24,1.24,0,0,1-.8-.31A1,1,0,0,1,117,6V7.33H119a1.59,1.59,0,0,1,1,.29c.24.15.36.53.36,1.12a1.89,1.89,0,0,1-.21,1.06,1.42,1.42,0,0,1-1.19.47h-1.12a29.24,29.24,0,0,0,2.78,3.67c0-.61,0-1.23,0-1.85V4.78c0-1.36.36-2.26,1.07-2.67a3.39,3.39,0,0,1,2-.58A19.2,19.2,0,0,0,128.7.29a.91.91,0,0,1,.36-.08,1.28,1.28,0,0,1,1.1.49A1.58,1.58,0,0,1,130.7,2a1.79,1.79,0,0,1-1.22,1.84,20.14,20.14,0,0,1-4.68.91q-.81.1-.81.81v2h5.18a1.74,1.74,0,0,1,1.35.41,2,2,0,0,1,.39,1.43,2.23,2.23,0,0,1-.31,1.33,1.79,1.79,0,0,1-1.43.49h-.11V21.94a1.6,1.6,0,0,1-.41,1.23,1.81,1.81,0,0,1-1.3.41,1.66,1.66,0,0,1-1.22-.41,1.56,1.56,0,0,1-.42-1.23V11.28H124v.81a32.8,32.8,0,0,1-1.32,10.27,2.06,2.06,0,0,1-2,1,1.6,1.6,0,0,1-1-.59,2.33,2.33,0,0,1-.39-1.23,3.48,3.48,0,0,1,.31-1.17,24.22,24.22,0,0,0,.89-3.87,2.26,2.26,0,0,1-.47,0,1.27,1.27,0,0,1-.84-.31,1.66,1.66,0,0,1-.57-.6A25.34,25.34,0,0,1,117,13.36v3.1a1.51,1.51,0,0,1-.26.93,1.32,1.32,0,0,1-1.14.5,1.34,1.34,0,0,1-1.12-.5,1.36,1.36,0,0,1-.31-.93V13.52a9,9,0,0,1-2.65,2.83,1.14,1.14,0,0,1-.91.32v1a.55.55,0,0,0,.62.62h6.61c.93,0,1.4.61,1.4,1.82s-.47,1.82-1.4,1.82h-7.93a2.07,2.07,0,0,1-2.34-2.34V2.76c0-1,.51-1.43,1.53-1.43a1.41,1.41,0,0,1,1.35.62.87.87,0,0,1,.42-.6,1.68,1.68,0,0,1,.86-.23m-1.12,1.77V13.62a26.41,26.41,0,0,0,2.83-3.35h-1.3a1.35,1.35,0,0,1-1.43-1.53,1.35,1.35,0,0,1,.42-1.15,1.53,1.53,0,0,1,1-.26h2V6l0,.07a1.55,1.55,0,0,1-1.17.52.83.83,0,0,1-.81-.39c-.45-1.12-1-2.23-1.53-3.32"/><path class="cls-1" d="M142.24,3.59a3,3,0,0,1-.07.44A38.24,38.24,0,0,0,140.94,13c0,.63.05,1.82.13,3.59s.08,3.13.08,4.08a1.56,1.56,0,0,1-.62,1.2,2.37,2.37,0,0,1-1.54.52,1.7,1.7,0,0,1-1.06-.36,1.24,1.24,0,0,1-.49-1q-.19-3-.19-7.56a40.11,40.11,0,0,1,1.2-10.09A1.79,1.79,0,0,1,140.3,1.9a2.19,2.19,0,0,1,1.4.44,1.53,1.53,0,0,1,.54,1.25m16.25,15.55A1.68,1.68,0,0,1,157.14,21a22,22,0,0,1-4.81.37,15,15,0,0,1-6.31-1,4.51,4.51,0,0,1-2.45-4.44,4.73,4.73,0,0,1,.81-2.52c.53-.87,1.11-1.3,1.74-1.3a2.11,2.11,0,0,1,1.43.44,1.39,1.39,0,0,1,.52,1.12,8.16,8.16,0,0,1-.42,1,3.37,3.37,0,0,0-.36,1.25q0,1.85,4.86,1.84A23.74,23.74,0,0,0,155,17.6c1-.12,1.54-.18,1.64-.18,1.23,0,1.84.57,1.84,1.72m-.77-13.86a1.82,1.82,0,0,1-.5,1.32,1.83,1.83,0,0,1-1.61.45,36.16,36.16,0,0,0-3.72-.16,44.31,44.31,0,0,0-4.94.26,1.74,1.74,0,0,1-1.48-.49,2,2,0,0,1-.55-1.41c0-1,.63-1.59,1.88-1.71a41.26,41.26,0,0,1,9.25,0,1.82,1.82,0,0,1,1.27.62,1.65,1.65,0,0,1,.4,1.12"/><path class="cls-1" d="M187.17,10.24q0,5.88-4.52,8.66a17.88,17.88,0,0,1-9.46,2.24,1.69,1.69,0,0,1-1.36-.55,1.78,1.78,0,0,1-.52-1.25,2,2,0,0,1,.45-1.4,1.73,1.73,0,0,1,1.43-.6q10.19,0,10.19-7.1a3.44,3.44,0,0,0-1.12-2.7,5.28,5.28,0,0,0-3.56-1.07,38.19,38.19,0,0,0-11.34,2,3,3,0,0,1-.65.08A1.64,1.64,0,0,1,165.39,8a2.11,2.11,0,0,1-.5-1.43,1.71,1.71,0,0,1,1.33-1.64,41.21,41.21,0,0,1,12.48-2,9.16,9.16,0,0,1,6.13,2,6.64,6.64,0,0,1,2.34,5.35"/><path class="cls-1" d="M206,15.37a7,7,0,0,1-2,4.26q-2.16,2.45-4.14,2.44a4.2,4.2,0,0,1-3.92-2.62,18.91,18.91,0,0,1-1.38-6.53c-.07-1-.1-2.06-.1-3.07,0-.52.08-2.18.26-5a1.74,1.74,0,0,1,.7-1.32,2.53,2.53,0,0,1,1.56-.47,1.78,1.78,0,0,1,1.32.49,1.84,1.84,0,0,1,.47,1.3c0,.14,0,1-.08,2.68s-.08,3.2-.08,4.24a18.78,18.78,0,0,0,.4,4.16c.29,1.26.67,1.9,1.14,1.9.64,0,1.4-.89,2.29-2.66.43-.91,1-1.37,1.61-1.37q2,0,2,1.56m9.23,1.84a1.67,1.67,0,0,1-.55,1.43,1.87,1.87,0,0,1-1.35.55,1.93,1.93,0,0,1-1.33-.5,1.86,1.86,0,0,1-.6-1.35,32.22,32.22,0,0,0-1-5.59,35,35,0,0,0-1.69-5.43,1.89,1.89,0,0,1-.2-.81A1.62,1.62,0,0,1,209,4.19a2.12,2.12,0,0,1,1.4-.52,1.72,1.72,0,0,1,1.69,1.14A43,43,0,0,1,214,11a36.24,36.24,0,0,1,1.15,6.26"/><path class="cls-1" d="M244.27,3.67q.1,1.57-1.92,2l-2.66.52a9.15,9.15,0,0,0-2.91,1.4,8.5,8.5,0,0,0-3.56,6.84,2.83,2.83,0,0,0,1.2,2.52q1.5,1,5.48,1a1.66,1.66,0,0,1,1.87,1.9,1.76,1.76,0,0,1-1.87,1.84q-10.46,0-10.45-7.3,0-4.22,4-8-4.44.53-9.23,1.2a1.66,1.66,0,0,1-1.58-.49,2.08,2.08,0,0,1-.6-1.49,1.54,1.54,0,0,1,1.61-1.71Q237,1.9,242.4,1.9a1.76,1.76,0,0,1,1.35.52,1.84,1.84,0,0,1,.52,1.25"/></g></g></svg>