<svg xmlns="http://www.w3.org/2000/svg" viewBox="0 0 25 25"><defs><style>.cls-1{fill:#48a9d3;}.cls-2{fill:#fff;}</style></defs><title>Asset 7</title><g id="Layer_2" data-name="Layer 2"><g id="Layer_1-2" data-name="Layer 1"><path class="cls-1" d="M25,12.5A12.5,12.5,0,1,1,12.5,0,12.5,12.5,0,0,1,25,12.5"/><path class="cls-2" d="M12.41,17.85a4.59,4.59,0,0,1-1.73-.33,4.52,4.52,0,0,1-1.46-.92,5.12,5.12,0,0,1-1.16-1.7,5.82,5.82,0,0,1-.43-2.3A5.91,5.91,0,0,1,8,10.53,4.88,4.88,0,0,1,9,8.85a4.35,4.35,0,0,1,1.53-1.08,4.86,4.86,0,0,1,3.72,0,4.49,4.49,0,0,1,1.46,1,5,5,0,0,1,1.1,1.74,6,6,0,0,1,.37,2.13,5.75,5.75,0,0,1-.51,2.31,4.81,4.81,0,0,1-1.46,1.91,4.4,4.4,0,0,1-1.43.8,5,5,0,0,1-1.38.22m3.53-5.12a5.76,5.76,0,0,0-.32-1.88,3.92,3.92,0,0,0-1-1.56,3.11,3.11,0,0,0-1-.66,3.07,3.07,0,0,0-1.23-.24,3.19,3.19,0,0,0-1.24.24,3.23,3.23,0,0,0-1,.7,4.23,4.23,0,0,0-.92,1.47,5.33,5.33,0,0,0,0,3.72A3.94,3.94,0,0,0,10.17,16a3.14,3.14,0,0,0,1,.65,3,3,0,0,0,1.23.25,4.55,4.55,0,0,0,1-.15A2.55,2.55,0,0,0,14.6,16a3.92,3.92,0,0,0,1-1.47,4.83,4.83,0,0,0,.36-1.84M12.4,14.42l.9-.73,1.5,1.81q1.15,1.38,2.58,3l-.71.64c-1.06-1.14-2-2.14-2.73-3l-1.54-1.7"/></g></g></svg>