<svg xmlns="http://www.w3.org/2000/svg" viewBox="0 0 351.59 26.58"><defs><style>.cls-1{fill:none;stroke:#222;stroke-miterlimit:10;stroke-width:1.44px;}.cls-2{fill:#222;}.cls-3{fill:#f51d50;}</style></defs><g id="Layer_2" data-name="Layer 2"><g id="レイヤー_2" data-name="レイヤー 2"><line class="cls-1" x1="0.51" y1="9.41" x2="17.17" y2="26.07"/><line class="cls-1" x1="351.08" y1="9.41" x2="334.42" y2="26.07"/><path class="cls-2" d="M33.82,18.08c-.26-.48-.78-1.32-1.3-2.08v8.58H30.74V16.4a21.26,21.26,0,0,1-2.38,4.78,9.51,9.51,0,0,0-.9-1.74,21.81,21.81,0,0,0,2.92-5.88H27.74V11.82h3V9.08c-.86.18-1.74.32-2.56.42a6.23,6.23,0,0,0-.54-1.42,28.09,28.09,0,0,0,6-1.52l1.3,1.38a20.38,20.38,0,0,1-2.42.76v3.12h2.3v1.74h-2.3v.58c.56.52,2,2.16,2.4,2.6Zm8.44,4.66c.66,0,.76-.52.84-3a4.91,4.91,0,0,0,1.64.76c-.2,3-.66,3.9-2.32,3.9H39.94c-1.8,0-2.3-.58-2.32-2.58a21.75,21.75,0,0,1-2.9,2.22,5.51,5.51,0,0,0-1.32-1.32,21.07,21.07,0,0,0,4.22-3.46V10.38h1.8v6.7A26.53,26.53,0,0,0,43.48,7.3l1.72.38a36.83,36.83,0,0,1-1.68,5.5l.86-.24a19.37,19.37,0,0,1,1.88,5.84l-1.7.48a19.47,19.47,0,0,0-1.42-5.18A23.82,23.82,0,0,1,39.42,20v1.76c0,.82.12,1,.78,1ZM34,19.16a14.24,14.24,0,0,0,1.46-6l1.5.28c-.2,2.22-.56,4.84-1.52,6.38Zm7-8.58a16.31,16.31,0,0,0-3.9-3l1.18-1.18a16.07,16.07,0,0,1,4,2.88Z"/><path class="cls-2" d="M56.66,17.46a4.5,4.5,0,0,1-2.06-.32,35.27,35.27,0,0,1-4.94,1.74,8.33,8.33,0,0,0-1.06-1.52,31.67,31.67,0,0,0,5.26-1.68v-4h1.68V14.9a15.49,15.49,0,0,0,5.58-4.46l1.6.72A18.14,18.14,0,0,1,57,16h3.32c.86,0,1-.24,1.08-1.74a5,5,0,0,0,1.52.58c-.2,2.12-.7,2.64-2.42,2.64Zm-3.72-5a7.17,7.17,0,0,1-2.7,3.84l-1.44-1a6.46,6.46,0,0,0,2.6-3.46Zm-1.72-.66H49.4v-4h7.42V6.24h1.9v1.6h7.56v4h-1.9V9.52H51.22Zm11.72,6.94H64.8v5.78H62.94v-.78H52.86v.82H51V18.78h1.84v3.28h4V17.72h1.88v4.34h4.22Zm-4.78-6.06a15.18,15.18,0,0,0-3.42-2.08l.9-1.06a14.27,14.27,0,0,1,3.48,1.94ZM63.58,12A18.15,18.15,0,0,1,67,15.72l-1.42,1a18.79,18.79,0,0,0-3.36-3.78Z"/><path class="cls-2" d="M72.82,14.62c0,2.92-.28,7.24-2,10a7.09,7.09,0,0,0-1.4-1.08C71,21,71.12,17.3,71.12,14.62V9h2.36a16.24,16.24,0,0,0-1.32-1.9l1.56-.77a10.35,10.35,0,0,1,1.62,2.25L74.52,9H78.3a10.35,10.35,0,0,0-1.12-2.23l1.54-.6A8.25,8.25,0,0,1,80,8.51L78.84,9H83l-.58-.2A15.06,15.06,0,0,0,84.2,6.13l1.9.58c-.6.8-1.26,1.64-1.82,2.28H87.7v1.62H72.82Zm6.9.88v9.12H78.2V23c-1.88.24-3.74.42-5.24.6l-.34-1.48c.44,0,.94-.06,1.48-.12V15.5h-.84V14.14H76.1V12.86H73.7V11.52h6.54v1.34H77.72v1.28H80.5V15.5Zm-1.52,0H75.62v1.18H78.2Zm-2.58,3.66H78.2V17.92H75.62Zm0,2.68,2.58-.26v-1.2H75.62Zm11.44-7.18a18.07,18.07,0,0,1-2,5.92,8,8,0,0,0,3.2,2.68,6,6,0,0,0-1.12,1.4,8.74,8.74,0,0,1-3-2.7,11.14,11.14,0,0,1-3.16,2.68,6.55,6.55,0,0,0-1.1-1.3,9.35,9.35,0,0,0,3.34-2.86A17.22,17.22,0,0,1,81.9,17.2a10.92,10.92,0,0,1-.84,1.34,8.81,8.81,0,0,0-1.24-1.18A14.18,14.18,0,0,0,82.1,11l1.66.28c-.12.64-.26,1.26-.4,1.88h4.52v1.48Zm-4.28.44A17.19,17.19,0,0,0,84.1,19a15.3,15.3,0,0,0,1.28-4.3H82.94Z"/><path class="cls-2" d="M108.62,15.57h-5v6.77c0,1.12-.28,1.66-1.06,2a13.74,13.74,0,0,1-3.92.3A8.64,8.64,0,0,0,98,22.74c1.36,0,2.78,0,3.2,0s.54-.1.54-.44V15.57H91V13.75h10.68V11.09h1.9v2.66h5ZM93.34,12.73H91.46V8.33h7.32V6.23h2v2.1h7.38v4.4h-2V10.09H93.34Zm1.48,3.65a17.82,17.82,0,0,1,3.24,4l-1.6,1.06a18.48,18.48,0,0,0-3.1-4.16Z"/><path class="cls-2" d="M114.24,9.53c1.44-.14,5-.48,8.62-.78,2.1-.18,4.1-.3,5.44-.34l0,2a19,19,0,0,0-3.86.28,6.55,6.55,0,0,0-4.36,5.94c0,3.62,3.36,4.8,6.62,5L126,23.73c-3.88-.2-7.94-2.28-7.94-6.64a7.85,7.85,0,0,1,3.34-6.42c-1.72.18-6.58.66-8.8,1.14l-.2-2.18C113.16,9.61,113.84,9.57,114.24,9.53Zm12.92,5.84-1.24.56a18.91,18.91,0,0,0-1.6-2.8l1.2-.52A27.92,27.92,0,0,1,127.16,15.37Zm2.28-.92-1.22.6a18.77,18.77,0,0,0-1.68-2.76l1.2-.54A31.3,31.3,0,0,1,129.44,14.45Z"/><path class="cls-3" d="M139.87,21.18c5.95-5.26,9-9.18,9-12.49,0-2.19-1.17-3.7-3.42-3.7a5.45,5.45,0,0,0-4,2.25l-1.78-1.76a7.9,7.9,0,0,1,6.13-3,5.7,5.7,0,0,1,6.08,6c0,3.89-3.09,7.92-7.36,12,1-.11,2.3-.19,3.28-.19h5V23h-13Z"/><path class="cls-3" d="M170.44,17.59h-2.57V23h-3V17.59H156.2V15.48l8-12.63h3.64v12.3h2.57Zm-5.53-2.44V9.86c0-1.09.11-2.79.16-3.89H165c-.49,1-1,2.06-1.61,3.1l-4,6.08Z"/><path class="cls-3" d="M189.62,19.86h-5.7v2.3h-2.35V1.75h8.05Zm-5.7-15.81V9.56h3.29V4.05Zm3.29,13.54V11.81h-3.29v5.78Zm15.42-7v2.74h2.93v2.24h-2.93v6.74c0,1.32-.3,2-1.2,2.39a13.61,13.61,0,0,1-4.5.41,9,9,0,0,0-.82-2.39c1.54.06,3,.06,3.45.06s.58-.14.58-.52V15.58h-10V13.34h10V10.6h-10V8.35h6.51v-3h-5.47V3.12h5.47V0h2.55V3.12h5.64V5.34h-5.64v3h6.66V10.6Zm-9,5.67a20.12,20.12,0,0,1,3.42,4.55l-2.16,1.31a20.34,20.34,0,0,0-3.32-4.68Z"/><path class="cls-3" d="M213.24,10.65V25.17h-2.52v-24h10.1v9.53Zm0-7.61V4.93h5.17V3Zm5.17,5.72v-2h-5.17v2ZM233.34,22c0,1.45-.3,2.27-1.29,2.71s-2.46.44-4.76.44a11.41,11.41,0,0,0-.8-2.49H219.1V24h-2.33V12.54H227v10c1.34.05,2.66,0,3.1,0s.63-.16.63-.63V10.71H223V1.12h10.35ZM219.1,14.46V16.6h5.56V14.46Zm5.56,6.27V18.46H219.1v2.27ZM225.42,3V4.93h5.34V3Zm5.35,5.78V6.73h-5.35V8.82Z"/><path class="cls-2" d="M258.66,16.18A12.23,12.23,0,0,1,254.4,21a26.36,26.36,0,0,0,7,1.66,8.05,8.05,0,0,0-1.14,1.76,24.61,24.61,0,0,1-7.8-2.32,28,28,0,0,1-7.9,2.34,5.86,5.86,0,0,0-1.08-1.68A27.17,27.17,0,0,0,250.7,21a13.56,13.56,0,0,1-3.64-3.68l.36-.16h-.86V15.48h10.5l.34-.06Zm-13-.12H244V11.92h3a13.54,13.54,0,0,0-1.14-2.38l1.62-.46a10.6,10.6,0,0,1,1.28,2.5l-1.08.34H252a11.4,11.4,0,0,0-.9-2.82l1.66-.36a11.35,11.35,0,0,1,1,2.76l-1.68.42h4a21.92,21.92,0,0,0,1.6-3.22l1.94.52c-.52.9-1.1,1.9-1.66,2.7h3.14v4.14h-1.82v-2.5H245.7Zm14.42-8.42a108.11,108.11,0,0,1-15.56,1.5,5.25,5.25,0,0,0-.4-1.58,102.82,102.82,0,0,0,14.66-1.44ZM249,17.2a11.06,11.06,0,0,0,3.5,2.94,10.06,10.06,0,0,0,3.32-2.94Z"/><path class="cls-2" d="M271,6.92a31.36,31.36,0,0,1-2,4.22v13.4h-1.88V14a18.23,18.23,0,0,1-1.76,2.06,12.71,12.71,0,0,0-1.12-1.9,21.64,21.64,0,0,0,4.94-7.86Zm11.56,5.52h-2.38V22.2c0,1.3-.34,1.82-1.18,2.1a15,15,0,0,1-4.42.32,7.6,7.6,0,0,0-.72-1.86c1.62.08,3.28.06,3.76,0s.64-.16.64-.6V12.44h-7.82V10.58h7.82V6.44h1.92v4.14h2.38Zm-8.28,7.48a49.76,49.76,0,0,0-2.74-4.9l1.62-.76c1,1.5,2.26,3.52,2.86,4.72Z"/><path class="cls-2" d="M302.56,9.71v9.57h-1.94V18.2h-5.2v6.36h-1.94V18.2H288.3v1.18h-1.86V9.72h7V6.24h1.94V9.72Zm-9.08,6.67V11.54H288.3v4.84Zm7.14,0V11.54h-5.2v4.84Z"/><path class="cls-2" d="M313.68,21.4a1.82,1.82,0,1,1,1.82,1.74A1.75,1.75,0,0,1,313.68,21.4Zm.42-10.73L314,8H317l-.06,2.64-.6,7.37h-1.64Z"/></g></g></svg>