<svg xmlns="http://www.w3.org/2000/svg" viewBox="0 0 238.7 31.57"><defs><style>.cls-1{fill:#fff;}.cls-2{fill:#1e94d4;}</style></defs><g id="Layer_2" data-name="Layer 2"><g id="レイヤー_2" data-name="レイヤー 2"><path class="cls-1" d="M15.71,30.82A15,15,0,0,1,.76,15.88,15,15,0,0,1,15.7.91L223,.76a15,15,0,1,1,0,29.91Z"/><path class="cls-2" d="M223,1.51a14.22,14.22,0,0,1,14.2,14.19A14.2,14.2,0,0,1,223,29.91l-207.29.15a14.2,14.2,0,0,1,0-28.4L223,1.51h0M223,0h0L15.7.15a15.71,15.71,0,0,0,0,31.42h0L223,31.42A15.71,15.71,0,0,0,238.7,15.69h0A15.7,15.7,0,0,0,223,0Z"/><path class="cls-2" d="M45.7,16.05l-1.36.44v3.63c0,.48-.11.73-.41.87a3.82,3.82,0,0,1-1.49.16,3.22,3.22,0,0,0-.26-.82c.51,0,1,0,1.13,0s.2,0,.2-.21V16.77c-.52.17-1,.34-1.43.47l-.23-.86c.46-.14,1-.3,1.66-.5V13.42H42v-.82h1.49v-2.4h.83v2.4h1.29v.25a6.87,6.87,0,0,0,1.55-2.66l.78.19a10.06,10.06,0,0,1-.46,1.14h1.74a13.3,13.3,0,0,0,.56-1.29l.86.22c-.19.36-.39.73-.59,1.06h2.55v.67H50v.72h2.29v.58H50v.77h2.3v.57H50v.78h2.73v.67H46.55V13a8.47,8.47,0,0,1-.7.75,4.87,4.87,0,0,0-.34-.37H44.34v2.2c.41-.12.83-.27,1.24-.4Zm7.11,2.28c-.16,1.56-.33,2.24-.62,2.52a1.09,1.09,0,0,1-.77.27,12,12,0,0,1-1.43,0,1.65,1.65,0,0,0-.26-.74c.59.05,1.18.06,1.39.06s.32,0,.41-.09.31-.63.43-1.66H50.45c-.05.22-.11.41-.15.59l-.77-.12c.12-.41.25-.94.37-1.45H48.36a4,4,0,0,1-2.56,3.49,3.87,3.87,0,0,0-.58-.65,3.17,3.17,0,0,0,2.27-2.84H45.83V17h5c-.08.34-.15.7-.23,1h2.23ZM49.19,12.2H47.32v.72h1.87Zm0,1.29H47.32v.77h1.87Zm0,1.35H47.32v.78h1.87Z"/><path class="cls-2" d="M66,11.44v.76H64.09v1.9h-6.8V12.2H55.34v-.75h1.95V10.26h.84v1.19h2.09V10.2h.85v1.24h2.16V10.26h.86v1.19ZM55.66,14.85h10V17.2h-.85V15.58H61.07v1.26h3.44v2.47c0,.46-.09.67-.44.8a5.19,5.19,0,0,1-1.72.15,3.37,3.37,0,0,0-.28-.77c.64,0,1.2,0,1.36,0s.21,0,.21-.18V17.57H61.07v3.57h-.87V17.57H57.87v2.67H57V16.84h3.2V15.58H56.49V17.2h-.83Zm2.47-1.47h2.09V12.2H58.13Zm5.1-1.18H61.07v1.18h2.16Z"/><path class="cls-2" d="M73.14,10.9c0,.21-.1.46-.14.69s-.17,1.05-.3,1.68c.55,0,1-.07,1.33-.07,1.06,0,1.93.4,1.93,2a11.41,11.41,0,0,1-.69,4.28,1.66,1.66,0,0,1-1.74,1,6.68,6.68,0,0,1-1.39-.18l-.16-1a5.79,5.79,0,0,0,1.45.27,1,1,0,0,0,1-.62A10.2,10.2,0,0,0,75,15.32c0-1.08-.5-1.27-1.25-1.27-.29,0-.76,0-1.27.08A24.09,24.09,0,0,1,70,20.52l-1-.4a18.53,18.53,0,0,0,2.49-5.89l-1.5.16L69,14.53l-.1-1c.37,0,.68,0,1.06,0s1.09-.07,1.81-.13a14.82,14.82,0,0,0,.3-2.58Zm4.09,1.25a20.57,20.57,0,0,1,2.18,4.25l-.94.44a14.28,14.28,0,0,0-2.13-4.3Z"/><path class="cls-2" d="M84.39,16.31a5.6,5.6,0,0,1,3.84-1.43c1.82,0,3,1.09,3,2.48,0,2.13-1.88,3.57-6.29,3.21l-.29-1c3.74.46,5.58-.63,5.58-2.24,0-.95-.88-1.61-2.09-1.61A4.62,4.62,0,0,0,84.5,17.3a2.44,2.44,0,0,0-.36.6l-.9-.21a44.06,44.06,0,0,0,.6-4.82l1,.13C84.7,13.81,84.5,15.54,84.39,16.31Zm.73-5.47a33,33,0,0,0,4.59.91l-.23.93c-1.12-.15-3.7-.68-4.61-.93Z"/><path class="cls-2" d="M99.81,12.75H96v1.68h-.8V12.1h4.57v-.73H95.92v-.69h8.71v.69h-4v.73h4.65v2.32h-.82V12.74h-3.83v2.73h-.86Zm4.38,7.55c.63,0,.75-.22.81-1.42a2.18,2.18,0,0,0,.78.3c-.13,1.45-.4,1.81-1.53,1.82h-2.76c-1.34,0-1.71-.23-1.71-1.19v-.38H97.11v.62h-.85V15.89h8.08v3.53h-3.71v.38c0,.41.14.49.9.49Zm-7.75-5.69H99.2v.56H96.44ZM99.2,14H96.66V13.4H99.2Zm-2.09,2.59v.83h2.66v-.82Zm2.66,2.24V18H97.11v.81Zm3.71-2.25h-2.86v.82h2.85Zm0,2.25V18h-2.85v.82Zm.39-5.39v.55h-2.56v-.56Zm-2.56,1.21h2.85v.57h-2.85Z"/><path class="cls-2" d="M108,12.17h4.44v.73H108Zm4.08,8.38h-2.75v.54h-.78v-4h3.54Zm0-6h-3.47v-.71H112Zm-3.47.92H112v.71h-3.48ZM112,11.29h-3.38v-.72H112Zm-2.7,6.52v2h2v-2Zm6.9-3.34v2h2.25V21h-.89v-.53H114v.6h-.84V16.48h2.1v-2h-2.8v-.85h2.8v-1.9c-.77.09-1.54.17-2.26.23a2.65,2.65,0,0,0-.25-.75,31.41,31.41,0,0,0,5.13-.85l.65.72a19.4,19.4,0,0,1-2.37.51v2H119v.85Zm1.37,2.82H114v2.4h3.53Z"/><path class="cls-2" d="M124.78,16.45a11.27,11.27,0,0,1,1.76-6.09l.69.32a10.92,10.92,0,0,0-1.53,5.77,11.07,11.07,0,0,0,1.53,5.76l-.68.33A11.36,11.36,0,0,1,124.78,16.45Z"/><path class="cls-2" d="M133.08,12.78A9,9,0,0,1,132,13.85a4.26,4.26,0,0,0-.74-.59,8.44,8.44,0,0,0,2.56-3.13l.85.25a8.4,8.4,0,0,1-.64,1.13h7.57v.79h-1.23v2h1.68v.79h-1.68v2.05h1.51V18H131.61v-.81h1.48V15.12h-1.67v-.79h1.67Zm-1.74,8a5.3,5.3,0,0,0,1.49-2.27l.82.2a5.48,5.48,0,0,1-1.47,2.41Zm2.55-6.42h1.33v-2h-1.33Zm0,2.84h1.33V15.12h-1.33Zm1.83,1.52a16.39,16.39,0,0,1,.29,2.16l-.86.12a14.7,14.7,0,0,0-.25-2.19Zm1.65-4.36v-2H136v2Zm-1.39.79v2.05h1.39V15.12Zm2.17,3.51a11.9,11.9,0,0,1,.77,2.17l-.86.18a14.5,14.5,0,0,0-.74-2.19Zm1.39-6.33h-1.41v2h1.4Zm0,2.82h-1.4v2.05h1.4Zm1,3.31a14.63,14.63,0,0,1,1.64,2.35l-.89.32a14.23,14.23,0,0,0-1.56-2.4Z"/><path class="cls-2" d="M146.09,15.14c.34.37,1.54,1.95,1.81,2.36l-.59.69c-.22-.44-.78-1.36-1.21-2v4.91h-.83V16.14a13.46,13.46,0,0,1-1.66,3.42,6.32,6.32,0,0,0-.44-.86A12.75,12.75,0,0,0,145,15h-1.68v-.84h1.92v-4h.83v4h2V15h-2Zm-2-1.44a11.72,11.72,0,0,0-.65-2.65l.65-.16a11.79,11.79,0,0,1,.71,2.63Zm4-2.67a25.73,25.73,0,0,1-1,2.7l-.58-.19a23.06,23.06,0,0,0,.79-2.7Zm4.68,6.67v3.37h-.84V17.85l-3.72.68L148,17.7l3.86-.69V10.13h.84v6.73l1.41-.25.14.81ZM150.29,16a10,10,0,0,0-2-1.44l.42-.62a9.6,9.6,0,0,1,2,1.34Zm.52-2.9a9.68,9.68,0,0,0-1.89-1.55l.46-.6a9.37,9.37,0,0,1,1.88,1.46Z"/><path class="cls-2" d="M158.26,22.19a11.17,11.17,0,0,0,1.53-5.77,11.23,11.23,0,0,0-1.54-5.77l.67-.31a11.32,11.32,0,0,1,0,12.17Z"/><path class="cls-2" d="M171,18.52c0-.45.05-1.22.05-1.84-1.1.6-1.87,1.21-1.87,2s.92,1.07,2.15,1.06a19.87,19.87,0,0,0,3.24-.29l0,1c-.9.1-2.22.19-3.25.19-1.7,0-3.07-.36-3.07-1.81s1.41-2.29,2.79-3a1,1,0,0,0-1.07-.73,3.12,3.12,0,0,0-2,.88c-.33.32-.67.76-1.08,1.24l-.81-.61A12.51,12.51,0,0,0,168.7,13h-.49c-.5,0-1.31,0-2-.07V12c.64.07,1.47.12,2,.12.25,0,.5,0,.78,0a7.11,7.11,0,0,0,.3-1.47l1,.08c-.09.34-.19.83-.36,1.37a32.1,32.1,0,0,0,3.63-.36v.88a34.63,34.63,0,0,1-3.93.34,8.26,8.26,0,0,1-1.07,1.83,3.34,3.34,0,0,1,1.65-.45,1.5,1.5,0,0,1,1.57,1.08c.81-.38,1.53-.67,2.16-1,.36-.16.64-.3,1-.47l.38.9c-.3.08-.73.25-1,.37-.67.27-1.52.62-2.42,1,0,.68,0,1.69,0,2.26Z"/><path class="cls-2" d="M183.25,10.81c0,.22-.09.47-.14.7s-.17,1-.3,1.68c.55,0,1.05-.07,1.33-.07,1.06,0,1.93.4,1.94,2a11.21,11.21,0,0,1-.7,4.28,1.67,1.67,0,0,1-1.73,1,7.53,7.53,0,0,1-1.4-.18l-.15-1a5.64,5.64,0,0,0,1.45.27,1,1,0,0,0,1-.62,10.23,10.23,0,0,0,.55-3.63c0-1.08-.49-1.27-1.25-1.27-.29,0-.75,0-1.27.08a23.75,23.75,0,0,1-2.49,6.39l-1-.4a18.77,18.77,0,0,0,2.49-5.89l-1.5.16-1.07.14-.09-1c.37,0,.68,0,1.05,0s1.09-.08,1.81-.14a13.71,13.71,0,0,0,.3-2.57Zm4.1,1.26a21.22,21.22,0,0,1,2.17,4.24l-.94.45a14,14,0,0,0-2.12-4.3Z"/><path class="cls-2" d="M194.3,11c-.08.21-.16.54-.22.76a16.27,16.27,0,0,0-.33,6.25c.17-.5.41-1.21.62-1.8l.53.33a25.07,25.07,0,0,0-.77,2.61,3.74,3.74,0,0,0,0,.53l0,.41-.81.09a12.71,12.71,0,0,1-.63-3.76,32.72,32.72,0,0,1,.44-4.74,4.68,4.68,0,0,0,.06-.79Zm7.9,3a18,18,0,0,1-1.92.22v.41c0,2.73,0,4.66-2.51,6.15l-.88-.69a4,4,0,0,0,1.17-.75c1.27-1.1,1.33-2.43,1.32-4.72v-.35c-.5,0-1,0-1.51,0s-1.4,0-1.92-.08v-1a12.47,12.47,0,0,0,1.91.13l1.5,0c0-.75-.05-1.54-.07-1.84s-.08-.53-.11-.71h1.11c0,.21,0,.43,0,.7s0,1,0,1.79A15.93,15.93,0,0,0,202.2,13Z"/><path class="cls-2" d="M213.37,11.79l-.66.45c-.58.45-2.18,1.85-3.09,2.62a5,5,0,0,1,1.61-.25c2,0,3.41,1.19,3.41,2.8,0,1.92-1.6,3.17-4.1,3.17-1.62,0-2.62-.72-2.62-1.7a1.69,1.69,0,0,1,1.84-1.56,2.34,2.34,0,0,1,2.44,2.1,2.08,2.08,0,0,0,1.48-2c0-1.16-1.18-2-2.68-2-1.95,0-3,.83-4.54,2.36l-.7-.7,3.2-2.67c.66-.55,2.14-1.8,2.72-2.33l-3.57.17a6.56,6.56,0,0,0-.8.08l0-1a6,6,0,0,0,.84,0c.61,0,3.43-.09,4-.15a4.05,4.05,0,0,0,.65-.1Zm-2,7.86a1.59,1.59,0,0,0-1.57-1.59.85.85,0,0,0-.95.74c0,.58.68.92,1.57.92A6.94,6.94,0,0,0,211.33,19.65Z"/><path class="cls-2" d="M30.75,18.47a.88.88,0,0,0-1.34,0l-.93.93a.17.17,0,0,1-.25.05c-.21-.11-.42-.2-.62-.32A9.8,9.8,0,0,1,25.28,17a5.49,5.49,0,0,1-.84-1.34.2.2,0,0,1,0-.25c.31-.3.61-.61.92-.92a.89.89,0,0,0,0-1.37l-.74-.73-.75-.76a.89.89,0,0,0-1.34,0l-.93.93a1.49,1.49,0,0,0-.48,1,4.29,4.29,0,0,0,.34,1.87,11.14,11.14,0,0,0,2,3.35,12.42,12.42,0,0,0,4.13,3.24,6,6,0,0,0,2.29.66,1.67,1.67,0,0,0,1.44-.55c.27-.3.57-.57.86-.86a.9.9,0,0,0,0-1.36Z"/><path class="cls-2" d="M30.25,16.38l1-.17a4.35,4.35,0,0,0-3.67-3.56l-.14,1a3.32,3.32,0,0,1,1.91,1A3.41,3.41,0,0,1,30.25,16.38Z"/><path class="cls-2" d="M31.76,12.17a7.17,7.17,0,0,0-4.1-2l-.13,1a6.24,6.24,0,0,1,5.27,5.11l1-.17A7.22,7.22,0,0,0,31.76,12.17Z"/></g></g></svg>