<svg xmlns="http://www.w3.org/2000/svg" viewBox="0 0 90.02 20.01"><defs><style>.cls-1{fill:#fff;}</style></defs><g id="Layer_2" data-name="Layer 2"><g id="レイヤー_2" data-name="レイヤー 2"><path class="cls-1" d="M0,17l1.57-1.3a4.85,4.85,0,0,0,1.26,1.69A2.51,2.51,0,0,0,4.41,18a2.58,2.58,0,0,0,1.84-.67A2.26,2.26,0,0,0,7,15.56a2.12,2.12,0,0,0-.37-1.27,4.07,4.07,0,0,0-1.31-1.07l-.57-.33a9.13,9.13,0,0,1-2.16-1.51,2.8,2.8,0,0,1-.6-1,3.9,3.9,0,0,1-.2-1.25A4.09,4.09,0,0,1,3,6.05,4.33,4.33,0,0,1,6.11,4.86a4.75,4.75,0,0,1,2.31.54A4.33,4.33,0,0,1,10.06,7L8.69,8.26A3.55,3.55,0,0,0,7.63,7.1a2.31,2.31,0,0,0-1.31-.38,2.4,2.4,0,0,0-1.71.61A2.07,2.07,0,0,0,4,8.92c0,.78.62,1.51,1.88,2.19.31.16.55.29.71.39A6,6,0,0,1,8.6,13.24a3.94,3.94,0,0,1,.6,2.22,4.15,4.15,0,0,1-1.31,3.22,5.05,5.05,0,0,1-3.55,1.2,4.67,4.67,0,0,1-2.61-.7A4.94,4.94,0,0,1,0,17Z"/><path class="cls-1" d="M15.32,19.5,16.94,7.26H13.08l.27-2.06h9.77l-.29,2.06H19.19L17.57,19.5Z"/><path class="cls-1" d="M25,19.5,26.91,5.2h8l-.26,2h-5.8l-.46,3.6H34.2l-.26,2H28.13l-.59,4.62h5.8l-.28,2.06Z"/><path class="cls-1" d="M40,19.5H37.71L39.59,5.2h3A10.82,10.82,0,0,1,45,5.4a3.58,3.58,0,0,1,1.34.66,3.23,3.23,0,0,1,1,1.27A4,4,0,0,1,47.68,9a4.79,4.79,0,0,1-.4,2,3.88,3.88,0,0,1-2.66,2.18,12.39,12.39,0,0,1-2.69.22H40.75ZM41,11.35h.75a5.64,5.64,0,0,0,2.87-.5,1.91,1.91,0,0,0,.77-1.73,1.63,1.63,0,0,0-.64-1.46,5,5,0,0,0-2.5-.42h-.72Z"/><path class="cls-1" d="M64.68,8a18.92,18.92,0,0,1-.58,4.78,13.41,13.41,0,0,1-1.69,4,7.3,7.3,0,0,1-2.49,2.46,6.48,6.48,0,0,1-3.23.81,5,5,0,0,1-4.32-2.07A10,10,0,0,1,50.86,12a19.48,19.48,0,0,1,.58-4.8,13.89,13.89,0,0,1,1.69-4A7.18,7.18,0,0,1,55.6.8,6.45,6.45,0,0,1,58.83,0a5.06,5.06,0,0,1,4.34,2.07A9.93,9.93,0,0,1,64.68,8ZM58.59,2.6q-2.13,0-3.4,2.64a16.36,16.36,0,0,0-1.28,7.1,7.7,7.7,0,0,0,.73,3.79,2.37,2.37,0,0,0,2.18,1.26q2.19,0,3.49-2.58a15.88,15.88,0,0,0,1.3-7,8.22,8.22,0,0,0-.73-3.94A2.46,2.46,0,0,0,58.59,2.6Z"/><path class="cls-1" d="M72.21,14.4v.15a2.7,2.7,0,0,0,.86,2.07,3.18,3.18,0,0,0,2.23.8,3.74,3.74,0,0,0,2.71-1,3.43,3.43,0,0,0,1-2.6,2.59,2.59,0,0,0-1-2.21,5,5,0,0,0-3-.76h-.49l.33-2.4h.65a4.81,4.81,0,0,0,3-.86,2.83,2.83,0,0,0,1.09-2.37,2.56,2.56,0,0,0-.78-2,3.74,3.74,0,0,0-4.36,0,3.08,3.08,0,0,0-1,1.94H70.59a5.8,5.8,0,0,1,2-3.79A6.28,6.28,0,0,1,76.75,0,6.41,6.41,0,0,1,81,1.32a4.23,4.23,0,0,1,1.6,3.44,4.82,4.82,0,0,1-1,3.12A5.45,5.45,0,0,1,78.62,9.7a4.89,4.89,0,0,1,2.53,1.68A4.73,4.73,0,0,1,82,14.26a5.19,5.19,0,0,1-1.88,4.11A7.25,7.25,0,0,1,75.22,20a6.23,6.23,0,0,1-4.4-1.48,5.47,5.47,0,0,1-1.63-4.11Z"/><path class="cls-1" d="M87.46,18.41a1.25,1.25,0,0,1,.37-.91,1.2,1.2,0,0,1,.91-.38,1.18,1.18,0,0,1,.9.38,1.25,1.25,0,0,1,.38.91,1.22,1.22,0,0,1-.38.9,1.24,1.24,0,0,1-.9.36,1.26,1.26,0,0,1-.91-.36A1.21,1.21,0,0,1,87.46,18.41Z"/></g></g></svg>