<svg xmlns="http://www.w3.org/2000/svg" viewBox="0 0 193.14 31.54"><defs><style>.cls-1{fill:#fff;}.cls-2{fill:#1e94d4;}</style></defs><g id="Layer_2" data-name="Layer 2"><g id="レイヤー_2" data-name="レイヤー 2"><path class="cls-1" d="M15.71,30.86A15,15,0,0,1,15.7.8L177.41.68a15,15,0,0,1,10.65,25.65,14.91,14.91,0,0,1-10.62,4.41l-161.72.12Z"/><path class="cls-2" d="M177.43,1.36a14.35,14.35,0,0,1,0,28.7l-161.73.12a14.35,14.35,0,1,1,0-28.7l161.71-.12h0m0-1.36h0L15.7.12a15.71,15.71,0,0,0,0,31.42h0l161.72-.12a15.71,15.71,0,0,0,0-31.42Z"/><path class="cls-2" d="M54.55,10.46a8.53,8.53,0,0,0-.39.87,15.57,15.57,0,0,1-1.8,3.54,32.94,32.94,0,0,1,3,2.74l-.76.84a27.33,27.33,0,0,0-2.83-2.76A14.76,14.76,0,0,1,47,19.57l-.85-.76A13.44,13.44,0,0,0,51,15a34.16,34.16,0,0,0-3.37-2.42l.63-.75c1,.64,2.41,1.62,3.36,2.36A13.76,13.76,0,0,0,53.19,11a7.71,7.71,0,0,0,.24-.89Z"/><path class="cls-2" d="M59.25,14c.36,0,1,.06,1.67.06h6.57c.6,0,1,0,1.3-.06v1.17c-.24,0-.74-.06-1.28-.06H60.92c-.66,0-1.29,0-1.67.06Z"/><path class="cls-2" d="M72,18.86a5.66,5.66,0,0,0,2.09-2.95,21.32,21.32,0,0,0,.36-4.82,4.15,4.15,0,0,0-.09-.87h1.11a7.14,7.14,0,0,0-.06.87,26.58,26.58,0,0,1-.37,5.1,6.62,6.62,0,0,1-2.14,3.28Zm5.5.06a2.73,2.73,0,0,0,.08-.67V11.06a4.51,4.51,0,0,0-.08-.88h1.11a7.73,7.73,0,0,0,0,.88V18a9,9,0,0,0,3.48-3l.58.82a12.15,12.15,0,0,1-4.09,3.32,2,2,0,0,0-.4.28Z"/><path class="cls-2" d="M86.48,11.21c.78-.07,3-.29,5.2-.48,1.3-.11,2.42-.17,3.21-.21v1a9.82,9.82,0,0,0-2.33.2,4.15,4.15,0,0,0-2.71,3.75c0,2.32,2.16,3.05,4.09,3.12l-.34,1c-2.2-.1-4.7-1.27-4.71-3.92a4.81,4.81,0,0,1,2.21-4c-1,.12-4.28.43-5.57.7l-.11-1.06C85.88,11.26,86.25,11.24,86.48,11.21Zm7.71,3.39-.61.29a10.8,10.8,0,0,0-1-1.69l.61-.26A12.77,12.77,0,0,1,94.19,14.6Zm1.37-.51-.62.28a11.19,11.19,0,0,0-1-1.66l.6-.28C94.8,12.83,95.27,13.56,95.56,14.09Z"/><path class="cls-2" d="M99.65,13.83v6.25h-.88V9.63h4.3v4.2Zm0-3.48v1h2.58v-1Zm2.58,2.76V12H99.64v1.09Zm0,5.28v.72h-.82V14.9h4.46v3.49Zm0-2.74v2H105v-2Zm6.39,3.21c0,.59-.14.89-.53,1.05a8,8,0,0,1-2.14.15,4.48,4.48,0,0,0-.32-.91c.78,0,1.56,0,1.8,0s.29-.07.29-.3v-5h-3.52V9.63h4.41ZM105,10.34v1h2.67v-1Zm2.67,2.78V12H105v1.1Z"/><path class="cls-2" d="M113.44,12c0,.74,0,1.83.09,2.81.19,2,.77,3.29,1.61,3.29.61,0,1.16-1.22,1.47-2.42l.76.86c-.71,2-1.44,2.7-2.25,2.7-1.12,0-2.2-1.11-2.52-4.19a29,29,0,0,1-.14-3.17,6.18,6.18,0,0,0-.07-1.05l1.15,0C113.49,11.09,113.46,11.64,113.44,12Zm8.38,5-1,.39a11.77,11.77,0,0,0-2.06-5.88l.94-.32A12.21,12.21,0,0,1,121.82,16.93Z"/><path class="cls-2" d="M130.4,9.13a14.21,14.21,0,0,0,5.27,4.28,3.42,3.42,0,0,0-.59.77A16,16,0,0,1,130,10a14.76,14.76,0,0,1-5,4.27,3.24,3.24,0,0,0-.55-.71,13.55,13.55,0,0,0,5-4.42Zm-4,6.16h7.29v4.77h-.91v-.5h-5.5v.49h-.88ZM133,13v.79h-6V13Zm-5.76,3.1v2.67h5.5V16.08Z"/><path class="cls-2" d="M142,11.86c-.14.21-.34.54-.52.82s0,.51-.06.76A6,6,0,0,1,145.19,12a3,3,0,0,1,3.14,3c0,2.38-1.74,3.66-4.33,4.15l-.43-.9c2-.3,3.8-1.22,3.79-3.28a2.17,2.17,0,0,0-2.3-2.09,5.49,5.49,0,0,0-3.7,1.7c0,.5,0,1,0,1.39,0,1.08,0,1.8.05,2.87,0,.21,0,.51.06.72h-1c0-.17,0-.51,0-.71,0-1.14,0-1.72,0-3,0-.12,0-.28,0-.46-.57.88-1.35,2-1.93,2.81l-.6-.83c.66-.83,2-2.67,2.63-3.61,0-.38,0-.77.07-1.14l-2.32.3-.09-1a5.18,5.18,0,0,0,.78,0c.38,0,1.07-.09,1.69-.19,0-.56.06-1,.06-1.11a5.43,5.43,0,0,0,0-.89l1.14,0c-.06.29-.16,1-.24,1.79l.06,0Z"/><path class="cls-2" d="M159.28,9.9c0,.19-.05.6-.06.85,0,.54,0,1.13,0,1.66l1.3-.1.93-.06v1c-.19,0-.63,0-.93,0s-.81,0-1.32.06a20.22,20.22,0,0,1-.18,2.5c-.11.52-.37.68-.91.68a13.48,13.48,0,0,1-1.57-.17l0-.85a6.65,6.65,0,0,0,1.19.16c.29,0,.41-.05.44-.32a19.1,19.1,0,0,0,.13-1.93c-1.22.1-2.61.23-3.79.35,0,1.23,0,2.46,0,2.92,0,1.28,0,1.71,2.12,1.71a24.59,24.59,0,0,0,3.52-.26l0,1c-.8.09-2.25.21-3.45.21-2.74,0-3-.63-3.07-2.53,0-.51,0-1.76,0-2.95l-1.26.13-1.21.17-.1-1c.36,0,.81,0,1.24-.06l1.33-.12V11.27a8.24,8.24,0,0,0-.07-1h1c0,.26,0,.58,0,1v1.59l3.79-.35V10.79a6.13,6.13,0,0,0-.06-.89Z"/><path class="cls-2" d="M172.61,10.78l-.66.45c-.58.45-2.18,1.85-3.09,2.62a5,5,0,0,1,1.61-.25c2,0,3.4,1.2,3.41,2.8,0,1.92-1.6,3.17-4.1,3.17-1.62,0-2.62-.72-2.62-1.7A1.69,1.69,0,0,1,169,16.31a2.34,2.34,0,0,1,2.45,2.1,2.08,2.08,0,0,0,1.48-2c0-1.16-1.18-2-2.68-2-2,0-3,.83-4.54,2.36L165,16l3.2-2.67c.66-.55,2.13-1.8,2.72-2.33l-3.57.17a6.94,6.94,0,0,0-.81.08l0-1a6,6,0,0,0,.84,0c.61,0,3.43-.09,4-.15a4.05,4.05,0,0,0,.65-.1Zm-2,7.86A1.6,1.6,0,0,0,169,17.05a.85.85,0,0,0-.95.74c0,.58.68.92,1.57.92A6.94,6.94,0,0,0,170.57,18.64Z"/><path class="cls-2" d="M36.89,11.65h-9.4A1.43,1.43,0,0,0,26,13.06v6.55A1.43,1.43,0,0,0,27.49,21h9.4a1.44,1.44,0,0,0,1.47-1.41V13.06A1.44,1.44,0,0,0,36.89,11.65Zm0,8.12h-9.4c-.12,0-.22-.07-.22-.16V13.92l4.25,3.59a.47.47,0,0,0,.31.12h.72a.47.47,0,0,0,.31-.12l4.25-3.59v5.69C37.11,19.7,37,19.77,36.89,19.77Zm-4.7-3.37-4.14-3.51h8.28Z"/></g></g></svg>