<svg xmlns="http://www.w3.org/2000/svg" viewBox="0 0 90.02 20.61"><defs><style>.cls-1{fill:#fff;}</style></defs><g id="Layer_2" data-name="Layer 2"><g id="レイヤー_2" data-name="レイヤー 2"><path class="cls-1" d="M0,17.6l1.57-1.29A4.85,4.85,0,0,0,2.83,18a2.5,2.5,0,0,0,1.58.52,2.58,2.58,0,0,0,1.84-.66A2.26,2.26,0,0,0,7,16.13a2.1,2.1,0,0,0-.37-1.27,4.07,4.07,0,0,0-1.31-1.07l-.57-.34A8.88,8.88,0,0,1,2.54,12a2.76,2.76,0,0,1-.6-1,3.85,3.85,0,0,1-.2-1.25A4.11,4.11,0,0,1,3,6.61,4.33,4.33,0,0,1,6.11,5.43,4.86,4.86,0,0,1,8.42,6a4.36,4.36,0,0,1,1.64,1.61L8.69,8.83A3.59,3.59,0,0,0,7.63,7.66a2.39,2.39,0,0,0-1.31-.38,2.41,2.41,0,0,0-1.71.62A2.07,2.07,0,0,0,4,9.49c0,.78.62,1.51,1.88,2.19.31.16.55.29.71.39A6,6,0,0,1,8.6,13.81,3.9,3.9,0,0,1,9.2,16a4.17,4.17,0,0,1-1.31,3.23,5.05,5.05,0,0,1-3.55,1.2,4.67,4.67,0,0,1-2.61-.71A4.88,4.88,0,0,1,0,17.6Z"/><path class="cls-1" d="M15.32,20.07,16.94,7.83H13.08l.27-2.06h9.77l-.29,2.06H19.19L17.57,20.07Z"/><path class="cls-1" d="M25,20.07l1.87-14.3h8l-.26,2h-5.8l-.46,3.59H34.2l-.26,2H28.13L27.54,18h5.8l-.28,2.07Z"/><path class="cls-1" d="M40,20.07H37.71l1.88-14.3h3A11,11,0,0,1,45,6a3.6,3.6,0,0,1,1.34.67,3.27,3.27,0,0,1,1,1.26,4.07,4.07,0,0,1,.35,1.7,4.78,4.78,0,0,1-.4,2A3.75,3.75,0,0,1,46.13,13a4,4,0,0,1-1.51.73,12.53,12.53,0,0,1-2.69.21H40.75ZM41,11.92h.75a5.75,5.75,0,0,0,2.87-.5,1.94,1.94,0,0,0,.77-1.74,1.61,1.61,0,0,0-.64-1.45,5,5,0,0,0-2.5-.42h-.72Z"/><path class="cls-1" d="M64.68,8.57a18.92,18.92,0,0,1-.58,4.78,13.41,13.41,0,0,1-1.69,4,7.18,7.18,0,0,1-2.49,2.45,6.39,6.39,0,0,1-3.23.82,5,5,0,0,1-4.32-2.07,10,10,0,0,1-1.51-5.92,19.43,19.43,0,0,1,.58-4.8,13.89,13.89,0,0,1,1.69-4A7.18,7.18,0,0,1,55.6,1.37a6.34,6.34,0,0,1,3.23-.8,5.06,5.06,0,0,1,4.34,2.07A9.91,9.91,0,0,1,64.68,8.57ZM58.59,3.16q-2.13,0-3.4,2.65a16.36,16.36,0,0,0-1.28,7.1,7.73,7.73,0,0,0,.73,3.79A2.37,2.37,0,0,0,56.82,18c1.46,0,2.62-.87,3.49-2.59a15.8,15.8,0,0,0,1.3-7,8.26,8.26,0,0,0-.73-3.95A2.46,2.46,0,0,0,58.59,3.16Z"/><path class="cls-1" d="M81.33,1.85l-5.9,6.82c.3-.05.56-.08.8-.1l.69,0a5.4,5.4,0,0,1,4,1.51,5.47,5.47,0,0,1,1.51,4,6,6,0,0,1-2.07,4.66,7.43,7.43,0,0,1-5.2,1.88A5.93,5.93,0,0,1,70.84,19a5.55,5.55,0,0,1-1.62-4.17q0-3.16,4.52-8.39l.55-.63,5-5.84ZM76,10.67a3.58,3.58,0,0,0-2.71,1.15,4,4,0,0,0-1.1,2.87,3.33,3.33,0,0,0,.91,2.44,3.28,3.28,0,0,0,2.42.91,3.83,3.83,0,0,0,3.94-3.95,3.4,3.4,0,0,0-.92-2.51A3.42,3.42,0,0,0,76,10.67Z"/><path class="cls-1" d="M87.46,19a1.27,1.27,0,0,1,.37-.92,1.24,1.24,0,0,1,.91-.38,1.22,1.22,0,0,1,.9.38A1.28,1.28,0,0,1,90,19a1.26,1.26,0,0,1-1.28,1.26,1.26,1.26,0,0,1-.91-.36A1.22,1.22,0,0,1,87.46,19Z"/></g></g></svg>