<svg xmlns="http://www.w3.org/2000/svg" viewBox="0 0 801 27.88"><defs><style>.cls-1,.cls-2{fill:none;stroke:#4a74a6;stroke-linecap:round;stroke-linejoin:round;stroke-width:1px;}.cls-2{stroke-dasharray:5 5;}.cls-3{fill:#4a74a6;}</style></defs><g id="Layer_2" data-name="Layer 2"><g id="レイヤー_2" data-name="レイヤー 2"><line class="cls-1" x1="0.5" y1="27.38" x2="3" y2="27.38"/><line class="cls-2" x1="8" y1="27.38" x2="795.5" y2="27.38"/><line class="cls-1" x1="798" y1="27.38" x2="800.5" y2="27.38"/><path class="cls-3" d="M22.42,4.92q0,2.45-2.7,4.36a15.47,15.47,0,0,1-4.92,2.26,6.77,6.77,0,0,1-1.6,3.8A8.56,8.56,0,0,1,10,17.68,3.1,3.1,0,0,1,8.9,18c-1,0-1.54-.49-1.54-1.48,0-.41.31-.81.94-1.18.36-.16.88-.43,1.56-.82a4.36,4.36,0,0,0,1.9-2.66A14.85,14.85,0,0,0,12,8.52a1.23,1.23,0,0,1,.42-1,1.5,1.5,0,0,1,1-.38,1.64,1.64,0,0,1,1.12.4,1.39,1.39,0,0,1,.46,1.08A5.72,5.72,0,0,0,17.7,7.4c1.2-.83,1.8-1.47,1.8-1.94,0-.24-.28-.36-.82-.36H7.24a1.25,1.25,0,0,1-1-.4,1.3,1.3,0,0,1-.38-.94,1.15,1.15,0,0,1,.4-.9,1.43,1.43,0,0,1,.94-.34H19.78a2.77,2.77,0,0,1,1.88.64A2.24,2.24,0,0,1,22.42,4.92Z"/><path class="cls-3" d="M44,5.78q0,4-4.1,7.6a22.47,22.47,0,0,1-7.7,4.44,2.14,2.14,0,0,1-.54.08,1.2,1.2,0,0,1-1-.48,1.42,1.42,0,0,1-.38-1,1.27,1.27,0,0,1,1-1.3,20.57,20.57,0,0,0,6.14-3.36A9.43,9.43,0,0,0,41,6.9,1.6,1.6,0,0,0,41,6.52c0-.29-.24-.44-.72-.44h-11a1.34,1.34,0,0,1-1.06-.42,1.44,1.44,0,0,1-.38-1,1.4,1.4,0,0,1,1.44-1.48h12C43.08,3.16,44,4,44,5.78Z"/><path class="cls-3" d="M65.62,6A9.2,9.2,0,0,1,64,10.74a16.23,16.23,0,0,1-4.3,4.62,16.25,16.25,0,0,1-6.44,2.88,1.42,1.42,0,0,1-.34,0,1.24,1.24,0,0,1-1-.46,1.55,1.55,0,0,1-.36-1,1.34,1.34,0,0,1,1.14-1.42,13.69,13.69,0,0,0,5.64-2.72,18.85,18.85,0,0,0-2.12-1.3,1.42,1.42,0,0,1-.3-2.3,1.32,1.32,0,0,1,1-.44,1.5,1.5,0,0,1,.7.2L59,9.54l1.5,1.06a10.37,10.37,0,0,0,2.1-3.66,1.48,1.48,0,0,0,.06-.38.16.16,0,0,0-.16-.18H56.2a20.27,20.27,0,0,1-4,4.56,1.55,1.55,0,0,1-.94.34,1.34,1.34,0,0,1-1-.48,1.44,1.44,0,0,1-.44-1,1.32,1.32,0,0,1,.58-1.1,19.75,19.75,0,0,0,5-6.62,1.3,1.3,0,0,1,1.26-.82,1.52,1.52,0,0,1,1,.42,1.27,1.27,0,0,1,.46,1,1.49,1.49,0,0,1-.18.7l-.16.3h5.06C64.68,3.62,65.62,4.4,65.62,6Z"/><path class="cls-3" d="M89.18,9.72a1.62,1.62,0,0,1-.36,1.06,1.28,1.28,0,0,1-1.08.54H72.26a1.33,1.33,0,0,1-1.1-.52,1.54,1.54,0,0,1-.36-1,1.73,1.73,0,0,1,.38-1.1,1.29,1.29,0,0,1,1.08-.48H87.74a1.37,1.37,0,0,1,1.08.48A1.55,1.55,0,0,1,89.18,9.72Z"/><path class="cls-3" d="M109.3,15.5a1.29,1.29,0,0,1-1.24,1.4,47,47,0,0,1-7,.56,7.27,7.27,0,0,1-4.32-1,4.44,4.44,0,0,1-1.62-3.9V3.22a1.36,1.36,0,0,1,.42-1.06,1.45,1.45,0,0,1,1-.38,1.39,1.39,0,0,1,1,.34,1.34,1.34,0,0,1,.5,1.1V6.34a54.89,54.89,0,0,0,8.18-2.16A1.64,1.64,0,0,1,107,4a1.35,1.35,0,0,1,.94.52,1.55,1.55,0,0,1,.34,1,1.3,1.3,0,0,1-.82,1.2c-1.36.67-4.51,1.51-9.44,2.54v3.22c0,.92.24,1.51.74,1.78a7.1,7.1,0,0,0,2.28.22A47,47,0,0,0,107.6,14a1.5,1.5,0,0,1,1.2.38A1.7,1.7,0,0,1,109.3,15.5Zm2.48-13.38a2,2,0,0,1-.68,1.54,2.26,2.26,0,0,1-1.54.62A2.32,2.32,0,0,1,108,3.7a2,2,0,0,1-.66-1.54,2,2,0,0,1,.62-1.54,2.43,2.43,0,0,1,3.22,0A2,2,0,0,1,111.78,2.12Zm-1.32,0a.82.82,0,0,0-.26-.62,1,1,0,0,0-.66-.24c-.62,0-.92.29-.92.88a.8.8,0,0,0,.26.64,1,1,0,0,0,.66.24.92.92,0,0,0,.62-.26A.77.77,0,0,0,110.46,2.12Z"/><path class="cls-3" d="M120.5,9a13.08,13.08,0,0,1-2.48,8.2,1.4,1.4,0,0,1-1.14.6,1.55,1.55,0,0,1-1.06-.48,1.33,1.33,0,0,1-.42-1.06,1.46,1.46,0,0,1,.32-.82A10.35,10.35,0,0,0,117.58,9V4a1.35,1.35,0,0,1,.4-1,1.49,1.49,0,0,1,1-.4,1.39,1.39,0,0,1,1.06.36A1.29,1.29,0,0,1,120.5,4Zm12.2,1.84q-2.31,4.5-4.78,6.1a3.63,3.63,0,0,1-1.92.7,2.34,2.34,0,0,1-2.12-1.14,4.4,4.4,0,0,1-.6-2.4V3.32a1.3,1.3,0,0,1,.42-1,1.48,1.48,0,0,1,1-.38,1.4,1.4,0,0,1,1,.34,1.35,1.35,0,0,1,.44,1.08V13.6c0,.45.12.68.36.68s.38-.2.72-.6a19.43,19.43,0,0,0,2.84-4.16,1.35,1.35,0,0,1,1.2-.8,1.53,1.53,0,0,1,1.08.4,1.31,1.31,0,0,1,.48,1A1.6,1.6,0,0,1,132.7,10.86Z"/><path class="cls-3" d="M141.5,3.36c-.16,1.28-.32,2.57-.46,3.88a48,48,0,0,0-.32,4.92c0,1.24,0,2.59.12,4.06a1.41,1.41,0,0,1-.42,1.12,1.5,1.5,0,0,1-1.06.42,1.36,1.36,0,0,1-1-.34,1.3,1.3,0,0,1-.46-1c-.08-1.55-.12-3-.12-4.24s.26-4.42.8-9.14A1.28,1.28,0,0,1,140,1.72a1.57,1.57,0,0,1,1.1.44A1.41,1.41,0,0,1,141.5,3.36Zm13.38,11.28a1.66,1.66,0,0,1-.44,1.06,1.23,1.23,0,0,1-.92.52,1.12,1.12,0,0,1-.64-.28q-.3-.22-1.38-1A4.71,4.71,0,0,1,147,17.56a5.54,5.54,0,0,1-3.18-.86,2.79,2.79,0,0,1-1.32-2.38,2.91,2.91,0,0,1,1.44-2.6,5.17,5.17,0,0,1,3-.84,4.47,4.47,0,0,1,1.72.32c0-.68-.06-1.81-.08-3.4-2.78,0-4.22,0-4.34,0a1.27,1.27,0,0,1-1-.42,1.39,1.39,0,0,1-.4-1,1.29,1.29,0,0,1,.38-1,1.23,1.23,0,0,1,1.14-.32c1,.08,2.44.09,4.22,0V3.56q0-1.8,1.56-1.8a1.61,1.61,0,0,1,1.16.34,1.67,1.67,0,0,1,.32,1.14c0,.23,0,.76,0,1.6q.6-.12,1.68-.24c1-.08,1.54.28,1.54,1.08a1.71,1.71,0,0,1-.38,1.26,2,2,0,0,1-1.3.44l-1.58.18c0,1.84.07,3.32.14,4.44a14.06,14.06,0,0,1,2.12,1.06A2.06,2.06,0,0,1,154.88,14.64Zm-6.24-.82a2.48,2.48,0,0,0-1.78-.82c-1.08,0-1.62.41-1.62,1.24,0,.31.2.57.62.78a2.22,2.22,0,0,0,1.1.28,1.68,1.68,0,0,0,1.14-.46A1.41,1.41,0,0,0,148.64,13.82Z"/><path class="cls-3" d="M161.66,11.12a2,2,0,0,1,1,.24,1.08,1.08,0,0,1,.5,1,3.35,3.35,0,0,1-.14.9c-.27,1.12-.5,2-.7,2.76s-.36,1.25-.48,1.56a1.43,1.43,0,0,1-1.4,1.1,1.74,1.74,0,0,1-1-.46,1.48,1.48,0,0,1-.38-1c.14-.56.58-1.95,1.3-4.18.12-.41.23-.77.34-1.06A1.07,1.07,0,0,1,161.66,11.12Zm-.7-5.4a1.43,1.43,0,0,1,1.18.48,7,7,0,0,1,.8,1.7,4.76,4.76,0,0,1,.28,1.34,1,1,0,0,1-.32.82,1.45,1.45,0,0,1-1.08.44,1.67,1.67,0,0,1-.9-.2.81.81,0,0,1-.28-.42q-.39-1-1.14-2.58a1,1,0,0,1,0-.24,1.79,1.79,0,0,1,.1-.56,1.4,1.4,0,0,1,.72-.62A1.46,1.46,0,0,1,161,5.72Zm.32-5.14a1.42,1.42,0,0,1,1.24.54,6,6,0,0,1,.7,1.52,4.11,4.11,0,0,1,.24,1.22,1.07,1.07,0,0,1-.34.86,1.53,1.53,0,0,1-1.14.46,1.58,1.58,0,0,1-1-.24.7.7,0,0,1-.3-.46c-.23-.6-.56-1.36-1-2.28a.54.54,0,0,1,0-.22,1.59,1.59,0,0,1,.14-.6,1.4,1.4,0,0,1,.74-.64A1.65,1.65,0,0,1,161.28.58ZM167,4.48a11.93,11.93,0,0,1-.74,1.36,4.93,4.93,0,0,1,1.18-.12h6.18a2.76,2.76,0,0,1,2,.54c.34.32.52,1.29.52,2.9V10a1.34,1.34,0,0,1,.88.28,1.17,1.17,0,0,1,.3,1,1.42,1.42,0,0,1-.24.9,1.28,1.28,0,0,1-1,.42c0,.8-.09,1.54-.14,2.22a.25.25,0,0,0,0,.12c.58.05.89.42.92,1.1a.93.93,0,0,1-.94,1h-.44a3.51,3.51,0,0,1-.7,1.18,3.33,3.33,0,0,1-2.38.78,6.83,6.83,0,0,1-1.86-.32,1,1,0,0,1-.86-1,1.16,1.16,0,0,1,.14-.62h-3.5c-1.31,0-2-.55-2-1.64a6.69,6.69,0,0,1,.18-1.28c.06-.51.13-1,.2-1.54h-.14a1.48,1.48,0,0,1-1-.3,1.3,1.3,0,0,1-.32-1,1.19,1.19,0,0,1,.32-1,1.5,1.5,0,0,1,1-.28h.38c.06-.79.12-1.59.16-2.42a2.66,2.66,0,0,1,.12-.74,1.37,1.37,0,0,1-.36,0,1.71,1.71,0,0,1-1.26-.44,1.26,1.26,0,0,1-.46-1A.88.88,0,0,1,163.3,5a12.75,12.75,0,0,0,1.8-3.68c.16-.57.47-.86.94-.86a2.09,2.09,0,0,1,1.24.34,1,1,0,0,1,.56,1.06.88.88,0,0,1,0,.16h8a1.15,1.15,0,0,1,.92.28,1.36,1.36,0,0,1,.26,1,1.65,1.65,0,0,1-.2.92,1.21,1.21,0,0,1-1,.34Zm1.7,10.46L169,12.6h-1.8l-.06.4a8.72,8.72,0,0,0-.2,1.48c0,.31.23.46.7.46ZM167.4,10h1.84l.24-2.18h-1.4a.5.5,0,0,0-.56.54C167.49,8.91,167.45,9.46,167.4,10Zm5.94,4.92c0-.24,0-.51.08-.82,0-.49,0-1,.06-1.52h-1.94l-.26,2.34Zm-1.28-7.1L171.82,10h1.72V9.16c0-.72-.07-1.13-.2-1.22a1.67,1.67,0,0,0-.74-.1Z"/><path class="cls-3" d="M184.6.64a2.19,2.19,0,0,1,1.3.36c.38.13.58.49.58,1.06a2.64,2.64,0,0,1-.14.84l-.18.8h2.26a2.65,2.65,0,0,1,1.72.48,1.93,1.93,0,0,1,.46.82,1.72,1.72,0,0,1,.34-.06,1.15,1.15,0,0,1,.62.16,7.41,7.41,0,0,1,.7.58V2.14a1.32,1.32,0,0,1,.4-1,1.23,1.23,0,0,1,1-.38,1.53,1.53,0,0,1,1.08.38,1.36,1.36,0,0,1,.4,1V8.7a38.84,38.84,0,0,0,3.32,2.84,2.45,2.45,0,0,1,.76.84,1.06,1.06,0,0,1,0,1.34,1.37,1.37,0,0,1-1.14.6,2.22,2.22,0,0,1-1.34-.4q-.81-.59-1.56-1.2v4.74a1.46,1.46,0,0,1-.28.9,1.39,1.39,0,0,1-1.2.5,1.26,1.26,0,0,1-1.08-.48,1.34,1.34,0,0,1-.32-.92V10c-.59-.63-1.14-1.27-1.66-1.92l-.08-.1a18.54,18.54,0,0,1-1,3.7,16.64,16.64,0,0,1-4.72,6.08,4.12,4.12,0,0,1-2.2,1.06,1.59,1.59,0,0,1-1.24-.4,1.36,1.36,0,0,1-.4-.94,1.47,1.47,0,0,1,.4-1A21.94,21.94,0,0,0,185.16,13,26.93,26.93,0,0,0,183,11a1.39,1.39,0,0,1-.76.2,1.68,1.68,0,0,1-1.26-.44,1.26,1.26,0,0,1-.46-1,2.24,2.24,0,0,1,.24-.9,27.69,27.69,0,0,0,2.8-7.24C183.75,1,184.09.64,184.6.64Zm-.08,7.74a14.52,14.52,0,0,1,2.28,2.24,8.65,8.65,0,0,0,1.08-4c0-.09-.13-.14-.38-.14h-2.16C185.1,7.09,184.82,7.74,184.52,8.38Z"/><path class="cls-3" d="M220.42,3.62c.05.81-.44,1.31-1.48,1.5l-2,.4a6.77,6.77,0,0,0-2.24,1.08,6.52,6.52,0,0,0-2.74,5.26,2.16,2.16,0,0,0,.92,1.94,8,8,0,0,0,4.22.8,1.28,1.28,0,0,1,1.44,1.46,1.37,1.37,0,0,1-1.44,1.42q-8,0-8-5.62a8.59,8.59,0,0,1,3-6.18c-2.28.27-4.65.57-7.1.92a1.28,1.28,0,0,1-1.22-.38,1.58,1.58,0,0,1-.46-1.14,1.19,1.19,0,0,1,1.24-1.32A118,118,0,0,1,219,2.26a1.36,1.36,0,0,1,1,.4A1.48,1.48,0,0,1,220.42,3.62Zm-2.28,6.5a.66.66,0,0,1-.26.5,1,1,0,0,1-.54.2.83.83,0,0,1-.76-.42q-.29-.42-.9-1.38a1.76,1.76,0,0,1-.34-.88c0-.49.3-.74.9-.74a1,1,0,0,1,.76.4,8.71,8.71,0,0,1,1,1.6A1.59,1.59,0,0,1,218.14,10.12Zm2.38-.68c0,.45-.26.68-.78.68A.83.83,0,0,1,219,9.7l-.9-1.4a1.69,1.69,0,0,1-.34-.88c0-.47.29-.7.88-.7a1,1,0,0,1,.78.4,7.24,7.24,0,0,1,1,1.56A2.29,2.29,0,0,1,220.52,9.44Z"/><path class="cls-3" d="M229.5,3.36c-.16,1.28-.32,2.57-.46,3.88a48,48,0,0,0-.32,4.92c0,1.24,0,2.59.12,4.06a1.41,1.41,0,0,1-.42,1.12,1.5,1.5,0,0,1-1.06.42,1.36,1.36,0,0,1-1-.34,1.3,1.3,0,0,1-.46-1c-.08-1.55-.12-3-.12-4.24s.26-4.42.8-9.14A1.28,1.28,0,0,1,228,1.72a1.57,1.57,0,0,1,1.1.44A1.41,1.41,0,0,1,229.5,3.36Zm13.38,11.28a1.66,1.66,0,0,1-.44,1.06,1.23,1.23,0,0,1-.92.52,1.12,1.12,0,0,1-.64-.28q-.3-.22-1.38-1A4.71,4.71,0,0,1,235,17.56a5.54,5.54,0,0,1-3.18-.86,2.79,2.79,0,0,1-1.32-2.38,2.91,2.91,0,0,1,1.44-2.6,5.17,5.17,0,0,1,3-.84,4.47,4.47,0,0,1,1.72.32c0-.68-.06-1.81-.08-3.4-2.78,0-4.22,0-4.34,0a1.27,1.27,0,0,1-1-.42,1.39,1.39,0,0,1-.4-1,1.29,1.29,0,0,1,.38-1,1.23,1.23,0,0,1,1.14-.32c1,.08,2.44.09,4.22,0V3.56q0-1.8,1.56-1.8a1.61,1.61,0,0,1,1.16.34,1.67,1.67,0,0,1,.32,1.14c0,.23,0,.76,0,1.6q.6-.12,1.68-.24c1-.08,1.54.28,1.54,1.08a1.71,1.71,0,0,1-.38,1.26,2,2,0,0,1-1.3.44l-1.58.18c0,1.84.07,3.32.14,4.44a14.06,14.06,0,0,1,2.12,1.06A2.06,2.06,0,0,1,242.88,14.64Zm-6.24-.82a2.48,2.48,0,0,0-1.78-.82c-1.08,0-1.62.41-1.62,1.24,0,.31.2.57.62.78a2.22,2.22,0,0,0,1.1.28,1.68,1.68,0,0,0,1.14-.46A1.41,1.41,0,0,0,236.64,13.82Z"/><path class="cls-3" d="M256.14,4.16a1.67,1.67,0,0,1,.92.22.88.88,0,0,1,.42.72,1,1,0,0,1-.06.24h1.3a1.32,1.32,0,0,1,1.5,1.48v3.44a1.32,1.32,0,0,1-1.5,1.48H257.4v1H264a1.11,1.11,0,0,1,.8.24,1,1,0,0,1,.22.78,1.15,1.15,0,0,1-.18.7,1.08,1.08,0,0,1-.84.32h-3.54a38.2,38.2,0,0,0,4,1.8.86.86,0,0,1,.38.78,1.05,1.05,0,0,1-.34.82,1.32,1.32,0,0,1-1.14.5,3.49,3.49,0,0,1-1.16-.18,3.29,3.29,0,0,1-.84-.34,23.9,23.9,0,0,1-3.94-2.66v1.94a1.38,1.38,0,0,1-.38,1.1,1.44,1.44,0,0,1-1.1.38,1.52,1.52,0,0,1-1.12-.38,1.35,1.35,0,0,1-.38-1.1V15.78A20.51,20.51,0,0,1,251,18a11,11,0,0,1-1.58.6,2.74,2.74,0,0,1-.9.14,1.2,1.2,0,0,1-1-.7,1.28,1.28,0,0,1-.3-.94.84.84,0,0,1,.7-.86,25.88,25.88,0,0,0,3.4-1.12c.25-.11.48-.2.7-.28H248a1.07,1.07,0,0,1-.76-.24,1,1,0,0,1-.26-.78,1,1,0,0,1,.26-.8,1,1,0,0,1,.76-.22h6.4v-1h-1.08a1.31,1.31,0,0,1-1.48-1.48V6.82a1.31,1.31,0,0,1,1.48-1.48h1.42c0-.15.08-.31.14-.48A1.29,1.29,0,0,1,256.14,4.16Zm-7.64.32a.78.78,0,0,1,.44.12,10.15,10.15,0,0,1,2.36,1.92,1,1,0,0,1,.24.7,1.21,1.21,0,0,1-.32.78,1.22,1.22,0,0,1-.38.32.17.17,0,0,0,.1.06,1,1,0,0,1,.52.78,1.11,1.11,0,0,1-.16.6,3,3,0,0,1-.6.84,4.84,4.84,0,0,1-1.34,1.22,1,1,0,0,1-.72.32,1.69,1.69,0,0,1-1.12-.46,1.22,1.22,0,0,1-.44-.94.88.88,0,0,1,.24-.48c.13-.11.28-.23.44-.38l1-.88c.29-.29.5-.5.64-.62a.77.77,0,0,1,.34-.22c-.8-.69-1.52-1.29-2.14-1.8a.41.41,0,0,1-.16-.16,1,1,0,0,1-.16-.62,1.09,1.09,0,0,1,.44-.78A1.37,1.37,0,0,1,248.5,4.48Zm-.32-2.82h2.68a1.06,1.06,0,0,1,.28-.58,1.34,1.34,0,0,1,1.18-.44,1.71,1.71,0,0,1,1.22.34,1.19,1.19,0,0,1,.24.68h4.36a1,1,0,0,1,.26-.58,1.34,1.34,0,0,1,1.18-.44A1.71,1.71,0,0,1,260.8,1a1.26,1.26,0,0,1,.26.68h2.74a1.11,1.11,0,0,1,.8.24,1,1,0,0,1,.22.78,1.15,1.15,0,0,1-.18.7,1.08,1.08,0,0,1-.84.32h-2.74a1.24,1.24,0,0,1-.32.88,1.6,1.6,0,0,1-1.16.36,1.56,1.56,0,0,1-1.14-.36,1.2,1.2,0,0,1-.34-.88h-4.3a1.4,1.4,0,0,1-.32.88,1.6,1.6,0,0,1-1.16.36,1.63,1.63,0,0,1-1.16-.36,1.15,1.15,0,0,1-.32-.88h-2.66a1.14,1.14,0,0,1-.78-.24,1,1,0,0,1-.24-.78,1,1,0,0,1,.24-.78A1.07,1.07,0,0,1,248.18,1.66Zm6.24,6.18h3.22V7.3a.35.35,0,0,0-.4-.4h-2.42a.35.35,0,0,0-.4.4Zm2.82,2.34a.35.35,0,0,0,.4-.38V9.24h-3.22V9.8c0,.25.13.38.4.38ZM263,4.48a1.52,1.52,0,0,1,.94.36,1.08,1.08,0,0,1,.56.88,1,1,0,0,1-.14.52,2.29,2.29,0,0,1-.5.7A3.72,3.72,0,0,1,262.8,8a1.21,1.21,0,0,1-.38.24,10.76,10.76,0,0,1,2.16,1.48,1.06,1.06,0,0,1,.48.86,1.55,1.55,0,0,1-.26.88,1.16,1.16,0,0,1-1,.6.83.83,0,0,1-.48-.14,1.19,1.19,0,0,1-.4-.26c-.58-.49-1.21-1-1.9-1.46a.31.31,0,0,1-.18-.18.83.83,0,0,1-.4-.78,1.21,1.21,0,0,1,.36-.86.72.72,0,0,1,.44-.32,2.08,2.08,0,0,1-.34-.24,1.27,1.27,0,0,1-.46-1,.81.81,0,0,1,.24-.46L261,6l.72-.72a5.91,5.91,0,0,1,.44-.5A1.35,1.35,0,0,1,263,4.48Z"/><path class="cls-3" d="M273.48,10.42c0,.72-.06,1.38-.1,2a21.5,21.5,0,0,1-1.72,5.6,1.41,1.41,0,0,1-1.48.94,1.39,1.39,0,0,1-1-.34,1.32,1.32,0,0,1-.36-1.08,3,3,0,0,1,.34-1,26.31,26.31,0,0,0,1.4-4.88q.19-2.62.2-8.34c0-1.15.6-1.72,1.8-1.72h11.64c1.3,0,2,.57,2,1.72V5.88c0,1-.73,1.42-2.18,1.42H273.58c0,.29,0,.58,0,.86h10.38a3.29,3.29,0,0,1,2.24.54,4.83,4.83,0,0,1,.56,2.86c0,3.17-.15,5.07-.44,5.68a2.48,2.48,0,0,1-1.36,1.32,5.6,5.6,0,0,1-2.18.38,5.78,5.78,0,0,1-3-.86,1.37,1.37,0,0,1-.52-.7h-4A1.18,1.18,0,0,1,273.92,16V12.68a1.17,1.17,0,0,1,1.34-1.32h5.94a1.17,1.17,0,0,1,1.32,1.32v3.5l.24,0c.58,0,.91-.15,1-.46a19.06,19.06,0,0,0,.2-4.16,1.58,1.58,0,0,0-.24-1.06,1.34,1.34,0,0,0-.62-.1Zm.14-5.32h9.46c.09,0,.14,0,.14-.08V3.86s-.05-.08-.14-.08h-9.22c-.16,0-.24.05-.24.16Zm6.1,10.16a.34.34,0,0,0,.38-.38v-1c0-.27-.13-.4-.38-.4h-3c-.26,0-.38.13-.38.4v1a.33.33,0,0,0,.38.38Z"/><path class="cls-3" d="M308.42,3.62c.05.81-.44,1.31-1.48,1.5l-2,.4a6.77,6.77,0,0,0-2.24,1.08,6.52,6.52,0,0,0-2.74,5.26,2.16,2.16,0,0,0,.92,1.94,8,8,0,0,0,4.22.8,1.28,1.28,0,0,1,1.44,1.46,1.37,1.37,0,0,1-1.44,1.42q-8,0-8-5.62a8.59,8.59,0,0,1,3-6.18c-2.28.27-4.65.57-7.1.92a1.28,1.28,0,0,1-1.22-.38,1.58,1.58,0,0,1-.46-1.14,1.19,1.19,0,0,1,1.24-1.32A118,118,0,0,1,307,2.26a1.36,1.36,0,0,1,1,.4A1.48,1.48,0,0,1,308.42,3.62Zm-2.28,6.5a.66.66,0,0,1-.26.5,1,1,0,0,1-.54.2.83.83,0,0,1-.76-.42q-.29-.42-.9-1.38a1.76,1.76,0,0,1-.34-.88c0-.49.3-.74.9-.74a1,1,0,0,1,.76.4,8.71,8.71,0,0,1,1,1.6A1.59,1.59,0,0,1,306.14,10.12Zm2.38-.68c0,.45-.26.68-.78.68A.83.83,0,0,1,307,9.7l-.9-1.4a1.69,1.69,0,0,1-.34-.88c0-.47.29-.7.88-.7a1,1,0,0,1,.78.4,7.24,7.24,0,0,1,1,1.56A2.29,2.29,0,0,1,308.52,9.44Z"/><path class="cls-3" d="M330,1.5a1.26,1.26,0,0,1,1.26,1.34A1.21,1.21,0,0,1,330,4.16h-5c-.42,0-.62.19-.62.56V6.2h4.14a2.75,2.75,0,0,1,1.76.46,2.29,2.29,0,0,1,.58,1.64,13.42,13.42,0,0,1-1.54,5.7q-.18.32-.36.6a24,24,0,0,0,1.82,1.84,1.09,1.09,0,0,1,.48.94,1.06,1.06,0,0,1-.36.78,1.43,1.43,0,0,1-1.22.54,1.8,1.8,0,0,1-1.08-.32A10.87,10.87,0,0,1,327.22,17a14.15,14.15,0,0,1-1.12,1.08,2.35,2.35,0,0,1-1.52.78,1.66,1.66,0,0,1-1.18-.5,1.61,1.61,0,0,1-.32-.9,1.81,1.81,0,0,1,.56-1,13.47,13.47,0,0,0,1.88-1.9q-.22-.37-.42-.78a17.5,17.5,0,0,1-1-2,26.87,26.87,0,0,1-1.28,6,1.46,1.46,0,0,1-.48.68,1,1,0,0,1-.78.26,2.13,2.13,0,0,1-.74-.1,1.59,1.59,0,0,1-.74.18,1.06,1.06,0,0,1-.62-.16,6.06,6.06,0,0,1-1.34-2.46,1.31,1.31,0,0,1-.08-.5.68.68,0,0,1,.18-.48h-2.14a.92.92,0,0,1,.4.7,1.87,1.87,0,0,1-.1.62,3.83,3.83,0,0,1-.4.82,4.14,4.14,0,0,1-.9,1.22,1,1,0,0,1-.7.32,1.76,1.76,0,0,1-1.14-.46,1.22,1.22,0,0,1-.44-.94.88.88,0,0,1,.24-.48c.09-.11.19-.23.3-.38.21-.31.42-.6.62-.88a6.21,6.21,0,0,1,.42-.62q-1-.25-1-1.56V3.16A1.45,1.45,0,0,1,315,1.5h4.06a1.46,1.46,0,0,1,1.64,1.66v10.3a1.61,1.61,0,0,1-.5,1.32l0,0a2.68,2.68,0,0,1,.12.24,4.68,4.68,0,0,0,.3.54,24.57,24.57,0,0,0,.88-4.68c.06-1.68.1-3.22.1-4.62V3.78a2,2,0,0,1,2.26-2.28ZM315.82,5.26h2.5V4.16a.35.35,0,0,0-.4-.38H316.2a.33.33,0,0,0-.38.38Zm0,3.76h2.5V7.6h-2.5Zm2.1,3.82a.35.35,0,0,0,.4-.4V11.36h-2.5v1.08c0,.27.12.4.38.4Zm7.86-4.14a31.14,31.14,0,0,0,1.36,3.14,7,7,0,0,0,.72-2.76.35.35,0,0,0-.4-.38Z"/><path class="cls-3" d="M336.42,1.9h5.94V1.82a1.49,1.49,0,0,1,.44-1A1.73,1.73,0,0,1,343.92.5a1.61,1.61,0,0,1,1.1.3,1.27,1.27,0,0,1,.46,1V1.9h6.1a1.37,1.37,0,0,1,.92.26,1.27,1.27,0,0,1,.24.92,1.31,1.31,0,0,1-.22.8,1.16,1.16,0,0,1-.94.36h-6.1V5.5h5.24a1.24,1.24,0,0,1,.84.24,1.08,1.08,0,0,1,.24.84,1.19,1.19,0,0,1-.2.76,1.07,1.07,0,0,1-.88.34H337.2a1.19,1.19,0,0,1-.84-.26,1.06,1.06,0,0,1-.26-.84,1.06,1.06,0,0,1,.26-.84,1.2,1.2,0,0,1,.84-.24h5.16V4.24h-5.94a1.36,1.36,0,0,1-.9-.26,1.17,1.17,0,0,1-.28-.9,1.18,1.18,0,0,1,.28-.92A1.29,1.29,0,0,1,336.42,1.9Zm4.76,9.84a2.07,2.07,0,0,1,1.16.36.94.94,0,0,1,.32.82,5.25,5.25,0,0,1-.24,1.38A5.78,5.78,0,0,1,341,16.86a7.64,7.64,0,0,1-2.78,1.92,2.8,2.8,0,0,1-1.1.24,1.57,1.57,0,0,1-1.2-.48,1.53,1.53,0,0,1-.44-.94,1.15,1.15,0,0,1,.54-1A7,7,0,0,0,339,15.06a3.71,3.71,0,0,0,1-2.22,1.2,1.2,0,0,1,.4-.84A1.54,1.54,0,0,1,341.18,11.74Zm-3.6-2.88H350.4a1.73,1.73,0,0,1,2,1.94v1.26a1.11,1.11,0,0,1-.38,1,1.45,1.45,0,0,1-1,.34,1.73,1.73,0,0,1-1.16-.32,1.08,1.08,0,0,1-.24-.76v-.78c0-.21-.14-.32-.4-.32H338.76a.28.28,0,0,0-.32.32v.86q0,.64-.3.84a1.9,1.9,0,0,1-1.1.24,1.44,1.44,0,0,1-1-.32,1.35,1.35,0,0,1-.36-1V10.8A1.71,1.71,0,0,1,337.58,8.86ZM346,11.74a1.58,1.58,0,0,1,1,.32,1.15,1.15,0,0,1,.42.94v2.42a.55.55,0,0,0,.62.62h.86a.63.63,0,0,0,.56-.24,3.93,3.93,0,0,0,.3-1.08c.16-.36.57-.57,1.24-.62a2,2,0,0,1,1.16.36,1.26,1.26,0,0,1,.4,1,3.91,3.91,0,0,1-.62,2.26,3,3,0,0,1-2.42,1.1h-2.9a1.87,1.87,0,0,1-1.58-.64,2.75,2.75,0,0,1-.44-1.78V13a1.43,1.43,0,0,1,.34-.94A1.56,1.56,0,0,1,346,11.74Z"/><path class="cls-3" d="M373.44,4.62a1.19,1.19,0,0,1-1,1.32c-.7.12-1.8.29-3.32.5L370.74,9c.38.45.76.92,1.14,1.4a3,3,0,0,1,.74,1.52,1.18,1.18,0,0,1-.36.84,1.56,1.56,0,0,1-1.08.38,3.17,3.17,0,0,1-1.26-.44,10.14,10.14,0,0,0-4.78-1.16,3.8,3.8,0,0,0-2.32.6,1.55,1.55,0,0,0-.72,1.34q0,2,5,2c.2,0,.65,0,1.36-.1s1.18-.06,1.46-.06c1.1,0,1.66.48,1.66,1.44,0,.6-.44,1-1.32,1.22a13.65,13.65,0,0,1-2.46.12,18.12,18.12,0,0,1-5.64-.62,3.92,3.92,0,0,1-2.9-4,3.42,3.42,0,0,1,1.64-3A7.14,7.14,0,0,1,365,9.34c-.16,0,.82.09,3,.28-.58-.84-1.14-1.73-1.7-2.68a50.79,50.79,0,0,1-6,.36c-1.11,0-1.66-.47-1.66-1.4a1.06,1.06,0,0,1,.4-.84,1.94,1.94,0,0,1,1.32-.42A42.22,42.22,0,0,0,365,4.42c-.14-.25-.34-.63-.6-1.12a2.78,2.78,0,0,1-.28-1,.94.94,0,0,1,.44-.8,1.8,1.8,0,0,1,1.08-.32,1.37,1.37,0,0,1,1.26.72,5.72,5.72,0,0,1,.54,1c.26.64.42,1,.46,1.1a24.88,24.88,0,0,1,4.16-.74,1.22,1.22,0,0,1,1,.4A1.31,1.31,0,0,1,373.44,4.62Z"/><path class="cls-3" d="M397.06,14.3a2.56,2.56,0,0,1-1.12,2,4,4,0,0,1-2.56.88,2.61,2.61,0,0,1-2.08-.84,3.1,3.1,0,0,1-.74-2.18c0-.55.2-2.39.6-5.54.06-.57.1-.92.1-1,0-.55-.24-.82-.72-.82a3.28,3.28,0,0,0-1.66.82,22.27,22.27,0,0,0-3,2.48V17a1.23,1.23,0,0,1-.38.9,1.55,1.55,0,0,1-1.12.38A1.25,1.25,0,0,1,382.92,17c0-.08,0-.63,0-1.64l.08-2.7c-1.11,2-2,3-2.54,3a1.48,1.48,0,0,1-1.16-.5,1.34,1.34,0,0,1-.4-1,1.17,1.17,0,0,1,.22-.64q1.21-1.72,3.92-5.88c-.58.15-1.36.33-2.36.56a1,1,0,0,1-1-.38,1.62,1.62,0,0,1-.44-1.12c0-.83.34-1.31,1-1.44l3-.6c0-.72,0-1.49,0-2.32a1,1,0,0,1,.42-.84,1.66,1.66,0,0,1,1-.28,2,2,0,0,1,1.12.3.88.88,0,0,1,.4.78c0,1.72-.11,3.11-.2,4.18a26.71,26.71,0,0,1,3.14-2,5.33,5.33,0,0,1,2.32-.6A2.43,2.43,0,0,1,393.72,5a2.75,2.75,0,0,1,.46,1.5q0,.47-.66,6.12c-.11.92,0,1.38.46,1.38a1.43,1.43,0,0,0,.94-.54,1.47,1.47,0,0,1,.94-.54,1,1,0,0,1,.9.4A1.61,1.61,0,0,1,397.06,14.3Z"/><path class="cls-3" d="M418.42,3.62c.05.81-.44,1.31-1.48,1.5l-2,.4a6.77,6.77,0,0,0-2.24,1.08,6.52,6.52,0,0,0-2.74,5.26,2.16,2.16,0,0,0,.92,1.94,8,8,0,0,0,4.22.8,1.28,1.28,0,0,1,1.44,1.46,1.37,1.37,0,0,1-1.44,1.42q-8,0-8-5.62a8.59,8.59,0,0,1,3-6.18c-2.28.27-4.65.57-7.1.92a1.28,1.28,0,0,1-1.22-.38,1.58,1.58,0,0,1-.46-1.14,1.19,1.19,0,0,1,1.24-1.32A118,118,0,0,1,417,2.26a1.36,1.36,0,0,1,1,.4A1.48,1.48,0,0,1,418.42,3.62Z"/><path class="cls-3" d="M432.94,12.62a5.39,5.39,0,0,1-1.56,3.28,4.54,4.54,0,0,1-3.18,1.88,3.23,3.23,0,0,1-3-2,14.52,14.52,0,0,1-1.06-5c-.06-.8-.08-1.59-.08-2.36,0-.4.06-1.68.2-3.84a1.36,1.36,0,0,1,.54-1,2,2,0,0,1,1.2-.36,1.41,1.41,0,0,1,1,.38,1.39,1.39,0,0,1,.36,1c0,.11,0,.79-.06,2.06s-.06,2.46-.06,3.26a14.49,14.49,0,0,0,.3,3.2c.22,1,.52,1.46.88,1.46s1.08-.68,1.76-2c.33-.71.74-1.06,1.24-1.06C432.43,11.42,432.94,11.82,432.94,12.62ZM440,14a1.32,1.32,0,0,1-.42,1.1,1.53,1.53,0,0,1-2.06,0,1.39,1.39,0,0,1-.46-1,25.09,25.09,0,0,0-.8-4.3A28.65,28.65,0,0,0,435,5.66a1.43,1.43,0,0,1-.16-.62,1.28,1.28,0,0,1,.48-1,1.63,1.63,0,0,1,1.08-.4,1.33,1.33,0,0,1,1.3.88,34.39,34.39,0,0,1,1.46,4.72A28.43,28.43,0,0,1,440,14Z"/><path class="cls-3" d="M462,12.32a5.12,5.12,0,0,1-2,4.34,8.71,8.71,0,0,1-5.48,1.58,6.65,6.65,0,0,1-3.68-.86,2.63,2.63,0,0,1-1.3-2.3,2.32,2.32,0,0,1,.92-1.92,3.89,3.89,0,0,1,2.66-.84,4.85,4.85,0,0,1,2.58.78,6.17,6.17,0,0,1,1.8,1.8,3,3,0,0,0,1.66-2.58A2.06,2.06,0,0,0,458,10.58a4.83,4.83,0,0,0-2.56-.66,10.1,10.1,0,0,0-3.08.54A9.69,9.69,0,0,0,449.24,12l-1,.78a2,2,0,0,1-1,.38,1.33,1.33,0,0,1-1-.34,1.15,1.15,0,0,1-.36-.84,1.81,1.81,0,0,1,.68-1.44q1.92-1.62,7.26-5.84-4.72.36-4.5.36a1.71,1.71,0,0,1-1.18-.4,1.17,1.17,0,0,1-.48-.9,1.47,1.47,0,0,1,.4-1,1.37,1.37,0,0,1,1.08-.42c.72,0,2.12-.07,4.2-.2s3.46-.22,4.14-.3a1.19,1.19,0,0,1,1.12.42A1.86,1.86,0,0,1,459,3.46c0,.29-.59.87-1.76,1.72-.8.6-1.92,1.47-3.34,2.6a15.28,15.28,0,0,1,2.76-.22,5.9,5.9,0,0,1,3.5,1.08A4.26,4.26,0,0,1,462,12.32ZM455,15.78a2.38,2.38,0,0,0-1.74-1.16c-.82,0-1.22.2-1.22.6s.62.68,1.86.68A5.29,5.29,0,0,0,455,15.78Z"/><path class="cls-3" d="M478.26,15.82a1.84,1.84,0,0,1-.7,1.46,2.39,2.39,0,0,1-1.6.58,2.31,2.31,0,0,1-1.56-.58,1.78,1.78,0,0,1-.68-1.46,1.75,1.75,0,0,1,.68-1.44A2.31,2.31,0,0,1,476,13.8a2.39,2.39,0,0,1,1.6.58A1.77,1.77,0,0,1,478.26,15.82ZM477.92,4l-.64,7.7c-.08.69-.55,1-1.4,1a1.08,1.08,0,0,1-1.22-1L474.06,4c-.1-1.48.55-2.22,1.94-2.22a1.86,1.86,0,0,1,1.46.58A2.18,2.18,0,0,1,477.92,4Z"/><path class="cls-3" d="M503.36,6.1a3.67,3.67,0,0,1-1,2.74,19.08,19.08,0,0,1-2.2,1.4c-.38.19-.6.35-.66.5a1.77,1.77,0,0,0-.06.58,1.25,1.25,0,0,1-.44,1,1.5,1.5,0,0,1-1,.34,1.63,1.63,0,0,1-1-.3,1.29,1.29,0,0,1-.46-1.06v-1a2.19,2.19,0,0,1,1-1.82c.65-.35,1.29-.68,1.92-1s1-.81,1-1.26c0-1-.8-1.56-2.38-1.56a2.62,2.62,0,0,0-1.74.56,5,5,0,0,0-1,1.24,1.7,1.7,0,0,1-1.38.84,1.31,1.31,0,0,1-1-.42,1.37,1.37,0,0,1-.42-1,3.51,3.51,0,0,1,1.22-2.3,6.43,6.43,0,0,1,8.16-.42A3.66,3.66,0,0,1,503.36,6.1Zm-3.1,9.72a1.85,1.85,0,0,1-.68,1.46,2.36,2.36,0,0,1-1.58.58,2.29,2.29,0,0,1-1.58-.58,1.78,1.78,0,0,1-.68-1.46,1.75,1.75,0,0,1,.68-1.44A2.29,2.29,0,0,1,498,13.8a2.36,2.36,0,0,1,1.58.58A1.78,1.78,0,0,1,500.26,15.82Z"/></g></g></svg>