<svg xmlns="http://www.w3.org/2000/svg" viewBox="0 0 801 27.28"><defs><style>.cls-1{fill:#4a74a6;}.cls-2,.cls-3{fill:none;stroke:#444;stroke-linecap:round;stroke-linejoin:round;stroke-width:1px;}.cls-3{stroke-dasharray:5 5;}</style></defs><g id="Layer_2" data-name="Layer 2"><g id="レイヤー_2" data-name="レイヤー 2"><line class="cls-1" x1="0.5" y1="26.78" x2="800.5" y2="26.78"/><line class="cls-2" x1="0.5" y1="26.78" x2="3" y2="26.78"/><line class="cls-3" x1="8" y1="26.78" x2="795.5" y2="26.78"/><line class="cls-2" x1="798" y1="26.78" x2="800.5" y2="26.78"/><path class="cls-1" d="M14.08.66A1.71,1.71,0,0,1,15.24,1a1.34,1.34,0,0,1,.48,1.08v.38h5.94a1.29,1.29,0,0,1,.9.26,1,1,0,0,1,.26.84,1.25,1.25,0,0,1-.22.8,1.14,1.14,0,0,1-.94.38H19.28L18.94,6.2h2.94A1.08,1.08,0,0,1,23,7.38a1.08,1.08,0,0,1-1.1,1.16H17.66V9.72H21.5a1.08,1.08,0,0,1,.8.22,1.16,1.16,0,0,1,.22.8,1.32,1.32,0,0,1-.18.78,1,1,0,0,1-.84.3H17.66v1H21.1a1.16,1.16,0,0,1,.8.22.93.93,0,0,1,.22.72,1.15,1.15,0,0,1-.18.7,1.08,1.08,0,0,1-.84.32H17.66v1.08h4.22a1.27,1.27,0,0,1,.92.28,1.19,1.19,0,0,1,.26.9,1.25,1.25,0,0,1-.22.8,1.16,1.16,0,0,1-1,.38h-12A1.22,1.22,0,0,1,9,18a1.14,1.14,0,0,1-.28-.9A1.18,1.18,0,0,1,9,16.14a1.27,1.27,0,0,1,.88-.26h4.94V14.8h-4a1.07,1.07,0,0,1-.76-.24,1,1,0,0,1-.24-.78,1,1,0,0,1,.2-.7,1.1,1.1,0,0,1-.46-.26A.94.94,0,0,1,9.14,12a1.18,1.18,0,0,1,.2-.62,12.41,12.41,0,0,0,1.52-2.74l0-.08H9.22q-.54,0-.54.48v.3a23.29,23.29,0,0,1-1.32,8.6,1.46,1.46,0,0,1-.48.68,1,1,0,0,1-.78.26,1.41,1.41,0,0,1-1-.28,1.08,1.08,0,0,1-.36-.9,2.31,2.31,0,0,1,.12-.52A15.89,15.89,0,0,0,6,12.78c.05-1.25.08-2.41.08-3.46V8.24a1.83,1.83,0,0,1,2.1-2H9.5L9.18,4.72H6.56a1.22,1.22,0,0,1-.88-.28,1.14,1.14,0,0,1-.28-.9,1.08,1.08,0,0,1,.28-.86,1.32,1.32,0,0,1,.88-.24h5.86V2.06A1.55,1.55,0,0,1,12.9,1,1.84,1.84,0,0,1,14.08.66Zm.78,12.18v-1H11.92a7,7,0,0,1-.5.78l-.16.24ZM12.48,6.2H16l.32-1.48H12.14Zm2.38,3.52V8.54h-2a1.48,1.48,0,0,1,.1.56,2,2,0,0,1-.14.62Z"/><path class="cls-1" d="M29.82.88a1.77,1.77,0,0,1,1,.24.88.88,0,0,1,.44.78,19.91,19.91,0,0,1-.2,2.34h1.22a2.25,2.25,0,0,1,1.54.46,2.17,2.17,0,0,1,.5,1.58,20.26,20.26,0,0,1-.88,5.58c-.22.59-.44,1.14-.68,1.66.42.33.84.68,1.24,1a1,1,0,0,1,.46.56V13.7A1.23,1.23,0,0,1,35,12.58a1,1,0,0,1-.58-.26,1.16,1.16,0,0,1-.32-.88v-.7A1.52,1.52,0,0,1,35.84,9h7.88c1.2,0,1.8.57,1.8,1.72v.86a1,1,0,0,1-.36.86,1.16,1.16,0,0,1-.56.26A1.45,1.45,0,0,1,45,13.78V16.6A1.72,1.72,0,0,1,44.5,18,2.27,2.27,0,0,1,43,18.4h-.66a2.35,2.35,0,0,1-.66-.1.76.76,0,0,1-.58-.34l0-.12a1.23,1.23,0,0,1-.36.92,1.44,1.44,0,0,1-1.06.34,1.3,1.3,0,0,1-1-.34,1.26,1.26,0,0,1-.34-1V14.4h-1a.14.14,0,0,0-.16.16v2.66c0,.69-.48,1.06-1.32,1.1s-1.29-.41-1.34-1.1v-1.1a1.37,1.37,0,0,1-.28.5,1.13,1.13,0,0,1-1,.52,1.64,1.64,0,0,1-1-.5c-.24-.23-.48-.45-.7-.68a12,12,0,0,1-1.4,1.72,2.62,2.62,0,0,1-1.56,1,1.41,1.41,0,0,1-1.08-.34,1.19,1.19,0,0,1-.34-.82,1.31,1.31,0,0,1,.4-.94,18.24,18.24,0,0,0,1.94-2.38l-1.16-.92a1.69,1.69,0,0,1-.78-1.56,6.47,6.47,0,0,1,.14-1.22c.2-1.19.38-2.42.56-3.7h-.24a1,1,0,0,1-.86-.34,1.23,1.23,0,0,1-.3-1,1.4,1.4,0,0,1,.32-1,1.11,1.11,0,0,1,.84-.28h.56c.08-.76.15-1.54.22-2.34a1,1,0,0,1,.4-.8A1.3,1.3,0,0,1,29.82.88ZM30.7,12a.35.35,0,0,1,.06-.14,11.77,11.77,0,0,0,1.1-4.8c0-.16-.14-.24-.4-.24H30.7c-.16,1-.35,2-.56,3.22A7,7,0,0,0,30,11.12a.63.63,0,0,0,.28.6ZM35.6,1.28h7.34c1.25,0,1.88.55,1.88,1.64v4c0,1-.55,1.56-1.64,1.56H35.44c-.59,0-.9-.4-.94-1.08s.35-1,.94-1H41.7c.3,0,.46-.13.46-.4V5.8H35.6A.84.84,0,0,1,35,5.58a.9.9,0,0,1-.22-.7A1,1,0,0,1,35,4.1a1,1,0,0,1,.6-.16h6.56V3.86a.46.46,0,0,0-.46-.48H35.6c-.6,0-.92-.4-.94-1.08A.92.92,0,0,1,35.6,1.28Zm.9,11h1.84V11H37q-.3,0-.3.24v.32A1,1,0,0,1,36.5,12.3ZM41.08,11V12.3h2a1.16,1.16,0,0,1-.12-.56v-.46c0-.16-.13-.24-.38-.24Zm0,3.36v2.08a.52.52,0,0,1,.22-.22.88.88,0,0,1,.4-.14h.38c.16,0,.24-.05.24-.16V14.48c0-.05-.06-.08-.16-.08Z"/><path class="cls-1" d="M58,1a1.85,1.85,0,0,1,1.18.32,1.31,1.31,0,0,1,.38,1.1V5.82a9.56,9.56,0,0,0,1.28,4.66,24.08,24.08,0,0,0,5.9,6.12,1.36,1.36,0,0,1,.48,1.16,1.12,1.12,0,0,1-.46.94,1.66,1.66,0,0,1-1.1.4,4.76,4.76,0,0,1-.94-.18,1.68,1.68,0,0,1-.68-.4c-1.3-.93-3.12-3.08-5.48-6.44-.2-.28-.39-.42-.56-.42s-.25.12-.34.36a26.15,26.15,0,0,1-6,6.72,2.06,2.06,0,0,1-1.42.36,1.5,1.5,0,0,1-1.12-.58,1.42,1.42,0,0,1-.3-.76,2,2,0,0,1,.24-1,22.85,22.85,0,0,0,5.84-5.6A9.84,9.84,0,0,0,56.5,6V2.38a1.34,1.34,0,0,1,.4-1.08A1.61,1.61,0,0,1,58,1Z"/><path class="cls-1" d="M78.12.88a1.08,1.08,0,0,1,1,.4,1.27,1.27,0,0,1,.42.86L79.7,2a1.44,1.44,0,0,1,.92-.38.83.83,0,0,1,.56.2,13.52,13.52,0,0,1,3,2.86.88.88,0,0,1,.3.7,1.37,1.37,0,0,1-.34.84,1.24,1.24,0,0,1-1,.48.7.7,0,0,1-.54-.2c-1.1-1.07-2.07-2-2.92-2.76a.71.71,0,0,1-.22-.24.57.57,0,0,1-.2-.38.86.86,0,0,1-.18.16,10.85,10.85,0,0,1-2.2.9V6h1.42a1.4,1.4,0,0,1,1,.3.74.74,0,0,1,.22.34,1.38,1.38,0,0,1,.74-.24.8.8,0,0,1,.54.18A13.37,13.37,0,0,1,83.58,9.4a.91.91,0,0,1,.32.7,1.32,1.32,0,0,1-.36.86,1.19,1.19,0,0,1-1,.48.58.58,0,0,1-.52-.22c-1-1-2-1.93-2.78-2.68a1.48,1.48,0,0,1-1,.32H76.86V10l.06,0a2,2,0,0,1,.88-.18.75.75,0,0,1,.48.16,4.84,4.84,0,0,1,.86,1,12.76,12.76,0,0,1,.78,1.42h.16q2.23-.22,4.44-.48V2.22a1.3,1.3,0,0,1,.42-1,1.23,1.23,0,0,1,1-.38,1.33,1.33,0,0,1,1,.38,1.36,1.36,0,0,1,.4,1v9.32l.86-.1a1.21,1.21,0,0,1,.9.4,1.5,1.5,0,0,1,.26.92,1.41,1.41,0,0,1-.3.94,1.47,1.47,0,0,1-.86.4l-.86.14v3.3a1.46,1.46,0,0,1-.28.9,1.27,1.27,0,0,1-1.12.5,1.32,1.32,0,0,1-1.1-.48,1.34,1.34,0,0,1-.32-.92V14.68a34.29,34.29,0,0,1-4.38.34,1.29,1.29,0,0,1-1-.34.6.6,0,0,1-.14-.2h-.16a.91.91,0,0,1-.86-.62c-.38-.76-.74-1.45-1.1-2.08v5.76a1.23,1.23,0,0,1-.34,1,1.44,1.44,0,0,1-1.06.34,1.33,1.33,0,0,1-1-.34,1.27,1.27,0,0,1-.32-1v-4A5.45,5.45,0,0,1,73,15.26a1.06,1.06,0,0,1-.94.4,1.16,1.16,0,0,1-.94-.44,1.71,1.71,0,0,1-.38-1.12,1.53,1.53,0,0,1,.26-.8,26.39,26.39,0,0,0,2.86-4.44H72.1a1.23,1.23,0,0,1-1.32-1.42,1.4,1.4,0,0,1,.36-1.12,1.3,1.3,0,0,1,1-.28h2V4.74c-.64.12-1.32.21-2,.28A1.18,1.18,0,0,1,70.84,3.7c0-.72.31-1.14.86-1.26a35.73,35.73,0,0,0,5.74-1.36A3.31,3.31,0,0,1,78.12.88Z"/><path class="cls-1" d="M96.6.72a2.19,2.19,0,0,1,1.3.36c.38.13.58.49.58,1.06a2.64,2.64,0,0,1-.14.84l-.18.8h2.26a2.65,2.65,0,0,1,1.72.48,1.93,1.93,0,0,1,.46.82,1.72,1.72,0,0,1,.34-.06,1.15,1.15,0,0,1,.62.16,7.41,7.41,0,0,1,.7.58V2.22a1.32,1.32,0,0,1,.4-1,1.23,1.23,0,0,1,1-.38,1.53,1.53,0,0,1,1.08.38,1.36,1.36,0,0,1,.4,1V8.78a38.84,38.84,0,0,0,3.32,2.84,2.45,2.45,0,0,1,.76.84,1.06,1.06,0,0,1,0,1.34,1.37,1.37,0,0,1-1.14.6,2.22,2.22,0,0,1-1.34-.4q-.81-.59-1.56-1.2v4.74a1.46,1.46,0,0,1-.28.9,1.39,1.39,0,0,1-1.2.5,1.26,1.26,0,0,1-1.08-.48,1.34,1.34,0,0,1-.32-.92V10.12c-.59-.63-1.14-1.27-1.66-1.92l-.08-.1a18.54,18.54,0,0,1-1,3.7,16.64,16.64,0,0,1-4.72,6.08,4.12,4.12,0,0,1-2.2,1.06,1.59,1.59,0,0,1-1.24-.4,1.36,1.36,0,0,1-.4-.94,1.47,1.47,0,0,1,.4-1,21.94,21.94,0,0,0,3.84-3.48,26.93,26.93,0,0,0-2.14-2,1.39,1.39,0,0,1-.76.2A1.68,1.68,0,0,1,93,10.84a1.26,1.26,0,0,1-.46-1,2.24,2.24,0,0,1,.24-.9,27.69,27.69,0,0,0,2.8-7.24C95.75,1,96.09.72,96.6.72Zm-.08,7.74A14.52,14.52,0,0,1,98.8,10.7a8.65,8.65,0,0,0,1.08-4c0-.09-.13-.14-.38-.14H97.34C97.1,7.17,96.82,7.82,96.52,8.46Z"/><path class="cls-1" d="M117.2,2.3h5.3V2.06a1.3,1.3,0,0,1,.42-1,1.26,1.26,0,0,1,1-.36A1.53,1.53,0,0,1,125,1a1.3,1.3,0,0,1,.42,1V2.3h5.46a1.45,1.45,0,0,1,1,.3,1.29,1.29,0,0,1,.3,1,1.38,1.38,0,0,1-.24.9,1.37,1.37,0,0,1-1.1.42H125.4V8.7h1.52a.88.88,0,0,1-.12-.46A.79.79,0,0,1,127,7.8a9.39,9.39,0,0,0,1.26-1.92c.18-.52.47-.78.86-.78a1.73,1.73,0,0,1,1.12.36c.29.13.44.46.44,1a1.41,1.41,0,0,1-.22.58A7.31,7.31,0,0,1,129.3,8.7h2.12a1.3,1.3,0,0,1,.92.28c.21.15.32.49.32,1a1.65,1.65,0,0,1-.18.92,1.26,1.26,0,0,1-1.06.42h-3.56a33.72,33.72,0,0,0,4.72,4.3.85.85,0,0,1,.4.78,1,1,0,0,1-.34.78,1.2,1.2,0,0,1-1.06.46,2.3,2.3,0,0,1-1.18-.3,2.57,2.57,0,0,1-.84-.56,27.22,27.22,0,0,1-4.16-4.62v5.34a1.46,1.46,0,0,1-.28.9,1.44,1.44,0,0,1-1.2.5,1.32,1.32,0,0,1-1.1-.48,1.34,1.34,0,0,1-.32-.92V13.16A24.39,24.39,0,0,1,119,16.72a8.52,8.52,0,0,1-1.66,1,1.8,1.8,0,0,1-.94.24,1.28,1.28,0,0,1-1.1-.74,1.27,1.27,0,0,1-.32-1,.91.91,0,0,1,.7-.94,18.41,18.41,0,0,0,3.44-2.5c.65-.57,1.18-1.07,1.6-1.48h-4.1A1.18,1.18,0,0,1,115.4,10,1.29,1.29,0,0,1,115.76,9a1.22,1.22,0,0,1,.88-.26h2a.78.78,0,0,1-.3-.46A20.43,20.43,0,0,0,117,6.66a.23.23,0,0,1,0-.14,1.87,1.87,0,0,1,.12-.6,1.56,1.56,0,0,1,.74-.66,1.65,1.65,0,0,1,.7-.16,1.46,1.46,0,0,1,1.26.56,3.54,3.54,0,0,1,1,1.08,1.74,1.74,0,0,1,.36.86,1.1,1.1,0,0,1-.34.88,2.09,2.09,0,0,1-.28.22h2V4.94h-5.3a1.48,1.48,0,0,1-1-.3,1.3,1.3,0,0,1-.32-1,1.32,1.32,0,0,1,.32-1A1.5,1.5,0,0,1,117.2,2.3Z"/><path class="cls-1" d="M153.42.66a1,1,0,0,1,.78.36,1.34,1.34,0,0,1,.32.88,1.06,1.06,0,0,1-.86,1.1l-1.34.16a1.87,1.87,0,0,1,.92.4,1.21,1.21,0,0,1,.64,1,1.08,1.08,0,0,1-.12.52,3.71,3.71,0,0,1-.5.7,3.67,3.67,0,0,1-.5.58,1.7,1.7,0,0,1,1.76,1.94V10a1.16,1.16,0,0,1-.4,1,1.38,1.38,0,0,1-1,.34H153v.08a3.78,3.78,0,0,1-1.1,2.62,10.58,10.58,0,0,1-2.34,1.72,39.13,39.13,0,0,0,4.54.5c.64,0,1,.45,1,1.18a1.54,1.54,0,0,1-.24,1c-.14.32-.48.49-1,.52a28.57,28.57,0,0,1-3.42-.22,24.88,24.88,0,0,1-4.94-1.16,27.13,27.13,0,0,1-4,1.06,14.86,14.86,0,0,1-3.28.4,1.4,1.4,0,0,1-1-.44,1.08,1.08,0,0,1-.32-.82,1.21,1.21,0,0,1,1-1.32c1.26-.25,2.42-.51,3.46-.76a11.81,11.81,0,0,1-1.78-1.34,1.63,1.63,0,0,1-.58-1.26,1.29,1.29,0,0,1,.38-.8,1.11,1.11,0,0,1-.6-.36.8.8,0,0,1-.24-.58,1.34,1.34,0,0,1-.82-.3,1.38,1.38,0,0,1-.36-1V8.3a1.72,1.72,0,0,1,2-1.94h.3a16.56,16.56,0,0,0-1.28-1.3.16.16,0,0,1,0-.12,1.81,1.81,0,0,1,.12-.58,1,1,0,0,1,.26-.34h-.38c-.79,0-1.18-.47-1.18-1.42,0-.61.39-1,1.1-1q8-.17,14.2-.88C152.86.67,153.18.66,153.42.66ZM140.2,10h10.56a5.4,5.4,0,0,1,.94.08V9c0-.21-.14-.32-.4-.32H140.52a.28.28,0,0,0-.32.32Zm2.06-3.6h3.06a.3.3,0,0,1,0-.08,20.43,20.43,0,0,0-1.36-1.58.23.23,0,0,1,0-.14A2,2,0,0,1,144,4a.45.45,0,0,1,.1-.14L141,4l.1.12a3.92,3.92,0,0,1,.92.92,1.46,1.46,0,0,1,.34.74A1.26,1.26,0,0,1,142.26,6.36Zm-.74,5.94a19.65,19.65,0,0,0,3.82,2.28,10.22,10.22,0,0,0,3.56-1.7.67.67,0,0,0,.22-.5c0-.05-.06-.08-.16-.08Zm6.32-5.94h2a1.26,1.26,0,0,1-.26-.78,1.14,1.14,0,0,1,.32-.64l.3-.28.62-.66.4-.46a1.17,1.17,0,0,1,.6-.32c-1.6.17-3.32.32-5.16.44l0,0a4.12,4.12,0,0,1,1,1.08,1.73,1.73,0,0,1,.36.88A1.21,1.21,0,0,1,147.84,6.36Z"/><path class="cls-1" d="M171.5.88a2.53,2.53,0,0,1,1.88.9Q174.72,3,176.9,4.94a1.36,1.36,0,0,1,.4.86,1.55,1.55,0,0,1-.44,1.1,1.43,1.43,0,0,1-1.06.48,1.35,1.35,0,0,1-1-.4,21,21,0,0,1-2.54-2.56c-.28-.37-.52-.56-.7-.56s-.34.13-.54.38a26.44,26.44,0,0,1-2.5,2.62,1.74,1.74,0,0,1-1.1.58,1.43,1.43,0,0,1-1.2-.54,2,2,0,0,1-.3-.58,1.39,1.39,0,0,1-.76.2H160a1.22,1.22,0,0,1-.88-.28,1.11,1.11,0,0,1-.3-.9,1.14,1.14,0,0,1,.3-.92,1.27,1.27,0,0,1,.88-.26h5.16a1.27,1.27,0,0,1,.92.28.88.88,0,0,1,.24.6c1.32-1.16,2.52-2.31,3.62-3.46A2,2,0,0,1,171.5.88Zm-10.78,11.5h3.76a1.52,1.52,0,0,1,1.72,1.72v2.8a1.52,1.52,0,0,1-1.72,1.72h-3.76A1.52,1.52,0,0,1,159,16.9V14.1A1.52,1.52,0,0,1,160.72,12.38Zm-.3-5.32h4.52a1.32,1.32,0,0,1,.86.22,1,1,0,0,1,.24.8,1.17,1.17,0,0,1-.2.74,1.1,1.1,0,0,1-.9.34h-4.52a1.24,1.24,0,0,1-.84-.24,1.08,1.08,0,0,1-.26-.84,1,1,0,0,1,.26-.8A1.26,1.26,0,0,1,160.42,7.06Zm0,2.66h4.44a1.32,1.32,0,0,1,.86.22,1,1,0,0,1,.24.8,1.17,1.17,0,0,1-.2.74,1.1,1.1,0,0,1-.9.34h-4.44a1.24,1.24,0,0,1-.84-.24,1.08,1.08,0,0,1-.26-.84,1,1,0,0,1,.26-.8A1.26,1.26,0,0,1,160.42,9.72Zm.08-8.36h4.28a1.1,1.1,0,0,1,.76.22c.17.12.26.41.26.86a1.34,1.34,0,0,1-.16.76,1,1,0,0,1-.86.34H160.5a1,1,0,0,1-.74-.26,1,1,0,0,1-.28-.84,1.1,1.1,0,0,1,.28-.88A1.09,1.09,0,0,1,160.5,1.36ZM163,16.52a.49.49,0,0,0,.54-.56V15a.48.48,0,0,0-.54-.54h-.8a.48.48,0,0,0-.54.54V16a.49.49,0,0,0,.54.56Zm9.52-10.86a1.36,1.36,0,0,1,.86.3,1.15,1.15,0,0,1,.4.86,1.53,1.53,0,0,1-.32.94,9.57,9.57,0,0,1-2.12,1.64,16.05,16.05,0,0,1-2.88,1.34,3,3,0,0,1-.94.14,1.06,1.06,0,0,1-.82-.58,1.92,1.92,0,0,1-.2-.9.9.9,0,0,1,.56-.78,12,12,0,0,0,2.88-1.24,10.82,10.82,0,0,0,1.88-1.5A1.07,1.07,0,0,1,172.52,5.66Zm2.42,2.72a1.22,1.22,0,0,1,.8.28,1.11,1.11,0,0,1,.38.82,1.53,1.53,0,0,1-.32.94,13.45,13.45,0,0,1-3.12,2.32,20.6,20.6,0,0,1-4.22,1.9,2.47,2.47,0,0,1-.94.16c-.28,0-.56-.2-.82-.6a1.87,1.87,0,0,1-.2-.88,1,1,0,0,1,.56-.8,19.06,19.06,0,0,0,4.34-1.78,14,14,0,0,0,2.84-2.12A1,1,0,0,1,174.94,8.38Zm1,4.08a1.33,1.33,0,0,1,.86.32,1.29,1.29,0,0,1,.4.92,1.56,1.56,0,0,1-.4,1,14.59,14.59,0,0,1-3.4,2.2,24.94,24.94,0,0,1-4.56,1.78,2.19,2.19,0,0,1-1,.24,1.14,1.14,0,0,1-.88-.62,2,2,0,0,1-.22-.94,1.09,1.09,0,0,1,.62-.94,22.06,22.06,0,0,0,4.7-1.72,15.06,15.06,0,0,0,3-2A1.5,1.5,0,0,1,176,12.46Z"/><path class="cls-1" d="M185.5,3.44c-.16,1.28-.32,2.57-.46,3.88a48,48,0,0,0-.32,4.92c0,1.24,0,2.59.12,4.06a1.41,1.41,0,0,1-.42,1.12,1.5,1.5,0,0,1-1.06.42,1.36,1.36,0,0,1-1-.34,1.3,1.3,0,0,1-.46-1c-.08-1.55-.12-3-.12-4.24s.26-4.42.8-9.14A1.28,1.28,0,0,1,184,1.8a1.57,1.57,0,0,1,1.1.44A1.41,1.41,0,0,1,185.5,3.44Zm13.38,11.28a1.66,1.66,0,0,1-.44,1.06,1.23,1.23,0,0,1-.92.52,1.12,1.12,0,0,1-.64-.28q-.3-.23-1.38-1A4.71,4.71,0,0,1,191,17.64a5.54,5.54,0,0,1-3.18-.86,2.79,2.79,0,0,1-1.32-2.38A2.91,2.91,0,0,1,188,11.8a5.17,5.17,0,0,1,3-.84,4.47,4.47,0,0,1,1.72.32c0-.68-.06-1.81-.08-3.4-2.78,0-4.22,0-4.34,0a1.27,1.27,0,0,1-1-.42,1.39,1.39,0,0,1-.4-1,1.29,1.29,0,0,1,.38-1,1.23,1.23,0,0,1,1.14-.32c1,.08,2.44.09,4.22,0V3.64q0-1.8,1.56-1.8a1.61,1.61,0,0,1,1.16.34,1.67,1.67,0,0,1,.32,1.14c0,.23,0,.76,0,1.6q.6-.12,1.68-.24c1-.08,1.54.28,1.54,1.08A1.71,1.71,0,0,1,198.4,7a2,2,0,0,1-1.3.44l-1.58.18c0,1.84.07,3.32.14,4.44a14.06,14.06,0,0,1,2.12,1.06A2.06,2.06,0,0,1,198.88,14.72Zm-6.24-.82a2.48,2.48,0,0,0-1.78-.82c-1.08,0-1.62.41-1.62,1.24,0,.31.2.57.62.78a2.22,2.22,0,0,0,1.1.28,1.68,1.68,0,0,0,1.14-.46A1.41,1.41,0,0,0,192.64,13.9Z"/><path class="cls-1" d="M210.1,4.06a25.5,25.5,0,0,1-1.36,7.32,24.54,24.54,0,0,1-2.3,5.56,1.27,1.27,0,0,1-1.06.72,1.71,1.71,0,0,1-1.14-.42,1.24,1.24,0,0,1-.5-1,1.54,1.54,0,0,1,.24-.8,21.45,21.45,0,0,0,2-4.9,22.62,22.62,0,0,0,1.24-6.46,1.4,1.4,0,0,1,.46-1.12,1.57,1.57,0,0,1,1-.34,1.41,1.41,0,0,1,1,.38A1.37,1.37,0,0,1,210.1,4.06ZM220.2,16a2.88,2.88,0,0,1,0,.32,1.27,1.27,0,0,1-.44,1,1.48,1.48,0,0,1-1,.4,1.31,1.31,0,0,1-1.42-1.2,55.44,55.44,0,0,0-1.34-5.4A48.67,48.67,0,0,0,213.94,5a1.4,1.4,0,0,1-.16-.66,1.25,1.25,0,0,1,.44-1,1.45,1.45,0,0,1,1-.42,1.33,1.33,0,0,1,1.3.88,51.15,51.15,0,0,1,2.24,6.46Q219.84,14,220.2,16Z"/><path class="cls-1" d="M243.18,9.8a1.62,1.62,0,0,1-.36,1.06,1.28,1.28,0,0,1-1.08.54H226.26a1.33,1.33,0,0,1-1.1-.52,1.54,1.54,0,0,1-.36-1,1.73,1.73,0,0,1,.38-1.1,1.29,1.29,0,0,1,1.08-.48h15.48a1.37,1.37,0,0,1,1.08.48A1.55,1.55,0,0,1,243.18,9.8Z"/><path class="cls-1" d="M262.84,10.14a1.47,1.47,0,0,1-.34,1,1.19,1.19,0,0,1-1,.48,2.93,2.93,0,0,1-.58-.06l-6.2-1.88v7a1.36,1.36,0,0,1-.46,1.1,1.45,1.45,0,0,1-1.08.36,1.36,1.36,0,0,1-1-.4,1.38,1.38,0,0,1-.4-1.06V3a1.43,1.43,0,0,1,.46-1.12,1.37,1.37,0,0,1,1-.32,1.47,1.47,0,0,1,1,.4,1.37,1.37,0,0,1,.42,1V6.66l7.08,2.14A1.32,1.32,0,0,1,262.84,10.14Zm-2.16-5.22a.65.65,0,0,1-.28.5.9.9,0,0,1-.52.2.87.87,0,0,1-.78-.42l-.9-1.4a1.73,1.73,0,0,1-.32-.88q0-.72.9-.72a.93.93,0,0,1,.74.4,7.89,7.89,0,0,1,1,1.58A1.72,1.72,0,0,1,260.68,4.92Zm2.42-.78c0,.47-.27.7-.8.7a.81.81,0,0,1-.76-.42l-.9-1.4a1.69,1.69,0,0,1-.34-.88c0-.48.29-.72.88-.72a1,1,0,0,1,.78.4,8.84,8.84,0,0,1,1,1.58A1.88,1.88,0,0,1,263.1,4.14Z"/><path class="cls-1" d="M274.5,9.1A13.08,13.08,0,0,1,272,17.3a1.4,1.4,0,0,1-1.14.6,1.55,1.55,0,0,1-1.06-.48,1.33,1.33,0,0,1-.42-1.06,1.46,1.46,0,0,1,.32-.82,10.35,10.35,0,0,0,1.86-6.44v-5a1.35,1.35,0,0,1,.4-1,1.49,1.49,0,0,1,1-.4A1.39,1.39,0,0,1,274,3a1.29,1.29,0,0,1,.48,1.08Zm12.2,1.84q-2.31,4.5-4.78,6.1a3.63,3.63,0,0,1-1.92.7,2.34,2.34,0,0,1-2.12-1.14,4.4,4.4,0,0,1-.6-2.4V3.4a1.3,1.3,0,0,1,.42-1,1.48,1.48,0,0,1,1-.38,1.4,1.4,0,0,1,1,.34,1.35,1.35,0,0,1,.44,1.08V13.68c0,.45.12.68.36.68s.38-.2.72-.6a19.43,19.43,0,0,0,2.84-4.16,1.35,1.35,0,0,1,1.2-.8,1.53,1.53,0,0,1,1.08.4,1.31,1.31,0,0,1,.48,1A1.6,1.6,0,0,1,286.7,10.94Z"/><path class="cls-1" d="M303.1,9.7c0,5.36-1.26,8-3.76,8a5.14,5.14,0,0,1-2.28-.52,1.8,1.8,0,0,1-1.26-1.62q0-1.2,1.14-1.2a3.07,3.07,0,0,1,.94.22,3,3,0,0,0,.9.22c.65,0,1.08-.72,1.28-2.16.06-.59.1-1.61.1-3.08,0-1.16-.52-1.74-1.54-1.74a8.59,8.59,0,0,0-.88.06,38.67,38.67,0,0,1-3.3,8.48c-.43.77-.86,1.16-1.28,1.16a1.57,1.57,0,0,1-1.06-.36,1.05,1.05,0,0,1-.42-.84,2.4,2.4,0,0,1,.26-1.12,36.49,36.49,0,0,0,2.9-7,14.46,14.46,0,0,1-2,.26,1.35,1.35,0,0,1-.66-.14A1.37,1.37,0,0,1,291.56,7c0-.69.42-1.1,1.26-1.22.54,0,1.42-.13,2.62-.28.29-1.2.46-2,.52-2.44a1.46,1.46,0,0,1,1.56-1.46,1.4,1.4,0,0,1,1,.36,1.08,1.08,0,0,1,.38.88,6.07,6.07,0,0,1-.1.84c-.08.24-.2.75-.36,1.54l1.12-.08.44,0A2.7,2.7,0,0,1,302,6,5.27,5.27,0,0,1,303.1,9.7ZM308,11.1a1.26,1.26,0,0,1-.46,1,1.75,1.75,0,0,1-1.1.36,1.14,1.14,0,0,1-1.16-.8q-.36-1-1-3c-.36-1.29-.62-2.11-.76-2.46s-.27-.65-.4-1a2.65,2.65,0,0,1-.28-1,.89.89,0,0,1,.46-.74,2,2,0,0,1,1.16-.32,1.13,1.13,0,0,1,.94.54,24.88,24.88,0,0,1,2.5,7A1.88,1.88,0,0,1,308,11.1ZM307.3,3a.66.66,0,0,1-.26.5.93.93,0,0,1-.54.2.81.81,0,0,1-.76-.42l-.9-1.4A1.69,1.69,0,0,1,304.5,1c0-.48.29-.72.88-.72a1,1,0,0,1,.76.42,7,7,0,0,1,1,1.56A1.88,1.88,0,0,1,307.3,3Zm2.58-.3c0,.48-.27.72-.8.72a.83.83,0,0,1-.76-.42l-.9-1.42a1.67,1.67,0,0,1-.36-.88c0-.48.3-.72.92-.72a.93.93,0,0,1,.74.4,7.58,7.58,0,0,1,1,1.58A1.88,1.88,0,0,1,309.88,2.72Z"/><path class="cls-1" d="M322,.58a1.86,1.86,0,0,1,1.22.32,1.29,1.29,0,0,1,.48.92h6.1a1.48,1.48,0,0,1,1,.26,1.22,1.22,0,0,1,.28.92,1.43,1.43,0,0,1-.22.86,1.35,1.35,0,0,1-1,.38H314.26a1.43,1.43,0,0,1-1-.28,1.22,1.22,0,0,1-.3-1,1.14,1.14,0,0,1,.3-.92,1.47,1.47,0,0,1,1-.26h6.1a1.67,1.67,0,0,1,.46-.94A1.84,1.84,0,0,1,322,.58Zm6.72,9.68c1.29,0,1.94.55,1.94,1.64V17a1.92,1.92,0,0,1-.52,1.52,2.44,2.44,0,0,1-1.58.44H327.4a6.15,6.15,0,0,1-1.14-.12,1.32,1.32,0,0,1-1-.44,1.68,1.68,0,0,1-.34-.7h-6a1.24,1.24,0,0,1-1.4-1.4V14.56a1.24,1.24,0,0,1,1.4-1.4H325a1.24,1.24,0,0,1,1.4,1.4v1.5l.22,0h.88c.16,0,.24-.07.24-.22V12.6s-.08-.08-.24-.08H316.68c-.16,0-.24.05-.24.16v5.16c-.06.75-.55,1.14-1.48,1.18s-1.36-.43-1.4-1.18v-6.1c0-1,.62-1.48,1.86-1.48Zm-12.2-5.38h11.34a1.17,1.17,0,0,1,1.32,1.32V8.3a1.18,1.18,0,0,1-1.32,1.34H316.52A1.18,1.18,0,0,1,315.2,8.3V6.2A1.17,1.17,0,0,1,316.52,4.88ZM326,7.68c.21,0,.32-.1.32-.3V7.14a.29.29,0,0,0-.32-.32H318.4a.28.28,0,0,0-.32.32v.24c0,.2.1.3.32.3Zm-2.34,8.2a.27.27,0,0,0,.3-.3v-.32a.27.27,0,0,0-.3-.3h-3.28c-.22,0-.32.1-.32.3v.32c0,.2.1.3.32.3Z"/><path class="cls-1" d="M344.94,12.7A5.39,5.39,0,0,1,343.38,16a4.54,4.54,0,0,1-3.18,1.88,3.23,3.23,0,0,1-3-2,14.52,14.52,0,0,1-1.06-5c-.06-.8-.08-1.59-.08-2.36,0-.4.06-1.68.2-3.84a1.36,1.36,0,0,1,.54-1,2,2,0,0,1,1.2-.36,1.41,1.41,0,0,1,1,.38,1.39,1.39,0,0,1,.36,1c0,.11,0,.79-.06,2.06s-.06,2.46-.06,3.26a14.49,14.49,0,0,0,.3,3.2c.22,1,.52,1.46.88,1.46s1.08-.68,1.76-2c.33-.71.74-1.06,1.24-1.06C344.43,11.5,344.94,11.9,344.94,12.7Zm7.1,1.42a1.32,1.32,0,0,1-.42,1.1,1.53,1.53,0,0,1-2.06,0,1.39,1.39,0,0,1-.46-1,25.09,25.09,0,0,0-.8-4.3A28.65,28.65,0,0,0,347,5.74a1.43,1.43,0,0,1-.16-.62,1.28,1.28,0,0,1,.48-1,1.63,1.63,0,0,1,1.08-.4,1.33,1.33,0,0,1,1.3.88,34.39,34.39,0,0,1,1.46,4.72A28.43,28.43,0,0,1,352,14.12Z"/></g></g></svg>