<svg xmlns="http://www.w3.org/2000/svg" viewBox="0 0 801 27.35"><defs><style>.cls-1{fill:#4a74a6;}.cls-2,.cls-3{fill:none;stroke:#4a74a6;stroke-linecap:round;stroke-linejoin:round;stroke-width:1px;}.cls-3{stroke-dasharray:5 5;}</style></defs><g id="Layer_2" data-name="Layer 2"><g id="レイヤー_2" data-name="レイヤー 2"><path class="cls-1" d="M13.14,1a2.42,2.42,0,0,1,1.16.2A1.19,1.19,0,0,1,15,2.3a4.77,4.77,0,0,1-.74,1.94c-.1.16-.18.32-.26.48h7.8a1.69,1.69,0,0,1,1.12.3,1.29,1.29,0,0,1,.3,1A1.51,1.51,0,0,1,23,7a1.47,1.47,0,0,1-1.16.44H20.46a8.38,8.38,0,0,1-.58,2.36,10.43,10.43,0,0,1-2.36,3.92,47.89,47.89,0,0,1,4.84,2.64,1.4,1.4,0,0,1,.54,1.18,1.27,1.27,0,0,1-.36.8,1.18,1.18,0,0,1-1.12.52A2.89,2.89,0,0,1,20,18.52c-1.68-1-3.32-1.93-4.9-2.72a22.51,22.51,0,0,1-5.62,2.68,8.7,8.7,0,0,1-2.74.46,1.59,1.59,0,0,1-1.24-.52,1.84,1.84,0,0,1-.48-1,1.21,1.21,0,0,1,.64-1,33.07,33.07,0,0,0,6.08-2c-.74-.28-1.46-.53-2.18-.76-1.46-.48-2.18-1.11-2.18-1.9a2.6,2.6,0,0,1,.42-1.16L9.34,7.44h-3a1.64,1.64,0,0,1-1.08-.32A1.38,1.38,0,0,1,4.92,6a1.29,1.29,0,0,1,.34-1,1.65,1.65,0,0,1,1.08-.28h4.34l1.36-3a1.22,1.22,0,0,1,.52-.64A1.61,1.61,0,0,1,13.14,1Zm4.38,6.48h-5a24,24,0,0,0-1.6,3.3c0,.23.2.37.62.44,1.1.43,2.15.85,3.14,1.28A8.39,8.39,0,0,0,17.52,7.44Z"/><path class="cls-1" d="M35.6,1.66a1.59,1.59,0,0,1,.94.3.93.93,0,0,1,.4.88,10.22,10.22,0,0,1-.22,1.48h1.7V2.22a1.33,1.33,0,0,1,.32-1A1.47,1.47,0,0,1,39.82.88a1.48,1.48,0,0,1,1.08.3,1.44,1.44,0,0,1,.32,1v2.1h2.36a1.18,1.18,0,0,1,.92.28,1.53,1.53,0,0,1,.24,1,1.62,1.62,0,0,1-.2.9,1.18,1.18,0,0,1-1,.34H41.22v2.9h2a1.56,1.56,0,0,1,1,.28,1.28,1.28,0,0,1,.28,1,1.38,1.38,0,0,1-.24.9,1.3,1.3,0,0,1-1.08.44h-2v3H43.8a1.69,1.69,0,0,1,1.12.3,1.36,1.36,0,0,1,.3,1,1.51,1.51,0,0,1-.26,1A1.47,1.47,0,0,1,43.8,18H34.9a1.64,1.64,0,0,1-1.08-.32,1.42,1.42,0,0,1-.32-1.08,1.28,1.28,0,0,1,.32-1,1.58,1.58,0,0,1,1.08-.3h3.52v-3H35.6a1.41,1.41,0,0,1-1-.32,1.3,1.3,0,0,1-.32-1,1.13,1.13,0,0,1,.32-1,1.42,1.42,0,0,1,1-.28h2.82V6.82H36.14c-.22.83-.42,1.51-.62,2-.14.36-.5.54-1.1.54A1.14,1.14,0,0,1,33.6,9a.72.72,0,0,1-.32-.54,1,1,0,0,1-.5-.16.42.42,0,0,1-.22-.3c-.07-.28-.15-.59-.24-.92v10.6a1.48,1.48,0,0,1-.26.88A1.2,1.2,0,0,1,31,19a1.22,1.22,0,0,1-1-.46,1.29,1.29,0,0,1-.3-.88V7.44c-.19,1.63-.34,2.7-.46,3.22s-.49.62-1.1.62a1.22,1.22,0,0,1-.9-.32,1.09,1.09,0,0,1-.36-.94,6.37,6.37,0,0,1,.06-.72,46.34,46.34,0,0,0,.8-5,.79.79,0,0,1,.8-.62,1.63,1.63,0,0,1,1,.26.86.86,0,0,1,.18.16v-2a1.22,1.22,0,0,1,.38-1A1.21,1.21,0,0,1,31,.8a1.24,1.24,0,0,1,.94.36,1.26,1.26,0,0,1,.38,1V3.78a1.1,1.1,0,0,1,.4-.08,1,1,0,0,1,.84.32A5.29,5.29,0,0,1,34,5.1c.2-.85.38-1.76.54-2.72A.94.94,0,0,1,35.6,1.66Z"/><path class="cls-1" d="M66.68,9.94a7.32,7.32,0,0,1-2.2,5.5,8.61,8.61,0,0,1-3.94,2.18,5.19,5.19,0,0,1-.72.14,1.44,1.44,0,0,1-1.08-.44,1.58,1.58,0,0,1-.42-1.1,1.27,1.27,0,0,1,1-1.24,10.1,10.1,0,0,0,3.18-1.76,4.35,4.35,0,0,0,1.3-3.28c0-2.71-1.4-4.21-4.2-4.52,0,.24,0,.49,0,.76a14.85,14.85,0,0,1-1.8,7.12q-2,3.58-4.5,3.58a3.23,3.23,0,0,1-2.92-1.74,6.25,6.25,0,0,1-.86-3.3,9.13,9.13,0,0,1,2.3-6.54,8.65,8.65,0,0,1,6.64-2.58,9,9,0,0,1,5.9,1.78A6.67,6.67,0,0,1,66.68,9.94Zm-10-3.76c0-.28,0-.49,0-.62a5.28,5.28,0,0,0-3.24,2.1A6.94,6.94,0,0,0,52.3,11.8c0,1.45.34,2.18,1,2.18.34,0,.76-.31,1.26-.94A8.82,8.82,0,0,0,56,10.38,12.68,12.68,0,0,0,56.72,6.18Z"/><path class="cls-1" d="M89.32,13a4.06,4.06,0,0,1-1.94,3.78,9.65,9.65,0,0,1-4.84,1q-6.71,0-6.7-4.62A4.57,4.57,0,0,1,78,9.54a3.6,3.6,0,0,1,.36-6.18,8.37,8.37,0,0,1,4.22-.94q6.25,0,6.26,4.24a2.85,2.85,0,0,1-.58,1.68A4,4,0,0,1,87,9.5Q89.32,10.94,89.32,13Zm-2.88-.1q0-.9-1.26-1.5a6.23,6.23,0,0,0-2.64-.54,6,6,0,0,0-2.42.5c-.91.41-1.36.95-1.36,1.6s.4,1.09,1.22,1.5a5.43,5.43,0,0,0,2.46.56,6.61,6.61,0,0,0,2.68-.5Q86.44,13.92,86.44,12.88ZM85.9,6.72q0-1.56-3.36-1.56c-2.16,0-3.24.51-3.24,1.54,0,.51.33.91,1,1.22a5.44,5.44,0,0,0,2.24.4,6.15,6.15,0,0,0,2.34-.38C85.56,7.66,85.9,7.25,85.9,6.72Z"/><path class="cls-1" d="M107.14,1a1.85,1.85,0,0,1,1.18.32,1.31,1.31,0,0,1,.38,1.1V5.82A9.56,9.56,0,0,0,110,10.48a24.08,24.08,0,0,0,5.9,6.12,1.36,1.36,0,0,1,.48,1.16,1.12,1.12,0,0,1-.46.94,1.66,1.66,0,0,1-1.1.4,4.76,4.76,0,0,1-.94-.18,1.68,1.68,0,0,1-.68-.4c-1.3-.93-3.12-3.08-5.48-6.44-.2-.28-.39-.42-.56-.42s-.25.12-.34.36a26.15,26.15,0,0,1-6,6.72,2.06,2.06,0,0,1-1.42.36,1.5,1.5,0,0,1-1.12-.58,1.42,1.42,0,0,1-.3-.76,2,2,0,0,1,.24-1,22.85,22.85,0,0,0,5.84-5.6A9.84,9.84,0,0,0,105.64,6V2.38A1.34,1.34,0,0,1,106,1.3,1.61,1.61,0,0,1,107.14,1Z"/><path class="cls-1" d="M125.08,3.64A2.65,2.65,0,0,1,125,4a29.48,29.48,0,0,0-.94,6.88c0,.48,0,1.4.1,2.76s.06,2.41.06,3.14a1.18,1.18,0,0,1-.48.92,1.83,1.83,0,0,1-1.18.4,1.27,1.27,0,0,1-.82-.28.94.94,0,0,1-.38-.74c-.1-1.52-.14-3.46-.14-5.82a30.64,30.64,0,0,1,.92-7.76,1.37,1.37,0,0,1,1.42-1.14,1.64,1.64,0,0,1,1.08.34A1.17,1.17,0,0,1,125.08,3.64Zm12.5,12a1.3,1.3,0,0,1-1,1.42,16.76,16.76,0,0,1-3.7.28,11.77,11.77,0,0,1-4.86-.74,3.47,3.47,0,0,1-1.88-3.42,3.62,3.62,0,0,1,.62-1.94c.41-.67.86-1,1.34-1a1.65,1.65,0,0,1,1.1.34,1.1,1.1,0,0,1,.4.86,7.06,7.06,0,0,1-.32.78,2.48,2.48,0,0,0-.28,1c0,.95,1.24,1.42,3.74,1.42a18.84,18.84,0,0,0,2.2-.14l1.26-.14C137.1,14.28,137.58,14.72,137.58,15.6ZM137,4.94a1.45,1.45,0,0,1-.38,1,1.42,1.42,0,0,1-1.24.34c-.8-.08-1.76-.12-2.86-.12a34.11,34.11,0,0,0-3.8.2A1.35,1.35,0,0,1,127.56,6a1.49,1.49,0,0,1-.42-1.08q0-1.18,1.44-1.32c1.34-.13,2.54-.2,3.58-.2s2.19.07,3.54.2a1.42,1.42,0,0,1,1,.48A1.25,1.25,0,0,1,137,4.94Z"/><path class="cls-1" d="M156.66,16.16a1.57,1.57,0,0,1-.42,1.14,1.37,1.37,0,0,1-1,.44c-1,0-1.46-.52-1.46-1.56V6.2a3,3,0,0,1-1.66.68,1.3,1.3,0,0,1-1.3-1.32,1.57,1.57,0,0,1,.82-1.48l2.3-1.3a2.67,2.67,0,0,1,1.34-.36c.94,0,1.42.56,1.42,1.68Z"/><path class="cls-1" d="M178.28,1a1.85,1.85,0,0,1,1.18.32,1.31,1.31,0,0,1,.38,1.1V5.82a9.56,9.56,0,0,0,1.28,4.66A24.08,24.08,0,0,0,187,16.6a1.36,1.36,0,0,1,.48,1.16,1.12,1.12,0,0,1-.46.94,1.66,1.66,0,0,1-1.1.4,4.76,4.76,0,0,1-.94-.18,1.68,1.68,0,0,1-.68-.4c-1.3-.93-3.12-3.08-5.48-6.44-.2-.28-.39-.42-.56-.42s-.25.12-.34.36a26.15,26.15,0,0,1-6,6.72,2.06,2.06,0,0,1-1.42.36,1.5,1.5,0,0,1-1.12-.58,1.42,1.42,0,0,1-.3-.76,2,2,0,0,1,.24-1,22.85,22.85,0,0,0,5.84-5.6A9.84,9.84,0,0,0,176.78,6V2.38a1.34,1.34,0,0,1,.4-1.08A1.61,1.61,0,0,1,178.28,1Z"/><path class="cls-1" d="M203.38,9.7c0,5.36-1.26,8-3.76,8a5.14,5.14,0,0,1-2.28-.52,1.8,1.8,0,0,1-1.26-1.62q0-1.2,1.14-1.2a3.07,3.07,0,0,1,.94.22,3,3,0,0,0,.9.22c.65,0,1.08-.72,1.28-2.16.06-.59.1-1.61.1-3.08,0-1.16-.52-1.74-1.54-1.74a8.59,8.59,0,0,0-.88.06,38.67,38.67,0,0,1-3.3,8.48c-.43.77-.86,1.16-1.28,1.16a1.57,1.57,0,0,1-1.06-.36,1.05,1.05,0,0,1-.42-.84,2.4,2.4,0,0,1,.26-1.12,36.49,36.49,0,0,0,2.9-7,14.46,14.46,0,0,1-2,.26,1.35,1.35,0,0,1-.66-.14A1.37,1.37,0,0,1,191.84,7c0-.69.42-1.1,1.26-1.22.54,0,1.42-.13,2.62-.28.29-1.2.46-2,.52-2.44a1.46,1.46,0,0,1,1.56-1.46,1.4,1.4,0,0,1,1,.36,1.08,1.08,0,0,1,.38.88,6.07,6.07,0,0,1-.1.84c-.08.24-.2.75-.36,1.54l1.12-.08.44,0a2.7,2.7,0,0,1,2,.86A5.27,5.27,0,0,1,203.38,9.7Zm4.88,1.4a1.26,1.26,0,0,1-.46,1,1.75,1.75,0,0,1-1.1.36,1.14,1.14,0,0,1-1.16-.8q-.36-1-1-3c-.36-1.29-.62-2.11-.76-2.46s-.27-.65-.4-1a2.65,2.65,0,0,1-.28-1,.89.89,0,0,1,.46-.74,2,2,0,0,1,1.16-.32,1.13,1.13,0,0,1,.94.54,24.88,24.88,0,0,1,2.5,7A1.88,1.88,0,0,1,208.26,11.1ZM207.58,3a.66.66,0,0,1-.26.5.93.93,0,0,1-.54.2A.81.81,0,0,1,206,3.3l-.9-1.4a1.69,1.69,0,0,1-.34-.88c0-.48.29-.72.88-.72a1,1,0,0,1,.76.42,7,7,0,0,1,1,1.56A1.88,1.88,0,0,1,207.58,3Zm2.58-.3c0,.48-.27.72-.8.72A.83.83,0,0,1,208.6,3l-.9-1.42a1.67,1.67,0,0,1-.36-.88c0-.48.3-.72.92-.72a.93.93,0,0,1,.74.4A7.58,7.58,0,0,1,210,2,1.88,1.88,0,0,1,210.16,2.72Z"/><path class="cls-1" d="M230.7,5q0,2.45-2.7,4.36a15.47,15.47,0,0,1-4.92,2.26,6.77,6.77,0,0,1-1.6,3.8,8.56,8.56,0,0,1-3.2,2.34,3.1,3.1,0,0,1-1.1.32c-1,0-1.54-.49-1.54-1.48,0-.41.31-.81.94-1.18.36-.16.88-.43,1.56-.82a4.36,4.36,0,0,0,1.9-2.66,14.85,14.85,0,0,0,.28-3.34,1.23,1.23,0,0,1,.42-1,1.5,1.5,0,0,1,1-.38,1.64,1.64,0,0,1,1.12.4,1.39,1.39,0,0,1,.46,1.08A5.72,5.72,0,0,0,226,7.48c1.2-.83,1.8-1.47,1.8-1.94,0-.24-.28-.36-.82-.36H215.52a1.25,1.25,0,0,1-1-.4,1.3,1.3,0,0,1-.38-.94,1.15,1.15,0,0,1,.4-.9,1.43,1.43,0,0,1,.94-.34h12.54a2.77,2.77,0,0,1,1.88.64A2.24,2.24,0,0,1,230.7,5Z"/><path class="cls-1" d="M252.28,5.86q0,4-4.1,7.6a22.47,22.47,0,0,1-7.7,4.44,2.14,2.14,0,0,1-.54.08,1.2,1.2,0,0,1-1-.48,1.42,1.42,0,0,1-.38-1,1.27,1.27,0,0,1,1-1.3,20.57,20.57,0,0,0,6.14-3.36A9.43,9.43,0,0,0,249.24,7a1.6,1.6,0,0,0,.08-.38c0-.29-.24-.44-.72-.44h-11a1.34,1.34,0,0,1-1.06-.42,1.44,1.44,0,0,1-.38-1,1.4,1.4,0,0,1,1.44-1.48h12C251.36,3.24,252.28,4.11,252.28,5.86Z"/><path class="cls-1" d="M273.9,6a9.2,9.2,0,0,1-1.6,4.78,16.23,16.23,0,0,1-4.3,4.62,16.25,16.25,0,0,1-6.44,2.88,1.42,1.42,0,0,1-.34,0,1.24,1.24,0,0,1-1-.46,1.55,1.55,0,0,1-.36-1A1.34,1.34,0,0,1,261,15.46a13.69,13.69,0,0,0,5.64-2.72,18.85,18.85,0,0,0-2.12-1.3,1.42,1.42,0,0,1-.3-2.3,1.32,1.32,0,0,1,1-.44,1.5,1.5,0,0,1,.7.2l1.34.72,1.5,1.06A10.37,10.37,0,0,0,270.88,7a1.48,1.48,0,0,0,.06-.38.16.16,0,0,0-.16-.18h-6.3a20.27,20.27,0,0,1-4,4.56,1.55,1.55,0,0,1-.94.34,1.34,1.34,0,0,1-1-.48,1.44,1.44,0,0,1-.44-1,1.32,1.32,0,0,1,.58-1.1,19.75,19.75,0,0,0,5-6.62,1.3,1.3,0,0,1,1.26-.82,1.52,1.52,0,0,1,1,.42,1.27,1.27,0,0,1,.46,1,1.49,1.49,0,0,1-.18.7l-.16.3h5.06C273,3.7,273.9,4.48,273.9,6Z"/><path class="cls-1" d="M297.46,9.8a1.62,1.62,0,0,1-.36,1.06,1.28,1.28,0,0,1-1.08.54H280.54a1.33,1.33,0,0,1-1.1-.52,1.54,1.54,0,0,1-.36-1,1.73,1.73,0,0,1,.38-1.1,1.29,1.29,0,0,1,1.08-.48H296a1.37,1.37,0,0,1,1.08.48A1.55,1.55,0,0,1,297.46,9.8Z"/><path class="cls-1" d="M317.58,15.58a1.29,1.29,0,0,1-1.24,1.4,47,47,0,0,1-7,.56,7.27,7.27,0,0,1-4.32-1,4.44,4.44,0,0,1-1.62-3.9V3.3a1.36,1.36,0,0,1,.42-1.06,1.45,1.45,0,0,1,1-.38,1.39,1.39,0,0,1,1,.34,1.34,1.34,0,0,1,.5,1.1V6.42a54.89,54.89,0,0,0,8.18-2.16,1.64,1.64,0,0,1,.8-.18,1.35,1.35,0,0,1,.94.52,1.55,1.55,0,0,1,.34,1,1.3,1.3,0,0,1-.82,1.2c-1.36.67-4.51,1.51-9.44,2.54V12.6c0,.92.24,1.51.74,1.78a7.1,7.1,0,0,0,2.28.22,47,47,0,0,0,6.52-.48,1.5,1.5,0,0,1,1.2.38A1.7,1.7,0,0,1,317.58,15.58ZM320.06,2.2a2,2,0,0,1-.68,1.54,2.26,2.26,0,0,1-1.54.62,2.32,2.32,0,0,1-1.6-.58,2,2,0,0,1-.66-1.54A2,2,0,0,1,316.2.7a2.43,2.43,0,0,1,3.22,0A2,2,0,0,1,320.06,2.2Zm-1.32,0a.82.82,0,0,0-.26-.62,1,1,0,0,0-.66-.24c-.62,0-.92.29-.92.88a.8.8,0,0,0,.26.64,1,1,0,0,0,.66.24.92.92,0,0,0,.62-.26A.77.77,0,0,0,318.74,2.2Z"/><path class="cls-1" d="M328.78,9.1a13.08,13.08,0,0,1-2.48,8.2,1.4,1.4,0,0,1-1.14.6,1.55,1.55,0,0,1-1.06-.48,1.33,1.33,0,0,1-.42-1.06,1.46,1.46,0,0,1,.32-.82,10.35,10.35,0,0,0,1.86-6.44v-5a1.35,1.35,0,0,1,.4-1,1.49,1.49,0,0,1,1-.4A1.39,1.39,0,0,1,328.3,3a1.29,1.29,0,0,1,.48,1.08ZM341,10.94q-2.31,4.5-4.78,6.1a3.63,3.63,0,0,1-1.92.7,2.34,2.34,0,0,1-2.12-1.14,4.4,4.4,0,0,1-.6-2.4V3.4a1.3,1.3,0,0,1,.42-1A1.48,1.48,0,0,1,333,2a1.4,1.4,0,0,1,1,.34,1.35,1.35,0,0,1,.44,1.08V13.68c0,.45.12.68.36.68s.38-.2.72-.6A19.43,19.43,0,0,0,338.4,9.6a1.35,1.35,0,0,1,1.2-.8,1.53,1.53,0,0,1,1.08.4,1.31,1.31,0,0,1,.48,1A1.6,1.6,0,0,1,341,10.94Z"/><path class="cls-1" d="M362.62,9.14a1.27,1.27,0,0,1-1,1.32c-1,.36-2.31.87-3.92,1.54,0,.43.06.87.06,1.34a1.36,1.36,0,0,1-.42,1.06,1.49,1.49,0,0,1-1,.4,1.41,1.41,0,0,1-1-.4,1.31,1.31,0,0,1-.44-1.06l0-.16-.54.26c-1.5.64-2.24,1.21-2.24,1.7s.81.58,2.44.58a49.52,49.52,0,0,0,5.1-.28,1.49,1.49,0,0,1,1.14.36,1.42,1.42,0,0,1,.48,1,1.23,1.23,0,0,1-.3.88,1.25,1.25,0,0,1-1,.44c-1.95.15-3.76.22-5.44.22q-5.34,0-5.34-3.5,0-1.8,5.22-4.3a1.76,1.76,0,0,0-1.58-1.12,4,4,0,0,0-2.44.76L348.16,12a1.8,1.8,0,0,1-1,.34,1.22,1.22,0,0,1-.9-.36,1.28,1.28,0,0,1-.36-.92,1.66,1.66,0,0,1,.58-1.22A24.79,24.79,0,0,0,349.58,6c-.83,0-1.47,0-1.92,0a1.5,1.5,0,0,1-1.08-.36,1.1,1.1,0,0,1-.38-.92,1.28,1.28,0,0,1,.4-.94,1.41,1.41,0,0,1,1.06-.4c.73,0,1.92,0,3.58-.12a7.16,7.16,0,0,0,.54-1.1,1.27,1.27,0,0,1,1.3-1,1.34,1.34,0,0,1,1,.4,1.17,1.17,0,0,1,.42.94,2.14,2.14,0,0,1-.08.54l0,.1c1.78-.11,3.12-.2,4-.28a1.59,1.59,0,0,1,1.14.34,1.42,1.42,0,0,1,.38.94c0,.79-.4,1.21-1.3,1.28q-2.08.18-5.68.4c-.28.43-.61.91-1,1.44A10.27,10.27,0,0,0,353.3,7,3.84,3.84,0,0,1,357,9.34c1.6-.68,2.84-1.17,3.74-1.46a2.29,2.29,0,0,1,.56-.08,1.2,1.2,0,0,1,.92.38A1.6,1.6,0,0,1,362.62,9.14Z"/><path class="cls-1" d="M369.08.72a15.43,15.43,0,0,1,2,.26q3,.67,5.82,1.4A40.36,40.36,0,0,0,381.42.8a1.45,1.45,0,0,1,.86-.3,1.56,1.56,0,0,1,1,.5,1.75,1.75,0,0,1,.58,1.14c0,.37-.46.74-1.38,1.1l-1,.42c.92.27,1.81.54,2.68.82a1.11,1.11,0,0,1,.7,1,1.27,1.27,0,0,1-.32.86,1.16,1.16,0,0,1-1.08.46,5.82,5.82,0,0,1-1.9-.3L377,5.2l-1.54.46A1.28,1.28,0,0,1,376,6.74a1.15,1.15,0,0,1-.16.58s0,0,0,.06h8.16a1.56,1.56,0,0,1,1,.28,1.28,1.28,0,0,1,.28,1,1.38,1.38,0,0,1-.24.9,1.32,1.32,0,0,1-1.08.44h-5.8V11.2h4.46c1.3,0,2,.55,2,1.64V16.6a1.83,1.83,0,0,1-.54,1.5,2.44,2.44,0,0,1-1.58.44h-.94a4.75,4.75,0,0,1-1-.1,1.09,1.09,0,0,1-.84-.4,1.57,1.57,0,0,1-.3-.9,1.81,1.81,0,0,1,.08-.56,1.27,1.27,0,0,1,.58-.52,3.14,3.14,0,0,1,.7-.18h.66c.16,0,.24-.05.24-.14V13.86s-.08-.08-.24-.08h-3.28V17.6a1.45,1.45,0,0,1-.36,1.12,1.81,1.81,0,0,1-2.22,0,1.38,1.38,0,0,1-.38-1.12V13.78h-3.12a.21.21,0,0,0-.24.24V17.3c-.06.73-.55,1.12-1.48,1.16S369,18,368.92,17.3V14.36a2.13,2.13,0,0,1-.78.12,1.39,1.39,0,0,1-1.1-.58,1.3,1.3,0,0,1-.38-1,1,1,0,0,1,.4-.78c1-.76,1.94-1.49,2.74-2.18h-1.34a1.5,1.5,0,0,1-1-.32,1.3,1.3,0,0,1-.32-1,1.13,1.13,0,0,1,.32-1,1.5,1.5,0,0,1,1-.28h3.94c.3-.37.59-.75.86-1.14-.88.2-1.74.37-2.56.5a11.73,11.73,0,0,1-2.08.16,1.08,1.08,0,0,1-.92-.64,1.11,1.11,0,0,1-.26-.84.75.75,0,0,1,.62-.78c1.26-.23,2.55-.51,3.86-.84l-3.7-1a.83.83,0,0,1-.46-.78,1.4,1.4,0,0,1,.48-1A1.18,1.18,0,0,1,369.08.72Zm6.1,10.48V10h-1.32c-.4.44-.79.85-1.16,1.24Z"/><path class="cls-1" d="M390.62,10.66H405.7a1.35,1.35,0,0,1,.8.2,1,1,0,0,1,.22.74,1,1,0,0,1-.2.68,1,1,0,0,1-.82.32h-5.86v1.1h5.38a1.13,1.13,0,0,1,.74.2.85.85,0,0,1,.2.66,1.07,1.07,0,0,1-.16.64,1,1,0,0,1-.78.3h-5.38v.94h6.56a1.16,1.16,0,0,1,.8.22,1.11,1.11,0,0,1,.22.8,1,1,0,0,1-.2.68,1,1,0,0,1-.82.32H390.14a1.11,1.11,0,0,1-.76-.22,1,1,0,0,1-.26-.78,1,1,0,0,1,.26-.8,1.08,1.08,0,0,1,.76-.22h6.64V15.5h-5.62a1.05,1.05,0,0,1-.72-.22.93.93,0,0,1-.22-.72.78.78,0,0,1,.22-.66,1.12,1.12,0,0,1,.72-.2h5.62V12.6h-6.16a1.15,1.15,0,0,1-.78-.22,1,1,0,0,1-.24-.78.9.9,0,0,1,.24-.74A1.24,1.24,0,0,1,390.62,10.66Zm3.12-10a1.6,1.6,0,0,1,1.06.28,1.2,1.2,0,0,1,.42,1v.7h1.26a1.4,1.4,0,0,1,1,.28,1.37,1.37,0,0,1,.26,1,1.43,1.43,0,0,1-.22.86,1.32,1.32,0,0,1-1,.38h-3.14V6.66a.49.49,0,0,0,.56.56h2.42c.62,0,.94.41.94,1.24v.08a6.86,6.86,0,0,0,1-2.54c.05-.75.08-1.43.08-2.06V2.84c0-1.09.7-1.64,2.1-1.64h4.3a2.28,2.28,0,0,1,1.64.5,2.45,2.45,0,0,1,.46,1.68c0,1.61,0,2.86-.08,3.74a3.13,3.13,0,0,1-1.24,2.46,3.22,3.22,0,0,1-1.72.52,9,9,0,0,1-2.5-.3,1.16,1.16,0,0,1-.4-.94,1.25,1.25,0,0,1,.24-.68.5.5,0,0,1,.4-.18l.34,0c.34.05.75.1,1.22.14a1,1,0,0,0,1-1,1.36,1.36,0,0,0,0-.2h-3.6a8.59,8.59,0,0,1-.8,2.18,1.46,1.46,0,0,1-.48.68,1,1,0,0,1-.78.26,1.44,1.44,0,0,1-1-.26,1,1,0,0,1-.36-.62.81.81,0,0,1-.8.5h-3.68a1.87,1.87,0,0,1-2.1-2.12V5.1h-.08a1.35,1.35,0,0,1-.94-.28,1.16,1.16,0,0,1-.32-1,1.19,1.19,0,0,1,.32-1,1.27,1.27,0,0,1,.94-.28h1.88V1.9a1.46,1.46,0,0,1,.4-1A1.54,1.54,0,0,1,393.74.66Zm7,5h3.48c0-.25,0-.51,0-.78h-3.44Q400.79,5.29,400.76,5.66Zm.1-2.12h3.42V3c0-.16,0-.24-.14-.24H401.4c-.36,0-.54.11-.54.32Z"/><path class="cls-1" d="M428.16,11a1.49,1.49,0,0,1-.22.72q-1.56,2.47-2.22,3.3a7.71,7.71,0,0,1-2.6,2.16,9.2,9.2,0,0,1-4,.78,4.82,4.82,0,0,1-4-1.62,5.72,5.72,0,0,1-1.1-3.7q0-2.21.3-9.52A1.41,1.41,0,0,1,414.82,2a1.45,1.45,0,0,1,1-.32,1.68,1.68,0,0,1,1,.38,1.47,1.47,0,0,1,.42,1.14c-.22,4.81-.32,8-.32,9.4a3,3,0,0,0,.52,2,2.07,2.07,0,0,0,1.68.6,5.14,5.14,0,0,0,3.56-1.12,25.37,25.37,0,0,0,2.78-3.92,1.43,1.43,0,0,1,1.24-.68,1.4,1.4,0,0,1,1,.44A1.48,1.48,0,0,1,428.16,11Z"/><path class="cls-1" d="M450.7,3.7c.05.81-.44,1.31-1.48,1.5l-2,.4a6.77,6.77,0,0,0-2.24,1.08,6.52,6.52,0,0,0-2.74,5.26,2.16,2.16,0,0,0,.92,1.94,8,8,0,0,0,4.22.8,1.28,1.28,0,0,1,1.44,1.46,1.37,1.37,0,0,1-1.44,1.42q-8,0-8-5.62a8.59,8.59,0,0,1,3-6.18c-2.28.27-4.65.57-7.1.92A1.28,1.28,0,0,1,434,6.3a1.58,1.58,0,0,1-.46-1.14,1.19,1.19,0,0,1,1.24-1.32,118,118,0,0,1,14.46-1.5,1.36,1.36,0,0,1,1,.4A1.48,1.48,0,0,1,450.7,3.7Z"/><path class="cls-1" d="M465.22,12.7A5.39,5.39,0,0,1,463.66,16a4.54,4.54,0,0,1-3.18,1.88,3.23,3.23,0,0,1-3-2,14.52,14.52,0,0,1-1.06-5c-.06-.8-.08-1.59-.08-2.36,0-.4.06-1.68.2-3.84a1.36,1.36,0,0,1,.54-1,2,2,0,0,1,1.2-.36,1.41,1.41,0,0,1,1,.38,1.39,1.39,0,0,1,.36,1c0,.11,0,.79-.06,2.06s-.06,2.46-.06,3.26a14.49,14.49,0,0,0,.3,3.2c.22,1,.52,1.46.88,1.46s1.08-.68,1.76-2c.33-.71.74-1.06,1.24-1.06C464.71,11.5,465.22,11.9,465.22,12.7Zm7.1,1.42a1.32,1.32,0,0,1-.42,1.1,1.53,1.53,0,0,1-2.06,0,1.39,1.39,0,0,1-.46-1,25.09,25.09,0,0,0-.8-4.3,28.65,28.65,0,0,0-1.3-4.18,1.43,1.43,0,0,1-.16-.62,1.28,1.28,0,0,1,.48-1,1.63,1.63,0,0,1,1.08-.4,1.33,1.33,0,0,1,1.3.88,34.39,34.39,0,0,1,1.46,4.72A28.43,28.43,0,0,1,472.32,14.12Z"/><path class="cls-1" d="M494.32,12.4a5.12,5.12,0,0,1-2,4.34,8.71,8.71,0,0,1-5.48,1.58,6.65,6.65,0,0,1-3.68-.86,2.63,2.63,0,0,1-1.3-2.3,2.32,2.32,0,0,1,.92-1.92,3.89,3.89,0,0,1,2.66-.84,4.85,4.85,0,0,1,2.58.78,6.17,6.17,0,0,1,1.8,1.8,3,3,0,0,0,1.66-2.58,2.06,2.06,0,0,0-1.14-1.74,4.83,4.83,0,0,0-2.56-.66,10.1,10.1,0,0,0-3.08.54,9.69,9.69,0,0,0-3.14,1.54l-1,.78a2,2,0,0,1-1,.38,1.33,1.33,0,0,1-1-.34,1.15,1.15,0,0,1-.36-.84,1.81,1.81,0,0,1,.68-1.44Q480.76,9,486.1,4.78q-4.73.36-4.5.36a1.71,1.71,0,0,1-1.18-.4,1.17,1.17,0,0,1-.48-.9,1.47,1.47,0,0,1,.4-1,1.37,1.37,0,0,1,1.08-.42c.72,0,2.12-.07,4.2-.2s3.46-.22,4.14-.3a1.19,1.19,0,0,1,1.12.42,1.86,1.86,0,0,1,.42,1.24c0,.29-.59.87-1.76,1.72-.8.6-1.92,1.47-3.34,2.6A15.28,15.28,0,0,1,489,7.64a5.9,5.9,0,0,1,3.5,1.08A4.26,4.26,0,0,1,494.32,12.4Zm-7.06,3.46a2.38,2.38,0,0,0-1.74-1.16c-.82,0-1.22.2-1.22.6s.62.68,1.86.68A5.29,5.29,0,0,0,487.26,15.86Z"/><line class="cls-2" x1="0.5" y1="26.85" x2="3" y2="26.85"/><line class="cls-3" x1="8" y1="26.85" x2="795.5" y2="26.85"/><line class="cls-2" x1="798" y1="26.85" x2="800.5" y2="26.85"/></g></g></svg>