<svg xmlns="http://www.w3.org/2000/svg" viewBox="0 0 117.26 25.09"><defs><style>.cls-1{fill:#fff;}.cls-2{fill:none;stroke:#fff;stroke-width:0.5px;}</style></defs><title>Asset 1</title><g id="Layer_2" data-name="Layer 2"><g id="Layer_1-2" data-name="Layer 1"><path class="cls-1" d="M6.31,12.58A29.54,29.54,0,0,1,.85,20.23l-.51-.51A27.12,27.12,0,0,0,6.11,9.13l.06-.24-5.12,0L.72,8.2l5.61,0,0-4.53c-1.8.38-3.36.64-4.66.82L1.4,3.86a28.05,28.05,0,0,0,9-3.23c1.29.72,1.88,1.26,1.88,1.62,0,.15-.18.27-.57.27a4.41,4.41,0,0,1-.81-.12c-.69.27-1.53.47-2.58.8l-.42.11,0,4.92,2.46,0,1.36-1.86c.65.72,1.22,1.42,1.67,2l-.28.51-5.22,0v2.67q5,2.51,5,4.62c0,.72-.33,1.07-.93,1.07-.42,0-.75-.36-1.05-1a11.59,11.59,0,0,0-3-3.92L7.85,24.43H6.26Zm8.46,6L14.84,4c1.71.09,2.57.34,2.57.7s-.36.47-1.08.74l-.06,13.23Zm1,3.16a38.67,38.67,0,0,0,3.9.26c.81,0,1.23-.3,1.23-.9L20.94,1c1.71.1,2.58.34,2.58.76,0,.21-.37.45-1,.69l-.08,19.47A2,2,0,0,1,20.9,24.1a5.13,5.13,0,0,1-1.35.18,1.26,1.26,0,0,0-1-1.18,15.26,15.26,0,0,0-2.85-.61Z"/><path class="cls-2" d="M6.31,12.58A29.54,29.54,0,0,1,.85,20.23l-.51-.51A27.12,27.12,0,0,0,6.11,9.13l.06-.24-5.12,0L.72,8.2l5.61,0,0-4.53c-1.8.38-3.36.64-4.66.82L1.4,3.86a28.05,28.05,0,0,0,9-3.23c1.29.72,1.88,1.26,1.88,1.62,0,.15-.18.27-.57.27a4.41,4.41,0,0,1-.81-.12c-.69.27-1.53.47-2.58.8l-.42.11,0,4.92,2.46,0,1.36-1.86c.65.72,1.22,1.42,1.67,2l-.28.51-5.22,0v2.67q5,2.51,5,4.62c0,.72-.33,1.07-.93,1.07-.42,0-.75-.36-1.05-1a11.59,11.59,0,0,0-3-3.92L7.85,24.43H6.26Zm8.46,6L14.84,4c1.71.09,2.57.34,2.57.7s-.36.47-1.08.74l-.06,13.23Zm1,3.16a38.67,38.67,0,0,0,3.9.26c.81,0,1.23-.3,1.23-.9L20.94,1c1.71.1,2.58.34,2.58.76,0,.21-.37.45-1,.69l-.08,19.47A2,2,0,0,1,20.9,24.1a5.13,5.13,0,0,1-1.35.18,1.26,1.26,0,0,0-1-1.18,15.26,15.26,0,0,0-2.85-.61Z"/><path class="cls-1" d="M51.08,2.75l1.15-1.34c1.13.9,1.7,1.51,1.7,1.75s-.09.24-.24.36L53,4l-.08,18c0,1.5-.94,2.25-2.8,2.21a1.21,1.21,0,0,0-.84-1.11,23.18,23.18,0,0,0-2.69-.59v-.72A23.9,23.9,0,0,0,50.1,22c.78,0,1.17-.3,1.17-.84l0-5.88-7.26,0,0,7.68H42.47l0-7.68-6.57,0q-.57,6.25-4.45,9.34L31,24c2.29-2.52,3.45-6.05,3.47-10.67l0-11.58a12.63,12.63,0,0,1,1.94.91ZM42.51,14.6l0-5.37L36,9.2v4.2c0,.51,0,.9,0,1.17Zm.05-11.22-6.51,0,0,5.16,6.51,0Zm8.76,5.89-7.26,0,0,5.37,7.26,0Zm0-.69,0-5.16-7.26,0,0,5.16Z"/><path class="cls-2" d="M51.08,2.75l1.15-1.34c1.13.9,1.7,1.51,1.7,1.75s-.09.24-.24.36L53,4l-.08,18c0,1.5-.94,2.25-2.8,2.21a1.21,1.21,0,0,0-.84-1.11,23.18,23.18,0,0,0-2.69-.59v-.72A23.9,23.9,0,0,0,50.1,22c.78,0,1.17-.3,1.17-.84l0-5.88-7.26,0,0,7.68H42.47l0-7.68-6.57,0q-.57,6.25-4.45,9.34L31,24c2.29-2.52,3.45-6.05,3.47-10.67l0-11.58a12.63,12.63,0,0,1,1.94.91ZM42.51,14.6l0-5.37L36,9.2v4.2c0,.51,0,.9,0,1.17Zm.05-11.22-6.51,0,0,5.16,6.51,0Zm8.76,5.89-7.26,0,0,5.37,7.26,0Zm0-.69,0-5.16-7.26,0,0,5.16Z"/><path class="cls-1" d="M67.93,12.49c0,1.32-.1,2.31-.19,3,2.9,1.6,4.36,3.11,4.36,4.49,0,.66-.31,1-.91,1-.39,0-.66-.27-.86-.84a10.5,10.5,0,0,0-2.75-3.79,12,12,0,0,1-5.22,8l-.48-.54q4.33-4,4.49-11.29l-4.2,0-.27-.66,4.47,0,0-4.65H62.94l-.23-.69H66.4l0-5.7c1.8,0,2.7.25,2.7.64s-.39.48-1.14.75l0,4.32h1.35l1.14-1.55A18.37,18.37,0,0,1,72,6.63l-.31.56H68l0,4.65h1.8L71,10.13A17.32,17.32,0,0,1,72.52,12l-.33.54ZM82.5,2.23,83.58,1c1.14.9,1.7,1.47,1.7,1.71a.41.41,0,0,1-.18.3l-.75.48-.06,13.11H82.7V15.25H81l0,7c0,.48.41.73,1.28.73s1.66-.23,1.81-.71a23.05,23.05,0,0,0,.52-4.11l.75.3a21,21,0,0,0,.17,3.64.89.89,0,0,0,1,.69c0,.75-.24,1.17-.66,1.32a12.66,12.66,0,0,1-3.42.25A5.73,5.73,0,0,1,79.94,24c-.36-.24-.54-.72-.53-1.5l0-7.26H77.85a10,10,0,0,1-2,6.11,11.41,11.41,0,0,1-6.07,3.43l-.36-.64c4.45-1.57,6.74-4.56,6.82-8.91H74.91v1.29H73.31l.07-15.18c.6.28,1.23.58,1.8.88Zm.23,8.67-7.8,0,0,3.69,7.8,0Zm0-4.14-7.8,0v3.48l7.8,0ZM75,2.89V6l7.8,0V2.92Z"/><path class="cls-2" d="M67.93,12.49c0,1.32-.1,2.31-.19,3,2.9,1.6,4.36,3.11,4.36,4.49,0,.66-.31,1-.91,1-.39,0-.66-.27-.86-.84a10.5,10.5,0,0,0-2.75-3.79,12,12,0,0,1-5.22,8l-.48-.54q4.33-4,4.49-11.29l-4.2,0-.27-.66,4.47,0,0-4.65H62.94l-.23-.69H66.4l0-5.7c1.8,0,2.7.25,2.7.64s-.39.48-1.14.75l0,4.32h1.35l1.14-1.55A18.37,18.37,0,0,1,72,6.63l-.31.56H68l0,4.65h1.8L71,10.13A17.32,17.32,0,0,1,72.52,12l-.33.54ZM82.5,2.23,83.58,1c1.14.9,1.7,1.47,1.7,1.71a.41.41,0,0,1-.18.3l-.75.48-.06,13.11H82.7V15.25H81l0,7c0,.48.41.73,1.28.73s1.66-.23,1.81-.71a23.05,23.05,0,0,0,.52-4.11l.75.3a21,21,0,0,0,.17,3.64.89.89,0,0,0,1,.69c0,.75-.24,1.17-.66,1.32a12.66,12.66,0,0,1-3.42.25A5.73,5.73,0,0,1,79.94,24c-.36-.24-.54-.72-.53-1.5l0-7.26H77.85a10,10,0,0,1-2,6.11,11.41,11.41,0,0,1-6.07,3.43l-.36-.64c4.45-1.57,6.74-4.56,6.82-8.91H74.91v1.29H73.31l.07-15.18c.6.28,1.23.58,1.8.88Zm.23,8.67-7.8,0,0,3.69,7.8,0Zm0-4.14-7.8,0v3.48l7.8,0ZM75,2.89V6l7.8,0V2.92Z"/><path class="cls-1" d="M92.76,22.68a26.17,26.17,0,0,0,1.47-7.5c1.65.34,2.49.71,2.49,1.07,0,.15-.31.29-.94.44A19,19,0,0,1,93.3,23Zm3.13-10.82.18-.21a42.56,42.56,0,0,0,5.11-8c1.38.63,2,1.11,2,1.47s-.39.36-1.14.36a60.66,60.66,0,0,1-5.28,6.3c1.65-.08,3.28-.19,4.81-.36a7.84,7.84,0,0,0-1.4-2.14l.39-.39c2.21,1.45,3.31,2.9,3.31,4.37,0,.72-.31,1.11-.91,1.1-.42,0-.69-.36-.77-1.05a4.45,4.45,0,0,0-.33-1.23l-2.61.53,0,12.21H97.64l0-11.94-.3.06c-.69.11-1.71.23-3,.41-.22.53-.4.8-.55.8-.3,0-.62-.75-1-2.22,1.17,0,2.1,0,2.76,0ZM98,.32c1.53.55,2.31,1,2.31,1.33s-.36.36-1,.42a30.85,30.85,0,0,1-2.9,3.64,3,3,0,0,1,1.37,2.2c0,.66-.3,1-.93,1-.36,0-.66-.34-.84-1a7,7,0,0,0-2.74-3.37l.36-.48a16.28,16.28,0,0,1,2.24,1.18A27.77,27.77,0,0,0,98,.32m3,14.35c1.73,1.72,2.63,3.41,2.62,5,0,.84-.31,1.22-.94,1.22s-.71-.33-.74-1.05A11.6,11.6,0,0,0,100.59,15Zm13.27-8.79,1.09-1.4c1,1,1.58,1.54,1.58,1.71a.62.62,0,0,1-.27.42l-.58.48c-.06,8-.5,13.17-1.38,15.41a3.23,3.23,0,0,1-3.31,2.18,1.35,1.35,0,0,0-1-1.23,22.68,22.68,0,0,0-3-.74V22a26.83,26.83,0,0,0,4,.38,1.75,1.75,0,0,0,1.86-1.25c.76-2.22,1.17-7.08,1.24-14.55l-7.47,0A20.82,20.82,0,0,1,104,11.69l-.53-.42A26.3,26.3,0,0,0,107.07.39c1.74.28,2.64.61,2.64,1q0,.31-1.08.63c-.46,1.68-.89,3-1.22,3.86Zm-7.64,4.5a10.81,10.81,0,0,1,3.2,2.8A4.61,4.61,0,0,1,111,15.77c0,.78-.31,1.14-.91,1.13s-.78-.33-.92-1.08a10.13,10.13,0,0,0-2.83-5Z"/><path class="cls-2" d="M92.76,22.68a26.17,26.17,0,0,0,1.47-7.5c1.65.34,2.49.71,2.49,1.07,0,.15-.31.29-.94.44A19,19,0,0,1,93.3,23Zm3.13-10.82.18-.21a42.56,42.56,0,0,0,5.11-8c1.38.63,2,1.11,2,1.47s-.39.36-1.14.36a60.66,60.66,0,0,1-5.28,6.3c1.65-.08,3.28-.19,4.81-.36a7.84,7.84,0,0,0-1.4-2.14l.39-.39c2.21,1.45,3.31,2.9,3.31,4.37,0,.72-.31,1.11-.91,1.1-.42,0-.69-.36-.77-1.05a4.45,4.45,0,0,0-.33-1.23l-2.61.53,0,12.21H97.64l0-11.94-.3.06c-.69.11-1.71.23-3,.41-.22.53-.4.8-.55.8-.3,0-.62-.75-1-2.22,1.17,0,2.1,0,2.76,0ZM98,.32c1.53.55,2.31,1,2.31,1.33s-.36.36-1,.42a30.85,30.85,0,0,1-2.9,3.64,3,3,0,0,1,1.37,2.2c0,.66-.3,1-.93,1-.36,0-.66-.34-.84-1a7,7,0,0,0-2.74-3.37l.36-.48a16.28,16.28,0,0,1,2.24,1.18A27.77,27.77,0,0,0,98,.32Zm3,14.35c1.73,1.72,2.63,3.41,2.62,5,0,.84-.31,1.22-.94,1.22s-.71-.33-.74-1.05A11.6,11.6,0,0,0,100.59,15Zm13.27-8.79,1.09-1.4c1,1,1.58,1.54,1.58,1.71a.62.62,0,0,1-.27.42l-.58.48c-.06,8-.5,13.17-1.38,15.41a3.23,3.23,0,0,1-3.31,2.18,1.35,1.35,0,0,0-1-1.23,22.68,22.68,0,0,0-3-.74V22a26.83,26.83,0,0,0,4,.38,1.75,1.75,0,0,0,1.86-1.25c.76-2.22,1.17-7.08,1.24-14.55l-7.47,0A20.82,20.82,0,0,1,104,11.69l-.53-.42A26.3,26.3,0,0,0,107.07.39c1.74.28,2.64.61,2.64,1q0,.31-1.08.63c-.46,1.68-.89,3-1.22,3.86Zm-7.64,4.5a10.81,10.81,0,0,1,3.2,2.8A4.61,4.61,0,0,1,111,15.77c0,.78-.31,1.14-.91,1.13s-.78-.33-.92-1.08a10.13,10.13,0,0,0-2.83-5Z"/></g></g></svg>