<svg xmlns="http://www.w3.org/2000/svg" viewBox="0 0 900 46"><defs><style>.cls-1{fill:#f51d50;}.cls-2{fill:#fff;}</style></defs><g id="Layer_2" data-name="Layer 2"><g id="レイヤー_2" data-name="レイヤー 2"><polygon class="cls-1" points="885.48 46 14.52 46 0 23 14.52 0 885.48 0 900 23 885.48 46"/><path class="cls-2" d="M755.22,31.43a1,1,0,1,1,0-1.95l6.71,0V26.68l-4.16,0a1,1,0,1,1,0-1.91l4.16,0V22.24l-4,0a.93.93,0,0,1-1-1v0c-1,.75-1.52,1.14-2.11,1.14a1.13,1.13,0,0,1-1.17-1.1,1.1,1.1,0,0,1,.68-1,21.71,21.71,0,0,0,6.47-5.76,2.52,2.52,0,0,1,2-1,3.09,3.09,0,0,1,2.16,1,24.44,24.44,0,0,0,6.64,5.12,1,1,0,0,1,.6.91,1.3,1.3,0,0,1-1.28,1.25c-.11,0-.57,0-1.83-.92a1.1,1.1,0,0,1,.09.39.94.94,0,0,1-1,1l-4.07,0v2.57l4,0a1,1,0,0,1,1,1,.93.93,0,0,1-1,.94l-4,0V29.5l6.69,0a1,1,0,0,1,1,1,.92.92,0,0,1-1,.94Zm13.11-11.09A35.88,35.88,0,0,1,763.65,16c-.27-.31-.46-.46-.66-.46s-.38.15-.62.46a33.28,33.28,0,0,1-4.25,4.35Z"/><path class="cls-2" d="M784.13,20.76a7.73,7.73,0,0,1,.7-1.14c.36-.46.24-.44-.17-.31-1.65.53-1.28.53-2.78,1.1a17.66,17.66,0,0,1-2,.66,1.26,1.26,0,1,1-.74-2.38c.46-.11,1.73-.35,2.44-.52,1.08-.27,3-.71,5.23-1.35a30.16,30.16,0,0,1,6-1.29,1.3,1.3,0,0,1,1.5,1.69c-.13.37-.62.81-2.16.73a9.49,9.49,0,0,0-3.28.61,6.29,6.29,0,0,0-2.81,2.58c-1.94,3.23-.46,7.85,4.46,7.68,2.31-.09,2.45,2.5.11,2.48C784,31.28,781.73,25.19,784.13,20.76Z"/><path class="cls-2" d="M800.54,32.12a1.33,1.33,0,0,1-1.23-1.21.94.94,0,0,1,.55-.84,13.52,13.52,0,0,0,3.08-2.27c0-1,0-1.84,0-2.68v-.9c0-.53-.22-.6-1-.6h-1c-.46,0-1.25,0-1.25-.92a1,1,0,0,1,1-1.06c.79,0,1.51,0,2.24,0,1.43,0,2.09.66,2.09,2.06s0,2.8,0,4.21c1.4,1.73,3.54,2.22,6.62,2.22,2.16,0,4.47-.24,6.18-.38h.11A1.05,1.05,0,0,1,819,30.84a1.11,1.11,0,0,1-1.12,1.1c-1.37.13-3.37.26-5.35.26-5.83,0-7.11-1.21-8.54-2.68C802.28,31.28,801.13,32.12,800.54,32.12Zm2.79-14.33a6.94,6.94,0,0,0-2.26-2,.77.77,0,0,1-.46-.68,1.17,1.17,0,0,1,1.16-1.06c.57,0,3.52,1.68,3.52,2.95a1.24,1.24,0,0,1-1.16,1.23A1,1,0,0,1,803.33,17.79Zm4.45-1.87h-.07a.92.92,0,0,1-.94-.94.93.93,0,0,1,1-1c.84,0,1.88,0,2.82,0s2,.55,2.05,1.59c.13,3.56,2.07,8.49,5.45,10.54a1,1,0,0,1,.53.86,1.29,1.29,0,0,1-1.23,1.25c-1.06,0-3.87-2.68-5.5-7.48a12.92,12.92,0,0,1-4.69,7.33,1,1,0,0,1-.61.19,1.2,1.2,0,0,1-1.17-1.12.93.93,0,0,1,.46-.77c3.28-2.15,4.67-6.16,4.95-10a2.33,2.33,0,0,1,0-.37c0-.09-.09-.22-.35-.22h0Z"/><path class="cls-2" d="M831.65,22.68a16.13,16.13,0,0,1,4.77,1,3.57,3.57,0,0,0-.3-2.31c-.62-1,1.36-1.88,2.09-.51a5.39,5.39,0,0,1,.22,3.65,17.58,17.58,0,0,1,3,1.87c1.39,1.08-.11,3.1-1.36,2a15.39,15.39,0,0,0-2.4-1.78A10.73,10.73,0,0,1,833.52,31c-1.54.91-2.64-.81-1.21-1.69a9.48,9.48,0,0,0,3.48-3.72,13.77,13.77,0,0,0-5.13-1.1,10.47,10.47,0,0,1-2.82,4c-1.32,1-3.25,1.16-4.2,0-1.12-1.41-.31-3.7,2.22-4.82a12.69,12.69,0,0,1,3.61-1c.77-1.65,1.78-3.65,2.4-5,.13-.3.2-.48-.13-.39a12.12,12.12,0,0,1-2.6.53,1,1,0,0,1-.07-2.09,31.47,31.47,0,0,0,3.17-.55c2-.4,2.89.9,1.89,2.5s-1.8,3.33-2.59,5Zm-5.17,2.64c-.57.28-1.61,1.21-1.23,1.76.26.37,1,.24,1.45-.07a7.65,7.65,0,0,0,1.82-2.35A6.89,6.89,0,0,0,826.48,25.32Z"/><rect class="cls-2" x="369" y="11" width="70" height="25"/><path class="cls-1" d="M382.59,28c.15,2.58-2.16,2.54-3.63,1.82-2.15-1-1.55-2.32-.6-3.36a11.46,11.46,0,0,1,2.54-1.91c0-.76,0-1.53,0-2.25a6.87,6.87,0,0,1-2.16.07c-1.34-.16-1.12-2,.37-1.66a4.49,4.49,0,0,0,1.82-.16c0-.85,0-1.42-.07-2.11a.91.91,0,1,1,1.82,0c0,.39-.06,1-.09,1.51a5.46,5.46,0,0,0,.72-.42c1-.64,2.07.78.81,1.53a9.68,9.68,0,0,1-1.69.81c0,.56,0,1.23,0,1.91a12.1,12.1,0,0,1,1.51-.56,7,7,0,0,1,4,0c3,1,2.48,3.46,1.56,4.79a4.4,4.4,0,0,1-5.78,1.08.86.86,0,1,1,.78-1.53c1.4.69,2.55.7,3.42-.45a1.44,1.44,0,0,0-.63-2.43,5,5,0,0,0-2.92,0,8.72,8.72,0,0,0-1.89.68C382.49,26.27,382.56,27.21,382.59,28Zm-3-.57c-.38.41-.38.88,0,1.08.77.38,1.29.32,1.31-.38,0-.49,0-1.15,0-1.89A8.82,8.82,0,0,0,379.57,27.41Zm10.21-5.69A3.34,3.34,0,0,0,387.4,21a.8.8,0,1,1-.09-1.58,5.54,5.54,0,0,1,3.75,1,.88.88,0,0,1,0,1.28A.92.92,0,0,1,389.78,21.72Z"/><path class="cls-1" d="M409.22,27.3l-5.08-.07a19.31,19.31,0,0,0,5.62,2.21.68.68,0,0,1,.57.69.94.94,0,0,1-.91.93,18.25,18.25,0,0,1-6.13-2.86l0,2.61v0c0,.45-.41.68-.85.68s-.82-.21-.82-.68V28.25a18.8,18.8,0,0,1-6.14,2.94.83.83,0,0,1-.86-.79.78.78,0,0,1,.67-.72,16.79,16.79,0,0,0,5.45-2.45l-4.93.07h0a.68.68,0,0,1-.74-.68.71.71,0,0,1,.76-.72h5.8v-.43a.62.62,0,0,1,.21-.48c-1.58,0-2.34-.35-2.37-1.25,0-.39,0-.92,0-1.44s0-1,0-1.42c0-.61.48-1.12,1.42-1.15l.63,0c.05-.2.11-.45.18-.81a.69.69,0,0,1,.74-.47c.43,0,.9.24.9.63a3.77,3.77,0,0,1-.16.63c1.18,0,2.26.15,2.3,1.17,0,.58.05,1.23.05,1.82,0,1.66,0,2.31-2.46,2.31a.68.68,0,0,1,.23.54l0,.37h5.91a.7.7,0,1,1,0,1.4Zm-3.82-9.2v.56c0,.43-.39.66-.81.66a.74.74,0,0,1-.81-.66V18.1h-2.63v.56c0,.43-.39.66-.81.66a.74.74,0,0,1-.81-.66V18.1h-3.78a.7.7,0,1,1,0-1.39h3.78V16c0-.41.42-.61.81-.61s.81.2.81.61v.74h2.63V16c0-.41.42-.61.81-.61s.81.2.81.61v.74h3.94a.7.7,0,1,1,0,1.39ZM395.82,25a.73.73,0,0,1-.7-.79.74.74,0,0,1,.52-.72,9.69,9.69,0,0,0,2.63-1.15.64.64,0,0,1,.34-.11.7.7,0,0,1,.29,1.29A8.7,8.7,0,0,1,395.82,25Zm2-3.47a8.46,8.46,0,0,0-1.82-1,.59.59,0,0,1-.38-.54.87.87,0,0,1,.81-.81,6.43,6.43,0,0,1,2.32,1.08.77.77,0,0,1,.31.61.83.83,0,0,1-.77.83A.79.79,0,0,1,397.86,21.56Zm6.21.18c0-.22,0-.42,0-.6,0-.38-.11-.41-1.51-.41-.45,0-.88,0-1.06,0-.56,0-.56.3-.56,1Zm-3.15,1.09a6.44,6.44,0,0,0,0,.67c0,.4.39.41,1.6.41h1c.49,0,.49-.4.49-1.07Zm5.6-1a.8.8,0,0,1-.76-.77.55.55,0,0,1,.36-.52,7.13,7.13,0,0,0,1.8-1.23.78.78,0,0,1,.54-.25.85.85,0,0,1,.79.85.83.83,0,0,1-.32.63A7.54,7.54,0,0,1,406.52,21.84Zm1.78,2.83a6.61,6.61,0,0,0-1.8-1.13.66.66,0,0,1-.45-.6.76.76,0,0,1,.79-.72,6.31,6.31,0,0,1,2.41,1.08,1,1,0,0,1,.38.74.84.84,0,0,1-.77.87A.91.91,0,0,1,408.3,24.67Z"/><path class="cls-1" d="M416.09,22c-1.33,1.62-1.84,1.84-2.2,1.84a.83.83,0,0,1-.84-.81.89.89,0,0,1,.3-.65,16.41,16.41,0,0,0,4.31-6.18.86.86,0,0,1,.81-.57,1,1,0,0,1,1,.9,15.09,15.09,0,0,1-1.59,3.06l-.21,10.91a.86.86,0,0,1-.92.83.81.81,0,0,1-.88-.79v0Zm7.49-.12c.58,4.5,2.54,7,3.28,7,.41,0,.75-.54,1-1.69a.8.8,0,0,1,.84-.66.93.93,0,0,1,1,.88c0,.38-.73,3.44-2.8,3.44a2.88,2.88,0,0,1-2.14-1.16,15.87,15.87,0,0,1-2.88-7.56l-2.7.33H419a.77.77,0,0,1-.8-.81.82.82,0,0,1,.74-.83l2.7-.33c-.12-1.4-.2-3.07-.2-4.12a.83.83,0,0,1,.92-.76.89.89,0,0,1,1,.87v0c0,.37,0,.75,0,1.13,0,.87,0,1.75.09,2.65l4.5-.56H428a.8.8,0,0,1,.81.85.77.77,0,0,1-.72.79Zm2.5-3a5.24,5.24,0,0,0-1.62-1,.74.74,0,0,1-.5-.67.81.81,0,0,1,.83-.78,6.23,6.23,0,0,1,2.43,1.18.94.94,0,0,1,.32.66.87.87,0,0,1-.84.87A.9.9,0,0,1,426.08,19Z"/><rect class="cls-2" x="446.25" y="11.67" width="70" height="25"/><path class="cls-1" d="M456.58,20.68a.72.72,0,0,1-.78-.74.74.74,0,0,1,.78-.74h5.17a.72.72,0,0,1,.77.74.73.73,0,0,1-.77.74Zm3.71,11c-.38,0-.83,0-1.28,0s-.87,0-1.22,0a1.37,1.37,0,0,1-1.34-1.42c0-.47,0-.93,0-1.38s0-.89,0-1.28a1.34,1.34,0,0,1,1.32-1.37c.34,0,.74,0,1.15,0s1,0,1.42,0a1.42,1.42,0,0,1,1.44,1.28c0,.41,0,.9,0,1.38s0,1,0,1.35A1.45,1.45,0,0,1,460.29,31.71Zm-3-13.5a.72.72,0,0,1,0-1.44H461a.72.72,0,1,1,0,1.44Zm0,4.81a.72.72,0,1,1,0-1.44H461A.72.72,0,1,1,461,23Zm0,2.32a.72.72,0,1,1,0-1.44H461a.72.72,0,1,1,0,1.44Zm3,3.64c0-.34,0-.69,0-.94,0-.43-.34-.49-1.19-.49-.25,0-.5,0-.7,0-.51,0-.51.35-.51,1.39,0,.34,0,.68,0,.95s.31.44,1.13.44c1,0,1.23-.15,1.25-.45S460.31,29.3,460.31,29ZM467,18.37a.21.21,0,0,0-.2-.12.24.24,0,0,0-.21.14,21.53,21.53,0,0,1-3.23,4.05.83.83,0,0,1-.59.25.86.86,0,0,1-.85-.81.72.72,0,0,1,.33-.59,14.25,14.25,0,0,0,3.27-4,1.38,1.38,0,0,1,1.18-.72,1.73,1.73,0,0,1,1.31.72,16.19,16.19,0,0,0,3.71,3.64.81.81,0,0,1,.36.67,1,1,0,0,1-1,1C470.37,22.55,468.84,20.82,467,18.37Zm-4.23,13.74a.83.83,0,0,1-.81-.86.81.81,0,0,1,.7-.81,10.28,10.28,0,0,0,7.33-4.9.86.86,0,0,1,.74-.43.83.83,0,0,1,.72,1.35A13,13,0,0,1,462.79,32.11Zm.47-3.24a.72.72,0,0,1-.72-.76.77.77,0,0,1,.5-.72,9.7,9.7,0,0,0,5.15-4.05.8.8,0,0,1,.72-.39.77.77,0,0,1,.83.73.91.91,0,0,1-.2.56A11.48,11.48,0,0,1,463.26,28.87Zm.09-3.08a.7.7,0,0,1-.69-.72.76.76,0,0,1,.44-.68,8.7,8.7,0,0,0,3.49-3.26.78.78,0,0,1,.7-.45.81.81,0,0,1,.67,1.26C466.23,24.55,463.87,25.79,463.35,25.79Z"/><path class="cls-1" d="M483.65,27.77v1.06c0,.36,0,.89,0,1.3,0,1-.54,1.84-2.25,1.84-1.35,0-1.73-.31-1.73-.87a.68.68,0,0,1,.67-.72l.12,0a5.51,5.51,0,0,0,.85.11c.49,0,.76-.2.76-.85V27.77l-3.39,0a.66.66,0,0,1-.7-.67V27a7.18,7.18,0,0,1-2,.85.7.7,0,0,1-.7-.7.77.77,0,0,1,.61-.74,8.72,8.72,0,0,0,2.12-1,3.51,3.51,0,0,0-.63-.38.54.54,0,0,1-.34-.49.79.79,0,0,1,.79-.72,2.79,2.79,0,0,1,1.3.7,8.91,8.91,0,0,0,.68-.7,4.81,4.81,0,0,0-.73-.47.52.52,0,0,1-.35-.48.79.79,0,0,1,.8-.72c.27,0,.55.14,1.11.57a3.67,3.67,0,0,0,.56-1,.23.23,0,0,0-.22-.25l-1.49,0c-1.48,2-2.94,3-3.44,3a.71.71,0,0,1-.36-1.32,9,9,0,0,0,3.3-3.53.72.72,0,0,1,.66-.38.74.74,0,0,1,.78.67.93.93,0,0,1-.11.38c.5,0,1-.06,1.37-.06.61,0,.95.18,1.11.49a.94.94,0,0,1,.54-.18.64.64,0,0,1,.62.38A7.59,7.59,0,0,0,485.38,23a6.23,6.23,0,0,0,1.14-1.59c0-.14-.15-.16-.29-.16H485a.63.63,0,0,1-.66-.67c0-.68.61-.68,1.09-.68l1.61,0a1.28,1.28,0,0,1,1.18.52c0-1.26,0-1.39-1-1.4-1.44,0-3.26,0-5,0-1.46,0-2.86,0-4,0s-1,.3-1.05.73v.8c0,.45-.45.7-.9.7-.86,0-.88-.61-.88-1.33,0-1,0-2.24,1.93-2.25,1.42,0,2.95,0,4.5,0v-.81a.94.94,0,0,1,1.87,0v.81c1.42,0,2.83,0,4.16,0,1,0,2.07.46,2.11,1.58,0,.2,0,.45,0,.7,0,.6,0,1.3-.93,1.3a1,1,0,0,1-.72-.29v.07c0,.47-.22,1.16-2,2.9a7.89,7.89,0,0,0,2.93,1.51.76.76,0,0,1,.6.76.81.81,0,0,1-.83.81c-.86,0-2.74-1.21-4-2.41a.76.76,0,0,1,0,.21.64.64,0,0,1-.7.65h-2.92a.63.63,0,0,1-.68-.65v-.1a12.32,12.32,0,0,1-1.91,1.71H487a.65.65,0,0,1,.69.66.66.66,0,0,1-.69.67Zm-6.91,3.67a.79.79,0,0,1-.83-.77.71.71,0,0,1,.56-.68,9.05,9.05,0,0,0,2.84-1.61.74.74,0,0,1,.45-.18.81.81,0,0,1,.78.78.61.61,0,0,1-.25.5C479.48,30.2,477.51,31.44,476.74,31.44Zm7.65-7.22a.93.93,0,0,1,.25,0,9.73,9.73,0,0,1-1.83-2.48,11.31,11.31,0,0,1-1.61,2.48,1.1,1.1,0,0,1,.27,0Zm3.22,6.85a7.41,7.41,0,0,0-2.43-1.5.66.66,0,0,1-.52-.61.8.8,0,0,1,.83-.74c.43,0,3.55,1.12,3.55,2.22a.9.9,0,0,1-.85.88A.8.8,0,0,1,487.61,31.07Z"/><path class="cls-1" d="M498.32,31.43a.78.78,0,0,1-.86.73.79.79,0,0,1-.87-.73v0l.08-5.42c-1.64,2.66-2.24,2.79-2.53,2.79a.88.88,0,0,1-.88-.81.74.74,0,0,1,.31-.58,15.66,15.66,0,0,0,3.1-3.89v-.05l-2,0h0a.7.7,0,0,1-.77-.72.78.78,0,0,1,.79-.81h2l-.06-4.85v0a.81.81,0,0,1,.87-.79.8.8,0,0,1,.86.79v0s0,1.5-.05,3.24a.65.65,0,0,1,.09-.16,12.42,12.42,0,0,0,1-1.75.61.61,0,0,1,.58-.37.86.86,0,0,1,.85.77A6.24,6.24,0,0,1,499.49,21a.75.75,0,0,1-.56.27.71.71,0,0,1-.66-.42l0,1.16h1.91a.72.72,0,0,1,.74.75.74.74,0,0,1-.72.78h0l-1.93,0v.92a.77.77,0,0,1,.36-.09c.43,0,2.09,1.15,2.09,1.83a.88.88,0,0,1-.83.87.7.7,0,0,1-.57-.31,7.94,7.94,0,0,0-1-1.15c0,2.63.09,5.89.09,5.89Zm-3.26-10.65a7.71,7.71,0,0,0-1-1.6.59.59,0,0,1-.16-.38c0-.37.43-.66.84-.66.81,0,1.71,1.8,1.71,2.21a.84.84,0,0,1-.82.85A.65.65,0,0,1,495.06,20.78Zm10.68,6.43-4.57,1.28a.78.78,0,0,1-.29,0,.76.76,0,0,1-.76-.78.8.8,0,0,1,.61-.77l5-1.39,0-8.51a.78.78,0,0,1,.85-.78.82.82,0,0,1,.88.78l0,8,1.67-.46a1.29,1.29,0,0,1,.25,0,.8.8,0,0,1,.78.81.73.73,0,0,1-.58.72l-2.12.59,0,4.65c0,.47-.43.7-.86.7s-.87-.23-.87-.7Zm-2.36-2.81a10.52,10.52,0,0,0-1.76-1.13.65.65,0,0,1-.42-.58.84.84,0,0,1,.9-.73A5.21,5.21,0,0,1,504.37,23a1,1,0,0,1,.36.74.86.86,0,0,1-.79.88A.82.82,0,0,1,503.38,24.4Zm.13-3.65a7.58,7.58,0,0,0-1.66-1.32.54.54,0,0,1-.32-.5.86.86,0,0,1,.88-.77,5.35,5.35,0,0,1,2.23,1.31,1,1,0,0,1,.27.68.88.88,0,0,1-.81.91A.79.79,0,0,1,503.51,20.75Z"/><rect class="cls-2" x="524" y="12" width="55" height="25"/><path class="cls-1" d="M534.48,32.26a1,1,0,0,1-1-.95.77.77,0,0,1,.45-.69,9.08,9.08,0,0,0,2.5-1.87c0-.81,0-1.51,0-2.2,0-1.22,0-1.26-.84-1.26h-.76c-.38,0-1,0-1-.77a.77.77,0,0,1,.76-.81c.65,0,1.24,0,1.84,0,1.15,0,1.69.54,1.69,1.69s0,2.29,0,3.44c1.23,1.55,3.12,1.82,5.42,1.82,1.8,0,3.75-.2,5.12-.31h.09a.84.84,0,0,1,.86.87.89.89,0,0,1-.9.88c-1.13.11-2.77.21-4.41.21-4.41,0-5.58-.75-7-2.21C537.18,30.24,535.36,32.26,534.48,32.26Zm2.34-11.83A5.85,5.85,0,0,0,535,19a.66.66,0,0,1-.4-.57.93.93,0,0,1,.92-.85c.49,0,2.87,1.21,2.87,2.22a1,1,0,0,1-.94,1A.74.74,0,0,1,536.82,20.43Zm11.41,4.4L545,24.77A8.23,8.23,0,0,0,548.54,28a.77.77,0,0,1,.45.72.9.9,0,0,1-.86.92c-.69,0-3-1.58-4.24-4-1,2.61-3.45,4.12-4,4.12a.84.84,0,0,1-.84-.81.65.65,0,0,1,.39-.61,6.15,6.15,0,0,0,3.19-3.55l-2.85.06h0a.71.71,0,0,1-.76-.72.72.72,0,0,1,.77-.74h3.15a10.75,10.75,0,0,0,.11-1.64h-2.64a.72.72,0,1,1,0-1.44H544a16.93,16.93,0,0,0,1.42-2.86.77.77,0,0,1,.76-.55,1,1,0,0,1,1,.8,12,12,0,0,1-1.52,2.61h1.91a.72.72,0,1,1,0,1.44h-2.88c0,.56-.07,1.11-.14,1.64h3.74a.69.69,0,0,1,.7.74.68.68,0,0,1-.68.72Zm-6-4.79a.68.68,0,0,1-.63-.4,6.21,6.21,0,0,0-1.12-1.39.63.63,0,0,1-.22-.45.83.83,0,0,1,.85-.72c.77,0,2,1.61,2,2.13A.86.86,0,0,1,542.24,20Z"/><path class="cls-1" d="M557.12,31.76a.79.79,0,0,1-.86.74.8.8,0,0,1-.87-.74v0l.07-5.42c-1.63,2.66-2.23,2.79-2.52,2.79a.88.88,0,0,1-.88-.81.74.74,0,0,1,.31-.58,15.24,15.24,0,0,0,3.09-3.89v0l-2,0h0a.7.7,0,0,1-.77-.72.78.78,0,0,1,.79-.81h2l-.06-4.85h0a.81.81,0,0,1,.87-.8.8.8,0,0,1,.86.8h0s0,1.5,0,3.24a.89.89,0,0,1,.09-.16,12.88,12.88,0,0,0,1-1.74.62.62,0,0,1,.58-.38.86.86,0,0,1,.85.77,6.24,6.24,0,0,1-1.32,2.11.75.75,0,0,1-.56.27.71.71,0,0,1-.66-.42l0,1.16H559a.72.72,0,0,1,.74.75.74.74,0,0,1-.72.78h0l-1.93,0v.92a.91.91,0,0,1,.36-.09c.43,0,2.09,1.15,2.09,1.84a.88.88,0,0,1-.83.86.7.7,0,0,1-.57-.31A7.94,7.94,0,0,0,557,25.85c0,2.63.09,5.89.09,5.89Zm-3.26-10.64a7.56,7.56,0,0,0-1-1.61.59.59,0,0,1-.16-.37c0-.38.43-.67.84-.67.81,0,1.72,1.8,1.72,2.21a.84.84,0,0,1-.83.85A.65.65,0,0,1,553.86,21.12Zm10.68,6.42L560,28.82a.78.78,0,0,1-.29,0,.76.76,0,0,1-.76-.78.81.81,0,0,1,.61-.77l5-1.39,0-8.51a.78.78,0,0,1,.85-.78.82.82,0,0,1,.88.78l0,8.05,1.67-.47a1.29,1.29,0,0,1,.25,0,.81.81,0,0,1,.78.81.73.73,0,0,1-.58.72l-2.12.6,0,4.64c0,.47-.43.7-.86.7s-.87-.23-.87-.7Zm-2.36-2.8a9.68,9.68,0,0,0-1.76-1.14A.65.65,0,0,1,560,23a.84.84,0,0,1,.9-.73,5.16,5.16,0,0,1,2.27,1.06,1,1,0,0,1,.36.74.8.8,0,0,1-1.35.65Zm.13-3.66a7.22,7.22,0,0,0-1.66-1.31.56.56,0,0,1-.32-.51.86.86,0,0,1,.88-.77,5.35,5.35,0,0,1,2.23,1.31,1,1,0,0,1,.27.69.88.88,0,0,1-.81.9A.77.77,0,0,1,562.31,21.08Z"/><rect class="cls-2" x="587" y="12" width="160" height="25"/><path class="cls-1" d="M604.07,20.45a1.35,1.35,0,0,1,1.5,1.55,14.51,14.51,0,0,1-1,5.2c1.35.83,1.58,1.28,1.58,1.69a1,1,0,0,1-.86,1,.84.84,0,0,1-.58-.29c-.3-.32-.61-.61-.91-.88-1.3,2.15-3.25,3.37-3.95,3.37a.85.85,0,0,1-.86-.86.74.74,0,0,1,.45-.69,7,7,0,0,0,3-2.7,6.53,6.53,0,0,0-1.27-.43,1,1,0,0,1-1,.74.73.73,0,0,1-.76-.76,1.09,1.09,0,0,1,.08-.4,33.59,33.59,0,0,0,1.27-5c-.34,0-.7,0-1,0h0a.71.71,0,0,1-.74-.75.76.76,0,0,1,.74-.81l1.28,0c.16-1.1.27-2.16.34-3.19a.78.78,0,0,1,.83-.74.85.85,0,0,1,.9.82s-.11,1.35-.38,3.11Zm-.14,1.84c0-.27-.22-.33-.4-.33l-1.08,0c-.25,1.33-.54,2.7-.9,4.05a10.06,10.06,0,0,1,1.55.45A14,14,0,0,0,603.93,22.29Zm2.45,9.52a.78.78,0,1,1,0-1.55h2.81v-5h-2.85a.79.79,0,0,1-.83-.78.77.77,0,0,1,.83-.77h2.85V20c-.11,0-2.49.34-2.89.34a.77.77,0,0,1-.75-.83.68.68,0,0,1,.63-.73,23.4,23.4,0,0,0,6.68-1.3,1.14,1.14,0,0,1,.38-.07.88.88,0,0,1,.88.88c0,.47-.07.83-3.21,1.42v4h3.21a.79.79,0,0,1,.86.77.78.78,0,0,1-.86.78h-3.21v5h2.88a.8.8,0,0,1,.87.78.79.79,0,0,1-.87.77Z"/><path class="cls-1" d="M619.91,27.18A1,1,0,0,1,619,28a.74.74,0,0,1-.77-.74,1.69,1.69,0,0,1,.07-.38,33.53,33.53,0,0,0,1.21-5.26l-.83,0h0a.71.71,0,0,1-.72-.75.76.76,0,0,1,.72-.81l1.08,0c.11-.92.17-1.8.22-2.67a.76.76,0,0,1,.81-.72.84.84,0,0,1,.9.8c0,.21-.18,1.85-.27,2.59h.74a1.47,1.47,0,0,1,1.55,1.65,16.59,16.59,0,0,1-.94,5.41c.92.72,1.15,1.06,1.15,1.44a.94.94,0,0,1-.84.93.7.7,0,0,1-.58-.32,6.54,6.54,0,0,0-.41-.51c-1.35,2.49-3.14,3.37-3.64,3.37a.88.88,0,0,1-.86-.88.67.67,0,0,1,.39-.63,6.42,6.42,0,0,0,2.88-2.86,5.2,5.2,0,0,0-.88-.45Zm1.22-5.65a43.61,43.61,0,0,1-.86,4.3c.36.13.72.27,1.08.44a15,15,0,0,0,.69-4.38c0-.31-.17-.36-.35-.36Zm6,2.59h-1c-.09,2.67-.45,5.71-1.66,7.46a.9.9,0,0,1-.77.41.82.82,0,0,1-.88-.72.7.7,0,0,1,.16-.43c1.35-1.91,1.64-4.75,1.64-7.33,0-1.6-.11-3.11-.15-4.21v0c0-1,.61-1.64,1.84-1.67.92,0,2.09,0,3.24,0s2.29,0,3.13,0a.75.75,0,0,1,.79.75.73.73,0,0,1-.79.74h0c-1.06,0-2.53,0-3.85,0-.76,0-1.47,0-2,0s-.67.29-.67.71c0,.7,0,1.78,0,3h6.65a.69.69,0,0,1,.74.69.68.68,0,0,1-.74.68h-2a13,13,0,0,0,.31,1.93,14.4,14.4,0,0,0,1.38-.72.94.94,0,0,1,.42-.11.83.83,0,0,1,.84.76c0,.43-.14.61-2.23,1.4a6.71,6.71,0,0,0,2.25,3,.82.82,0,0,1,.36.68.9.9,0,0,1-.86.92c-1,0-3.33-2.7-3.89-7.89h-.83v5.66a9,9,0,0,0,1.06-.42.68.68,0,0,1,.29-.07.67.67,0,0,1,.65.67.75.75,0,0,1-.49.66,13.9,13.9,0,0,1-4.16,1.32.75.75,0,0,1-.09-1.5c.36-.05.81-.12,1.28-.23Zm.29-2.54a.69.69,0,1,1,0-1.38h4.2a.69.69,0,1,1,0,1.38Z"/><path class="cls-1" d="M641.13,31.76a.8.8,0,0,1-.88.75.79.79,0,0,1-.88-.75v0l.07-6.36C638,28,637.55,28,637.26,28a.89.89,0,0,1-.88-.83.78.78,0,0,1,.25-.57,15.92,15.92,0,0,0,2.83-4.47l0-.25-1.66,0h0a.74.74,0,0,1-.76-.79.75.75,0,0,1,.77-.79h1.64l0-3.13v0a.8.8,0,0,1,.88-.76.79.79,0,0,1,.88.76v0s0,1.47,0,3.13H642a.76.76,0,0,1,.79.67,15.3,15.3,0,0,0,3-3.42,1.72,1.72,0,0,1,1.47-.83,2.31,2.31,0,0,1,1.61.75,23.82,23.82,0,0,0,3.49,3.14.83.83,0,0,1,.38.68,1,1,0,0,1-1,1c-.38,0-.52-.13-1.49-1a.63.63,0,0,1,0,.19.66.66,0,0,1-.68.69H648.3v1.13c3.06,0,3.46,0,3.46,2.16s-.38,2.25-3.14,2.25a7.07,7.07,0,0,0,3.64,2.8.87.87,0,0,1,.63.84.86.86,0,0,1-.88.88c-1,0-3.33-1.62-4.54-3.65a6.58,6.58,0,0,1-4.82,3.82.86.86,0,0,1-.83-.9.79.79,0,0,1,.65-.78,5.1,5.1,0,0,0,3.67-3c-2.25,0-3,0-3-2.14,0-.34,0-.66,0-.95,0-.71.55-1.28,1.63-1.3.53,0,1.16,0,1.82,0V22.18h-1.39a.62.62,0,0,1-.65-.58c-.76.76-1,.85-1.24.85a1,1,0,0,1-.88-.63.77.77,0,0,1-.47.12h-1v1.31a.58.58,0,0,1,.18,0c.35,0,1.68,1,1.68,1.61a.8.8,0,0,1-.72.79.59.59,0,0,1-.51-.29,5.56,5.56,0,0,0-.63-.81c0,2.83.09,7.22.09,7.22Zm3.66-6.25c0,.76,0,.9,1.73.9a8.6,8.6,0,0,0,.12-1.82C644.88,24.59,644.79,24.59,644.79,25.51Zm4.86-4.7a.44.44,0,0,1,.16,0c-.79-.78-1.56-1.6-2.16-2.25a.47.47,0,0,0-.32-.16.33.33,0,0,0-.27.16,25.69,25.69,0,0,1-1.73,2.23Zm-1.4,4.68c0,.29-.06.61-.11.92,1.94,0,2,0,2-1,0-.83-.22-.83-1.82-.83C648.28,25,648.25,25.38,648.25,25.49Z"/><path class="cls-1" d="M656.88,31.87a.71.71,0,0,1-.75-.72.71.71,0,0,1,.75-.73h2.45c0-1.56,0-4.15,0-5.05,0-1.08.72-1.63,1.9-1.66.6,0,1.28,0,2,0a.64.64,0,0,1-.39-.61l0-2c-2.28,2-5.79,3.65-6.39,3.65a.88.88,0,0,1-.92-.83.8.8,0,0,1,.62-.73,18.47,18.47,0,0,0,5.94-3.35l-4.83.05h0a.73.73,0,0,1-.77-.75.75.75,0,0,1,.79-.78l5.58,0,0-1.16a.75.75,0,0,1,.84-.77.77.77,0,0,1,.85.74v0l0,1.16,5.63,0a.72.72,0,0,1,.74.78.71.71,0,0,1-.72.75h0l-5-.05a19.74,19.74,0,0,0,6,3.06.73.73,0,0,1,.58.7,1,1,0,0,1-1.05,1A17.65,17.65,0,0,1,664.45,21l0,2a.64.64,0,0,1-.4.61c.69,0,1.36,0,1.91,0,1.19,0,1.91.63,1.93,1.66,0,.86,0,3.49,0,5.05h2.41a.74.74,0,0,1,.76.76.69.69,0,0,1-.76.69Zm9.4-4.74H661v1.06h5.33Zm0,2.2H661v1.09h5.33Zm0-3.33c0-.2,0-.36,0-.47a.61.61,0,0,0-.65-.6c-.56,0-1.28,0-2,0s-1.43,0-2,0a.63.63,0,0,0-.67.6V26Z"/><path class="cls-1" d="M689.27,28.46l-5.08-.07a19.31,19.31,0,0,0,5.62,2.21.68.68,0,0,1,.57.69.94.94,0,0,1-.91.94,18.15,18.15,0,0,1-6.13-2.87l0,2.61v0a.75.75,0,0,1-.84.69c-.42,0-.83-.22-.83-.69V29.42a18.92,18.92,0,0,1-6.14,2.93.82.82,0,0,1-.86-.79c0-.29.2-.59.67-.72a16.79,16.79,0,0,0,5.45-2.45l-4.93.07h0a.68.68,0,0,1-.74-.68.71.71,0,0,1,.76-.72l5.8,0v-.44a.64.64,0,0,1,.21-.48c-1.58,0-2.34-.34-2.37-1.24,0-.4,0-.92,0-1.45s0-1,0-1.42c0-.61.48-1.11,1.42-1.15l.63,0c0-.2.11-.45.18-.81a.69.69,0,0,1,.74-.47c.43,0,.9.24.9.63a3.19,3.19,0,0,1-.17.63c1.19,0,2.27.15,2.31,1.17,0,.58.05,1.23.05,1.82,0,1.66,0,2.31-2.46,2.31a.68.68,0,0,1,.23.54l0,.38,5.91,0a.7.7,0,1,1,0,1.4Zm-3.82-9.2v.56a.73.73,0,0,1-.81.67.74.74,0,0,1-.81-.67v-.56H681.2v.56a.73.73,0,0,1-.81.67.74.74,0,0,1-.81-.67v-.56H675.8a.69.69,0,1,1,0-1.38h3.78v-.74c0-.42.42-.62.81-.62s.81.2.81.62v.74h2.63v-.74c0-.42.42-.62.81-.62s.81.2.81.62v.74h3.94a.69.69,0,1,1,0,1.38Zm-9.58,6.93a.73.73,0,0,1-.7-.79.75.75,0,0,1,.52-.72,9.69,9.69,0,0,0,2.63-1.15.74.74,0,0,1,.34-.11.68.68,0,0,1,.62.7.7.7,0,0,1-.33.6A8.79,8.79,0,0,1,675.87,26.19Zm2-3.47a8.46,8.46,0,0,0-1.82-1,.59.59,0,0,1-.38-.54.87.87,0,0,1,.81-.81,6.6,6.6,0,0,1,2.32,1.08.77.77,0,0,1,.31.61.83.83,0,0,1-.77.83A.79.79,0,0,1,677.91,22.72Zm6.21.18c0-.22,0-.42,0-.6,0-.37-.11-.41-1.51-.41-.45,0-.88,0-1.06,0-.56,0-.56.3-.56,1ZM681,24a6.34,6.34,0,0,0,0,.66c0,.4.39.42,1.6.42l1,0c.49,0,.49-.4.49-1.06Zm5.6-1a.81.81,0,0,1-.76-.78.56.56,0,0,1,.36-.52,7.07,7.07,0,0,0,1.8-1.22.8.8,0,0,1,.54-.26.85.85,0,0,1,.79.85.81.81,0,0,1-.32.63A7.62,7.62,0,0,1,686.57,23Zm1.78,2.82a6.61,6.61,0,0,0-1.8-1.13.64.64,0,0,1-.45-.59.76.76,0,0,1,.79-.73,6.17,6.17,0,0,1,2.41,1.09.89.89,0,0,1,.38.73.84.84,0,0,1-.77.87A.85.85,0,0,1,688.35,25.83Z"/><path class="cls-1" d="M702.55,24.81c1.46-.42,2.92-.83,4-1.12,1.4-.36,1.64,1.37.52,1.62s-2.5.63-4,1.08c.58,1.82,1.1,3.51,1.45,4.58a1,1,0,0,1-.6,1.31.83.83,0,0,1-1.13-.65c-.29-1.11-.8-2.88-1.37-4.75-1.6.48-3.17,1-4.27,1.35s-1.73-1.28-.38-1.69c1-.33,2.56-.8,4.16-1.26-.2-.63-.39-1.26-.57-1.86-1.12.31-2.22.61-3.15.83-1.3.31-1.64-1.33-.45-1.6,1-.22,2-.49,3.11-.78-.36-1.15-.7-2.14-.92-2.81-.41-1.22,1.42-1.51,1.71-.52.18.65.51,1.68.87,2.86,1-.28,2-.61,2.84-.88a.83.83,0,1,1,.45,1.6c-.81.26-1.78.56-2.81.85Z"/><path class="cls-1" d="M715.42,26.73a4.62,4.62,0,0,0-1-1.38c-.73-.63.31-1.77,1.16-1a6.91,6.91,0,0,1,1.33,1.6A.83.83,0,1,1,715.42,26.73Zm-.36,4.88a.81.81,0,0,1,.45-1.08,9.63,9.63,0,0,0,5.67-6.8.88.88,0,1,1,1.69.47A11.74,11.74,0,0,1,716.3,32,.86.86,0,0,1,715.06,31.61Zm2.77-5.87a4.82,4.82,0,0,0-.84-1.51c-.65-.72.55-1.71,1.29-.83a7.69,7.69,0,0,1,1.08,1.79A.82.82,0,1,1,717.83,25.74Z"/><path class="cls-1" d="M733.44,31a1,1,0,1,1-2,.07c.13-2.91.18-10,.11-12.56a.94.94,0,0,1,1.87,0c0,.89,0,2.45-.05,4.22h.31a11.28,11.28,0,0,1,4.32,1.57c.93.79-.09,2.36-1.12,1.6a11.18,11.18,0,0,0-3.51-1.45C733.4,27,733.4,29.54,733.44,31Z"/><path class="cls-2" d="M65.41,31.73a1.32,1.32,0,0,1-1.24-1.21.94.94,0,0,1,.56-.83,14.06,14.06,0,0,0,3.08-2.27c0-1,0-1.85,0-2.68v-.91c0-.52-.22-.59-1-.59h-1c-.46,0-1.25,0-1.25-.92a1,1,0,0,1,1-1.06c.8,0,1.52,0,2.25,0,1.43,0,2.09.66,2.09,2.07s0,2.79,0,4.2c1.41,1.74,3.55,2.22,6.63,2.22,2.15,0,4.46-.24,6.18-.37h.11a1.05,1.05,0,0,1,1.08,1.06,1.12,1.12,0,0,1-1.12,1.1c-1.37.13-3.37.26-5.35.26-5.83,0-7.11-1.21-8.54-2.68C67.15,30.9,66,31.73,65.41,31.73ZM68.2,17.41a7,7,0,0,0-2.26-2,.77.77,0,0,1-.47-.68,1.18,1.18,0,0,1,1.17-1.06c.57,0,3.52,1.67,3.52,3A1.25,1.25,0,0,1,69,17.87,1,1,0,0,1,68.2,17.41ZM75,14.83a11,11,0,0,0,.28-1.43,1.06,1.06,0,0,1,1.15-.88,1.13,1.13,0,0,1,1.25,1,4.13,4.13,0,0,1-.35,1.27c.86,0,1.65,0,2.27,0a1.74,1.74,0,0,1,1.85,1.46c0,.55.08,1.16.08,1.71,0,1.45-.15,2.58-2.26,2.64-.88,0-2,.05-3.19.05-.75,0-1.48,0-2.12-.05v1.48c1,0,2.29-.05,3.59-.05.79,0,1.61,0,2.31,0,1.59,0,2.2.82,2.22,1.74,0,.36,0,.71,0,1.06,0,.64,0,1.28-.07,1.83a1.8,1.8,0,0,1-1.89,1.54c-1.17,0-2.56.08-3.83.08-2.58,0-4.38,0-4.42-2,0-1,0-2.11,0-3.21,0-2.2,0-4.45,0-6.32a1.87,1.87,0,0,1,2.06-2ZM76.61,19c2.77,0,2.77,0,2.77-1.14s0-1.41-.71-1.41l-2.75,0c-1.84,0-2,0-2,1V19C74.67,19,75.66,19,76.61,19ZM74,24.3v1.23c0,1,.17,1,2.72,1,2.93,0,3.2,0,3.24-.66,0-.2,0-.48,0-.75s0-.59,0-.81a.69.69,0,0,0-.75-.57H78c-1.3,0-2.86,0-4,.06Z"/><path class="cls-2" d="M92.89,19.17c-.14,3.17-.8,8.58-4.29,12.06a1.36,1.36,0,0,1-.89.39,1.09,1.09,0,0,1-1.12-1,.92.92,0,0,1,.33-.7c3.33-3.17,3.7-7.88,3.85-10.79l0-.17c-.73,0-1.46,0-2.18,0h0a.89.89,0,0,1-.93-.94.94.94,0,0,1,1-1c.77,0,1.49,0,2.24,0,0-.55,0-1.1,0-1.63s0-1.07,0-1.56v0a1,1,0,0,1,1.06-.93,1,1,0,0,1,1.12,1v.57c0,.84,0,1.72-.07,2.6h1.57c2.31,0,2.31,2.13,2.31,3a55.12,55.12,0,0,1-.44,7.39C96,29.86,94.65,31,92.82,31a6.19,6.19,0,0,1-1.58-.24,1.07,1.07,0,0,1-.77-1.06.9.9,0,0,1,.85-1,1.68,1.68,0,0,1,.4.07,2.36,2.36,0,0,0,.86.15c1.21,0,2.2-.68,2.2-8,0-1.39,0-1.91-.86-1.91-.35,0-.68,0-1,0Zm10.49,11.75c-.46,0-.9,0-1.34,0-1.74,0-3.7,0-3.76-2.37,0-1.63-.07-3.39-.07-5.15s0-3.52.07-5.13A2.41,2.41,0,0,1,100.7,16c.48,0,.92,0,1.36,0s.88,0,1.34,0a2.53,2.53,0,0,1,2.47,2.33c.06,1.54.09,3.28.09,5s0,3.52-.09,5.13A2.52,2.52,0,0,1,103.38,30.92Zm.46-7.59c0-1.63,0-3.24-.06-4.51,0-.8-.4-.91-1-1-.25,0-.49-.05-.73-.05s-.48,0-.73.05c-.59.06-.94.28-1,1-.06,1.25-.08,2.79-.08,4.35,0,1.72,0,3.44.08,4.84,0,.75.18,1,1.72,1,1.23,0,1.7-.13,1.72-1C103.82,26.58,103.84,25,103.84,23.33Z"/><path class="cls-2" d="M116.16,31.12a1.07,1.07,0,0,1-2.11,0v0l.09-6.62c-2,3.26-2.73,3.41-3.08,3.41a1.07,1.07,0,0,1-1.08-1,.91.91,0,0,1,.37-.7,18.83,18.83,0,0,0,3.79-4.76v-.06l-2.49,0h0a.86.86,0,0,1-.95-.88,1,1,0,0,1,1-1h2.47l-.07-5.92v0a1.06,1.06,0,0,1,2.11,0v0s0,1.83-.06,4a.62.62,0,0,1,.11-.19,17,17,0,0,0,1.25-2.14.74.74,0,0,1,.7-.46,1.05,1.05,0,0,1,1,1,7.66,7.66,0,0,1-1.61,2.57.92.92,0,0,1-.68.33.88.88,0,0,1-.81-.51l0,1.41h2.34a.88.88,0,0,1,.9.93.89.89,0,0,1-.88.94h0l-2.36,0v1.12a1.1,1.1,0,0,1,.44-.11c.53,0,2.55,1.41,2.55,2.25a1.07,1.07,0,0,1-1,1.05.88.88,0,0,1-.7-.37,8.91,8.91,0,0,0-1.28-1.41c0,3.21.11,7.19.11,7.19Zm-4-13a9.64,9.64,0,0,0-1.19-2,.77.77,0,0,1-.2-.46c0-.46.53-.81,1-.81,1,0,2.09,2.2,2.09,2.7a1,1,0,0,1-1,1A.79.79,0,0,1,112.18,18.11Zm13,7.86-5.59,1.56a1.11,1.11,0,0,1-.35,0,.92.92,0,0,1-.93-.94,1,1,0,0,1,.75-.95L125.23,24l0-10.41a1,1,0,0,1,1-.95,1,1,0,0,1,1.08.95l0,9.84,2.05-.58a1.88,1.88,0,0,1,.31,0,1,1,0,0,1,.94,1,.9.9,0,0,1-.7.88l-2.6.73,0,5.67c0,.57-.53.86-1.06.86s-1.06-.29-1.06-.86Zm-2.89-3.43a11.24,11.24,0,0,0-2.15-1.39.81.81,0,0,1-.51-.71,1,1,0,0,1,1.1-.9,6.42,6.42,0,0,1,2.78,1.3,1.2,1.2,0,0,1,.44.9,1,1,0,0,1-1,1.08A1.08,1.08,0,0,1,122.34,22.54Zm.16-4.47a9.07,9.07,0,0,0-2-1.61.66.66,0,0,1-.39-.61,1.06,1.06,0,0,1,1.08-.95,6.55,6.55,0,0,1,2.73,1.61,1.19,1.19,0,0,1,.33.83,1.08,1.08,0,0,1-1,1.1A1,1,0,0,1,122.5,18.07Z"/><path class="cls-2" d="M135.26,31a.95.95,0,1,1,0-1.89l7,.07V24.47H137a.95.95,0,1,1,0-1.89h5.23V20.69h-2.37a1,1,0,0,1-.82-1.52c-3.21,2.9-4,3-4.33,3a1.16,1.16,0,0,1-1.17-1.12,1.1,1.1,0,0,1,.68-1,24,24,0,0,0,7-6.2,2.46,2.46,0,0,1,2-1,2.85,2.85,0,0,1,2.09,1,26.33,26.33,0,0,0,7.2,5.52,1,1,0,0,1,.59.9,1.3,1.3,0,0,1-1.28,1.25c-1.18,0-5.37-3.54-7.79-6.24a.92.92,0,0,0-.66-.38.76.76,0,0,0-.61.38A32.32,32.32,0,0,1,139.28,19a1,1,0,0,1,.6-.18H147a.94.94,0,0,1,1,.95.93.93,0,0,1-1,1h-2.59v1.89h5.34a.93.93,0,0,1,1,1,.92.92,0,0,1-1,.94h-5.34v4.69h.77a13.26,13.26,0,0,0,1.4-3.26.94.94,0,0,1,1-.7,1.19,1.19,0,0,1,1.23,1,10.52,10.52,0,0,1-1.52,2.91l4.3-.05a.91.91,0,0,1,.92.95.89.89,0,0,1-.92.94Zm4.49-2.13a.76.76,0,0,1-.73-.48,6.36,6.36,0,0,0-1.28-1.79.57.57,0,0,1-.17-.41c0-.47.57-.86,1.1-.86.94,0,2.18,1.93,2.18,2.51A1.13,1.13,0,0,1,139.75,28.85Z"/><path class="cls-2" d="M159.37,30.08a19.89,19.89,0,0,1-.35-7.72c.28-2.66.77-5.13.88-6.56a1.11,1.11,0,1,1,2.22,0c-.15,1-.53,2.9-.81,4.77a24,24,0,0,0-.42,4.6c0,.4.06.46.28,0,.07-.13.22-.53.27-.64.5-1.05,2.18-.3,1.38,1.35a14.69,14.69,0,0,0-.68,1.73c-.17.55-.31,1-.39,1.39-.18.62.11,1.23-.44,1.76S159.74,31.27,159.37,30.08Zm6.84.46a2.49,2.49,0,0,1,.33-4.62,6.31,6.31,0,0,1,3.88-.26c0-.35,0-.68-.07-1.1-.07-.9-.11-2.6-.18-4.34a14.92,14.92,0,0,1-3.61.16,1.08,1.08,0,1,1,.44-2.09,9.34,9.34,0,0,0,3.11-.07c0-1.23-.05-2.35,0-3,0-1.43,2.21-1.24,2.12,0,0,.62-.07,1.54-.07,2.62.37-.11.77-.2,1.12-.31,1.43-.44,2.38,1.56.49,2-.53.13-1.06.26-1.59.37,0,1.72.09,3.43.14,4.51,0,.55.11,1.28.13,2A10.39,10.39,0,0,1,174.9,28c1.26,1.14-.3,3.06-1.4,1.89a9.75,9.75,0,0,0-1.37-1.14A4.37,4.37,0,0,1,166.21,30.54Zm4-2.88a4,4,0,0,0-3-.13.73.73,0,0,0-.13,1.3,2.29,2.29,0,0,0,3.19-1.17Z"/><path class="cls-2" d="M181.19,23.5a1.19,1.19,0,1,1,0-2.37h16.7a1.11,1.11,0,0,1,1.17,1.16,1.14,1.14,0,0,1-1.17,1.21Z"/><path class="cls-2" d="M209.75,23.77a.9.9,0,0,1,.95-.95,1,1,0,0,1,1,.9c0,1.57-.42,3.74-3.67,3.74-1,0-2.86-.08-2.86-2.44,0-.33,0-2.26,0-4.47l-1.61.36a1,1,0,0,1-.24,0,.91.91,0,0,1-.88-.95.87.87,0,0,1,.72-.88l2-.44c0-2.46,0-4.77,0-5.06a1,1,0,0,1,1.06-.92,1,1,0,0,1,1,1c0,.37,0,2.37,0,4.57l3.3-.7a.65.65,0,0,1,.2,0,.91.91,0,0,1,.85,1,.86.86,0,0,1-.68.86l-3.67.79c0,2.32-.05,4.41-.05,4.76.05.68.73.72,1,.72,1.34,0,1.54-.83,1.54-1.71v-.11Zm6.82-7.4c-.07,6.12-.79,11.84-6.67,14.88a1.41,1.41,0,0,1-.63.15,1.12,1.12,0,0,1-1.1-1.1,1,1,0,0,1,.59-.9c5.15-2.64,5.65-7.59,5.65-13-1,0-2,0-2.81.05h0a.92.92,0,0,1-1-1,.94.94,0,0,1,1-1c.92,0,2,0,3.12,0,1.54,0,3.13,0,4.38,0A2.36,2.36,0,0,1,221.5,17c0,1.12.09,2.42.09,3.74,0,4-.13,10.49-5.09,10.49a6.51,6.51,0,0,1-2-.33,1.14,1.14,0,0,1-.81-1.1,1,1,0,0,1,.95-1,1.24,1.24,0,0,1,.46.09,4,4,0,0,0,1.38.28c1.77,0,2.89-1.91,2.89-8.49,0-1.21,0-2.38-.09-3.37,0-.61-.35-.86-.81-.86Z"/><path class="cls-2" d="M233.58,28.37a18.53,18.53,0,0,1-2.4,1.49c-1.37.71-3.46.35-3.21-2.59a8.59,8.59,0,0,1,3.93-5.84c.29-.17.6-.35.93-.52.06-.84.15-1.72.26-2.62a8.38,8.38,0,0,1-2.75-.22,1,1,0,1,1,.62-1.94,6.66,6.66,0,0,0,2.37.18c.09-.64.2-1.3.29-2,.24-1.63,2.38-1.28,2.13,0-.08.55-.19,1.1-.28,1.61a22.54,22.54,0,0,0,3-.86c1.28-.48,2.24,1.39.5,2a27.13,27.13,0,0,1-3.8,1c-.11.7-.2,1.34-.29,2a8.84,8.84,0,0,1,2.31-.49h.27v0c.15-1.3,2.17-.88,2.09.17,6.42,1.17,6.09,9.27-1.41,11.73-2,.66-2.53-1.38-.73-2,5.48-1.78,5.7-7,1.72-8a14.23,14.23,0,0,1-3.81,5.48c.07.15.16.3.24.44.77,1.27-1.05,2.68-1.89,1.12ZM232.72,23a6.24,6.24,0,0,0-2.82,4.14c-.06.88.53,1,1.1.66a16.41,16.41,0,0,0,2-1.28A17.44,17.44,0,0,1,232.72,23Zm4.2-1.63a9.6,9.6,0,0,0-2.27.6,15.35,15.35,0,0,0,0,3A10.29,10.29,0,0,0,237,21.32Z"/><path class="cls-2" d="M257.14,29.88A10.14,10.14,0,0,0,261,18.31c-.73-2.2-2.82-1.39-3.46,0a7.26,7.26,0,0,0-.57,4.16c.11,2.13-2.27,2.11-2.4.53a19.43,19.43,0,0,1,.51-5.09c.24-1.12.66-2.57.83-3.91a1.11,1.11,0,0,1,2.2.19,6.52,6.52,0,0,1-.57,2c-.28.59-.06.31.16,0,1.6-2.07,4.46-1.16,5.36,1.32a12,12,0,0,1-4.35,14C256.9,32.92,255.29,31.09,257.14,29.88Z"/><path class="cls-2" d="M281.65,18.75a18.8,18.8,0,0,1-3.46.26c-1.69,0-1.78-2.33.22-2.09a12.62,12.62,0,0,0,3.41-.15c0-1.17,0-2.2,0-2.9a1.13,1.13,0,0,1,2.25,0c-.07.8-.11,1.68-.14,2.56.47-.09,1-.22,1.5-.33,1.45-.33,2.05,1.71.13,2-.59.09-1.14.2-1.65.29,0,.81,0,1.62,0,2.44.53-.16,1.08-.31,1.68-.51,1.62-.53,2.46,1.5.5,2.05-.77.22-1.47.42-2.11.57,0,.75.09,1.43.15,2.07s.14,1.39.18,2.18a10.27,10.27,0,0,1,2.73,1.56c1.47,1.21,0,3.21-1.34,1.94a10.49,10.49,0,0,0-1.61-1.19,4.49,4.49,0,0,1-6.16,2c-2.09-1-2.22-3.5.18-4.51a7.37,7.37,0,0,1,4.2-.37c0-.47-.07-.93-.11-1.43s-.09-1.15-.13-1.83a11.83,11.83,0,0,1-4,.24,1.09,1.09,0,1,1,.46-2.11,9.48,9.48,0,0,0,3.44-.2c-.05-.84-.09-1.69-.11-2.55Zm-2.84,9.81a.67.67,0,0,0-.07,1.26,2.44,2.44,0,0,0,3.39-1.23A4.8,4.8,0,0,0,278.81,28.56Z"/><path class="cls-2" d="M300.26,23.33l-3.43,1.08c-1.74.5-2.34-1.83-.51-2.27,1-.24,2.62-.66,3.59-.88l.61-.13v-.29c0-1.28-.11-2.18-.15-3.12a1.16,1.16,0,0,1,2.31-.09c0,.7,0,1.71-.07,2.75l0,.28c1.45-.3,3.28-.68,5.08-1,0-.66,0-1.27,0-1.82a8.78,8.78,0,0,0,0-.88c0-.18,0-.38,0-.86a1.1,1.1,0,0,1,2.2,0c0,.75-.05,1.39-.09,2,0,.38-.05.82-.07,1.26.2,0,.38-.07.58-.09a20.85,20.85,0,0,1,3.65-.24c1.8.11,1.45,2.26-.33,2.15a21.44,21.44,0,0,0-3.1.05c-.31,0-.6.06-.91.09,0,.37-.08.77-.13,1.14a5,5,0,0,1-1.69,3.57,1.93,1.93,0,0,1-2.71-.33,8.79,8.79,0,0,1-.86-1.17c-.57-1,.62-2,1.48-.9.63.83,1,.72,1.32.26a5.34,5.34,0,0,0,.63-2.33,49.56,49.56,0,0,0-5,1.06c0,1,0,2.09.11,2.86.18,2.37.88,3.12,2.73,3.16a12.05,12.05,0,0,0,3.59-.59,1.13,1.13,0,1,1,.61,2.16,13.48,13.48,0,0,1-4.55.37c-2.89-.31-3.94-1.67-4.25-4.66-.09-.8-.15-1.81-.2-2.73Z"/><path class="cls-2" d="M327.91,27.55c0-1,.16-1.63.11-2.62-.11-2.44-3.45-.37-4.07.73a11.43,11.43,0,0,0-1.38,3c-.4,1.7-.88,1.81-1.32,1.87a1.16,1.16,0,0,1-1.3-1.69,38.4,38.4,0,0,1,3.52-6.67c1.27-2,2.42-3.85,3.5-5.57.37-.61,1-1.38,1.21-1.82a1.18,1.18,0,0,1,2,1.19,6.44,6.44,0,0,1-.5.77c-.18.22-.4.46-.64.74a31.34,31.34,0,0,0-2.33,2.93c-.58.81-1,1.52-1.5,2.25-.15.22-.09.17.07,0,.79-.71,4.59-1.74,4.9,2,.07.86-.11,1.61-.11,2.42,0,2,1.89,1.72,3.19.55a7.44,7.44,0,0,0,2-3.08c.63-1.63,2.94-.51,2.11,1.14a10.93,10.93,0,0,1-2.77,3.66C332.27,31.23,327.87,31.71,327.91,27.55Z"/><path class="cls-2" d="M343.88,32.08a2.51,2.51,0,1,1,2.51-2.5A2.5,2.5,0,0,1,343.88,32.08Zm0-4.15a1.65,1.65,0,0,0-1.67,1.65,1.68,1.68,0,0,0,3.35,0A1.65,1.65,0,0,0,343.88,27.93Z"/></g></g></svg>