<svg xmlns="http://www.w3.org/2000/svg" viewBox="0 0 351.5 37.36"><defs><style>.cls-1{fill:#fff;}.cls-2,.cls-3{fill:none;}.cls-2{stroke:#fff;stroke-width:1.19px;}.cls-3{stroke:#edd098;stroke-linecap:round;stroke-linejoin:round;stroke-width:2px;}</style></defs><title>Asset 4</title><g id="Layer_2" data-name="Layer 2"><g id="Layer_1-2" data-name="Layer 1"><path class="cls-1" d="M63.87,23.43c0-2,0-4,0-6.3-.13-2.78-.25-5.51-.34-7.31A15.85,15.85,0,0,0,63,5.87,3.26,3.26,0,0,0,61.35,4.1c-.54-.29-.92-.63-.75-1.09s.79-.38,1.55-.29A4.32,4.32,0,0,1,64.84,4a3.91,3.91,0,0,1,1,2.94c0,1.18-.3,3.23-.38,4.79a11,11,0,0,0,2.26.25,5.47,5.47,0,0,0,2.69-.59,1.74,1.74,0,0,1,1.85.3c.38.37.13,1-.08,1.38a2.68,2.68,0,0,1-1.6,1.14,9.7,9.7,0,0,1-2.69,0,19.77,19.77,0,0,1-2.43-.42c0,1.21.08,2.47.17,3.48.12,1.39.16,3.87.21,4.67.08.37.12,1.13.21,2a10.51,10.51,0,0,0,1.3.34,25.5,25.5,0,0,1,5.29,2.22,4.23,4.23,0,0,1,2.14,2.23c.09.5-.29,1.05-1.51,1.13a4.11,4.11,0,0,1-2.65-.71,18.19,18.19,0,0,0-2.73-1.93,9.61,9.61,0,0,0-1.72-.76v.84a5,5,0,0,1-2.86,4.45c-1.89,1.1-5.37.93-7.6.09s-3.49-2.35-3.61-3.91.75-2.9,2.6-3.82a13.11,13.11,0,0,1,6.6-1c.88.08,1.76.21,2.6.34m-.08,2.27a3,3,0,0,1-.63-.09,17.21,17.21,0,0,0-5.3-.5c-2.26.17-4,.84-4,2.48,0,1.47,1.56,2.1,3.49,2.56a7,7,0,0,0,5-.8c1-.8,1.3-2,1.43-3.65"/><path class="cls-2" d="M63.87,23.43c0-2,0-4,0-6.3-.13-2.78-.25-5.51-.34-7.31A15.85,15.85,0,0,0,63,5.87,3.26,3.26,0,0,0,61.35,4.1c-.54-.29-.92-.63-.75-1.09s.79-.38,1.55-.29A4.32,4.32,0,0,1,64.84,4a3.91,3.91,0,0,1,1,2.94c0,1.18-.3,3.23-.38,4.79a11,11,0,0,0,2.26.25,5.47,5.47,0,0,0,2.69-.59,1.74,1.74,0,0,1,1.85.3c.38.37.13,1-.08,1.38a2.68,2.68,0,0,1-1.6,1.14,9.7,9.7,0,0,1-2.69,0,19.77,19.77,0,0,1-2.43-.42c0,1.21.08,2.47.17,3.48.12,1.39.16,3.87.21,4.67.08.37.12,1.13.21,2a10.51,10.51,0,0,0,1.3.34,25.5,25.5,0,0,1,5.29,2.22,4.23,4.23,0,0,1,2.14,2.23c.09.5-.29,1.05-1.51,1.13a4.11,4.11,0,0,1-2.65-.71,18.19,18.19,0,0,0-2.73-1.93,9.61,9.61,0,0,0-1.72-.76v.84a5,5,0,0,1-2.86,4.45c-1.89,1.1-5.37.93-7.6.09s-3.49-2.35-3.61-3.91.75-2.9,2.6-3.82a13.11,13.11,0,0,1,6.6-1C62.15,23.17,63,23.3,63.87,23.43Zm-.08,2.27a3,3,0,0,1-.63-.09,17.21,17.21,0,0,0-5.3-.5c-2.26.17-4,.84-4,2.48,0,1.47,1.56,2.1,3.49,2.56a7,7,0,0,0,5-.8C63.37,28.55,63.66,27.38,63.79,25.7Z"/><path class="cls-1" d="M104.74,13.93a8,8,0,0,0-1.09,3.16c0,.5.75,1.21,1.26,1.88s1.63,2.06,2.77,3.41a26.62,26.62,0,0,1,2.9,4.28,10.89,10.89,0,0,1,1.34,4.58c0,1.26-.33,2-1,2.06a1.28,1.28,0,0,1-1.47-1.13c-.21-.8-.46-1.69-.84-3.07a26.21,26.21,0,0,0-2.06-4.54,34,34,0,0,0-2.68-4.28c-.59-.88-1.64-2-1.73-3a9.62,9.62,0,0,1,1.39-4.16,41.56,41.56,0,0,1,3.36-5c1-1.22,2.52-2.86,2.9-3.41A2.14,2.14,0,0,0,109.86,3c-.08-.46-.12-.88.21-1.09.51-.25,1.09.17,1.68.75a2.69,2.69,0,0,1,.93,2.15,3.44,3.44,0,0,1-1.35,2.27c-.84.75-2.43,1.89-3.53,2.89a18.66,18.66,0,0,0-3.06,4"/><path class="cls-2" d="M104.74,13.93a8,8,0,0,0-1.09,3.16c0,.5.75,1.21,1.26,1.88s1.63,2.06,2.77,3.41a26.62,26.62,0,0,1,2.9,4.28,10.89,10.89,0,0,1,1.34,4.58c0,1.26-.33,2-1,2.06a1.28,1.28,0,0,1-1.47-1.13c-.21-.8-.46-1.69-.84-3.07a26.21,26.21,0,0,0-2.06-4.54,34,34,0,0,0-2.68-4.28c-.59-.88-1.64-2-1.73-3a9.62,9.62,0,0,1,1.39-4.16,41.56,41.56,0,0,1,3.36-5c1-1.22,2.52-2.86,2.9-3.41A2.14,2.14,0,0,0,109.86,3c-.08-.46-.12-.88.21-1.09.51-.25,1.09.17,1.68.75a2.69,2.69,0,0,1,.93,2.15,3.44,3.44,0,0,1-1.35,2.27c-.84.75-2.43,1.89-3.53,2.89A18.66,18.66,0,0,0,104.74,13.93Z"/><path class="cls-1" d="M137.87,23.55A13.2,13.2,0,0,1,142.28,17a13.71,13.71,0,0,1,3.66-2.1s0-.13,0-.17c0-1,.13-2.81.21-4a6.34,6.34,0,0,1-3.57-.38c-.71-.38-1.13-1.05-.88-1.34.33-.47,1.13,0,1.47.08a3.79,3.79,0,0,0,1.68.3,8.13,8.13,0,0,0,1.38-.17c0-1.14.13-3.41.13-4.08a2,2,0,0,0-.88-1.64.81.81,0,0,1-.3-1.09c.3-.33,1.31.13,1.89.51a3,3,0,0,1,1.35,1.47,5.46,5.46,0,0,1-.13,2.14c0,.5-.12,1.26-.12,2.06a9.1,9.1,0,0,0,1.51-1,4.35,4.35,0,0,1,1.76-1.18,1.81,1.81,0,0,1,1.81.13c.42.29.34.75,0,1.3a6.58,6.58,0,0,1-2.44,1.64c-.8.29-1.68.59-2.65.84v.25c0,.93,0,2.4-.08,3.74a7.08,7.08,0,0,1,1.26-.29,2.09,2.09,0,0,0-.13-.38c-.33-.55-.54-1.09-.29-1.26.38-.34.88,0,1.18.46a2.31,2.31,0,0,1,.46,1,16.82,16.82,0,0,1,8.57,1,7.29,7.29,0,0,1,4.54,6.09A8.91,8.91,0,0,1,161,28.68a15,15,0,0,1-7.23,3.65,27.79,27.79,0,0,1-6,.51c-.55,0-.8-.3-.8-.51s.34-.33.71-.37a35.15,35.15,0,0,0,5.84-.84,11.25,11.25,0,0,0,6.89-4.88A7.83,7.83,0,0,0,161,19a6.13,6.13,0,0,0-4.54-3.32,17.1,17.1,0,0,0-5.71-.25c0,1.72-.34,3.15-1.64,5.75-.34.67-.67,1.26-1,1.85,0,.84.09,1.64.09,2.18a4.59,4.59,0,0,1-.42,2.65,1.2,1.2,0,0,1-1.56.67c-.37-.17-.29-1-.33-1.93v-.17c-.42.51-.84,1.05-1.3,1.56-1.35,1.55-3.66,2.6-5.46,1.59s-1.94-3.61-1.31-6.05m2.52,3.28c.84.5,2.36,0,3.11-.76a20.18,20.18,0,0,0,2.4-2.56V21c0-.63,0-2.6,0-4.29a10.65,10.65,0,0,0-2.19,1.39,10,10,0,0,0-3.36,4.45c-.63,1.73-.84,3.78,0,4.33M149.47,16c0-.12,0-.25,0-.38a14.4,14.4,0,0,0-1.43.3c0,1.26,0,3,0,4.07a4,4,0,0,0,.21-.37A12.44,12.44,0,0,0,149.47,16"/><path class="cls-2" d="M137.87,23.55A13.2,13.2,0,0,1,142.28,17a13.71,13.71,0,0,1,3.66-2.1s0-.13,0-.17c0-1,.13-2.81.21-4a6.34,6.34,0,0,1-3.57-.38c-.71-.38-1.13-1.05-.88-1.34.33-.47,1.13,0,1.47.08a3.79,3.79,0,0,0,1.68.3,8.13,8.13,0,0,0,1.38-.17c0-1.14.13-3.41.13-4.08a2,2,0,0,0-.88-1.64.81.81,0,0,1-.3-1.09c.3-.33,1.31.13,1.89.51a3,3,0,0,1,1.35,1.47,5.46,5.46,0,0,1-.13,2.14c0,.5-.12,1.26-.12,2.06a9.1,9.1,0,0,0,1.51-1,4.35,4.35,0,0,1,1.76-1.18,1.81,1.81,0,0,1,1.81.13c.42.29.34.75,0,1.3a6.58,6.58,0,0,1-2.44,1.64c-.8.29-1.68.59-2.65.84v.25c0,.93,0,2.4-.08,3.74a7.08,7.08,0,0,1,1.26-.29,2.09,2.09,0,0,0-.13-.38c-.33-.55-.54-1.09-.29-1.26.38-.34.88,0,1.18.46a2.31,2.31,0,0,1,.46,1,16.82,16.82,0,0,1,8.57,1,7.29,7.29,0,0,1,4.54,6.09A8.91,8.91,0,0,1,161,28.68a15,15,0,0,1-7.23,3.65,27.79,27.79,0,0,1-6,.51c-.55,0-.8-.3-.8-.51s.34-.33.71-.37a35.15,35.15,0,0,0,5.84-.84,11.25,11.25,0,0,0,6.89-4.88A7.83,7.83,0,0,0,161,19a6.13,6.13,0,0,0-4.54-3.32,17.1,17.1,0,0,0-5.71-.25c0,1.72-.34,3.15-1.64,5.75-.34.67-.67,1.26-1,1.85,0,.84.09,1.64.09,2.18a4.59,4.59,0,0,1-.42,2.65,1.2,1.2,0,0,1-1.56.67c-.37-.17-.29-1-.33-1.93v-.17c-.42.51-.84,1.05-1.3,1.56-1.35,1.55-3.66,2.6-5.46,1.59S137.24,26,137.87,23.55Zm2.52,3.28c.84.5,2.36,0,3.11-.76a20.18,20.18,0,0,0,2.4-2.56V21c0-.63,0-2.6,0-4.29a10.65,10.65,0,0,0-2.19,1.39,10,10,0,0,0-3.36,4.45C139.76,24.23,139.55,26.28,140.39,26.83ZM149.47,16c0-.12,0-.25,0-.38a14.4,14.4,0,0,0-1.43.3c0,1.26,0,3,0,4.07a4,4,0,0,0,.21-.37A12.44,12.44,0,0,0,149.47,16Z"/><path class="cls-1" d="M204.32,27.84a10.73,10.73,0,0,1-5.58,3.32,14.52,14.52,0,0,1-6.73,0c-2.56-.55-3.57-1.43-3.57-2.69s1.6-2.27,3-2.52a5.25,5.25,0,0,1,4.36.8,2.12,2.12,0,0,1,.55,2.9,10.28,10.28,0,0,0,5.25-1.94,6.54,6.54,0,0,0,2.4-5.16,6.19,6.19,0,0,0-3.74-5.34,10.4,10.4,0,0,0-7.48-.25,10.56,10.56,0,0,0-5.59,3.82,17.06,17.06,0,0,0-2.52,4.71,3,3,0,0,1-1.26,2,1.12,1.12,0,0,1-1.38-.21,2.32,2.32,0,0,1-.47-1.85,10.52,10.52,0,0,1,1.85-2.85c.8-1,1.89-2.56,3.32-4.12s3.7-4.33,4.62-5.38,3.78-4.57,4.24-5.2.68-1.06.47-1.22-.93.08-1.35.33S192.18,8.52,191,9.19a6.51,6.51,0,0,1-3.15.92,3.2,3.2,0,0,1-2.19-.92,1.47,1.47,0,0,1-.46-1.35.66.66,0,0,1,.92-.33,6.48,6.48,0,0,0,1.43.25,4.74,4.74,0,0,0,2.35-.59,47.77,47.77,0,0,0,4.37-2.06,9.23,9.23,0,0,1,3.11-1.34,3,3,0,0,1,2.23,1.09,1.4,1.4,0,0,1,.5,1.35c-.08.37-.29.58-.88,1a20.2,20.2,0,0,0-3,2.56c-1.14,1.18-2.52,2.9-3.53,4,0,0-1,1.1-3,3.15a9,9,0,0,1,2.32-1.17,12.06,12.06,0,0,1,5.5-.72,11.06,11.06,0,0,1,5.54,2,7,7,0,0,1,3.07,5.25,6.82,6.82,0,0,1-1.85,5.59m-12.1-.67c-1.34,0-2.18.84-1.59,1.68.33.46,1.38.88,3.15.92,1.64-1.47.17-2.6-1.56-2.6"/><path class="cls-2" d="M204.32,27.84a10.73,10.73,0,0,1-5.58,3.32,14.52,14.52,0,0,1-6.73,0c-2.56-.55-3.57-1.43-3.57-2.69s1.6-2.27,3-2.52a5.25,5.25,0,0,1,4.36.8,2.12,2.12,0,0,1,.55,2.9,10.28,10.28,0,0,0,5.25-1.94,6.54,6.54,0,0,0,2.4-5.16,6.19,6.19,0,0,0-3.74-5.34,10.4,10.4,0,0,0-7.48-.25,10.56,10.56,0,0,0-5.59,3.82,17.06,17.06,0,0,0-2.52,4.71,3,3,0,0,1-1.26,2,1.12,1.12,0,0,1-1.38-.21,2.32,2.32,0,0,1-.47-1.85,10.52,10.52,0,0,1,1.85-2.85c.8-1,1.89-2.56,3.32-4.12s3.7-4.33,4.62-5.38,3.78-4.57,4.24-5.2.68-1.06.47-1.22-.93.08-1.35.33S192.18,8.52,191,9.19a6.51,6.51,0,0,1-3.15.92,3.2,3.2,0,0,1-2.19-.92,1.47,1.47,0,0,1-.46-1.35.66.66,0,0,1,.92-.33,6.48,6.48,0,0,0,1.43.25,4.74,4.74,0,0,0,2.35-.59,47.77,47.77,0,0,0,4.37-2.06,9.23,9.23,0,0,1,3.11-1.34,3,3,0,0,1,2.23,1.09,1.4,1.4,0,0,1,.5,1.35c-.08.37-.29.58-.88,1a20.2,20.2,0,0,0-3,2.56c-1.14,1.18-2.52,2.9-3.53,4,0,0-1,1.1-3,3.15a9,9,0,0,1,2.32-1.17,12.06,12.06,0,0,1,5.5-.72,11.06,11.06,0,0,1,5.54,2,7,7,0,0,1,3.07,5.25A6.82,6.82,0,0,1,204.32,27.84Zm-12.1-.67c-1.34,0-2.18.84-1.59,1.68.33.46,1.38.88,3.15.92C195.42,28.3,194,27.17,192.22,27.17Z"/><path class="cls-1" d="M225.57,6.5h8.28l1.59-1.89.21.21c.34.33.93,1,1.77,1.93l-.42.72h-4.42v5.71h-2.09V7.47h-5a10.86,10.86,0,0,1-4.75,8.4l-.63-.63a13.56,13.56,0,0,0,3.28-9.5v-4a21.24,21.24,0,0,1,2.31,1A41.38,41.38,0,0,0,234.06.7c1.34.88,2,1.56,2,1.93,0,.21-.25.34-.71.34a5,5,0,0,1-1.1-.17,85.34,85.34,0,0,1-8.65.93Zm-5.46,27.3a31.39,31.39,0,0,0,11.51-5.29c1.93,1,2.9,1.64,2.9,2.06,0,.25-.34.38-1,.38a6.28,6.28,0,0,1-1-.09,45.07,45.07,0,0,1-11.92,3.87Zm7.94-19.36h18l1.38-1.39c1.47.93,2.19,1.56,2.19,1.93,0,.13-.09.3-.34.51l-.75.54V28.34h-2.19v-.92H227.63v1.47h-2.19V13.35c.93.37,1.68.67,2.19.92Zm18.27,1H227.63v2.82h18.69Zm0,3.78H227.63v3.07h18.69Zm0,4H227.63v3.27h18.69ZM249.77,6.5l1.68-2a17.66,17.66,0,0,1,2.14,2.23l-.38.72h-5.67v5.37H245.4V7.47h-5A8.47,8.47,0,0,1,235.86,14l-.59-.68a9.58,9.58,0,0,0,3.15-7.68V1.79c.8.3,1.56.59,2.15.84A38.24,38.24,0,0,0,249.64.7c1.43.93,2.14,1.56,2.14,1.93s-.21.38-.67.38a7.88,7.88,0,0,1-1.26-.17,63,63,0,0,1-9.28.76v2c0,.42,0,.72,0,.93ZM240,28.55c8.91,1.3,13.32,2.86,13.32,4.67,0,.79-.38,1.21-1.05,1.21a1.7,1.7,0,0,1-1-.33,41.17,41.17,0,0,0-11.76-4.67Z"/><path class="cls-2" d="M225.57,6.5h8.28l1.59-1.89.21.21c.34.33.93,1,1.77,1.93l-.42.72h-4.42v5.71h-2.09V7.47h-5a10.86,10.86,0,0,1-4.75,8.4l-.63-.63a13.56,13.56,0,0,0,3.28-9.5v-4a21.24,21.24,0,0,1,2.31,1A41.38,41.38,0,0,0,234.06.7c1.34.88,2,1.56,2,1.93,0,.21-.25.34-.71.34a5,5,0,0,1-1.1-.17,85.34,85.34,0,0,1-8.65.93Zm-5.46,27.3a31.39,31.39,0,0,0,11.51-5.29c1.93,1,2.9,1.64,2.9,2.06,0,.25-.34.38-1,.38a6.28,6.28,0,0,1-1-.09,45.07,45.07,0,0,1-11.92,3.87Zm7.94-19.36h18l1.38-1.39c1.47.93,2.19,1.56,2.19,1.93,0,.13-.09.3-.34.51l-.75.54V28.34h-2.19v-.92H227.63v1.47h-2.19V13.35c.93.37,1.68.67,2.19.92Zm18.27,1H227.63v2.82h18.69Zm0,3.78H227.63v3.07h18.69Zm0,4H227.63v3.27h18.69ZM249.77,6.5l1.68-2a17.66,17.66,0,0,1,2.14,2.23l-.38.72h-5.67v5.37H245.4V7.47h-5A8.47,8.47,0,0,1,235.86,14l-.59-.68a9.58,9.58,0,0,0,3.15-7.68V1.79c.8.3,1.56.59,2.15.84A38.24,38.24,0,0,0,249.64.7c1.43.93,2.14,1.56,2.14,1.93s-.21.38-.67.38a7.88,7.88,0,0,1-1.26-.17,63,63,0,0,1-9.28.76v2c0,.42,0,.72,0,.93ZM240,28.55c8.91,1.3,13.32,2.86,13.32,4.67,0,.79-.38,1.21-1.05,1.21a1.7,1.7,0,0,1-1-.33,41.17,41.17,0,0,0-11.76-4.67Z"/><path class="cls-1" d="M267.86,2.55h7.82L277,.91c1.38,1.09,2.1,1.81,2.1,2.1a.51.51,0,0,1-.3.46l-.71.59V14.73h-2.14V12.84h-8.45v21.8h-2.26V1.25a23,23,0,0,1,2.14,1Zm-.38,4.58h8.45V3.47h-8.45Zm0,4.79h8.45V8.05h-8.45Zm16.81,6.17,1.34-1.64c1.52,1.05,2.27,1.81,2.27,2.23a.59.59,0,0,1-.33.5l-.85.51V29h-2.09V27.08h-9.29v2.31h-2.1V17a22.85,22.85,0,0,1,2.69,1.09Zm-9,8h9.29V19h-9.29ZM292.9,2.55,294.33.83c1.47,1.17,2.18,1.93,2.18,2.27a.54.54,0,0,1-.29.46l-.8.59v27.3A2.34,2.34,0,0,1,294,34a7.82,7.82,0,0,1-2.35.42,1.57,1.57,0,0,0-.84-1.43,18.66,18.66,0,0,0-4.41-1V31c2.14.17,4,.29,5.58.29.8,0,1.22-.37,1.22-1.13V12.84h-8.86v1.77h-2.14V1.46c1.13.42,2,.8,2.6,1.09Zm-8.61,4.58h8.86V3.47h-8.86Zm8.86.92h-8.86v3.87h8.86Z"/><path class="cls-2" d="M267.86,2.55h7.82L277,.91c1.38,1.09,2.1,1.81,2.1,2.1a.51.51,0,0,1-.3.46l-.71.59V14.73h-2.14V12.84h-8.45v21.8h-2.26V1.25a23,23,0,0,1,2.14,1Zm-.38,4.58h8.45V3.47h-8.45Zm0,4.79h8.45V8.05h-8.45Zm16.81,6.17,1.34-1.64c1.52,1.05,2.27,1.81,2.27,2.23a.59.59,0,0,1-.33.5l-.85.51V29h-2.09V27.08h-9.29v2.31h-2.1V17a22.85,22.85,0,0,1,2.69,1.09Zm-9,8h9.29V19h-9.29ZM292.9,2.55,294.33.83c1.47,1.17,2.18,1.93,2.18,2.27a.54.54,0,0,1-.29.46l-.8.59v27.3A2.34,2.34,0,0,1,294,34a7.82,7.82,0,0,1-2.35.42,1.57,1.57,0,0,0-.84-1.43,18.66,18.66,0,0,0-4.41-1V31c2.14.17,4,.29,5.58.29.8,0,1.22-.37,1.22-1.13V12.84h-8.86v1.77h-2.14V1.46c1.13.42,2,.8,2.6,1.09Zm-8.61,4.58h8.86V3.47h-8.86Zm8.86.92h-8.86v3.87h8.86Z"/><line class="cls-3" x1="18" y1="14.36" x2="32" y2="33.36"/><line class="cls-3" x1="1" y1="11.36" x2="26" y2="36.36"/><line class="cls-3" x1="333.5" y1="14.36" x2="319.5" y2="33.36"/><line class="cls-3" x1="350.5" y1="11.36" x2="325.5" y2="36.36"/></g></g></svg>